G75*
%MOIN*%
%OFA0B0*%
%FSLAX25Y25*%
%IPPOS*%
%LPD*%
%AMOC8*
5,1,8,0,0,1.08239X$1,22.5*
%
%ADD10C,0.00000*%
%ADD11C,0.00004*%
D10*
X0025974Y0032492D02*
X0025976Y0032650D01*
X0025982Y0032808D01*
X0025992Y0032966D01*
X0026006Y0033124D01*
X0026024Y0033281D01*
X0026045Y0033438D01*
X0026071Y0033594D01*
X0026101Y0033750D01*
X0026134Y0033905D01*
X0026172Y0034058D01*
X0026213Y0034211D01*
X0026258Y0034363D01*
X0026307Y0034514D01*
X0026360Y0034663D01*
X0026416Y0034811D01*
X0026476Y0034957D01*
X0026540Y0035102D01*
X0026608Y0035245D01*
X0026679Y0035387D01*
X0026753Y0035527D01*
X0026831Y0035664D01*
X0026913Y0035800D01*
X0026997Y0035934D01*
X0027086Y0036065D01*
X0027177Y0036194D01*
X0027272Y0036321D01*
X0027369Y0036446D01*
X0027470Y0036568D01*
X0027574Y0036687D01*
X0027681Y0036804D01*
X0027791Y0036918D01*
X0027904Y0037029D01*
X0028019Y0037138D01*
X0028137Y0037243D01*
X0028258Y0037345D01*
X0028381Y0037445D01*
X0028507Y0037541D01*
X0028635Y0037634D01*
X0028765Y0037724D01*
X0028898Y0037810D01*
X0029033Y0037894D01*
X0029169Y0037973D01*
X0029308Y0038050D01*
X0029449Y0038122D01*
X0029591Y0038192D01*
X0029735Y0038257D01*
X0029881Y0038319D01*
X0030028Y0038377D01*
X0030177Y0038432D01*
X0030327Y0038483D01*
X0030478Y0038530D01*
X0030630Y0038573D01*
X0030783Y0038612D01*
X0030938Y0038648D01*
X0031093Y0038679D01*
X0031249Y0038707D01*
X0031405Y0038731D01*
X0031562Y0038751D01*
X0031720Y0038767D01*
X0031877Y0038779D01*
X0032036Y0038787D01*
X0032194Y0038791D01*
X0032352Y0038791D01*
X0032510Y0038787D01*
X0032669Y0038779D01*
X0032826Y0038767D01*
X0032984Y0038751D01*
X0033141Y0038731D01*
X0033297Y0038707D01*
X0033453Y0038679D01*
X0033608Y0038648D01*
X0033763Y0038612D01*
X0033916Y0038573D01*
X0034068Y0038530D01*
X0034219Y0038483D01*
X0034369Y0038432D01*
X0034518Y0038377D01*
X0034665Y0038319D01*
X0034811Y0038257D01*
X0034955Y0038192D01*
X0035097Y0038122D01*
X0035238Y0038050D01*
X0035377Y0037973D01*
X0035513Y0037894D01*
X0035648Y0037810D01*
X0035781Y0037724D01*
X0035911Y0037634D01*
X0036039Y0037541D01*
X0036165Y0037445D01*
X0036288Y0037345D01*
X0036409Y0037243D01*
X0036527Y0037138D01*
X0036642Y0037029D01*
X0036755Y0036918D01*
X0036865Y0036804D01*
X0036972Y0036687D01*
X0037076Y0036568D01*
X0037177Y0036446D01*
X0037274Y0036321D01*
X0037369Y0036194D01*
X0037460Y0036065D01*
X0037549Y0035934D01*
X0037633Y0035800D01*
X0037715Y0035664D01*
X0037793Y0035527D01*
X0037867Y0035387D01*
X0037938Y0035245D01*
X0038006Y0035102D01*
X0038070Y0034957D01*
X0038130Y0034811D01*
X0038186Y0034663D01*
X0038239Y0034514D01*
X0038288Y0034363D01*
X0038333Y0034211D01*
X0038374Y0034058D01*
X0038412Y0033905D01*
X0038445Y0033750D01*
X0038475Y0033594D01*
X0038501Y0033438D01*
X0038522Y0033281D01*
X0038540Y0033124D01*
X0038554Y0032966D01*
X0038564Y0032808D01*
X0038570Y0032650D01*
X0038572Y0032492D01*
X0038570Y0032334D01*
X0038564Y0032176D01*
X0038554Y0032018D01*
X0038540Y0031860D01*
X0038522Y0031703D01*
X0038501Y0031546D01*
X0038475Y0031390D01*
X0038445Y0031234D01*
X0038412Y0031079D01*
X0038374Y0030926D01*
X0038333Y0030773D01*
X0038288Y0030621D01*
X0038239Y0030470D01*
X0038186Y0030321D01*
X0038130Y0030173D01*
X0038070Y0030027D01*
X0038006Y0029882D01*
X0037938Y0029739D01*
X0037867Y0029597D01*
X0037793Y0029457D01*
X0037715Y0029320D01*
X0037633Y0029184D01*
X0037549Y0029050D01*
X0037460Y0028919D01*
X0037369Y0028790D01*
X0037274Y0028663D01*
X0037177Y0028538D01*
X0037076Y0028416D01*
X0036972Y0028297D01*
X0036865Y0028180D01*
X0036755Y0028066D01*
X0036642Y0027955D01*
X0036527Y0027846D01*
X0036409Y0027741D01*
X0036288Y0027639D01*
X0036165Y0027539D01*
X0036039Y0027443D01*
X0035911Y0027350D01*
X0035781Y0027260D01*
X0035648Y0027174D01*
X0035513Y0027090D01*
X0035377Y0027011D01*
X0035238Y0026934D01*
X0035097Y0026862D01*
X0034955Y0026792D01*
X0034811Y0026727D01*
X0034665Y0026665D01*
X0034518Y0026607D01*
X0034369Y0026552D01*
X0034219Y0026501D01*
X0034068Y0026454D01*
X0033916Y0026411D01*
X0033763Y0026372D01*
X0033608Y0026336D01*
X0033453Y0026305D01*
X0033297Y0026277D01*
X0033141Y0026253D01*
X0032984Y0026233D01*
X0032826Y0026217D01*
X0032669Y0026205D01*
X0032510Y0026197D01*
X0032352Y0026193D01*
X0032194Y0026193D01*
X0032036Y0026197D01*
X0031877Y0026205D01*
X0031720Y0026217D01*
X0031562Y0026233D01*
X0031405Y0026253D01*
X0031249Y0026277D01*
X0031093Y0026305D01*
X0030938Y0026336D01*
X0030783Y0026372D01*
X0030630Y0026411D01*
X0030478Y0026454D01*
X0030327Y0026501D01*
X0030177Y0026552D01*
X0030028Y0026607D01*
X0029881Y0026665D01*
X0029735Y0026727D01*
X0029591Y0026792D01*
X0029449Y0026862D01*
X0029308Y0026934D01*
X0029169Y0027011D01*
X0029033Y0027090D01*
X0028898Y0027174D01*
X0028765Y0027260D01*
X0028635Y0027350D01*
X0028507Y0027443D01*
X0028381Y0027539D01*
X0028258Y0027639D01*
X0028137Y0027741D01*
X0028019Y0027846D01*
X0027904Y0027955D01*
X0027791Y0028066D01*
X0027681Y0028180D01*
X0027574Y0028297D01*
X0027470Y0028416D01*
X0027369Y0028538D01*
X0027272Y0028663D01*
X0027177Y0028790D01*
X0027086Y0028919D01*
X0026997Y0029050D01*
X0026913Y0029184D01*
X0026831Y0029320D01*
X0026753Y0029457D01*
X0026679Y0029597D01*
X0026608Y0029739D01*
X0026540Y0029882D01*
X0026476Y0030027D01*
X0026416Y0030173D01*
X0026360Y0030321D01*
X0026307Y0030470D01*
X0026258Y0030621D01*
X0026213Y0030773D01*
X0026172Y0030926D01*
X0026134Y0031079D01*
X0026101Y0031234D01*
X0026071Y0031390D01*
X0026045Y0031546D01*
X0026024Y0031703D01*
X0026006Y0031860D01*
X0025992Y0032018D01*
X0025982Y0032176D01*
X0025976Y0032334D01*
X0025974Y0032492D01*
X0045993Y0063808D02*
X0045995Y0063966D01*
X0046001Y0064124D01*
X0046011Y0064282D01*
X0046025Y0064440D01*
X0046043Y0064597D01*
X0046064Y0064754D01*
X0046090Y0064910D01*
X0046120Y0065066D01*
X0046153Y0065221D01*
X0046191Y0065374D01*
X0046232Y0065527D01*
X0046277Y0065679D01*
X0046326Y0065830D01*
X0046379Y0065979D01*
X0046435Y0066127D01*
X0046495Y0066273D01*
X0046559Y0066418D01*
X0046627Y0066561D01*
X0046698Y0066703D01*
X0046772Y0066843D01*
X0046850Y0066980D01*
X0046932Y0067116D01*
X0047016Y0067250D01*
X0047105Y0067381D01*
X0047196Y0067510D01*
X0047291Y0067637D01*
X0047388Y0067762D01*
X0047489Y0067884D01*
X0047593Y0068003D01*
X0047700Y0068120D01*
X0047810Y0068234D01*
X0047923Y0068345D01*
X0048038Y0068454D01*
X0048156Y0068559D01*
X0048277Y0068661D01*
X0048400Y0068761D01*
X0048526Y0068857D01*
X0048654Y0068950D01*
X0048784Y0069040D01*
X0048917Y0069126D01*
X0049052Y0069210D01*
X0049188Y0069289D01*
X0049327Y0069366D01*
X0049468Y0069438D01*
X0049610Y0069508D01*
X0049754Y0069573D01*
X0049900Y0069635D01*
X0050047Y0069693D01*
X0050196Y0069748D01*
X0050346Y0069799D01*
X0050497Y0069846D01*
X0050649Y0069889D01*
X0050802Y0069928D01*
X0050957Y0069964D01*
X0051112Y0069995D01*
X0051268Y0070023D01*
X0051424Y0070047D01*
X0051581Y0070067D01*
X0051739Y0070083D01*
X0051896Y0070095D01*
X0052055Y0070103D01*
X0052213Y0070107D01*
X0052371Y0070107D01*
X0052529Y0070103D01*
X0052688Y0070095D01*
X0052845Y0070083D01*
X0053003Y0070067D01*
X0053160Y0070047D01*
X0053316Y0070023D01*
X0053472Y0069995D01*
X0053627Y0069964D01*
X0053782Y0069928D01*
X0053935Y0069889D01*
X0054087Y0069846D01*
X0054238Y0069799D01*
X0054388Y0069748D01*
X0054537Y0069693D01*
X0054684Y0069635D01*
X0054830Y0069573D01*
X0054974Y0069508D01*
X0055116Y0069438D01*
X0055257Y0069366D01*
X0055396Y0069289D01*
X0055532Y0069210D01*
X0055667Y0069126D01*
X0055800Y0069040D01*
X0055930Y0068950D01*
X0056058Y0068857D01*
X0056184Y0068761D01*
X0056307Y0068661D01*
X0056428Y0068559D01*
X0056546Y0068454D01*
X0056661Y0068345D01*
X0056774Y0068234D01*
X0056884Y0068120D01*
X0056991Y0068003D01*
X0057095Y0067884D01*
X0057196Y0067762D01*
X0057293Y0067637D01*
X0057388Y0067510D01*
X0057479Y0067381D01*
X0057568Y0067250D01*
X0057652Y0067116D01*
X0057734Y0066980D01*
X0057812Y0066843D01*
X0057886Y0066703D01*
X0057957Y0066561D01*
X0058025Y0066418D01*
X0058089Y0066273D01*
X0058149Y0066127D01*
X0058205Y0065979D01*
X0058258Y0065830D01*
X0058307Y0065679D01*
X0058352Y0065527D01*
X0058393Y0065374D01*
X0058431Y0065221D01*
X0058464Y0065066D01*
X0058494Y0064910D01*
X0058520Y0064754D01*
X0058541Y0064597D01*
X0058559Y0064440D01*
X0058573Y0064282D01*
X0058583Y0064124D01*
X0058589Y0063966D01*
X0058591Y0063808D01*
X0058589Y0063650D01*
X0058583Y0063492D01*
X0058573Y0063334D01*
X0058559Y0063176D01*
X0058541Y0063019D01*
X0058520Y0062862D01*
X0058494Y0062706D01*
X0058464Y0062550D01*
X0058431Y0062395D01*
X0058393Y0062242D01*
X0058352Y0062089D01*
X0058307Y0061937D01*
X0058258Y0061786D01*
X0058205Y0061637D01*
X0058149Y0061489D01*
X0058089Y0061343D01*
X0058025Y0061198D01*
X0057957Y0061055D01*
X0057886Y0060913D01*
X0057812Y0060773D01*
X0057734Y0060636D01*
X0057652Y0060500D01*
X0057568Y0060366D01*
X0057479Y0060235D01*
X0057388Y0060106D01*
X0057293Y0059979D01*
X0057196Y0059854D01*
X0057095Y0059732D01*
X0056991Y0059613D01*
X0056884Y0059496D01*
X0056774Y0059382D01*
X0056661Y0059271D01*
X0056546Y0059162D01*
X0056428Y0059057D01*
X0056307Y0058955D01*
X0056184Y0058855D01*
X0056058Y0058759D01*
X0055930Y0058666D01*
X0055800Y0058576D01*
X0055667Y0058490D01*
X0055532Y0058406D01*
X0055396Y0058327D01*
X0055257Y0058250D01*
X0055116Y0058178D01*
X0054974Y0058108D01*
X0054830Y0058043D01*
X0054684Y0057981D01*
X0054537Y0057923D01*
X0054388Y0057868D01*
X0054238Y0057817D01*
X0054087Y0057770D01*
X0053935Y0057727D01*
X0053782Y0057688D01*
X0053627Y0057652D01*
X0053472Y0057621D01*
X0053316Y0057593D01*
X0053160Y0057569D01*
X0053003Y0057549D01*
X0052845Y0057533D01*
X0052688Y0057521D01*
X0052529Y0057513D01*
X0052371Y0057509D01*
X0052213Y0057509D01*
X0052055Y0057513D01*
X0051896Y0057521D01*
X0051739Y0057533D01*
X0051581Y0057549D01*
X0051424Y0057569D01*
X0051268Y0057593D01*
X0051112Y0057621D01*
X0050957Y0057652D01*
X0050802Y0057688D01*
X0050649Y0057727D01*
X0050497Y0057770D01*
X0050346Y0057817D01*
X0050196Y0057868D01*
X0050047Y0057923D01*
X0049900Y0057981D01*
X0049754Y0058043D01*
X0049610Y0058108D01*
X0049468Y0058178D01*
X0049327Y0058250D01*
X0049188Y0058327D01*
X0049052Y0058406D01*
X0048917Y0058490D01*
X0048784Y0058576D01*
X0048654Y0058666D01*
X0048526Y0058759D01*
X0048400Y0058855D01*
X0048277Y0058955D01*
X0048156Y0059057D01*
X0048038Y0059162D01*
X0047923Y0059271D01*
X0047810Y0059382D01*
X0047700Y0059496D01*
X0047593Y0059613D01*
X0047489Y0059732D01*
X0047388Y0059854D01*
X0047291Y0059979D01*
X0047196Y0060106D01*
X0047105Y0060235D01*
X0047016Y0060366D01*
X0046932Y0060500D01*
X0046850Y0060636D01*
X0046772Y0060773D01*
X0046698Y0060913D01*
X0046627Y0061055D01*
X0046559Y0061198D01*
X0046495Y0061343D01*
X0046435Y0061489D01*
X0046379Y0061637D01*
X0046326Y0061786D01*
X0046277Y0061937D01*
X0046232Y0062089D01*
X0046191Y0062242D01*
X0046153Y0062395D01*
X0046120Y0062550D01*
X0046090Y0062706D01*
X0046064Y0062862D01*
X0046043Y0063019D01*
X0046025Y0063176D01*
X0046011Y0063334D01*
X0046001Y0063492D01*
X0045995Y0063650D01*
X0045993Y0063808D01*
X0090993Y0063808D02*
X0090995Y0063966D01*
X0091001Y0064124D01*
X0091011Y0064282D01*
X0091025Y0064440D01*
X0091043Y0064597D01*
X0091064Y0064754D01*
X0091090Y0064910D01*
X0091120Y0065066D01*
X0091153Y0065221D01*
X0091191Y0065374D01*
X0091232Y0065527D01*
X0091277Y0065679D01*
X0091326Y0065830D01*
X0091379Y0065979D01*
X0091435Y0066127D01*
X0091495Y0066273D01*
X0091559Y0066418D01*
X0091627Y0066561D01*
X0091698Y0066703D01*
X0091772Y0066843D01*
X0091850Y0066980D01*
X0091932Y0067116D01*
X0092016Y0067250D01*
X0092105Y0067381D01*
X0092196Y0067510D01*
X0092291Y0067637D01*
X0092388Y0067762D01*
X0092489Y0067884D01*
X0092593Y0068003D01*
X0092700Y0068120D01*
X0092810Y0068234D01*
X0092923Y0068345D01*
X0093038Y0068454D01*
X0093156Y0068559D01*
X0093277Y0068661D01*
X0093400Y0068761D01*
X0093526Y0068857D01*
X0093654Y0068950D01*
X0093784Y0069040D01*
X0093917Y0069126D01*
X0094052Y0069210D01*
X0094188Y0069289D01*
X0094327Y0069366D01*
X0094468Y0069438D01*
X0094610Y0069508D01*
X0094754Y0069573D01*
X0094900Y0069635D01*
X0095047Y0069693D01*
X0095196Y0069748D01*
X0095346Y0069799D01*
X0095497Y0069846D01*
X0095649Y0069889D01*
X0095802Y0069928D01*
X0095957Y0069964D01*
X0096112Y0069995D01*
X0096268Y0070023D01*
X0096424Y0070047D01*
X0096581Y0070067D01*
X0096739Y0070083D01*
X0096896Y0070095D01*
X0097055Y0070103D01*
X0097213Y0070107D01*
X0097371Y0070107D01*
X0097529Y0070103D01*
X0097688Y0070095D01*
X0097845Y0070083D01*
X0098003Y0070067D01*
X0098160Y0070047D01*
X0098316Y0070023D01*
X0098472Y0069995D01*
X0098627Y0069964D01*
X0098782Y0069928D01*
X0098935Y0069889D01*
X0099087Y0069846D01*
X0099238Y0069799D01*
X0099388Y0069748D01*
X0099537Y0069693D01*
X0099684Y0069635D01*
X0099830Y0069573D01*
X0099974Y0069508D01*
X0100116Y0069438D01*
X0100257Y0069366D01*
X0100396Y0069289D01*
X0100532Y0069210D01*
X0100667Y0069126D01*
X0100800Y0069040D01*
X0100930Y0068950D01*
X0101058Y0068857D01*
X0101184Y0068761D01*
X0101307Y0068661D01*
X0101428Y0068559D01*
X0101546Y0068454D01*
X0101661Y0068345D01*
X0101774Y0068234D01*
X0101884Y0068120D01*
X0101991Y0068003D01*
X0102095Y0067884D01*
X0102196Y0067762D01*
X0102293Y0067637D01*
X0102388Y0067510D01*
X0102479Y0067381D01*
X0102568Y0067250D01*
X0102652Y0067116D01*
X0102734Y0066980D01*
X0102812Y0066843D01*
X0102886Y0066703D01*
X0102957Y0066561D01*
X0103025Y0066418D01*
X0103089Y0066273D01*
X0103149Y0066127D01*
X0103205Y0065979D01*
X0103258Y0065830D01*
X0103307Y0065679D01*
X0103352Y0065527D01*
X0103393Y0065374D01*
X0103431Y0065221D01*
X0103464Y0065066D01*
X0103494Y0064910D01*
X0103520Y0064754D01*
X0103541Y0064597D01*
X0103559Y0064440D01*
X0103573Y0064282D01*
X0103583Y0064124D01*
X0103589Y0063966D01*
X0103591Y0063808D01*
X0103589Y0063650D01*
X0103583Y0063492D01*
X0103573Y0063334D01*
X0103559Y0063176D01*
X0103541Y0063019D01*
X0103520Y0062862D01*
X0103494Y0062706D01*
X0103464Y0062550D01*
X0103431Y0062395D01*
X0103393Y0062242D01*
X0103352Y0062089D01*
X0103307Y0061937D01*
X0103258Y0061786D01*
X0103205Y0061637D01*
X0103149Y0061489D01*
X0103089Y0061343D01*
X0103025Y0061198D01*
X0102957Y0061055D01*
X0102886Y0060913D01*
X0102812Y0060773D01*
X0102734Y0060636D01*
X0102652Y0060500D01*
X0102568Y0060366D01*
X0102479Y0060235D01*
X0102388Y0060106D01*
X0102293Y0059979D01*
X0102196Y0059854D01*
X0102095Y0059732D01*
X0101991Y0059613D01*
X0101884Y0059496D01*
X0101774Y0059382D01*
X0101661Y0059271D01*
X0101546Y0059162D01*
X0101428Y0059057D01*
X0101307Y0058955D01*
X0101184Y0058855D01*
X0101058Y0058759D01*
X0100930Y0058666D01*
X0100800Y0058576D01*
X0100667Y0058490D01*
X0100532Y0058406D01*
X0100396Y0058327D01*
X0100257Y0058250D01*
X0100116Y0058178D01*
X0099974Y0058108D01*
X0099830Y0058043D01*
X0099684Y0057981D01*
X0099537Y0057923D01*
X0099388Y0057868D01*
X0099238Y0057817D01*
X0099087Y0057770D01*
X0098935Y0057727D01*
X0098782Y0057688D01*
X0098627Y0057652D01*
X0098472Y0057621D01*
X0098316Y0057593D01*
X0098160Y0057569D01*
X0098003Y0057549D01*
X0097845Y0057533D01*
X0097688Y0057521D01*
X0097529Y0057513D01*
X0097371Y0057509D01*
X0097213Y0057509D01*
X0097055Y0057513D01*
X0096896Y0057521D01*
X0096739Y0057533D01*
X0096581Y0057549D01*
X0096424Y0057569D01*
X0096268Y0057593D01*
X0096112Y0057621D01*
X0095957Y0057652D01*
X0095802Y0057688D01*
X0095649Y0057727D01*
X0095497Y0057770D01*
X0095346Y0057817D01*
X0095196Y0057868D01*
X0095047Y0057923D01*
X0094900Y0057981D01*
X0094754Y0058043D01*
X0094610Y0058108D01*
X0094468Y0058178D01*
X0094327Y0058250D01*
X0094188Y0058327D01*
X0094052Y0058406D01*
X0093917Y0058490D01*
X0093784Y0058576D01*
X0093654Y0058666D01*
X0093526Y0058759D01*
X0093400Y0058855D01*
X0093277Y0058955D01*
X0093156Y0059057D01*
X0093038Y0059162D01*
X0092923Y0059271D01*
X0092810Y0059382D01*
X0092700Y0059496D01*
X0092593Y0059613D01*
X0092489Y0059732D01*
X0092388Y0059854D01*
X0092291Y0059979D01*
X0092196Y0060106D01*
X0092105Y0060235D01*
X0092016Y0060366D01*
X0091932Y0060500D01*
X0091850Y0060636D01*
X0091772Y0060773D01*
X0091698Y0060913D01*
X0091627Y0061055D01*
X0091559Y0061198D01*
X0091495Y0061343D01*
X0091435Y0061489D01*
X0091379Y0061637D01*
X0091326Y0061786D01*
X0091277Y0061937D01*
X0091232Y0062089D01*
X0091191Y0062242D01*
X0091153Y0062395D01*
X0091120Y0062550D01*
X0091090Y0062706D01*
X0091064Y0062862D01*
X0091043Y0063019D01*
X0091025Y0063176D01*
X0091011Y0063334D01*
X0091001Y0063492D01*
X0090995Y0063650D01*
X0090993Y0063808D01*
X0025974Y0434854D02*
X0025976Y0435012D01*
X0025982Y0435170D01*
X0025992Y0435328D01*
X0026006Y0435486D01*
X0026024Y0435643D01*
X0026045Y0435800D01*
X0026071Y0435956D01*
X0026101Y0436112D01*
X0026134Y0436267D01*
X0026172Y0436420D01*
X0026213Y0436573D01*
X0026258Y0436725D01*
X0026307Y0436876D01*
X0026360Y0437025D01*
X0026416Y0437173D01*
X0026476Y0437319D01*
X0026540Y0437464D01*
X0026608Y0437607D01*
X0026679Y0437749D01*
X0026753Y0437889D01*
X0026831Y0438026D01*
X0026913Y0438162D01*
X0026997Y0438296D01*
X0027086Y0438427D01*
X0027177Y0438556D01*
X0027272Y0438683D01*
X0027369Y0438808D01*
X0027470Y0438930D01*
X0027574Y0439049D01*
X0027681Y0439166D01*
X0027791Y0439280D01*
X0027904Y0439391D01*
X0028019Y0439500D01*
X0028137Y0439605D01*
X0028258Y0439707D01*
X0028381Y0439807D01*
X0028507Y0439903D01*
X0028635Y0439996D01*
X0028765Y0440086D01*
X0028898Y0440172D01*
X0029033Y0440256D01*
X0029169Y0440335D01*
X0029308Y0440412D01*
X0029449Y0440484D01*
X0029591Y0440554D01*
X0029735Y0440619D01*
X0029881Y0440681D01*
X0030028Y0440739D01*
X0030177Y0440794D01*
X0030327Y0440845D01*
X0030478Y0440892D01*
X0030630Y0440935D01*
X0030783Y0440974D01*
X0030938Y0441010D01*
X0031093Y0441041D01*
X0031249Y0441069D01*
X0031405Y0441093D01*
X0031562Y0441113D01*
X0031720Y0441129D01*
X0031877Y0441141D01*
X0032036Y0441149D01*
X0032194Y0441153D01*
X0032352Y0441153D01*
X0032510Y0441149D01*
X0032669Y0441141D01*
X0032826Y0441129D01*
X0032984Y0441113D01*
X0033141Y0441093D01*
X0033297Y0441069D01*
X0033453Y0441041D01*
X0033608Y0441010D01*
X0033763Y0440974D01*
X0033916Y0440935D01*
X0034068Y0440892D01*
X0034219Y0440845D01*
X0034369Y0440794D01*
X0034518Y0440739D01*
X0034665Y0440681D01*
X0034811Y0440619D01*
X0034955Y0440554D01*
X0035097Y0440484D01*
X0035238Y0440412D01*
X0035377Y0440335D01*
X0035513Y0440256D01*
X0035648Y0440172D01*
X0035781Y0440086D01*
X0035911Y0439996D01*
X0036039Y0439903D01*
X0036165Y0439807D01*
X0036288Y0439707D01*
X0036409Y0439605D01*
X0036527Y0439500D01*
X0036642Y0439391D01*
X0036755Y0439280D01*
X0036865Y0439166D01*
X0036972Y0439049D01*
X0037076Y0438930D01*
X0037177Y0438808D01*
X0037274Y0438683D01*
X0037369Y0438556D01*
X0037460Y0438427D01*
X0037549Y0438296D01*
X0037633Y0438162D01*
X0037715Y0438026D01*
X0037793Y0437889D01*
X0037867Y0437749D01*
X0037938Y0437607D01*
X0038006Y0437464D01*
X0038070Y0437319D01*
X0038130Y0437173D01*
X0038186Y0437025D01*
X0038239Y0436876D01*
X0038288Y0436725D01*
X0038333Y0436573D01*
X0038374Y0436420D01*
X0038412Y0436267D01*
X0038445Y0436112D01*
X0038475Y0435956D01*
X0038501Y0435800D01*
X0038522Y0435643D01*
X0038540Y0435486D01*
X0038554Y0435328D01*
X0038564Y0435170D01*
X0038570Y0435012D01*
X0038572Y0434854D01*
X0038570Y0434696D01*
X0038564Y0434538D01*
X0038554Y0434380D01*
X0038540Y0434222D01*
X0038522Y0434065D01*
X0038501Y0433908D01*
X0038475Y0433752D01*
X0038445Y0433596D01*
X0038412Y0433441D01*
X0038374Y0433288D01*
X0038333Y0433135D01*
X0038288Y0432983D01*
X0038239Y0432832D01*
X0038186Y0432683D01*
X0038130Y0432535D01*
X0038070Y0432389D01*
X0038006Y0432244D01*
X0037938Y0432101D01*
X0037867Y0431959D01*
X0037793Y0431819D01*
X0037715Y0431682D01*
X0037633Y0431546D01*
X0037549Y0431412D01*
X0037460Y0431281D01*
X0037369Y0431152D01*
X0037274Y0431025D01*
X0037177Y0430900D01*
X0037076Y0430778D01*
X0036972Y0430659D01*
X0036865Y0430542D01*
X0036755Y0430428D01*
X0036642Y0430317D01*
X0036527Y0430208D01*
X0036409Y0430103D01*
X0036288Y0430001D01*
X0036165Y0429901D01*
X0036039Y0429805D01*
X0035911Y0429712D01*
X0035781Y0429622D01*
X0035648Y0429536D01*
X0035513Y0429452D01*
X0035377Y0429373D01*
X0035238Y0429296D01*
X0035097Y0429224D01*
X0034955Y0429154D01*
X0034811Y0429089D01*
X0034665Y0429027D01*
X0034518Y0428969D01*
X0034369Y0428914D01*
X0034219Y0428863D01*
X0034068Y0428816D01*
X0033916Y0428773D01*
X0033763Y0428734D01*
X0033608Y0428698D01*
X0033453Y0428667D01*
X0033297Y0428639D01*
X0033141Y0428615D01*
X0032984Y0428595D01*
X0032826Y0428579D01*
X0032669Y0428567D01*
X0032510Y0428559D01*
X0032352Y0428555D01*
X0032194Y0428555D01*
X0032036Y0428559D01*
X0031877Y0428567D01*
X0031720Y0428579D01*
X0031562Y0428595D01*
X0031405Y0428615D01*
X0031249Y0428639D01*
X0031093Y0428667D01*
X0030938Y0428698D01*
X0030783Y0428734D01*
X0030630Y0428773D01*
X0030478Y0428816D01*
X0030327Y0428863D01*
X0030177Y0428914D01*
X0030028Y0428969D01*
X0029881Y0429027D01*
X0029735Y0429089D01*
X0029591Y0429154D01*
X0029449Y0429224D01*
X0029308Y0429296D01*
X0029169Y0429373D01*
X0029033Y0429452D01*
X0028898Y0429536D01*
X0028765Y0429622D01*
X0028635Y0429712D01*
X0028507Y0429805D01*
X0028381Y0429901D01*
X0028258Y0430001D01*
X0028137Y0430103D01*
X0028019Y0430208D01*
X0027904Y0430317D01*
X0027791Y0430428D01*
X0027681Y0430542D01*
X0027574Y0430659D01*
X0027470Y0430778D01*
X0027369Y0430900D01*
X0027272Y0431025D01*
X0027177Y0431152D01*
X0027086Y0431281D01*
X0026997Y0431412D01*
X0026913Y0431546D01*
X0026831Y0431682D01*
X0026753Y0431819D01*
X0026679Y0431959D01*
X0026608Y0432101D01*
X0026540Y0432244D01*
X0026476Y0432389D01*
X0026416Y0432535D01*
X0026360Y0432683D01*
X0026307Y0432832D01*
X0026258Y0432983D01*
X0026213Y0433135D01*
X0026172Y0433288D01*
X0026134Y0433441D01*
X0026101Y0433596D01*
X0026071Y0433752D01*
X0026045Y0433908D01*
X0026024Y0434065D01*
X0026006Y0434222D01*
X0025992Y0434380D01*
X0025982Y0434538D01*
X0025976Y0434696D01*
X0025974Y0434854D01*
X1242509Y0434854D02*
X1242511Y0435012D01*
X1242517Y0435170D01*
X1242527Y0435328D01*
X1242541Y0435486D01*
X1242559Y0435643D01*
X1242580Y0435800D01*
X1242606Y0435956D01*
X1242636Y0436112D01*
X1242669Y0436267D01*
X1242707Y0436420D01*
X1242748Y0436573D01*
X1242793Y0436725D01*
X1242842Y0436876D01*
X1242895Y0437025D01*
X1242951Y0437173D01*
X1243011Y0437319D01*
X1243075Y0437464D01*
X1243143Y0437607D01*
X1243214Y0437749D01*
X1243288Y0437889D01*
X1243366Y0438026D01*
X1243448Y0438162D01*
X1243532Y0438296D01*
X1243621Y0438427D01*
X1243712Y0438556D01*
X1243807Y0438683D01*
X1243904Y0438808D01*
X1244005Y0438930D01*
X1244109Y0439049D01*
X1244216Y0439166D01*
X1244326Y0439280D01*
X1244439Y0439391D01*
X1244554Y0439500D01*
X1244672Y0439605D01*
X1244793Y0439707D01*
X1244916Y0439807D01*
X1245042Y0439903D01*
X1245170Y0439996D01*
X1245300Y0440086D01*
X1245433Y0440172D01*
X1245568Y0440256D01*
X1245704Y0440335D01*
X1245843Y0440412D01*
X1245984Y0440484D01*
X1246126Y0440554D01*
X1246270Y0440619D01*
X1246416Y0440681D01*
X1246563Y0440739D01*
X1246712Y0440794D01*
X1246862Y0440845D01*
X1247013Y0440892D01*
X1247165Y0440935D01*
X1247318Y0440974D01*
X1247473Y0441010D01*
X1247628Y0441041D01*
X1247784Y0441069D01*
X1247940Y0441093D01*
X1248097Y0441113D01*
X1248255Y0441129D01*
X1248412Y0441141D01*
X1248571Y0441149D01*
X1248729Y0441153D01*
X1248887Y0441153D01*
X1249045Y0441149D01*
X1249204Y0441141D01*
X1249361Y0441129D01*
X1249519Y0441113D01*
X1249676Y0441093D01*
X1249832Y0441069D01*
X1249988Y0441041D01*
X1250143Y0441010D01*
X1250298Y0440974D01*
X1250451Y0440935D01*
X1250603Y0440892D01*
X1250754Y0440845D01*
X1250904Y0440794D01*
X1251053Y0440739D01*
X1251200Y0440681D01*
X1251346Y0440619D01*
X1251490Y0440554D01*
X1251632Y0440484D01*
X1251773Y0440412D01*
X1251912Y0440335D01*
X1252048Y0440256D01*
X1252183Y0440172D01*
X1252316Y0440086D01*
X1252446Y0439996D01*
X1252574Y0439903D01*
X1252700Y0439807D01*
X1252823Y0439707D01*
X1252944Y0439605D01*
X1253062Y0439500D01*
X1253177Y0439391D01*
X1253290Y0439280D01*
X1253400Y0439166D01*
X1253507Y0439049D01*
X1253611Y0438930D01*
X1253712Y0438808D01*
X1253809Y0438683D01*
X1253904Y0438556D01*
X1253995Y0438427D01*
X1254084Y0438296D01*
X1254168Y0438162D01*
X1254250Y0438026D01*
X1254328Y0437889D01*
X1254402Y0437749D01*
X1254473Y0437607D01*
X1254541Y0437464D01*
X1254605Y0437319D01*
X1254665Y0437173D01*
X1254721Y0437025D01*
X1254774Y0436876D01*
X1254823Y0436725D01*
X1254868Y0436573D01*
X1254909Y0436420D01*
X1254947Y0436267D01*
X1254980Y0436112D01*
X1255010Y0435956D01*
X1255036Y0435800D01*
X1255057Y0435643D01*
X1255075Y0435486D01*
X1255089Y0435328D01*
X1255099Y0435170D01*
X1255105Y0435012D01*
X1255107Y0434854D01*
X1255105Y0434696D01*
X1255099Y0434538D01*
X1255089Y0434380D01*
X1255075Y0434222D01*
X1255057Y0434065D01*
X1255036Y0433908D01*
X1255010Y0433752D01*
X1254980Y0433596D01*
X1254947Y0433441D01*
X1254909Y0433288D01*
X1254868Y0433135D01*
X1254823Y0432983D01*
X1254774Y0432832D01*
X1254721Y0432683D01*
X1254665Y0432535D01*
X1254605Y0432389D01*
X1254541Y0432244D01*
X1254473Y0432101D01*
X1254402Y0431959D01*
X1254328Y0431819D01*
X1254250Y0431682D01*
X1254168Y0431546D01*
X1254084Y0431412D01*
X1253995Y0431281D01*
X1253904Y0431152D01*
X1253809Y0431025D01*
X1253712Y0430900D01*
X1253611Y0430778D01*
X1253507Y0430659D01*
X1253400Y0430542D01*
X1253290Y0430428D01*
X1253177Y0430317D01*
X1253062Y0430208D01*
X1252944Y0430103D01*
X1252823Y0430001D01*
X1252700Y0429901D01*
X1252574Y0429805D01*
X1252446Y0429712D01*
X1252316Y0429622D01*
X1252183Y0429536D01*
X1252048Y0429452D01*
X1251912Y0429373D01*
X1251773Y0429296D01*
X1251632Y0429224D01*
X1251490Y0429154D01*
X1251346Y0429089D01*
X1251200Y0429027D01*
X1251053Y0428969D01*
X1250904Y0428914D01*
X1250754Y0428863D01*
X1250603Y0428816D01*
X1250451Y0428773D01*
X1250298Y0428734D01*
X1250143Y0428698D01*
X1249988Y0428667D01*
X1249832Y0428639D01*
X1249676Y0428615D01*
X1249519Y0428595D01*
X1249361Y0428579D01*
X1249204Y0428567D01*
X1249045Y0428559D01*
X1248887Y0428555D01*
X1248729Y0428555D01*
X1248571Y0428559D01*
X1248412Y0428567D01*
X1248255Y0428579D01*
X1248097Y0428595D01*
X1247940Y0428615D01*
X1247784Y0428639D01*
X1247628Y0428667D01*
X1247473Y0428698D01*
X1247318Y0428734D01*
X1247165Y0428773D01*
X1247013Y0428816D01*
X1246862Y0428863D01*
X1246712Y0428914D01*
X1246563Y0428969D01*
X1246416Y0429027D01*
X1246270Y0429089D01*
X1246126Y0429154D01*
X1245984Y0429224D01*
X1245843Y0429296D01*
X1245704Y0429373D01*
X1245568Y0429452D01*
X1245433Y0429536D01*
X1245300Y0429622D01*
X1245170Y0429712D01*
X1245042Y0429805D01*
X1244916Y0429901D01*
X1244793Y0430001D01*
X1244672Y0430103D01*
X1244554Y0430208D01*
X1244439Y0430317D01*
X1244326Y0430428D01*
X1244216Y0430542D01*
X1244109Y0430659D01*
X1244005Y0430778D01*
X1243904Y0430900D01*
X1243807Y0431025D01*
X1243712Y0431152D01*
X1243621Y0431281D01*
X1243532Y0431412D01*
X1243448Y0431546D01*
X1243366Y0431682D01*
X1243288Y0431819D01*
X1243214Y0431959D01*
X1243143Y0432101D01*
X1243075Y0432244D01*
X1243011Y0432389D01*
X1242951Y0432535D01*
X1242895Y0432683D01*
X1242842Y0432832D01*
X1242793Y0432983D01*
X1242748Y0433135D01*
X1242707Y0433288D01*
X1242669Y0433441D01*
X1242636Y0433596D01*
X1242606Y0433752D01*
X1242580Y0433908D01*
X1242559Y0434065D01*
X1242541Y0434222D01*
X1242527Y0434380D01*
X1242517Y0434538D01*
X1242511Y0434696D01*
X1242509Y0434854D01*
X1242509Y0032492D02*
X1242511Y0032650D01*
X1242517Y0032808D01*
X1242527Y0032966D01*
X1242541Y0033124D01*
X1242559Y0033281D01*
X1242580Y0033438D01*
X1242606Y0033594D01*
X1242636Y0033750D01*
X1242669Y0033905D01*
X1242707Y0034058D01*
X1242748Y0034211D01*
X1242793Y0034363D01*
X1242842Y0034514D01*
X1242895Y0034663D01*
X1242951Y0034811D01*
X1243011Y0034957D01*
X1243075Y0035102D01*
X1243143Y0035245D01*
X1243214Y0035387D01*
X1243288Y0035527D01*
X1243366Y0035664D01*
X1243448Y0035800D01*
X1243532Y0035934D01*
X1243621Y0036065D01*
X1243712Y0036194D01*
X1243807Y0036321D01*
X1243904Y0036446D01*
X1244005Y0036568D01*
X1244109Y0036687D01*
X1244216Y0036804D01*
X1244326Y0036918D01*
X1244439Y0037029D01*
X1244554Y0037138D01*
X1244672Y0037243D01*
X1244793Y0037345D01*
X1244916Y0037445D01*
X1245042Y0037541D01*
X1245170Y0037634D01*
X1245300Y0037724D01*
X1245433Y0037810D01*
X1245568Y0037894D01*
X1245704Y0037973D01*
X1245843Y0038050D01*
X1245984Y0038122D01*
X1246126Y0038192D01*
X1246270Y0038257D01*
X1246416Y0038319D01*
X1246563Y0038377D01*
X1246712Y0038432D01*
X1246862Y0038483D01*
X1247013Y0038530D01*
X1247165Y0038573D01*
X1247318Y0038612D01*
X1247473Y0038648D01*
X1247628Y0038679D01*
X1247784Y0038707D01*
X1247940Y0038731D01*
X1248097Y0038751D01*
X1248255Y0038767D01*
X1248412Y0038779D01*
X1248571Y0038787D01*
X1248729Y0038791D01*
X1248887Y0038791D01*
X1249045Y0038787D01*
X1249204Y0038779D01*
X1249361Y0038767D01*
X1249519Y0038751D01*
X1249676Y0038731D01*
X1249832Y0038707D01*
X1249988Y0038679D01*
X1250143Y0038648D01*
X1250298Y0038612D01*
X1250451Y0038573D01*
X1250603Y0038530D01*
X1250754Y0038483D01*
X1250904Y0038432D01*
X1251053Y0038377D01*
X1251200Y0038319D01*
X1251346Y0038257D01*
X1251490Y0038192D01*
X1251632Y0038122D01*
X1251773Y0038050D01*
X1251912Y0037973D01*
X1252048Y0037894D01*
X1252183Y0037810D01*
X1252316Y0037724D01*
X1252446Y0037634D01*
X1252574Y0037541D01*
X1252700Y0037445D01*
X1252823Y0037345D01*
X1252944Y0037243D01*
X1253062Y0037138D01*
X1253177Y0037029D01*
X1253290Y0036918D01*
X1253400Y0036804D01*
X1253507Y0036687D01*
X1253611Y0036568D01*
X1253712Y0036446D01*
X1253809Y0036321D01*
X1253904Y0036194D01*
X1253995Y0036065D01*
X1254084Y0035934D01*
X1254168Y0035800D01*
X1254250Y0035664D01*
X1254328Y0035527D01*
X1254402Y0035387D01*
X1254473Y0035245D01*
X1254541Y0035102D01*
X1254605Y0034957D01*
X1254665Y0034811D01*
X1254721Y0034663D01*
X1254774Y0034514D01*
X1254823Y0034363D01*
X1254868Y0034211D01*
X1254909Y0034058D01*
X1254947Y0033905D01*
X1254980Y0033750D01*
X1255010Y0033594D01*
X1255036Y0033438D01*
X1255057Y0033281D01*
X1255075Y0033124D01*
X1255089Y0032966D01*
X1255099Y0032808D01*
X1255105Y0032650D01*
X1255107Y0032492D01*
X1255105Y0032334D01*
X1255099Y0032176D01*
X1255089Y0032018D01*
X1255075Y0031860D01*
X1255057Y0031703D01*
X1255036Y0031546D01*
X1255010Y0031390D01*
X1254980Y0031234D01*
X1254947Y0031079D01*
X1254909Y0030926D01*
X1254868Y0030773D01*
X1254823Y0030621D01*
X1254774Y0030470D01*
X1254721Y0030321D01*
X1254665Y0030173D01*
X1254605Y0030027D01*
X1254541Y0029882D01*
X1254473Y0029739D01*
X1254402Y0029597D01*
X1254328Y0029457D01*
X1254250Y0029320D01*
X1254168Y0029184D01*
X1254084Y0029050D01*
X1253995Y0028919D01*
X1253904Y0028790D01*
X1253809Y0028663D01*
X1253712Y0028538D01*
X1253611Y0028416D01*
X1253507Y0028297D01*
X1253400Y0028180D01*
X1253290Y0028066D01*
X1253177Y0027955D01*
X1253062Y0027846D01*
X1252944Y0027741D01*
X1252823Y0027639D01*
X1252700Y0027539D01*
X1252574Y0027443D01*
X1252446Y0027350D01*
X1252316Y0027260D01*
X1252183Y0027174D01*
X1252048Y0027090D01*
X1251912Y0027011D01*
X1251773Y0026934D01*
X1251632Y0026862D01*
X1251490Y0026792D01*
X1251346Y0026727D01*
X1251200Y0026665D01*
X1251053Y0026607D01*
X1250904Y0026552D01*
X1250754Y0026501D01*
X1250603Y0026454D01*
X1250451Y0026411D01*
X1250298Y0026372D01*
X1250143Y0026336D01*
X1249988Y0026305D01*
X1249832Y0026277D01*
X1249676Y0026253D01*
X1249519Y0026233D01*
X1249361Y0026217D01*
X1249204Y0026205D01*
X1249045Y0026197D01*
X1248887Y0026193D01*
X1248729Y0026193D01*
X1248571Y0026197D01*
X1248412Y0026205D01*
X1248255Y0026217D01*
X1248097Y0026233D01*
X1247940Y0026253D01*
X1247784Y0026277D01*
X1247628Y0026305D01*
X1247473Y0026336D01*
X1247318Y0026372D01*
X1247165Y0026411D01*
X1247013Y0026454D01*
X1246862Y0026501D01*
X1246712Y0026552D01*
X1246563Y0026607D01*
X1246416Y0026665D01*
X1246270Y0026727D01*
X1246126Y0026792D01*
X1245984Y0026862D01*
X1245843Y0026934D01*
X1245704Y0027011D01*
X1245568Y0027090D01*
X1245433Y0027174D01*
X1245300Y0027260D01*
X1245170Y0027350D01*
X1245042Y0027443D01*
X1244916Y0027539D01*
X1244793Y0027639D01*
X1244672Y0027741D01*
X1244554Y0027846D01*
X1244439Y0027955D01*
X1244326Y0028066D01*
X1244216Y0028180D01*
X1244109Y0028297D01*
X1244005Y0028416D01*
X1243904Y0028538D01*
X1243807Y0028663D01*
X1243712Y0028790D01*
X1243621Y0028919D01*
X1243532Y0029050D01*
X1243448Y0029184D01*
X1243366Y0029320D01*
X1243288Y0029457D01*
X1243214Y0029597D01*
X1243143Y0029739D01*
X1243075Y0029882D01*
X1243011Y0030027D01*
X1242951Y0030173D01*
X1242895Y0030321D01*
X1242842Y0030470D01*
X1242793Y0030621D01*
X1242748Y0030773D01*
X1242707Y0030926D01*
X1242669Y0031079D01*
X1242636Y0031234D01*
X1242606Y0031390D01*
X1242580Y0031546D01*
X1242559Y0031703D01*
X1242541Y0031860D01*
X1242527Y0032018D01*
X1242517Y0032176D01*
X1242511Y0032334D01*
X1242509Y0032492D01*
D11*
X0020462Y0020681D02*
X0020462Y0446665D01*
X1260619Y0446665D01*
X1260619Y0020681D01*
X0020462Y0020681D01*
M02*
