G75*
%MOIN*%
%OFA0B0*%
%FSLAX25Y25*%
%IPPOS*%
%LPD*%
%AMOC8*
5,1,8,0,0,1.08239X$1,22.5*
%
%ADD10C,0.01914*%
%ADD11OC8,0.13200*%
%ADD12C,0.13200*%
%ADD13OC8,0.07100*%
%ADD14C,0.07100*%
%ADD15C,0.02281*%
%ADD16C,0.08477*%
%ADD17C,0.09400*%
%ADD18R,0.06800X0.06800*%
%ADD19C,0.06800*%
%ADD20C,0.06400*%
%ADD21OC8,0.06400*%
%ADD22R,0.05918X0.07493*%
%ADD23R,0.03871X0.03871*%
%ADD24R,0.07493X0.05918*%
%ADD25R,0.07493X0.07887*%
%ADD26R,0.13792X0.05918*%
%ADD27C,0.01050*%
%ADD28C,0.05906*%
%ADD29R,0.03162X0.09461*%
%ADD30C,0.06800*%
%ADD31R,0.09461X0.03162*%
%ADD32R,0.08800X0.03400*%
%ADD33C,0.01075*%
%ADD34C,0.01200*%
%ADD35R,0.05524X0.05524*%
%ADD36C,0.02291*%
%ADD37R,0.04737X0.02769*%
%ADD38R,0.02769X0.04737*%
%ADD39C,0.02368*%
%ADD40C,0.02109*%
%ADD41C,0.03950*%
%ADD42OC8,0.06800*%
%ADD43C,0.20800*%
%ADD44C,0.10800*%
%ADD45R,0.05918X0.08280*%
%ADD46R,0.20800X0.07800*%
%ADD47C,0.10426*%
%ADD48C,0.13398*%
%ADD49C,0.06304*%
%ADD50C,0.06824*%
%ADD51R,0.25209X0.22060*%
%ADD52R,0.07099X0.04737*%
%ADD53R,0.07296X0.07296*%
%ADD54C,0.07296*%
%ADD55R,0.07887X0.07493*%
%ADD56OC8,0.06000*%
%ADD57C,0.06000*%
%ADD58R,0.08400X0.08400*%
%ADD59C,0.06737*%
%ADD60R,0.04737X0.09855*%
%ADD61R,0.09855X0.04737*%
%ADD62C,0.07887*%
%ADD63C,0.06146*%
%ADD64C,0.06737*%
%ADD65C,0.04762*%
D10*
X0068905Y0114710D02*
X0068905Y0116746D01*
X0070743Y0116746D01*
X0070743Y0114710D01*
X0068905Y0114710D01*
X0068905Y0116623D02*
X0070743Y0116623D01*
X0070743Y0120616D02*
X0070743Y0122652D01*
X0070743Y0120616D02*
X0068905Y0120616D01*
X0068905Y0122652D01*
X0070743Y0122652D01*
X0070743Y0122529D02*
X0068905Y0122529D01*
X0082743Y0122652D02*
X0082743Y0120616D01*
X0080905Y0120616D01*
X0080905Y0122652D01*
X0082743Y0122652D01*
X0082743Y0122529D02*
X0080905Y0122529D01*
X0080905Y0116746D02*
X0080905Y0114710D01*
X0080905Y0116746D02*
X0082743Y0116746D01*
X0082743Y0114710D01*
X0080905Y0114710D01*
X0080905Y0116623D02*
X0082743Y0116623D01*
X0086905Y0116746D02*
X0086905Y0114710D01*
X0086905Y0116746D02*
X0088743Y0116746D01*
X0088743Y0114710D01*
X0086905Y0114710D01*
X0086905Y0116623D02*
X0088743Y0116623D01*
X0088743Y0120616D02*
X0088743Y0122652D01*
X0088743Y0120616D02*
X0086905Y0120616D01*
X0086905Y0122652D01*
X0088743Y0122652D01*
X0088743Y0122529D02*
X0086905Y0122529D01*
X0094743Y0122652D02*
X0094743Y0120616D01*
X0092905Y0120616D01*
X0092905Y0122652D01*
X0094743Y0122652D01*
X0094743Y0122529D02*
X0092905Y0122529D01*
X0092905Y0116746D02*
X0092905Y0114710D01*
X0092905Y0116746D02*
X0094743Y0116746D01*
X0094743Y0114710D01*
X0092905Y0114710D01*
X0092905Y0116623D02*
X0094743Y0116623D01*
X0092905Y0137710D02*
X0092905Y0139746D01*
X0094743Y0139746D01*
X0094743Y0137710D01*
X0092905Y0137710D01*
X0092905Y0139623D02*
X0094743Y0139623D01*
X0094743Y0143616D02*
X0094743Y0145652D01*
X0094743Y0143616D02*
X0092905Y0143616D01*
X0092905Y0145652D01*
X0094743Y0145652D01*
X0094743Y0145529D02*
X0092905Y0145529D01*
X0068743Y0145652D02*
X0068743Y0143616D01*
X0066905Y0143616D01*
X0066905Y0145652D01*
X0068743Y0145652D01*
X0068743Y0145529D02*
X0066905Y0145529D01*
X0066905Y0139746D02*
X0066905Y0137710D01*
X0066905Y0139746D02*
X0068743Y0139746D01*
X0068743Y0137710D01*
X0066905Y0137710D01*
X0066905Y0139623D02*
X0068743Y0139623D01*
X0108491Y0158600D02*
X0110527Y0158600D01*
X0110527Y0156762D01*
X0108491Y0156762D01*
X0108491Y0158600D01*
X0108491Y0164600D02*
X0110527Y0164600D01*
X0110527Y0162762D01*
X0108491Y0162762D01*
X0108491Y0164600D01*
X0108491Y0170600D02*
X0110527Y0170600D01*
X0110527Y0168762D01*
X0108491Y0168762D01*
X0108491Y0170600D01*
X0108491Y0176600D02*
X0110527Y0176600D01*
X0110527Y0174762D01*
X0108491Y0174762D01*
X0108491Y0176600D01*
X0108491Y0182600D02*
X0110527Y0182600D01*
X0110527Y0180762D01*
X0108491Y0180762D01*
X0108491Y0182600D01*
X0114397Y0180762D02*
X0116433Y0180762D01*
X0114397Y0180762D02*
X0114397Y0182600D01*
X0116433Y0182600D01*
X0116433Y0180762D01*
X0116433Y0174762D02*
X0114397Y0174762D01*
X0114397Y0176600D01*
X0116433Y0176600D01*
X0116433Y0174762D01*
X0116433Y0168762D02*
X0114397Y0168762D01*
X0114397Y0170600D01*
X0116433Y0170600D01*
X0116433Y0168762D01*
X0116433Y0162762D02*
X0114397Y0162762D01*
X0114397Y0164600D01*
X0116433Y0164600D01*
X0116433Y0162762D01*
X0116433Y0156762D02*
X0114397Y0156762D01*
X0114397Y0158600D01*
X0116433Y0158600D01*
X0116433Y0156762D01*
X0183405Y0173710D02*
X0183405Y0175746D01*
X0185243Y0175746D01*
X0185243Y0173710D01*
X0183405Y0173710D01*
X0183405Y0175623D02*
X0185243Y0175623D01*
X0185243Y0179616D02*
X0185243Y0181652D01*
X0185243Y0179616D02*
X0183405Y0179616D01*
X0183405Y0181652D01*
X0185243Y0181652D01*
X0185243Y0181529D02*
X0183405Y0181529D01*
X0197243Y0181652D02*
X0197243Y0179616D01*
X0195405Y0179616D01*
X0195405Y0181652D01*
X0197243Y0181652D01*
X0197243Y0181529D02*
X0195405Y0181529D01*
X0195405Y0175746D02*
X0195405Y0173710D01*
X0195405Y0175746D02*
X0197243Y0175746D01*
X0197243Y0173710D01*
X0195405Y0173710D01*
X0195405Y0175623D02*
X0197243Y0175623D01*
X0207405Y0175746D02*
X0207405Y0173710D01*
X0207405Y0175746D02*
X0209243Y0175746D01*
X0209243Y0173710D01*
X0207405Y0173710D01*
X0207405Y0175623D02*
X0209243Y0175623D01*
X0209243Y0179616D02*
X0209243Y0181652D01*
X0209243Y0179616D02*
X0207405Y0179616D01*
X0207405Y0181652D01*
X0209243Y0181652D01*
X0209243Y0181529D02*
X0207405Y0181529D01*
X0221243Y0181652D02*
X0221243Y0179616D01*
X0219405Y0179616D01*
X0219405Y0181652D01*
X0221243Y0181652D01*
X0221243Y0181529D02*
X0219405Y0181529D01*
X0219405Y0175746D02*
X0219405Y0173710D01*
X0219405Y0175746D02*
X0221243Y0175746D01*
X0221243Y0173710D01*
X0219405Y0173710D01*
X0219405Y0175623D02*
X0221243Y0175623D01*
X0256043Y0175246D02*
X0256043Y0173210D01*
X0256043Y0175246D02*
X0257881Y0175246D01*
X0257881Y0173210D01*
X0256043Y0173210D01*
X0256043Y0175123D02*
X0257881Y0175123D01*
X0257881Y0179116D02*
X0257881Y0181152D01*
X0257881Y0179116D02*
X0256043Y0179116D01*
X0256043Y0181152D01*
X0257881Y0181152D01*
X0257881Y0181029D02*
X0256043Y0181029D01*
X0348243Y0180616D02*
X0348243Y0182652D01*
X0348243Y0180616D02*
X0346405Y0180616D01*
X0346405Y0182652D01*
X0348243Y0182652D01*
X0348243Y0182529D02*
X0346405Y0182529D01*
X0346405Y0176746D02*
X0346405Y0174710D01*
X0346405Y0176746D02*
X0348243Y0176746D01*
X0348243Y0174710D01*
X0346405Y0174710D01*
X0346405Y0176623D02*
X0348243Y0176623D01*
X0358405Y0176746D02*
X0358405Y0174710D01*
X0358405Y0176746D02*
X0360243Y0176746D01*
X0360243Y0174710D01*
X0358405Y0174710D01*
X0358405Y0176623D02*
X0360243Y0176623D01*
X0360243Y0180616D02*
X0360243Y0182652D01*
X0360243Y0180616D02*
X0358405Y0180616D01*
X0358405Y0182652D01*
X0360243Y0182652D01*
X0360243Y0182529D02*
X0358405Y0182529D01*
X0372243Y0182652D02*
X0372243Y0180616D01*
X0370405Y0180616D01*
X0370405Y0182652D01*
X0372243Y0182652D01*
X0372243Y0182529D02*
X0370405Y0182529D01*
X0370405Y0176746D02*
X0370405Y0174710D01*
X0370405Y0176746D02*
X0372243Y0176746D01*
X0372243Y0174710D01*
X0370405Y0174710D01*
X0370405Y0176623D02*
X0372243Y0176623D01*
X0382405Y0176746D02*
X0382405Y0174710D01*
X0382405Y0176746D02*
X0384243Y0176746D01*
X0384243Y0174710D01*
X0382405Y0174710D01*
X0382405Y0176623D02*
X0384243Y0176623D01*
X0384243Y0180616D02*
X0384243Y0182652D01*
X0384243Y0180616D02*
X0382405Y0180616D01*
X0382405Y0182652D01*
X0384243Y0182652D01*
X0384243Y0182529D02*
X0382405Y0182529D01*
X0395043Y0202210D02*
X0395043Y0204246D01*
X0396881Y0204246D01*
X0396881Y0202210D01*
X0395043Y0202210D01*
X0395043Y0204123D02*
X0396881Y0204123D01*
X0396881Y0208116D02*
X0396881Y0210152D01*
X0396881Y0208116D02*
X0395043Y0208116D01*
X0395043Y0210152D01*
X0396881Y0210152D01*
X0396881Y0210029D02*
X0395043Y0210029D01*
X0395043Y0213710D02*
X0395043Y0215746D01*
X0396881Y0215746D01*
X0396881Y0213710D01*
X0395043Y0213710D01*
X0395043Y0215623D02*
X0396881Y0215623D01*
X0396881Y0219616D02*
X0396881Y0221652D01*
X0396881Y0219616D02*
X0395043Y0219616D01*
X0395043Y0221652D01*
X0396881Y0221652D01*
X0396881Y0221529D02*
X0395043Y0221529D01*
X0395043Y0225210D02*
X0395043Y0227246D01*
X0396881Y0227246D01*
X0396881Y0225210D01*
X0395043Y0225210D01*
X0395043Y0227123D02*
X0396881Y0227123D01*
X0396881Y0231116D02*
X0396881Y0233152D01*
X0396881Y0231116D02*
X0395043Y0231116D01*
X0395043Y0233152D01*
X0396881Y0233152D01*
X0396881Y0233029D02*
X0395043Y0233029D01*
X0428043Y0240210D02*
X0428043Y0242246D01*
X0429881Y0242246D01*
X0429881Y0240210D01*
X0428043Y0240210D01*
X0428043Y0242123D02*
X0429881Y0242123D01*
X0429881Y0246116D02*
X0429881Y0248152D01*
X0429881Y0246116D02*
X0428043Y0246116D01*
X0428043Y0248152D01*
X0429881Y0248152D01*
X0429881Y0248029D02*
X0428043Y0248029D01*
X0435881Y0248152D02*
X0435881Y0246116D01*
X0434043Y0246116D01*
X0434043Y0248152D01*
X0435881Y0248152D01*
X0435881Y0248029D02*
X0434043Y0248029D01*
X0434043Y0242246D02*
X0434043Y0240210D01*
X0434043Y0242246D02*
X0435881Y0242246D01*
X0435881Y0240210D01*
X0434043Y0240210D01*
X0434043Y0242123D02*
X0435881Y0242123D01*
X0523853Y0246600D02*
X0525889Y0246600D01*
X0525889Y0244762D01*
X0523853Y0244762D01*
X0523853Y0246600D01*
X0529759Y0244762D02*
X0531795Y0244762D01*
X0529759Y0244762D02*
X0529759Y0246600D01*
X0531795Y0246600D01*
X0531795Y0244762D01*
X0531795Y0256762D02*
X0529759Y0256762D01*
X0529759Y0258600D01*
X0531795Y0258600D01*
X0531795Y0256762D01*
X0525889Y0258600D02*
X0523853Y0258600D01*
X0525889Y0258600D02*
X0525889Y0256762D01*
X0523853Y0256762D01*
X0523853Y0258600D01*
X0523853Y0270600D02*
X0525889Y0270600D01*
X0525889Y0268762D01*
X0523853Y0268762D01*
X0523853Y0270600D01*
X0529759Y0268762D02*
X0531795Y0268762D01*
X0529759Y0268762D02*
X0529759Y0270600D01*
X0531795Y0270600D01*
X0531795Y0268762D01*
X0531795Y0280762D02*
X0529759Y0280762D01*
X0529759Y0282600D01*
X0531795Y0282600D01*
X0531795Y0280762D01*
X0525889Y0282600D02*
X0523853Y0282600D01*
X0525889Y0282600D02*
X0525889Y0280762D01*
X0523853Y0280762D01*
X0523853Y0282600D01*
X0523853Y0294600D02*
X0525889Y0294600D01*
X0525889Y0292762D01*
X0523853Y0292762D01*
X0523853Y0294600D01*
X0523853Y0300600D02*
X0525889Y0300600D01*
X0525889Y0298762D01*
X0523853Y0298762D01*
X0523853Y0300600D01*
X0529759Y0298762D02*
X0531795Y0298762D01*
X0529759Y0298762D02*
X0529759Y0300600D01*
X0531795Y0300600D01*
X0531795Y0298762D01*
X0531795Y0292762D02*
X0529759Y0292762D01*
X0529759Y0294600D01*
X0531795Y0294600D01*
X0531795Y0292762D01*
X0532070Y0310762D02*
X0530034Y0310762D01*
X0530034Y0312600D01*
X0532070Y0312600D01*
X0532070Y0310762D01*
X0526165Y0312600D02*
X0524129Y0312600D01*
X0526165Y0312600D02*
X0526165Y0310762D01*
X0524129Y0310762D01*
X0524129Y0312600D01*
X0536543Y0324210D02*
X0536543Y0326246D01*
X0538381Y0326246D01*
X0538381Y0324210D01*
X0536543Y0324210D01*
X0536543Y0326123D02*
X0538381Y0326123D01*
X0549043Y0326246D02*
X0549043Y0324210D01*
X0549043Y0326246D02*
X0550881Y0326246D01*
X0550881Y0324210D01*
X0549043Y0324210D01*
X0549043Y0326123D02*
X0550881Y0326123D01*
X0561043Y0326246D02*
X0561043Y0324210D01*
X0561043Y0326246D02*
X0562881Y0326246D01*
X0562881Y0324210D01*
X0561043Y0324210D01*
X0561043Y0326123D02*
X0562881Y0326123D01*
X0573043Y0326246D02*
X0573043Y0324210D01*
X0573043Y0326246D02*
X0574881Y0326246D01*
X0574881Y0324210D01*
X0573043Y0324210D01*
X0573043Y0326123D02*
X0574881Y0326123D01*
X0585043Y0326246D02*
X0585043Y0324210D01*
X0585043Y0326246D02*
X0586881Y0326246D01*
X0586881Y0324210D01*
X0585043Y0324210D01*
X0585043Y0326123D02*
X0586881Y0326123D01*
X0597043Y0326246D02*
X0597043Y0324210D01*
X0597043Y0326246D02*
X0598881Y0326246D01*
X0598881Y0324210D01*
X0597043Y0324210D01*
X0597043Y0326123D02*
X0598881Y0326123D01*
X0603043Y0326246D02*
X0603043Y0324210D01*
X0603043Y0326246D02*
X0604881Y0326246D01*
X0604881Y0324210D01*
X0603043Y0324210D01*
X0603043Y0326123D02*
X0604881Y0326123D01*
X0609043Y0326246D02*
X0609043Y0324210D01*
X0609043Y0326246D02*
X0610881Y0326246D01*
X0610881Y0324210D01*
X0609043Y0324210D01*
X0609043Y0326123D02*
X0610881Y0326123D01*
X0610881Y0330116D02*
X0610881Y0332152D01*
X0610881Y0330116D02*
X0609043Y0330116D01*
X0609043Y0332152D01*
X0610881Y0332152D01*
X0610881Y0332029D02*
X0609043Y0332029D01*
X0604881Y0332152D02*
X0604881Y0330116D01*
X0603043Y0330116D01*
X0603043Y0332152D01*
X0604881Y0332152D01*
X0604881Y0332029D02*
X0603043Y0332029D01*
X0598881Y0332152D02*
X0598881Y0330116D01*
X0597043Y0330116D01*
X0597043Y0332152D01*
X0598881Y0332152D01*
X0598881Y0332029D02*
X0597043Y0332029D01*
X0586881Y0332152D02*
X0586881Y0330116D01*
X0585043Y0330116D01*
X0585043Y0332152D01*
X0586881Y0332152D01*
X0586881Y0332029D02*
X0585043Y0332029D01*
X0574881Y0332152D02*
X0574881Y0330116D01*
X0573043Y0330116D01*
X0573043Y0332152D01*
X0574881Y0332152D01*
X0574881Y0332029D02*
X0573043Y0332029D01*
X0562881Y0332152D02*
X0562881Y0330116D01*
X0561043Y0330116D01*
X0561043Y0332152D01*
X0562881Y0332152D01*
X0562881Y0332029D02*
X0561043Y0332029D01*
X0550881Y0332152D02*
X0550881Y0330116D01*
X0549043Y0330116D01*
X0549043Y0332152D01*
X0550881Y0332152D01*
X0550881Y0332029D02*
X0549043Y0332029D01*
X0538381Y0332152D02*
X0538381Y0330116D01*
X0536543Y0330116D01*
X0536543Y0332152D01*
X0538381Y0332152D01*
X0538381Y0332029D02*
X0536543Y0332029D01*
X0522905Y0362710D02*
X0522905Y0364746D01*
X0524743Y0364746D01*
X0524743Y0362710D01*
X0522905Y0362710D01*
X0522905Y0364623D02*
X0524743Y0364623D01*
X0524743Y0368616D02*
X0524743Y0370652D01*
X0524743Y0368616D02*
X0522905Y0368616D01*
X0522905Y0370652D01*
X0524743Y0370652D01*
X0524743Y0370529D02*
X0522905Y0370529D01*
X0564743Y0370652D02*
X0564743Y0368616D01*
X0562905Y0368616D01*
X0562905Y0370652D01*
X0564743Y0370652D01*
X0564743Y0370529D02*
X0562905Y0370529D01*
X0562905Y0364746D02*
X0562905Y0362710D01*
X0562905Y0364746D02*
X0564743Y0364746D01*
X0564743Y0362710D01*
X0562905Y0362710D01*
X0562905Y0364623D02*
X0564743Y0364623D01*
X0482905Y0364746D02*
X0482905Y0362710D01*
X0482905Y0364746D02*
X0484743Y0364746D01*
X0484743Y0362710D01*
X0482905Y0362710D01*
X0482905Y0364623D02*
X0484743Y0364623D01*
X0484743Y0368616D02*
X0484743Y0370652D01*
X0484743Y0368616D02*
X0482905Y0368616D01*
X0482905Y0370652D01*
X0484743Y0370652D01*
X0484743Y0370529D02*
X0482905Y0370529D01*
X0444743Y0370652D02*
X0444743Y0368616D01*
X0442905Y0368616D01*
X0442905Y0370652D01*
X0444743Y0370652D01*
X0444743Y0370529D02*
X0442905Y0370529D01*
X0442905Y0364746D02*
X0442905Y0362710D01*
X0442905Y0364746D02*
X0444743Y0364746D01*
X0444743Y0362710D01*
X0442905Y0362710D01*
X0442905Y0364623D02*
X0444743Y0364623D01*
X0402905Y0364746D02*
X0402905Y0362710D01*
X0402905Y0364746D02*
X0404743Y0364746D01*
X0404743Y0362710D01*
X0402905Y0362710D01*
X0402905Y0364623D02*
X0404743Y0364623D01*
X0404743Y0368616D02*
X0404743Y0370652D01*
X0404743Y0368616D02*
X0402905Y0368616D01*
X0402905Y0370652D01*
X0404743Y0370652D01*
X0404743Y0370529D02*
X0402905Y0370529D01*
X0364743Y0370652D02*
X0364743Y0368616D01*
X0362905Y0368616D01*
X0362905Y0370652D01*
X0364743Y0370652D01*
X0364743Y0370529D02*
X0362905Y0370529D01*
X0362905Y0364746D02*
X0362905Y0362710D01*
X0362905Y0364746D02*
X0364743Y0364746D01*
X0364743Y0362710D01*
X0362905Y0362710D01*
X0362905Y0364623D02*
X0364743Y0364623D01*
X0322905Y0364746D02*
X0322905Y0362710D01*
X0322905Y0364746D02*
X0324743Y0364746D01*
X0324743Y0362710D01*
X0322905Y0362710D01*
X0322905Y0364623D02*
X0324743Y0364623D01*
X0324743Y0368616D02*
X0324743Y0370652D01*
X0324743Y0368616D02*
X0322905Y0368616D01*
X0322905Y0370652D01*
X0324743Y0370652D01*
X0324743Y0370529D02*
X0322905Y0370529D01*
X0284743Y0370652D02*
X0284743Y0368616D01*
X0282905Y0368616D01*
X0282905Y0370652D01*
X0284743Y0370652D01*
X0284743Y0370529D02*
X0282905Y0370529D01*
X0282905Y0364746D02*
X0282905Y0362710D01*
X0282905Y0364746D02*
X0284743Y0364746D01*
X0284743Y0362710D01*
X0282905Y0362710D01*
X0282905Y0364623D02*
X0284743Y0364623D01*
X0242905Y0364746D02*
X0242905Y0362710D01*
X0242905Y0364746D02*
X0244743Y0364746D01*
X0244743Y0362710D01*
X0242905Y0362710D01*
X0242905Y0364623D02*
X0244743Y0364623D01*
X0244743Y0368616D02*
X0244743Y0370652D01*
X0244743Y0368616D02*
X0242905Y0368616D01*
X0242905Y0370652D01*
X0244743Y0370652D01*
X0244743Y0370529D02*
X0242905Y0370529D01*
X0204743Y0370652D02*
X0204743Y0368616D01*
X0202905Y0368616D01*
X0202905Y0370652D01*
X0204743Y0370652D01*
X0204743Y0370529D02*
X0202905Y0370529D01*
X0202905Y0364746D02*
X0202905Y0362710D01*
X0202905Y0364746D02*
X0204743Y0364746D01*
X0204743Y0362710D01*
X0202905Y0362710D01*
X0202905Y0364623D02*
X0204743Y0364623D01*
X0162905Y0364746D02*
X0162905Y0362710D01*
X0162905Y0364746D02*
X0164743Y0364746D01*
X0164743Y0362710D01*
X0162905Y0362710D01*
X0162905Y0364623D02*
X0164743Y0364623D01*
X0164743Y0368616D02*
X0164743Y0370652D01*
X0164743Y0368616D02*
X0162905Y0368616D01*
X0162905Y0370652D01*
X0164743Y0370652D01*
X0164743Y0370529D02*
X0162905Y0370529D01*
X0124743Y0370652D02*
X0124743Y0368616D01*
X0122905Y0368616D01*
X0122905Y0370652D01*
X0124743Y0370652D01*
X0124743Y0370529D02*
X0122905Y0370529D01*
X0122905Y0364746D02*
X0122905Y0362710D01*
X0122905Y0364746D02*
X0124743Y0364746D01*
X0124743Y0362710D01*
X0122905Y0362710D01*
X0122905Y0364623D02*
X0124743Y0364623D01*
X0100933Y0363262D02*
X0098897Y0363262D01*
X0098897Y0365100D01*
X0100933Y0365100D01*
X0100933Y0363262D01*
X0095027Y0365100D02*
X0092991Y0365100D01*
X0095027Y0365100D02*
X0095027Y0363262D01*
X0092991Y0363262D01*
X0092991Y0365100D01*
X0148743Y0319652D02*
X0148743Y0317616D01*
X0146905Y0317616D01*
X0146905Y0319652D01*
X0148743Y0319652D01*
X0148743Y0319529D02*
X0146905Y0319529D01*
X0146905Y0313746D02*
X0146905Y0311710D01*
X0146905Y0313746D02*
X0148743Y0313746D01*
X0148743Y0311710D01*
X0146905Y0311710D01*
X0146905Y0313623D02*
X0148743Y0313623D01*
X0142743Y0299652D02*
X0142743Y0297616D01*
X0140905Y0297616D01*
X0140905Y0299652D01*
X0142743Y0299652D01*
X0142743Y0299529D02*
X0140905Y0299529D01*
X0140905Y0293746D02*
X0140905Y0291710D01*
X0140905Y0293746D02*
X0142743Y0293746D01*
X0142743Y0291710D01*
X0140905Y0291710D01*
X0140905Y0293623D02*
X0142743Y0293623D01*
X0169853Y0283600D02*
X0171889Y0283600D01*
X0171889Y0281762D01*
X0169853Y0281762D01*
X0169853Y0283600D01*
X0175759Y0281762D02*
X0177795Y0281762D01*
X0175759Y0281762D02*
X0175759Y0283600D01*
X0177795Y0283600D01*
X0177795Y0281762D01*
X0177795Y0275762D02*
X0175759Y0275762D01*
X0175759Y0277600D01*
X0177795Y0277600D01*
X0177795Y0275762D01*
X0171889Y0277600D02*
X0169853Y0277600D01*
X0171889Y0277600D02*
X0171889Y0275762D01*
X0169853Y0275762D01*
X0169853Y0277600D01*
X0202905Y0291710D02*
X0202905Y0293746D01*
X0204743Y0293746D01*
X0204743Y0291710D01*
X0202905Y0291710D01*
X0202905Y0293623D02*
X0204743Y0293623D01*
X0204743Y0297616D02*
X0204743Y0299652D01*
X0204743Y0297616D02*
X0202905Y0297616D01*
X0202905Y0299652D01*
X0204743Y0299652D01*
X0204743Y0299529D02*
X0202905Y0299529D01*
X0196905Y0311710D02*
X0196905Y0313746D01*
X0198743Y0313746D01*
X0198743Y0311710D01*
X0196905Y0311710D01*
X0196905Y0313623D02*
X0198743Y0313623D01*
X0198743Y0317616D02*
X0198743Y0319652D01*
X0198743Y0317616D02*
X0196905Y0317616D01*
X0196905Y0319652D01*
X0198743Y0319652D01*
X0198743Y0319529D02*
X0196905Y0319529D01*
X0251743Y0319652D02*
X0251743Y0317616D01*
X0249905Y0317616D01*
X0249905Y0319652D01*
X0251743Y0319652D01*
X0251743Y0319529D02*
X0249905Y0319529D01*
X0249905Y0313746D02*
X0249905Y0311710D01*
X0249905Y0313746D02*
X0251743Y0313746D01*
X0251743Y0311710D01*
X0249905Y0311710D01*
X0249905Y0313623D02*
X0251743Y0313623D01*
X0251743Y0299652D02*
X0251743Y0297616D01*
X0249905Y0297616D01*
X0249905Y0299652D01*
X0251743Y0299652D01*
X0251743Y0299529D02*
X0249905Y0299529D01*
X0249905Y0293746D02*
X0249905Y0291710D01*
X0249905Y0293746D02*
X0251743Y0293746D01*
X0251743Y0291710D01*
X0249905Y0291710D01*
X0249905Y0293623D02*
X0251743Y0293623D01*
X0271853Y0283600D02*
X0273889Y0283600D01*
X0273889Y0281762D01*
X0271853Y0281762D01*
X0271853Y0283600D01*
X0277759Y0281762D02*
X0279795Y0281762D01*
X0277759Y0281762D02*
X0277759Y0283600D01*
X0279795Y0283600D01*
X0279795Y0281762D01*
X0279795Y0275762D02*
X0277759Y0275762D01*
X0277759Y0277600D01*
X0279795Y0277600D01*
X0279795Y0275762D01*
X0273889Y0277600D02*
X0271853Y0277600D01*
X0273889Y0277600D02*
X0273889Y0275762D01*
X0271853Y0275762D01*
X0271853Y0277600D01*
X0266881Y0271152D02*
X0266881Y0269116D01*
X0265043Y0269116D01*
X0265043Y0271152D01*
X0266881Y0271152D01*
X0266881Y0271029D02*
X0265043Y0271029D01*
X0265043Y0265246D02*
X0265043Y0263210D01*
X0265043Y0265246D02*
X0266881Y0265246D01*
X0266881Y0263210D01*
X0265043Y0263210D01*
X0265043Y0265123D02*
X0266881Y0265123D01*
X0299905Y0291710D02*
X0299905Y0293746D01*
X0301743Y0293746D01*
X0301743Y0291710D01*
X0299905Y0291710D01*
X0299905Y0293623D02*
X0301743Y0293623D01*
X0301743Y0297616D02*
X0301743Y0299652D01*
X0301743Y0297616D02*
X0299905Y0297616D01*
X0299905Y0299652D01*
X0301743Y0299652D01*
X0301743Y0299529D02*
X0299905Y0299529D01*
X0299905Y0311710D02*
X0299905Y0313746D01*
X0301743Y0313746D01*
X0301743Y0311710D01*
X0299905Y0311710D01*
X0299905Y0313623D02*
X0301743Y0313623D01*
X0301743Y0317616D02*
X0301743Y0319652D01*
X0301743Y0317616D02*
X0299905Y0317616D01*
X0299905Y0319652D01*
X0301743Y0319652D01*
X0301743Y0319529D02*
X0299905Y0319529D01*
X0360743Y0319652D02*
X0360743Y0317616D01*
X0358905Y0317616D01*
X0358905Y0319652D01*
X0360743Y0319652D01*
X0360743Y0319529D02*
X0358905Y0319529D01*
X0358905Y0313746D02*
X0358905Y0311710D01*
X0358905Y0313746D02*
X0360743Y0313746D01*
X0360743Y0311710D01*
X0358905Y0311710D01*
X0358905Y0313623D02*
X0360743Y0313623D01*
X0360743Y0299652D02*
X0360743Y0297616D01*
X0358905Y0297616D01*
X0358905Y0299652D01*
X0360743Y0299652D01*
X0360743Y0299529D02*
X0358905Y0299529D01*
X0358905Y0293746D02*
X0358905Y0291710D01*
X0358905Y0293746D02*
X0360743Y0293746D01*
X0360743Y0291710D01*
X0358905Y0291710D01*
X0358905Y0293623D02*
X0360743Y0293623D01*
X0385853Y0283600D02*
X0387889Y0283600D01*
X0387889Y0281762D01*
X0385853Y0281762D01*
X0385853Y0283600D01*
X0391759Y0281762D02*
X0393795Y0281762D01*
X0391759Y0281762D02*
X0391759Y0283600D01*
X0393795Y0283600D01*
X0393795Y0281762D01*
X0393795Y0275762D02*
X0391759Y0275762D01*
X0391759Y0277600D01*
X0393795Y0277600D01*
X0393795Y0275762D01*
X0387889Y0277600D02*
X0385853Y0277600D01*
X0387889Y0277600D02*
X0387889Y0275762D01*
X0385853Y0275762D01*
X0385853Y0277600D01*
X0413905Y0291710D02*
X0413905Y0293746D01*
X0415743Y0293746D01*
X0415743Y0291710D01*
X0413905Y0291710D01*
X0413905Y0293623D02*
X0415743Y0293623D01*
X0415743Y0297616D02*
X0415743Y0299652D01*
X0415743Y0297616D02*
X0413905Y0297616D01*
X0413905Y0299652D01*
X0415743Y0299652D01*
X0415743Y0299529D02*
X0413905Y0299529D01*
X0413905Y0311710D02*
X0413905Y0313746D01*
X0415743Y0313746D01*
X0415743Y0311710D01*
X0413905Y0311710D01*
X0413905Y0313623D02*
X0415743Y0313623D01*
X0415743Y0317616D02*
X0415743Y0319652D01*
X0415743Y0317616D02*
X0413905Y0317616D01*
X0413905Y0319652D01*
X0415743Y0319652D01*
X0415743Y0319529D02*
X0413905Y0319529D01*
X0449853Y0314600D02*
X0451889Y0314600D01*
X0451889Y0312762D01*
X0449853Y0312762D01*
X0449853Y0314600D01*
X0455759Y0312762D02*
X0457795Y0312762D01*
X0455759Y0312762D02*
X0455759Y0314600D01*
X0457795Y0314600D01*
X0457795Y0312762D01*
X0476853Y0283600D02*
X0478889Y0283600D01*
X0478889Y0281762D01*
X0476853Y0281762D01*
X0476853Y0283600D01*
X0482759Y0281762D02*
X0484795Y0281762D01*
X0482759Y0281762D02*
X0482759Y0283600D01*
X0484795Y0283600D01*
X0484795Y0281762D01*
X0484795Y0275762D02*
X0482759Y0275762D01*
X0482759Y0277600D01*
X0484795Y0277600D01*
X0484795Y0275762D01*
X0478889Y0277600D02*
X0476853Y0277600D01*
X0478889Y0277600D02*
X0478889Y0275762D01*
X0476853Y0275762D01*
X0476853Y0277600D01*
X0545381Y0228290D02*
X0545381Y0226254D01*
X0543543Y0226254D01*
X0543543Y0228290D01*
X0545381Y0228290D01*
X0545381Y0228167D02*
X0543543Y0228167D01*
X0543543Y0222384D02*
X0543543Y0220348D01*
X0543543Y0222384D02*
X0545381Y0222384D01*
X0545381Y0220348D01*
X0543543Y0220348D01*
X0543543Y0222261D02*
X0545381Y0222261D01*
X0550043Y0222384D02*
X0550043Y0220348D01*
X0550043Y0222384D02*
X0551881Y0222384D01*
X0551881Y0220348D01*
X0550043Y0220348D01*
X0550043Y0222261D02*
X0551881Y0222261D01*
X0551881Y0226254D02*
X0551881Y0228290D01*
X0551881Y0226254D02*
X0550043Y0226254D01*
X0550043Y0228290D01*
X0551881Y0228290D01*
X0551881Y0228167D02*
X0550043Y0228167D01*
X0619129Y0239600D02*
X0621165Y0239600D01*
X0621165Y0237762D01*
X0619129Y0237762D01*
X0619129Y0239600D01*
X0625034Y0237762D02*
X0627070Y0237762D01*
X0625034Y0237762D02*
X0625034Y0239600D01*
X0627070Y0239600D01*
X0627070Y0237762D01*
X0742381Y0192290D02*
X0742381Y0190254D01*
X0740543Y0190254D01*
X0740543Y0192290D01*
X0742381Y0192290D01*
X0742381Y0192167D02*
X0740543Y0192167D01*
X0740543Y0186384D02*
X0740543Y0184348D01*
X0740543Y0186384D02*
X0742381Y0186384D01*
X0742381Y0184348D01*
X0740543Y0184348D01*
X0740543Y0186261D02*
X0742381Y0186261D01*
X0701243Y0182652D02*
X0701243Y0180616D01*
X0699405Y0180616D01*
X0699405Y0182652D01*
X0701243Y0182652D01*
X0701243Y0182529D02*
X0699405Y0182529D01*
X0699405Y0176746D02*
X0699405Y0174710D01*
X0699405Y0176746D02*
X0701243Y0176746D01*
X0701243Y0174710D01*
X0699405Y0174710D01*
X0699405Y0176623D02*
X0701243Y0176623D01*
X0687405Y0176746D02*
X0687405Y0174710D01*
X0687405Y0176746D02*
X0689243Y0176746D01*
X0689243Y0174710D01*
X0687405Y0174710D01*
X0687405Y0176623D02*
X0689243Y0176623D01*
X0689243Y0180616D02*
X0689243Y0182652D01*
X0689243Y0180616D02*
X0687405Y0180616D01*
X0687405Y0182652D01*
X0689243Y0182652D01*
X0689243Y0182529D02*
X0687405Y0182529D01*
X0677243Y0182652D02*
X0677243Y0180616D01*
X0675405Y0180616D01*
X0675405Y0182652D01*
X0677243Y0182652D01*
X0677243Y0182529D02*
X0675405Y0182529D01*
X0675405Y0176746D02*
X0675405Y0174710D01*
X0675405Y0176746D02*
X0677243Y0176746D01*
X0677243Y0174710D01*
X0675405Y0174710D01*
X0675405Y0176623D02*
X0677243Y0176623D01*
X0663405Y0176746D02*
X0663405Y0174710D01*
X0663405Y0176746D02*
X0665243Y0176746D01*
X0665243Y0174710D01*
X0663405Y0174710D01*
X0663405Y0176623D02*
X0665243Y0176623D01*
X0665243Y0180616D02*
X0665243Y0182652D01*
X0665243Y0180616D02*
X0663405Y0180616D01*
X0663405Y0182652D01*
X0665243Y0182652D01*
X0665243Y0182529D02*
X0663405Y0182529D01*
X0548243Y0182652D02*
X0548243Y0180616D01*
X0546405Y0180616D01*
X0546405Y0182652D01*
X0548243Y0182652D01*
X0548243Y0182529D02*
X0546405Y0182529D01*
X0546405Y0176746D02*
X0546405Y0174710D01*
X0546405Y0176746D02*
X0548243Y0176746D01*
X0548243Y0174710D01*
X0546405Y0174710D01*
X0546405Y0176623D02*
X0548243Y0176623D01*
X0534405Y0176746D02*
X0534405Y0174710D01*
X0534405Y0176746D02*
X0536243Y0176746D01*
X0536243Y0174710D01*
X0534405Y0174710D01*
X0534405Y0176623D02*
X0536243Y0176623D01*
X0536243Y0180616D02*
X0536243Y0182652D01*
X0536243Y0180616D02*
X0534405Y0180616D01*
X0534405Y0182652D01*
X0536243Y0182652D01*
X0536243Y0182529D02*
X0534405Y0182529D01*
X0524243Y0182652D02*
X0524243Y0180616D01*
X0522405Y0180616D01*
X0522405Y0182652D01*
X0524243Y0182652D01*
X0524243Y0182529D02*
X0522405Y0182529D01*
X0522405Y0176746D02*
X0522405Y0174710D01*
X0522405Y0176746D02*
X0524243Y0176746D01*
X0524243Y0174710D01*
X0522405Y0174710D01*
X0522405Y0176623D02*
X0524243Y0176623D01*
X0510405Y0176746D02*
X0510405Y0174710D01*
X0510405Y0176746D02*
X0512243Y0176746D01*
X0512243Y0174710D01*
X0510405Y0174710D01*
X0510405Y0176623D02*
X0512243Y0176623D01*
X0512243Y0180616D02*
X0512243Y0182652D01*
X0512243Y0180616D02*
X0510405Y0180616D01*
X0510405Y0182652D01*
X0512243Y0182652D01*
X0512243Y0182529D02*
X0510405Y0182529D01*
X0474043Y0182384D02*
X0474043Y0180348D01*
X0474043Y0182384D02*
X0475881Y0182384D01*
X0475881Y0180348D01*
X0474043Y0180348D01*
X0474043Y0182261D02*
X0475881Y0182261D01*
X0475881Y0186254D02*
X0475881Y0188290D01*
X0475881Y0186254D02*
X0474043Y0186254D01*
X0474043Y0188290D01*
X0475881Y0188290D01*
X0475881Y0188167D02*
X0474043Y0188167D01*
X0654853Y0291600D02*
X0656889Y0291600D01*
X0656889Y0289762D01*
X0654853Y0289762D01*
X0654853Y0291600D01*
X0660759Y0289762D02*
X0662795Y0289762D01*
X0660759Y0289762D02*
X0660759Y0291600D01*
X0662795Y0291600D01*
X0662795Y0289762D01*
X0673853Y0291600D02*
X0675889Y0291600D01*
X0675889Y0289762D01*
X0673853Y0289762D01*
X0673853Y0291600D01*
X0679759Y0289762D02*
X0681795Y0289762D01*
X0679759Y0289762D02*
X0679759Y0291600D01*
X0681795Y0291600D01*
X0681795Y0289762D01*
X0635933Y0301262D02*
X0633897Y0301262D01*
X0633897Y0303100D01*
X0635933Y0303100D01*
X0635933Y0301262D01*
X0630027Y0303100D02*
X0627991Y0303100D01*
X0630027Y0303100D02*
X0630027Y0301262D01*
X0627991Y0301262D01*
X0627991Y0303100D01*
X0627991Y0315100D02*
X0630027Y0315100D01*
X0630027Y0313262D01*
X0627991Y0313262D01*
X0627991Y0315100D01*
X0633897Y0313262D02*
X0635933Y0313262D01*
X0633897Y0313262D02*
X0633897Y0315100D01*
X0635933Y0315100D01*
X0635933Y0313262D01*
X0912491Y0344600D02*
X0914527Y0344600D01*
X0914527Y0342762D01*
X0912491Y0342762D01*
X0912491Y0344600D01*
X0918397Y0342762D02*
X0920433Y0342762D01*
X0918397Y0342762D02*
X0918397Y0344600D01*
X0920433Y0344600D01*
X0920433Y0342762D01*
X0962491Y0353600D02*
X0964527Y0353600D01*
X0964527Y0351762D01*
X0962491Y0351762D01*
X0962491Y0353600D01*
X0968397Y0351762D02*
X0970433Y0351762D01*
X0968397Y0351762D02*
X0968397Y0353600D01*
X0970433Y0353600D01*
X0970433Y0351762D01*
X1039350Y0372388D02*
X1039350Y0374424D01*
X1041188Y0374424D01*
X1041188Y0372388D01*
X1039350Y0372388D01*
X1039350Y0374301D02*
X1041188Y0374301D01*
X1041188Y0378293D02*
X1041188Y0380329D01*
X1041188Y0378293D02*
X1039350Y0378293D01*
X1039350Y0380329D01*
X1041188Y0380329D01*
X1041188Y0380206D02*
X1039350Y0380206D01*
X1061188Y0380329D02*
X1061188Y0378293D01*
X1059350Y0378293D01*
X1059350Y0380329D01*
X1061188Y0380329D01*
X1061188Y0380206D02*
X1059350Y0380206D01*
X1059350Y0374424D02*
X1059350Y0372388D01*
X1059350Y0374424D02*
X1061188Y0374424D01*
X1061188Y0372388D01*
X1059350Y0372388D01*
X1059350Y0374301D02*
X1061188Y0374301D01*
X1126043Y0403710D02*
X1126043Y0405746D01*
X1127881Y0405746D01*
X1127881Y0403710D01*
X1126043Y0403710D01*
X1126043Y0405623D02*
X1127881Y0405623D01*
X1127881Y0409616D02*
X1127881Y0411652D01*
X1127881Y0409616D02*
X1126043Y0409616D01*
X1126043Y0411652D01*
X1127881Y0411652D01*
X1127881Y0411529D02*
X1126043Y0411529D01*
X1208905Y0422210D02*
X1208905Y0424246D01*
X1210743Y0424246D01*
X1210743Y0422210D01*
X1208905Y0422210D01*
X1208905Y0424123D02*
X1210743Y0424123D01*
X1210743Y0428116D02*
X1210743Y0430152D01*
X1210743Y0428116D02*
X1208905Y0428116D01*
X1208905Y0430152D01*
X1210743Y0430152D01*
X1210743Y0430029D02*
X1208905Y0430029D01*
X1216743Y0430152D02*
X1216743Y0428116D01*
X1214905Y0428116D01*
X1214905Y0430152D01*
X1216743Y0430152D01*
X1216743Y0430029D02*
X1214905Y0430029D01*
X1214905Y0424246D02*
X1214905Y0422210D01*
X1214905Y0424246D02*
X1216743Y0424246D01*
X1216743Y0422210D01*
X1214905Y0422210D01*
X1214905Y0424123D02*
X1216743Y0424123D01*
X1117795Y0312262D02*
X1115759Y0312262D01*
X1115759Y0314100D01*
X1117795Y0314100D01*
X1117795Y0312262D01*
X1111889Y0314100D02*
X1109853Y0314100D01*
X1111889Y0314100D02*
X1111889Y0312262D01*
X1109853Y0312262D01*
X1109853Y0314100D01*
X1109853Y0304100D02*
X1111889Y0304100D01*
X1111889Y0302262D01*
X1109853Y0302262D01*
X1109853Y0304100D01*
X1115759Y0302262D02*
X1117795Y0302262D01*
X1115759Y0302262D02*
X1115759Y0304100D01*
X1117795Y0304100D01*
X1117795Y0302262D01*
X1117795Y0292262D02*
X1115759Y0292262D01*
X1115759Y0294100D01*
X1117795Y0294100D01*
X1117795Y0292262D01*
X1111889Y0294100D02*
X1109853Y0294100D01*
X1111889Y0294100D02*
X1111889Y0292262D01*
X1109853Y0292262D01*
X1109853Y0294100D01*
X1109853Y0284100D02*
X1111889Y0284100D01*
X1111889Y0282262D01*
X1109853Y0282262D01*
X1109853Y0284100D01*
X1115759Y0282262D02*
X1117795Y0282262D01*
X1115759Y0282262D02*
X1115759Y0284100D01*
X1117795Y0284100D01*
X1117795Y0282262D01*
X1117795Y0267262D02*
X1115759Y0267262D01*
X1115759Y0269100D01*
X1117795Y0269100D01*
X1117795Y0267262D01*
X1111889Y0269100D02*
X1109853Y0269100D01*
X1111889Y0269100D02*
X1111889Y0267262D01*
X1109853Y0267262D01*
X1109853Y0269100D01*
X1109853Y0259100D02*
X1111889Y0259100D01*
X1111889Y0257262D01*
X1109853Y0257262D01*
X1109853Y0259100D01*
X1115759Y0257262D02*
X1117795Y0257262D01*
X1115759Y0257262D02*
X1115759Y0259100D01*
X1117795Y0259100D01*
X1117795Y0257262D01*
X1117795Y0247262D02*
X1115759Y0247262D01*
X1115759Y0249100D01*
X1117795Y0249100D01*
X1117795Y0247262D01*
X1111889Y0249100D02*
X1109853Y0249100D01*
X1111889Y0249100D02*
X1111889Y0247262D01*
X1109853Y0247262D01*
X1109853Y0249100D01*
X1109853Y0239100D02*
X1111889Y0239100D01*
X1111889Y0237262D01*
X1109853Y0237262D01*
X1109853Y0239100D01*
X1115759Y0237262D02*
X1117795Y0237262D01*
X1115759Y0237262D02*
X1115759Y0239100D01*
X1117795Y0239100D01*
X1117795Y0237262D01*
X1117795Y0222262D02*
X1115759Y0222262D01*
X1115759Y0224100D01*
X1117795Y0224100D01*
X1117795Y0222262D01*
X1111889Y0224100D02*
X1109853Y0224100D01*
X1111889Y0224100D02*
X1111889Y0222262D01*
X1109853Y0222262D01*
X1109853Y0224100D01*
X1109853Y0214100D02*
X1111889Y0214100D01*
X1111889Y0212262D01*
X1109853Y0212262D01*
X1109853Y0214100D01*
X1115759Y0212262D02*
X1117795Y0212262D01*
X1115759Y0212262D02*
X1115759Y0214100D01*
X1117795Y0214100D01*
X1117795Y0212262D01*
X1117795Y0202262D02*
X1115759Y0202262D01*
X1115759Y0204100D01*
X1117795Y0204100D01*
X1117795Y0202262D01*
X1111889Y0204100D02*
X1109853Y0204100D01*
X1111889Y0204100D02*
X1111889Y0202262D01*
X1109853Y0202262D01*
X1109853Y0204100D01*
X1109853Y0194100D02*
X1111889Y0194100D01*
X1111889Y0192262D01*
X1109853Y0192262D01*
X1109853Y0194100D01*
X1115759Y0192262D02*
X1117795Y0192262D01*
X1115759Y0192262D02*
X1115759Y0194100D01*
X1117795Y0194100D01*
X1117795Y0192262D01*
X1117795Y0177262D02*
X1115759Y0177262D01*
X1115759Y0179100D01*
X1117795Y0179100D01*
X1117795Y0177262D01*
X1111889Y0179100D02*
X1109853Y0179100D01*
X1111889Y0179100D02*
X1111889Y0177262D01*
X1109853Y0177262D01*
X1109853Y0179100D01*
X1109853Y0169100D02*
X1111889Y0169100D01*
X1111889Y0167262D01*
X1109853Y0167262D01*
X1109853Y0169100D01*
X1115759Y0167262D02*
X1117795Y0167262D01*
X1115759Y0167262D02*
X1115759Y0169100D01*
X1117795Y0169100D01*
X1117795Y0167262D01*
X1117795Y0157262D02*
X1115759Y0157262D01*
X1115759Y0159100D01*
X1117795Y0159100D01*
X1117795Y0157262D01*
X1111889Y0159100D02*
X1109853Y0159100D01*
X1111889Y0159100D02*
X1111889Y0157262D01*
X1109853Y0157262D01*
X1109853Y0159100D01*
X1109853Y0149100D02*
X1111889Y0149100D01*
X1111889Y0147262D01*
X1109853Y0147262D01*
X1109853Y0149100D01*
X1115759Y0147262D02*
X1117795Y0147262D01*
X1115759Y0147262D02*
X1115759Y0149100D01*
X1117795Y0149100D01*
X1117795Y0147262D01*
X1117795Y0132262D02*
X1115759Y0132262D01*
X1115759Y0134100D01*
X1117795Y0134100D01*
X1117795Y0132262D01*
X1111889Y0134100D02*
X1109853Y0134100D01*
X1111889Y0134100D02*
X1111889Y0132262D01*
X1109853Y0132262D01*
X1109853Y0134100D01*
X1109853Y0124100D02*
X1111889Y0124100D01*
X1111889Y0122262D01*
X1109853Y0122262D01*
X1109853Y0124100D01*
X1115759Y0122262D02*
X1117795Y0122262D01*
X1115759Y0122262D02*
X1115759Y0124100D01*
X1117795Y0124100D01*
X1117795Y0122262D01*
X1117795Y0112262D02*
X1115759Y0112262D01*
X1115759Y0114100D01*
X1117795Y0114100D01*
X1117795Y0112262D01*
X1111889Y0114100D02*
X1109853Y0114100D01*
X1111889Y0114100D02*
X1111889Y0112262D01*
X1109853Y0112262D01*
X1109853Y0114100D01*
X1109853Y0104100D02*
X1111889Y0104100D01*
X1111889Y0102262D01*
X1109853Y0102262D01*
X1109853Y0104100D01*
X1115759Y0102262D02*
X1117795Y0102262D01*
X1115759Y0102262D02*
X1115759Y0104100D01*
X1117795Y0104100D01*
X1117795Y0102262D01*
X1117795Y0087262D02*
X1115759Y0087262D01*
X1115759Y0089100D01*
X1117795Y0089100D01*
X1117795Y0087262D01*
X1111889Y0089100D02*
X1109853Y0089100D01*
X1111889Y0089100D02*
X1111889Y0087262D01*
X1109853Y0087262D01*
X1109853Y0089100D01*
X1109853Y0079100D02*
X1111889Y0079100D01*
X1111889Y0077262D01*
X1109853Y0077262D01*
X1109853Y0079100D01*
X1115759Y0077262D02*
X1117795Y0077262D01*
X1115759Y0077262D02*
X1115759Y0079100D01*
X1117795Y0079100D01*
X1117795Y0077262D01*
X1117795Y0067262D02*
X1115759Y0067262D01*
X1115759Y0069100D01*
X1117795Y0069100D01*
X1117795Y0067262D01*
X1111889Y0069100D02*
X1109853Y0069100D01*
X1111889Y0069100D02*
X1111889Y0067262D01*
X1109853Y0067262D01*
X1109853Y0069100D01*
X1109853Y0059100D02*
X1111889Y0059100D01*
X1111889Y0057262D01*
X1109853Y0057262D01*
X1109853Y0059100D01*
X1115759Y0057262D02*
X1117795Y0057262D01*
X1115759Y0057262D02*
X1115759Y0059100D01*
X1117795Y0059100D01*
X1117795Y0057262D01*
X1100070Y0045762D02*
X1098034Y0045762D01*
X1098034Y0047600D01*
X1100070Y0047600D01*
X1100070Y0045762D01*
X1094165Y0047600D02*
X1092129Y0047600D01*
X1094165Y0047600D02*
X1094165Y0045762D01*
X1092129Y0045762D01*
X1092129Y0047600D01*
X1159491Y0053600D02*
X1161527Y0053600D01*
X1161527Y0051762D01*
X1159491Y0051762D01*
X1159491Y0053600D01*
X1165397Y0051762D02*
X1167433Y0051762D01*
X1165397Y0051762D02*
X1165397Y0053600D01*
X1167433Y0053600D01*
X1167433Y0051762D01*
X1193129Y0151600D02*
X1195165Y0151600D01*
X1195165Y0149762D01*
X1193129Y0149762D01*
X1193129Y0151600D01*
X1199034Y0149762D02*
X1201070Y0149762D01*
X1199034Y0149762D02*
X1199034Y0151600D01*
X1201070Y0151600D01*
X1201070Y0149762D01*
X1187570Y0232762D02*
X1185534Y0232762D01*
X1185534Y0234600D01*
X1187570Y0234600D01*
X1187570Y0232762D01*
X1181665Y0234600D02*
X1179629Y0234600D01*
X1181665Y0234600D02*
X1181665Y0232762D01*
X1179629Y0232762D01*
X1179629Y0234600D01*
X1167433Y0290762D02*
X1165397Y0290762D01*
X1165397Y0292600D01*
X1167433Y0292600D01*
X1167433Y0290762D01*
X1161527Y0292600D02*
X1159491Y0292600D01*
X1161527Y0292600D02*
X1161527Y0290762D01*
X1159491Y0290762D01*
X1159491Y0292600D01*
X0933433Y0197762D02*
X0931397Y0197762D01*
X0931397Y0199600D01*
X0933433Y0199600D01*
X0933433Y0197762D01*
X0927527Y0199600D02*
X0925491Y0199600D01*
X0927527Y0199600D02*
X0927527Y0197762D01*
X0925491Y0197762D01*
X0925491Y0199600D01*
X0925491Y0192600D02*
X0927527Y0192600D01*
X0927527Y0190762D01*
X0925491Y0190762D01*
X0925491Y0192600D01*
X0931397Y0190762D02*
X0933433Y0190762D01*
X0931397Y0190762D02*
X0931397Y0192600D01*
X0933433Y0192600D01*
X0933433Y0190762D01*
X0916433Y0190762D02*
X0914397Y0190762D01*
X0914397Y0192600D01*
X0916433Y0192600D01*
X0916433Y0190762D01*
X0910527Y0192600D02*
X0908491Y0192600D01*
X0910527Y0192600D02*
X0910527Y0190762D01*
X0908491Y0190762D01*
X0908491Y0192600D01*
X0899381Y0185652D02*
X0899381Y0183616D01*
X0897543Y0183616D01*
X0897543Y0185652D01*
X0899381Y0185652D01*
X0899381Y0185529D02*
X0897543Y0185529D01*
X0897543Y0179746D02*
X0897543Y0177710D01*
X0897543Y0179746D02*
X0899381Y0179746D01*
X0899381Y0177710D01*
X0897543Y0177710D01*
X0897543Y0179623D02*
X0899381Y0179623D01*
X0899381Y0170652D02*
X0899381Y0168616D01*
X0897543Y0168616D01*
X0897543Y0170652D01*
X0899381Y0170652D01*
X0899381Y0170529D02*
X0897543Y0170529D01*
X0897543Y0164746D02*
X0897543Y0162710D01*
X0897543Y0164746D02*
X0899381Y0164746D01*
X0899381Y0162710D01*
X0897543Y0162710D01*
X0897543Y0164623D02*
X0899381Y0164623D01*
X0899381Y0156652D02*
X0899381Y0154616D01*
X0897543Y0154616D01*
X0897543Y0156652D01*
X0899381Y0156652D01*
X0899381Y0156529D02*
X0897543Y0156529D01*
X0897543Y0150746D02*
X0897543Y0148710D01*
X0897543Y0150746D02*
X0899381Y0150746D01*
X0899381Y0148710D01*
X0897543Y0148710D01*
X0897543Y0150623D02*
X0899381Y0150623D01*
X0835405Y0173710D02*
X0835405Y0175746D01*
X0837243Y0175746D01*
X0837243Y0173710D01*
X0835405Y0173710D01*
X0835405Y0175623D02*
X0837243Y0175623D01*
X0837243Y0179616D02*
X0837243Y0181652D01*
X0837243Y0179616D02*
X0835405Y0179616D01*
X0835405Y0181652D01*
X0837243Y0181652D01*
X0837243Y0181529D02*
X0835405Y0181529D01*
X0825243Y0181652D02*
X0825243Y0179616D01*
X0823405Y0179616D01*
X0823405Y0181652D01*
X0825243Y0181652D01*
X0825243Y0181529D02*
X0823405Y0181529D01*
X0823405Y0175746D02*
X0823405Y0173710D01*
X0823405Y0175746D02*
X0825243Y0175746D01*
X0825243Y0173710D01*
X0823405Y0173710D01*
X0823405Y0175623D02*
X0825243Y0175623D01*
X0811405Y0175746D02*
X0811405Y0173710D01*
X0811405Y0175746D02*
X0813243Y0175746D01*
X0813243Y0173710D01*
X0811405Y0173710D01*
X0811405Y0175623D02*
X0813243Y0175623D01*
X0813243Y0179616D02*
X0813243Y0181652D01*
X0813243Y0179616D02*
X0811405Y0179616D01*
X0811405Y0181652D01*
X0813243Y0181652D01*
X0813243Y0181529D02*
X0811405Y0181529D01*
X0801243Y0181652D02*
X0801243Y0179616D01*
X0799405Y0179616D01*
X0799405Y0181652D01*
X0801243Y0181652D01*
X0801243Y0181529D02*
X0799405Y0181529D01*
X0799405Y0175746D02*
X0799405Y0173710D01*
X0799405Y0175746D02*
X0801243Y0175746D01*
X0801243Y0173710D01*
X0799405Y0173710D01*
X0799405Y0175623D02*
X0801243Y0175623D01*
X0083543Y0200710D02*
X0083543Y0202746D01*
X0085381Y0202746D01*
X0085381Y0200710D01*
X0083543Y0200710D01*
X0083543Y0202623D02*
X0085381Y0202623D01*
X0085381Y0206616D02*
X0085381Y0208652D01*
X0085381Y0206616D02*
X0083543Y0206616D01*
X0083543Y0208652D01*
X0085381Y0208652D01*
X0085381Y0208529D02*
X0083543Y0208529D01*
X0083295Y0213762D02*
X0081259Y0213762D01*
X0081259Y0215600D01*
X0083295Y0215600D01*
X0083295Y0213762D01*
X0077389Y0215600D02*
X0075353Y0215600D01*
X0077389Y0215600D02*
X0077389Y0213762D01*
X0075353Y0213762D01*
X0075353Y0215600D01*
X0067295Y0213762D02*
X0065259Y0213762D01*
X0065259Y0215600D01*
X0067295Y0215600D01*
X0067295Y0213762D01*
X0061389Y0215600D02*
X0059353Y0215600D01*
X0061389Y0215600D02*
X0061389Y0213762D01*
X0059353Y0213762D01*
X0059353Y0215600D01*
X0041433Y0272762D02*
X0039397Y0272762D01*
X0039397Y0274600D01*
X0041433Y0274600D01*
X0041433Y0272762D01*
X0035527Y0274600D02*
X0033491Y0274600D01*
X0035527Y0274600D02*
X0035527Y0272762D01*
X0033491Y0272762D01*
X0033491Y0274600D01*
D11*
X0986962Y0401181D03*
D12*
X0956962Y0401181D03*
D13*
X0095462Y0337681D03*
X0050462Y0337681D03*
D14*
X0050462Y0323681D03*
X0095462Y0323681D03*
D15*
X0042493Y0127323D02*
X0042493Y0124039D01*
X0036809Y0124039D01*
X0036809Y0127323D01*
X0042493Y0127323D01*
X0042493Y0126319D02*
X0036809Y0126319D01*
X0036809Y0115906D02*
X0036809Y0112622D01*
X0036809Y0115906D02*
X0042493Y0115906D01*
X0042493Y0112622D01*
X0036809Y0112622D01*
X0036809Y0114902D02*
X0042493Y0114902D01*
D16*
X0139104Y0068087D03*
X0159104Y0068087D03*
X0179104Y0068087D03*
X0199104Y0068087D03*
X0219104Y0068087D03*
X0239104Y0068087D03*
X0259104Y0068087D03*
X0279104Y0068087D03*
X0299104Y0068087D03*
X0319104Y0068087D03*
X0339104Y0068087D03*
X0359104Y0068087D03*
X0379104Y0068087D03*
X0399104Y0068087D03*
X0419104Y0068087D03*
X0439104Y0068087D03*
X0459104Y0068087D03*
X0479104Y0068087D03*
X0499104Y0068087D03*
X0519104Y0068087D03*
X0539104Y0068087D03*
X0559104Y0068087D03*
X0579104Y0068087D03*
X0599104Y0068087D03*
X0619104Y0068087D03*
X0639104Y0068087D03*
X0659104Y0068087D03*
X0679104Y0068087D03*
X0699104Y0068087D03*
X0719104Y0068087D03*
X0739104Y0068087D03*
X0759104Y0068087D03*
X0779104Y0068087D03*
X0799104Y0068087D03*
X0819104Y0068087D03*
X0839104Y0068087D03*
X0859104Y0068087D03*
X0879104Y0068087D03*
X0899104Y0068087D03*
X0899104Y0038087D03*
X0879104Y0038087D03*
X0859104Y0038087D03*
X0839104Y0038087D03*
X0819104Y0038087D03*
X0799104Y0038087D03*
X0779104Y0038087D03*
X0759104Y0038087D03*
X0739104Y0038087D03*
X0719104Y0038087D03*
X0699104Y0038087D03*
X0679104Y0038087D03*
X0659104Y0038087D03*
X0639104Y0038087D03*
X0619104Y0038087D03*
X0599104Y0038087D03*
X0579104Y0038087D03*
X0559104Y0038087D03*
X0539104Y0038087D03*
X0519104Y0038087D03*
X0499104Y0038087D03*
X0479104Y0038087D03*
X0459104Y0038087D03*
X0439104Y0038087D03*
X0419104Y0038087D03*
X0399104Y0038087D03*
X0379104Y0038087D03*
X0359104Y0038087D03*
X0339104Y0038087D03*
X0319104Y0038087D03*
X0299104Y0038087D03*
X0279104Y0038087D03*
X0259104Y0038087D03*
X0239104Y0038087D03*
X0219104Y0038087D03*
X0199104Y0038087D03*
X0179104Y0038087D03*
X0159104Y0038087D03*
X0139104Y0038087D03*
X0656682Y0334776D03*
X0676682Y0334776D03*
X0696682Y0334776D03*
X0716682Y0334776D03*
X0736682Y0334776D03*
X0756682Y0334776D03*
X0776682Y0334776D03*
X0796682Y0334776D03*
X0816682Y0334776D03*
X0836682Y0334776D03*
X0856682Y0334776D03*
X0856682Y0364776D03*
X0836682Y0364776D03*
X0816682Y0364776D03*
X0796682Y0364776D03*
X0776682Y0364776D03*
X0756682Y0364776D03*
X0736682Y0364776D03*
X0716682Y0364776D03*
X0696682Y0364776D03*
X0676682Y0364776D03*
X0656682Y0364776D03*
X0656682Y0399776D03*
X0676682Y0399776D03*
X0696682Y0399776D03*
X0716682Y0399776D03*
X0736682Y0399776D03*
X0756682Y0399776D03*
X0776682Y0399776D03*
X0796682Y0399776D03*
X0816682Y0399776D03*
X0836682Y0399776D03*
X0856682Y0399776D03*
X0856682Y0429776D03*
X0836682Y0429776D03*
X0816682Y0429776D03*
X0796682Y0429776D03*
X0776682Y0429776D03*
X0756682Y0429776D03*
X0736682Y0429776D03*
X0716682Y0429776D03*
X0696682Y0429776D03*
X0676682Y0429776D03*
X0656682Y0429776D03*
X0584044Y0429776D03*
X0564044Y0429776D03*
X0544044Y0429776D03*
X0524044Y0429776D03*
X0504044Y0429776D03*
X0484044Y0429776D03*
X0464044Y0429776D03*
X0444044Y0429776D03*
X0424044Y0429776D03*
X0404044Y0429776D03*
X0384044Y0429776D03*
X0364044Y0429776D03*
X0344044Y0429776D03*
X0324044Y0429776D03*
X0304044Y0429776D03*
X0284044Y0429776D03*
X0264044Y0429776D03*
X0244044Y0429776D03*
X0224044Y0429776D03*
X0204044Y0429776D03*
X0184044Y0429776D03*
X0164044Y0429776D03*
X0144044Y0429776D03*
X0144044Y0399776D03*
X0164044Y0399776D03*
X0184044Y0399776D03*
X0204044Y0399776D03*
X0224044Y0399776D03*
X0244044Y0399776D03*
X0264044Y0399776D03*
X0284044Y0399776D03*
X0304044Y0399776D03*
X0324044Y0399776D03*
X0344044Y0399776D03*
X0364044Y0399776D03*
X0384044Y0399776D03*
X0404044Y0399776D03*
X0424044Y0399776D03*
X0444044Y0399776D03*
X0464044Y0399776D03*
X0484044Y0399776D03*
X0504044Y0399776D03*
X0524044Y0399776D03*
X0544044Y0399776D03*
X0564044Y0399776D03*
X0584044Y0399776D03*
X1056682Y0399776D03*
X1076682Y0399776D03*
X1076682Y0429776D03*
X1056682Y0429776D03*
D17*
X1036682Y0429776D03*
X1036682Y0399776D03*
X0636682Y0399776D03*
X0636682Y0429776D03*
X0636682Y0364776D03*
X0636682Y0334776D03*
X0124044Y0399776D03*
X0124044Y0429776D03*
X0919104Y0068087D03*
X0919104Y0038087D03*
D18*
X0645824Y0243681D03*
D19*
X0655824Y0243681D03*
X0665824Y0243681D03*
X0675824Y0243681D03*
D20*
X1223824Y0240681D03*
D21*
X1233824Y0240681D03*
X1233824Y0230681D03*
X1223824Y0230681D03*
X1223824Y0220681D03*
X1233824Y0220681D03*
X1233824Y0210681D03*
X1223824Y0210681D03*
X1223824Y0200681D03*
X1233824Y0200681D03*
X1233824Y0190681D03*
X1223824Y0190681D03*
X1223824Y0180681D03*
X1233824Y0180681D03*
X1233824Y0170681D03*
X1223824Y0170681D03*
X1223824Y0160681D03*
X1233824Y0160681D03*
X1233824Y0150681D03*
X1223824Y0150681D03*
X1223824Y0140681D03*
X1233824Y0140681D03*
X1233824Y0130681D03*
X1223824Y0130681D03*
X1223824Y0120681D03*
X1233824Y0120681D03*
D22*
X0867214Y0121681D03*
X0853434Y0121681D03*
X0842214Y0121681D03*
X0828434Y0121681D03*
X0817214Y0121681D03*
X0803434Y0121681D03*
X0792214Y0121681D03*
X0778434Y0121681D03*
X0732214Y0121681D03*
X0718434Y0121681D03*
X0707214Y0121681D03*
X0693434Y0121681D03*
X0682214Y0121681D03*
X0668434Y0121681D03*
X0657214Y0121681D03*
X0643434Y0121681D03*
X0577214Y0121681D03*
X0563434Y0121681D03*
X0552214Y0121681D03*
X0538434Y0121681D03*
X0527214Y0121681D03*
X0513434Y0121681D03*
X0502214Y0121681D03*
X0488434Y0121681D03*
X0417214Y0121681D03*
X0403434Y0121681D03*
X0392214Y0121681D03*
X0378434Y0121681D03*
X0367214Y0121681D03*
X0353434Y0121681D03*
X0342214Y0121681D03*
X0328434Y0121681D03*
X0252214Y0121681D03*
X0238434Y0121681D03*
X0227214Y0121681D03*
X0213434Y0121681D03*
X0202214Y0121681D03*
X0188434Y0121681D03*
X0177214Y0121681D03*
X0163434Y0121681D03*
D23*
X0454824Y0291350D03*
X0451084Y0300012D03*
X0458564Y0300012D03*
X1080954Y0355748D03*
X1089615Y0359488D03*
X1080954Y0363228D03*
D24*
X0583824Y0368071D03*
X0583824Y0354291D03*
X0543824Y0354791D03*
X0543824Y0368571D03*
X0503824Y0368571D03*
X0503824Y0354791D03*
X0463824Y0354791D03*
X0463824Y0368571D03*
X0423824Y0367571D03*
X0423824Y0353791D03*
X0383824Y0353791D03*
X0383824Y0367571D03*
X0343824Y0367571D03*
X0343824Y0353791D03*
X0302824Y0353791D03*
X0302824Y0367571D03*
X0263824Y0367571D03*
X0263824Y0353791D03*
X0223824Y0353791D03*
X0223824Y0367571D03*
X0183824Y0367571D03*
X0183824Y0353791D03*
X0143824Y0353791D03*
X0143824Y0367571D03*
D25*
X0037462Y0301752D03*
X0037462Y0285610D03*
D26*
X1151159Y0312681D03*
X1175765Y0312681D03*
X1177127Y0213681D03*
X1152521Y0213681D03*
X1151159Y0124681D03*
X1175765Y0124681D03*
D27*
X0615218Y0251594D02*
X0610508Y0251594D01*
X0610508Y0252524D01*
X0615218Y0252524D01*
X0615218Y0251594D01*
X0615218Y0253563D02*
X0610508Y0253563D01*
X0610508Y0254493D01*
X0615218Y0254493D01*
X0615218Y0253563D01*
X0615218Y0255531D02*
X0610508Y0255531D01*
X0610508Y0256461D01*
X0615218Y0256461D01*
X0615218Y0255531D01*
X0615218Y0257500D02*
X0610508Y0257500D01*
X0610508Y0258430D01*
X0615218Y0258430D01*
X0615218Y0257500D01*
X0615218Y0259468D02*
X0610508Y0259468D01*
X0610508Y0260398D01*
X0615218Y0260398D01*
X0615218Y0259468D01*
X0615218Y0261437D02*
X0610508Y0261437D01*
X0610508Y0262367D01*
X0615218Y0262367D01*
X0615218Y0261437D01*
X0615218Y0263405D02*
X0610508Y0263405D01*
X0610508Y0264335D01*
X0615218Y0264335D01*
X0615218Y0263405D01*
X0615218Y0265374D02*
X0610508Y0265374D01*
X0610508Y0266304D01*
X0615218Y0266304D01*
X0615218Y0265374D01*
X0615218Y0267342D02*
X0610508Y0267342D01*
X0610508Y0268272D01*
X0615218Y0268272D01*
X0615218Y0267342D01*
X0615218Y0269311D02*
X0610508Y0269311D01*
X0610508Y0270241D01*
X0615218Y0270241D01*
X0615218Y0269311D01*
X0615218Y0271279D02*
X0610508Y0271279D01*
X0610508Y0272209D01*
X0615218Y0272209D01*
X0615218Y0271279D01*
X0615218Y0273248D02*
X0610508Y0273248D01*
X0610508Y0274178D01*
X0615218Y0274178D01*
X0615218Y0273248D01*
X0615218Y0275216D02*
X0610508Y0275216D01*
X0610508Y0276146D01*
X0615218Y0276146D01*
X0615218Y0275216D01*
X0615218Y0277185D02*
X0610508Y0277185D01*
X0610508Y0278115D01*
X0615218Y0278115D01*
X0615218Y0277185D01*
X0615218Y0279153D02*
X0610508Y0279153D01*
X0610508Y0280083D01*
X0615218Y0280083D01*
X0615218Y0279153D01*
X0615218Y0281122D02*
X0610508Y0281122D01*
X0610508Y0282052D01*
X0615218Y0282052D01*
X0615218Y0281122D01*
X0615218Y0283090D02*
X0610508Y0283090D01*
X0610508Y0284020D01*
X0615218Y0284020D01*
X0615218Y0283090D01*
X0615218Y0285059D02*
X0610508Y0285059D01*
X0610508Y0285989D01*
X0615218Y0285989D01*
X0615218Y0285059D01*
X0615218Y0287027D02*
X0610508Y0287027D01*
X0610508Y0287957D01*
X0615218Y0287957D01*
X0615218Y0287027D01*
X0615218Y0288996D02*
X0610508Y0288996D01*
X0610508Y0289926D01*
X0615218Y0289926D01*
X0615218Y0288996D01*
X0615218Y0290964D02*
X0610508Y0290964D01*
X0610508Y0291894D01*
X0615218Y0291894D01*
X0615218Y0290964D01*
X0615218Y0292933D02*
X0610508Y0292933D01*
X0610508Y0293863D01*
X0615218Y0293863D01*
X0615218Y0292933D01*
X0615218Y0294901D02*
X0610508Y0294901D01*
X0610508Y0295831D01*
X0615218Y0295831D01*
X0615218Y0294901D01*
X0615218Y0296870D02*
X0610508Y0296870D01*
X0610508Y0297800D01*
X0615218Y0297800D01*
X0615218Y0296870D01*
X0615218Y0298838D02*
X0610508Y0298838D01*
X0610508Y0299768D01*
X0615218Y0299768D01*
X0615218Y0298838D01*
X0606911Y0303365D02*
X0606911Y0308075D01*
X0606911Y0303365D02*
X0605981Y0303365D01*
X0605981Y0308075D01*
X0606911Y0308075D01*
X0606911Y0304414D02*
X0605981Y0304414D01*
X0605981Y0305463D02*
X0606911Y0305463D01*
X0606911Y0306512D02*
X0605981Y0306512D01*
X0605981Y0307561D02*
X0606911Y0307561D01*
X0604943Y0308075D02*
X0604943Y0303365D01*
X0604013Y0303365D01*
X0604013Y0308075D01*
X0604943Y0308075D01*
X0604943Y0304414D02*
X0604013Y0304414D01*
X0604013Y0305463D02*
X0604943Y0305463D01*
X0604943Y0306512D02*
X0604013Y0306512D01*
X0604013Y0307561D02*
X0604943Y0307561D01*
X0602974Y0308075D02*
X0602974Y0303365D01*
X0602044Y0303365D01*
X0602044Y0308075D01*
X0602974Y0308075D01*
X0602974Y0304414D02*
X0602044Y0304414D01*
X0602044Y0305463D02*
X0602974Y0305463D01*
X0602974Y0306512D02*
X0602044Y0306512D01*
X0602044Y0307561D02*
X0602974Y0307561D01*
X0601006Y0308075D02*
X0601006Y0303365D01*
X0600076Y0303365D01*
X0600076Y0308075D01*
X0601006Y0308075D01*
X0601006Y0304414D02*
X0600076Y0304414D01*
X0600076Y0305463D02*
X0601006Y0305463D01*
X0601006Y0306512D02*
X0600076Y0306512D01*
X0600076Y0307561D02*
X0601006Y0307561D01*
X0599037Y0308075D02*
X0599037Y0303365D01*
X0598107Y0303365D01*
X0598107Y0308075D01*
X0599037Y0308075D01*
X0599037Y0304414D02*
X0598107Y0304414D01*
X0598107Y0305463D02*
X0599037Y0305463D01*
X0599037Y0306512D02*
X0598107Y0306512D01*
X0598107Y0307561D02*
X0599037Y0307561D01*
X0597069Y0308075D02*
X0597069Y0303365D01*
X0596139Y0303365D01*
X0596139Y0308075D01*
X0597069Y0308075D01*
X0597069Y0304414D02*
X0596139Y0304414D01*
X0596139Y0305463D02*
X0597069Y0305463D01*
X0597069Y0306512D02*
X0596139Y0306512D01*
X0596139Y0307561D02*
X0597069Y0307561D01*
X0595100Y0308075D02*
X0595100Y0303365D01*
X0594170Y0303365D01*
X0594170Y0308075D01*
X0595100Y0308075D01*
X0595100Y0304414D02*
X0594170Y0304414D01*
X0594170Y0305463D02*
X0595100Y0305463D01*
X0595100Y0306512D02*
X0594170Y0306512D01*
X0594170Y0307561D02*
X0595100Y0307561D01*
X0593132Y0308075D02*
X0593132Y0303365D01*
X0592202Y0303365D01*
X0592202Y0308075D01*
X0593132Y0308075D01*
X0593132Y0304414D02*
X0592202Y0304414D01*
X0592202Y0305463D02*
X0593132Y0305463D01*
X0593132Y0306512D02*
X0592202Y0306512D01*
X0592202Y0307561D02*
X0593132Y0307561D01*
X0591163Y0308075D02*
X0591163Y0303365D01*
X0590233Y0303365D01*
X0590233Y0308075D01*
X0591163Y0308075D01*
X0591163Y0304414D02*
X0590233Y0304414D01*
X0590233Y0305463D02*
X0591163Y0305463D01*
X0591163Y0306512D02*
X0590233Y0306512D01*
X0590233Y0307561D02*
X0591163Y0307561D01*
X0589195Y0308075D02*
X0589195Y0303365D01*
X0588265Y0303365D01*
X0588265Y0308075D01*
X0589195Y0308075D01*
X0589195Y0304414D02*
X0588265Y0304414D01*
X0588265Y0305463D02*
X0589195Y0305463D01*
X0589195Y0306512D02*
X0588265Y0306512D01*
X0588265Y0307561D02*
X0589195Y0307561D01*
X0587226Y0308075D02*
X0587226Y0303365D01*
X0586296Y0303365D01*
X0586296Y0308075D01*
X0587226Y0308075D01*
X0587226Y0304414D02*
X0586296Y0304414D01*
X0586296Y0305463D02*
X0587226Y0305463D01*
X0587226Y0306512D02*
X0586296Y0306512D01*
X0586296Y0307561D02*
X0587226Y0307561D01*
X0585258Y0308075D02*
X0585258Y0303365D01*
X0584328Y0303365D01*
X0584328Y0308075D01*
X0585258Y0308075D01*
X0585258Y0304414D02*
X0584328Y0304414D01*
X0584328Y0305463D02*
X0585258Y0305463D01*
X0585258Y0306512D02*
X0584328Y0306512D01*
X0584328Y0307561D02*
X0585258Y0307561D01*
X0583289Y0308075D02*
X0583289Y0303365D01*
X0582359Y0303365D01*
X0582359Y0308075D01*
X0583289Y0308075D01*
X0583289Y0304414D02*
X0582359Y0304414D01*
X0582359Y0305463D02*
X0583289Y0305463D01*
X0583289Y0306512D02*
X0582359Y0306512D01*
X0582359Y0307561D02*
X0583289Y0307561D01*
X0581321Y0308075D02*
X0581321Y0303365D01*
X0580391Y0303365D01*
X0580391Y0308075D01*
X0581321Y0308075D01*
X0581321Y0304414D02*
X0580391Y0304414D01*
X0580391Y0305463D02*
X0581321Y0305463D01*
X0581321Y0306512D02*
X0580391Y0306512D01*
X0580391Y0307561D02*
X0581321Y0307561D01*
X0579352Y0308075D02*
X0579352Y0303365D01*
X0578422Y0303365D01*
X0578422Y0308075D01*
X0579352Y0308075D01*
X0579352Y0304414D02*
X0578422Y0304414D01*
X0578422Y0305463D02*
X0579352Y0305463D01*
X0579352Y0306512D02*
X0578422Y0306512D01*
X0578422Y0307561D02*
X0579352Y0307561D01*
X0577384Y0308075D02*
X0577384Y0303365D01*
X0576454Y0303365D01*
X0576454Y0308075D01*
X0577384Y0308075D01*
X0577384Y0304414D02*
X0576454Y0304414D01*
X0576454Y0305463D02*
X0577384Y0305463D01*
X0577384Y0306512D02*
X0576454Y0306512D01*
X0576454Y0307561D02*
X0577384Y0307561D01*
X0575415Y0308075D02*
X0575415Y0303365D01*
X0574485Y0303365D01*
X0574485Y0308075D01*
X0575415Y0308075D01*
X0575415Y0304414D02*
X0574485Y0304414D01*
X0574485Y0305463D02*
X0575415Y0305463D01*
X0575415Y0306512D02*
X0574485Y0306512D01*
X0574485Y0307561D02*
X0575415Y0307561D01*
X0573446Y0308075D02*
X0573446Y0303365D01*
X0572516Y0303365D01*
X0572516Y0308075D01*
X0573446Y0308075D01*
X0573446Y0304414D02*
X0572516Y0304414D01*
X0572516Y0305463D02*
X0573446Y0305463D01*
X0573446Y0306512D02*
X0572516Y0306512D01*
X0572516Y0307561D02*
X0573446Y0307561D01*
X0571478Y0308075D02*
X0571478Y0303365D01*
X0570548Y0303365D01*
X0570548Y0308075D01*
X0571478Y0308075D01*
X0571478Y0304414D02*
X0570548Y0304414D01*
X0570548Y0305463D02*
X0571478Y0305463D01*
X0571478Y0306512D02*
X0570548Y0306512D01*
X0570548Y0307561D02*
X0571478Y0307561D01*
X0569509Y0308075D02*
X0569509Y0303365D01*
X0568579Y0303365D01*
X0568579Y0308075D01*
X0569509Y0308075D01*
X0569509Y0304414D02*
X0568579Y0304414D01*
X0568579Y0305463D02*
X0569509Y0305463D01*
X0569509Y0306512D02*
X0568579Y0306512D01*
X0568579Y0307561D02*
X0569509Y0307561D01*
X0567541Y0308075D02*
X0567541Y0303365D01*
X0566611Y0303365D01*
X0566611Y0308075D01*
X0567541Y0308075D01*
X0567541Y0304414D02*
X0566611Y0304414D01*
X0566611Y0305463D02*
X0567541Y0305463D01*
X0567541Y0306512D02*
X0566611Y0306512D01*
X0566611Y0307561D02*
X0567541Y0307561D01*
X0565572Y0308075D02*
X0565572Y0303365D01*
X0564642Y0303365D01*
X0564642Y0308075D01*
X0565572Y0308075D01*
X0565572Y0304414D02*
X0564642Y0304414D01*
X0564642Y0305463D02*
X0565572Y0305463D01*
X0565572Y0306512D02*
X0564642Y0306512D01*
X0564642Y0307561D02*
X0565572Y0307561D01*
X0563604Y0308075D02*
X0563604Y0303365D01*
X0562674Y0303365D01*
X0562674Y0308075D01*
X0563604Y0308075D01*
X0563604Y0304414D02*
X0562674Y0304414D01*
X0562674Y0305463D02*
X0563604Y0305463D01*
X0563604Y0306512D02*
X0562674Y0306512D01*
X0562674Y0307561D02*
X0563604Y0307561D01*
X0561635Y0308075D02*
X0561635Y0303365D01*
X0560705Y0303365D01*
X0560705Y0308075D01*
X0561635Y0308075D01*
X0561635Y0304414D02*
X0560705Y0304414D01*
X0560705Y0305463D02*
X0561635Y0305463D01*
X0561635Y0306512D02*
X0560705Y0306512D01*
X0560705Y0307561D02*
X0561635Y0307561D01*
X0559667Y0308075D02*
X0559667Y0303365D01*
X0558737Y0303365D01*
X0558737Y0308075D01*
X0559667Y0308075D01*
X0559667Y0304414D02*
X0558737Y0304414D01*
X0558737Y0305463D02*
X0559667Y0305463D01*
X0559667Y0306512D02*
X0558737Y0306512D01*
X0558737Y0307561D02*
X0559667Y0307561D01*
X0555140Y0299768D02*
X0550430Y0299768D01*
X0555140Y0299768D02*
X0555140Y0298838D01*
X0550430Y0298838D01*
X0550430Y0299768D01*
X0550430Y0297800D02*
X0555140Y0297800D01*
X0555140Y0296870D01*
X0550430Y0296870D01*
X0550430Y0297800D01*
X0550430Y0295831D02*
X0555140Y0295831D01*
X0555140Y0294901D01*
X0550430Y0294901D01*
X0550430Y0295831D01*
X0550430Y0293863D02*
X0555140Y0293863D01*
X0555140Y0292933D01*
X0550430Y0292933D01*
X0550430Y0293863D01*
X0550430Y0291894D02*
X0555140Y0291894D01*
X0555140Y0290964D01*
X0550430Y0290964D01*
X0550430Y0291894D01*
X0550430Y0289926D02*
X0555140Y0289926D01*
X0555140Y0288996D01*
X0550430Y0288996D01*
X0550430Y0289926D01*
X0550430Y0287957D02*
X0555140Y0287957D01*
X0555140Y0287027D01*
X0550430Y0287027D01*
X0550430Y0287957D01*
X0550430Y0285989D02*
X0555140Y0285989D01*
X0555140Y0285059D01*
X0550430Y0285059D01*
X0550430Y0285989D01*
X0550430Y0284020D02*
X0555140Y0284020D01*
X0555140Y0283090D01*
X0550430Y0283090D01*
X0550430Y0284020D01*
X0550430Y0282052D02*
X0555140Y0282052D01*
X0555140Y0281122D01*
X0550430Y0281122D01*
X0550430Y0282052D01*
X0550430Y0280083D02*
X0555140Y0280083D01*
X0555140Y0279153D01*
X0550430Y0279153D01*
X0550430Y0280083D01*
X0550430Y0278115D02*
X0555140Y0278115D01*
X0555140Y0277185D01*
X0550430Y0277185D01*
X0550430Y0278115D01*
X0550430Y0276146D02*
X0555140Y0276146D01*
X0555140Y0275216D01*
X0550430Y0275216D01*
X0550430Y0276146D01*
X0550430Y0274178D02*
X0555140Y0274178D01*
X0555140Y0273248D01*
X0550430Y0273248D01*
X0550430Y0274178D01*
X0550430Y0272209D02*
X0555140Y0272209D01*
X0555140Y0271279D01*
X0550430Y0271279D01*
X0550430Y0272209D01*
X0550430Y0270241D02*
X0555140Y0270241D01*
X0555140Y0269311D01*
X0550430Y0269311D01*
X0550430Y0270241D01*
X0550430Y0268272D02*
X0555140Y0268272D01*
X0555140Y0267342D01*
X0550430Y0267342D01*
X0550430Y0268272D01*
X0550430Y0266304D02*
X0555140Y0266304D01*
X0555140Y0265374D01*
X0550430Y0265374D01*
X0550430Y0266304D01*
X0550430Y0264335D02*
X0555140Y0264335D01*
X0555140Y0263405D01*
X0550430Y0263405D01*
X0550430Y0264335D01*
X0550430Y0262367D02*
X0555140Y0262367D01*
X0555140Y0261437D01*
X0550430Y0261437D01*
X0550430Y0262367D01*
X0550430Y0260398D02*
X0555140Y0260398D01*
X0555140Y0259468D01*
X0550430Y0259468D01*
X0550430Y0260398D01*
X0550430Y0258430D02*
X0555140Y0258430D01*
X0555140Y0257500D01*
X0550430Y0257500D01*
X0550430Y0258430D01*
X0550430Y0256461D02*
X0555140Y0256461D01*
X0555140Y0255531D01*
X0550430Y0255531D01*
X0550430Y0256461D01*
X0550430Y0254493D02*
X0555140Y0254493D01*
X0555140Y0253563D01*
X0550430Y0253563D01*
X0550430Y0254493D01*
X0550430Y0252524D02*
X0555140Y0252524D01*
X0555140Y0251594D01*
X0550430Y0251594D01*
X0550430Y0252524D01*
X0558737Y0247997D02*
X0558737Y0243287D01*
X0558737Y0247997D02*
X0559667Y0247997D01*
X0559667Y0243287D01*
X0558737Y0243287D01*
X0558737Y0244336D02*
X0559667Y0244336D01*
X0559667Y0245385D02*
X0558737Y0245385D01*
X0558737Y0246434D02*
X0559667Y0246434D01*
X0559667Y0247483D02*
X0558737Y0247483D01*
X0560705Y0247997D02*
X0560705Y0243287D01*
X0560705Y0247997D02*
X0561635Y0247997D01*
X0561635Y0243287D01*
X0560705Y0243287D01*
X0560705Y0244336D02*
X0561635Y0244336D01*
X0561635Y0245385D02*
X0560705Y0245385D01*
X0560705Y0246434D02*
X0561635Y0246434D01*
X0561635Y0247483D02*
X0560705Y0247483D01*
X0562674Y0247997D02*
X0562674Y0243287D01*
X0562674Y0247997D02*
X0563604Y0247997D01*
X0563604Y0243287D01*
X0562674Y0243287D01*
X0562674Y0244336D02*
X0563604Y0244336D01*
X0563604Y0245385D02*
X0562674Y0245385D01*
X0562674Y0246434D02*
X0563604Y0246434D01*
X0563604Y0247483D02*
X0562674Y0247483D01*
X0564642Y0247997D02*
X0564642Y0243287D01*
X0564642Y0247997D02*
X0565572Y0247997D01*
X0565572Y0243287D01*
X0564642Y0243287D01*
X0564642Y0244336D02*
X0565572Y0244336D01*
X0565572Y0245385D02*
X0564642Y0245385D01*
X0564642Y0246434D02*
X0565572Y0246434D01*
X0565572Y0247483D02*
X0564642Y0247483D01*
X0566611Y0247997D02*
X0566611Y0243287D01*
X0566611Y0247997D02*
X0567541Y0247997D01*
X0567541Y0243287D01*
X0566611Y0243287D01*
X0566611Y0244336D02*
X0567541Y0244336D01*
X0567541Y0245385D02*
X0566611Y0245385D01*
X0566611Y0246434D02*
X0567541Y0246434D01*
X0567541Y0247483D02*
X0566611Y0247483D01*
X0568579Y0247997D02*
X0568579Y0243287D01*
X0568579Y0247997D02*
X0569509Y0247997D01*
X0569509Y0243287D01*
X0568579Y0243287D01*
X0568579Y0244336D02*
X0569509Y0244336D01*
X0569509Y0245385D02*
X0568579Y0245385D01*
X0568579Y0246434D02*
X0569509Y0246434D01*
X0569509Y0247483D02*
X0568579Y0247483D01*
X0570548Y0247997D02*
X0570548Y0243287D01*
X0570548Y0247997D02*
X0571478Y0247997D01*
X0571478Y0243287D01*
X0570548Y0243287D01*
X0570548Y0244336D02*
X0571478Y0244336D01*
X0571478Y0245385D02*
X0570548Y0245385D01*
X0570548Y0246434D02*
X0571478Y0246434D01*
X0571478Y0247483D02*
X0570548Y0247483D01*
X0572516Y0247997D02*
X0572516Y0243287D01*
X0572516Y0247997D02*
X0573446Y0247997D01*
X0573446Y0243287D01*
X0572516Y0243287D01*
X0572516Y0244336D02*
X0573446Y0244336D01*
X0573446Y0245385D02*
X0572516Y0245385D01*
X0572516Y0246434D02*
X0573446Y0246434D01*
X0573446Y0247483D02*
X0572516Y0247483D01*
X0574485Y0247997D02*
X0574485Y0243287D01*
X0574485Y0247997D02*
X0575415Y0247997D01*
X0575415Y0243287D01*
X0574485Y0243287D01*
X0574485Y0244336D02*
X0575415Y0244336D01*
X0575415Y0245385D02*
X0574485Y0245385D01*
X0574485Y0246434D02*
X0575415Y0246434D01*
X0575415Y0247483D02*
X0574485Y0247483D01*
X0576454Y0247997D02*
X0576454Y0243287D01*
X0576454Y0247997D02*
X0577384Y0247997D01*
X0577384Y0243287D01*
X0576454Y0243287D01*
X0576454Y0244336D02*
X0577384Y0244336D01*
X0577384Y0245385D02*
X0576454Y0245385D01*
X0576454Y0246434D02*
X0577384Y0246434D01*
X0577384Y0247483D02*
X0576454Y0247483D01*
X0578422Y0247997D02*
X0578422Y0243287D01*
X0578422Y0247997D02*
X0579352Y0247997D01*
X0579352Y0243287D01*
X0578422Y0243287D01*
X0578422Y0244336D02*
X0579352Y0244336D01*
X0579352Y0245385D02*
X0578422Y0245385D01*
X0578422Y0246434D02*
X0579352Y0246434D01*
X0579352Y0247483D02*
X0578422Y0247483D01*
X0580391Y0247997D02*
X0580391Y0243287D01*
X0580391Y0247997D02*
X0581321Y0247997D01*
X0581321Y0243287D01*
X0580391Y0243287D01*
X0580391Y0244336D02*
X0581321Y0244336D01*
X0581321Y0245385D02*
X0580391Y0245385D01*
X0580391Y0246434D02*
X0581321Y0246434D01*
X0581321Y0247483D02*
X0580391Y0247483D01*
X0582359Y0247997D02*
X0582359Y0243287D01*
X0582359Y0247997D02*
X0583289Y0247997D01*
X0583289Y0243287D01*
X0582359Y0243287D01*
X0582359Y0244336D02*
X0583289Y0244336D01*
X0583289Y0245385D02*
X0582359Y0245385D01*
X0582359Y0246434D02*
X0583289Y0246434D01*
X0583289Y0247483D02*
X0582359Y0247483D01*
X0584328Y0247997D02*
X0584328Y0243287D01*
X0584328Y0247997D02*
X0585258Y0247997D01*
X0585258Y0243287D01*
X0584328Y0243287D01*
X0584328Y0244336D02*
X0585258Y0244336D01*
X0585258Y0245385D02*
X0584328Y0245385D01*
X0584328Y0246434D02*
X0585258Y0246434D01*
X0585258Y0247483D02*
X0584328Y0247483D01*
X0586296Y0247997D02*
X0586296Y0243287D01*
X0586296Y0247997D02*
X0587226Y0247997D01*
X0587226Y0243287D01*
X0586296Y0243287D01*
X0586296Y0244336D02*
X0587226Y0244336D01*
X0587226Y0245385D02*
X0586296Y0245385D01*
X0586296Y0246434D02*
X0587226Y0246434D01*
X0587226Y0247483D02*
X0586296Y0247483D01*
X0588265Y0247997D02*
X0588265Y0243287D01*
X0588265Y0247997D02*
X0589195Y0247997D01*
X0589195Y0243287D01*
X0588265Y0243287D01*
X0588265Y0244336D02*
X0589195Y0244336D01*
X0589195Y0245385D02*
X0588265Y0245385D01*
X0588265Y0246434D02*
X0589195Y0246434D01*
X0589195Y0247483D02*
X0588265Y0247483D01*
X0590233Y0247997D02*
X0590233Y0243287D01*
X0590233Y0247997D02*
X0591163Y0247997D01*
X0591163Y0243287D01*
X0590233Y0243287D01*
X0590233Y0244336D02*
X0591163Y0244336D01*
X0591163Y0245385D02*
X0590233Y0245385D01*
X0590233Y0246434D02*
X0591163Y0246434D01*
X0591163Y0247483D02*
X0590233Y0247483D01*
X0592202Y0247997D02*
X0592202Y0243287D01*
X0592202Y0247997D02*
X0593132Y0247997D01*
X0593132Y0243287D01*
X0592202Y0243287D01*
X0592202Y0244336D02*
X0593132Y0244336D01*
X0593132Y0245385D02*
X0592202Y0245385D01*
X0592202Y0246434D02*
X0593132Y0246434D01*
X0593132Y0247483D02*
X0592202Y0247483D01*
X0594170Y0247997D02*
X0594170Y0243287D01*
X0594170Y0247997D02*
X0595100Y0247997D01*
X0595100Y0243287D01*
X0594170Y0243287D01*
X0594170Y0244336D02*
X0595100Y0244336D01*
X0595100Y0245385D02*
X0594170Y0245385D01*
X0594170Y0246434D02*
X0595100Y0246434D01*
X0595100Y0247483D02*
X0594170Y0247483D01*
X0596139Y0247997D02*
X0596139Y0243287D01*
X0596139Y0247997D02*
X0597069Y0247997D01*
X0597069Y0243287D01*
X0596139Y0243287D01*
X0596139Y0244336D02*
X0597069Y0244336D01*
X0597069Y0245385D02*
X0596139Y0245385D01*
X0596139Y0246434D02*
X0597069Y0246434D01*
X0597069Y0247483D02*
X0596139Y0247483D01*
X0598107Y0247997D02*
X0598107Y0243287D01*
X0598107Y0247997D02*
X0599037Y0247997D01*
X0599037Y0243287D01*
X0598107Y0243287D01*
X0598107Y0244336D02*
X0599037Y0244336D01*
X0599037Y0245385D02*
X0598107Y0245385D01*
X0598107Y0246434D02*
X0599037Y0246434D01*
X0599037Y0247483D02*
X0598107Y0247483D01*
X0600076Y0247997D02*
X0600076Y0243287D01*
X0600076Y0247997D02*
X0601006Y0247997D01*
X0601006Y0243287D01*
X0600076Y0243287D01*
X0600076Y0244336D02*
X0601006Y0244336D01*
X0601006Y0245385D02*
X0600076Y0245385D01*
X0600076Y0246434D02*
X0601006Y0246434D01*
X0601006Y0247483D02*
X0600076Y0247483D01*
X0602044Y0247997D02*
X0602044Y0243287D01*
X0602044Y0247997D02*
X0602974Y0247997D01*
X0602974Y0243287D01*
X0602044Y0243287D01*
X0602044Y0244336D02*
X0602974Y0244336D01*
X0602974Y0245385D02*
X0602044Y0245385D01*
X0602044Y0246434D02*
X0602974Y0246434D01*
X0602974Y0247483D02*
X0602044Y0247483D01*
X0604013Y0247997D02*
X0604013Y0243287D01*
X0604013Y0247997D02*
X0604943Y0247997D01*
X0604943Y0243287D01*
X0604013Y0243287D01*
X0604013Y0244336D02*
X0604943Y0244336D01*
X0604943Y0245385D02*
X0604013Y0245385D01*
X0604013Y0246434D02*
X0604943Y0246434D01*
X0604943Y0247483D02*
X0604013Y0247483D01*
X0605981Y0247997D02*
X0605981Y0243287D01*
X0605981Y0247997D02*
X0606911Y0247997D01*
X0606911Y0243287D01*
X0605981Y0243287D01*
X0605981Y0244336D02*
X0606911Y0244336D01*
X0606911Y0245385D02*
X0605981Y0245385D01*
X0605981Y0246434D02*
X0606911Y0246434D01*
X0606911Y0247483D02*
X0605981Y0247483D01*
X0098439Y0183043D02*
X0093729Y0183043D01*
X0093729Y0183973D01*
X0098439Y0183973D01*
X0098439Y0183043D01*
X0098439Y0181074D02*
X0093729Y0181074D01*
X0093729Y0182004D01*
X0098439Y0182004D01*
X0098439Y0181074D01*
X0098439Y0179106D02*
X0093729Y0179106D01*
X0093729Y0180036D01*
X0098439Y0180036D01*
X0098439Y0179106D01*
X0098439Y0177137D02*
X0093729Y0177137D01*
X0093729Y0178067D01*
X0098439Y0178067D01*
X0098439Y0177137D01*
X0098439Y0175169D02*
X0093729Y0175169D01*
X0093729Y0176099D01*
X0098439Y0176099D01*
X0098439Y0175169D01*
X0098439Y0173200D02*
X0093729Y0173200D01*
X0093729Y0174130D01*
X0098439Y0174130D01*
X0098439Y0173200D01*
X0098439Y0171232D02*
X0093729Y0171232D01*
X0093729Y0172162D01*
X0098439Y0172162D01*
X0098439Y0171232D01*
X0098439Y0169263D02*
X0093729Y0169263D01*
X0093729Y0170193D01*
X0098439Y0170193D01*
X0098439Y0169263D01*
X0098439Y0167295D02*
X0093729Y0167295D01*
X0093729Y0168225D01*
X0098439Y0168225D01*
X0098439Y0167295D01*
X0098439Y0165326D02*
X0093729Y0165326D01*
X0093729Y0166256D01*
X0098439Y0166256D01*
X0098439Y0165326D01*
X0098439Y0163358D02*
X0093729Y0163358D01*
X0093729Y0164288D01*
X0098439Y0164288D01*
X0098439Y0163358D01*
X0098439Y0161389D02*
X0093729Y0161389D01*
X0093729Y0162319D01*
X0098439Y0162319D01*
X0098439Y0161389D01*
X0090186Y0158776D02*
X0090186Y0154066D01*
X0090186Y0158776D02*
X0091116Y0158776D01*
X0091116Y0154066D01*
X0090186Y0154066D01*
X0090186Y0155115D02*
X0091116Y0155115D01*
X0091116Y0156164D02*
X0090186Y0156164D01*
X0090186Y0157213D02*
X0091116Y0157213D01*
X0091116Y0158262D02*
X0090186Y0158262D01*
X0088217Y0158776D02*
X0088217Y0154066D01*
X0088217Y0158776D02*
X0089147Y0158776D01*
X0089147Y0154066D01*
X0088217Y0154066D01*
X0088217Y0155115D02*
X0089147Y0155115D01*
X0089147Y0156164D02*
X0088217Y0156164D01*
X0088217Y0157213D02*
X0089147Y0157213D01*
X0089147Y0158262D02*
X0088217Y0158262D01*
X0086249Y0158776D02*
X0086249Y0154066D01*
X0086249Y0158776D02*
X0087179Y0158776D01*
X0087179Y0154066D01*
X0086249Y0154066D01*
X0086249Y0155115D02*
X0087179Y0155115D01*
X0087179Y0156164D02*
X0086249Y0156164D01*
X0086249Y0157213D02*
X0087179Y0157213D01*
X0087179Y0158262D02*
X0086249Y0158262D01*
X0084280Y0158776D02*
X0084280Y0154066D01*
X0084280Y0158776D02*
X0085210Y0158776D01*
X0085210Y0154066D01*
X0084280Y0154066D01*
X0084280Y0155115D02*
X0085210Y0155115D01*
X0085210Y0156164D02*
X0084280Y0156164D01*
X0084280Y0157213D02*
X0085210Y0157213D01*
X0085210Y0158262D02*
X0084280Y0158262D01*
X0082312Y0158776D02*
X0082312Y0154066D01*
X0082312Y0158776D02*
X0083242Y0158776D01*
X0083242Y0154066D01*
X0082312Y0154066D01*
X0082312Y0155115D02*
X0083242Y0155115D01*
X0083242Y0156164D02*
X0082312Y0156164D01*
X0082312Y0157213D02*
X0083242Y0157213D01*
X0083242Y0158262D02*
X0082312Y0158262D01*
X0080343Y0158776D02*
X0080343Y0154066D01*
X0080343Y0158776D02*
X0081273Y0158776D01*
X0081273Y0154066D01*
X0080343Y0154066D01*
X0080343Y0155115D02*
X0081273Y0155115D01*
X0081273Y0156164D02*
X0080343Y0156164D01*
X0080343Y0157213D02*
X0081273Y0157213D01*
X0081273Y0158262D02*
X0080343Y0158262D01*
X0078375Y0158776D02*
X0078375Y0154066D01*
X0078375Y0158776D02*
X0079305Y0158776D01*
X0079305Y0154066D01*
X0078375Y0154066D01*
X0078375Y0155115D02*
X0079305Y0155115D01*
X0079305Y0156164D02*
X0078375Y0156164D01*
X0078375Y0157213D02*
X0079305Y0157213D01*
X0079305Y0158262D02*
X0078375Y0158262D01*
X0076406Y0158776D02*
X0076406Y0154066D01*
X0076406Y0158776D02*
X0077336Y0158776D01*
X0077336Y0154066D01*
X0076406Y0154066D01*
X0076406Y0155115D02*
X0077336Y0155115D01*
X0077336Y0156164D02*
X0076406Y0156164D01*
X0076406Y0157213D02*
X0077336Y0157213D01*
X0077336Y0158262D02*
X0076406Y0158262D01*
X0074438Y0158776D02*
X0074438Y0154066D01*
X0074438Y0158776D02*
X0075368Y0158776D01*
X0075368Y0154066D01*
X0074438Y0154066D01*
X0074438Y0155115D02*
X0075368Y0155115D01*
X0075368Y0156164D02*
X0074438Y0156164D01*
X0074438Y0157213D02*
X0075368Y0157213D01*
X0075368Y0158262D02*
X0074438Y0158262D01*
X0072469Y0158776D02*
X0072469Y0154066D01*
X0072469Y0158776D02*
X0073399Y0158776D01*
X0073399Y0154066D01*
X0072469Y0154066D01*
X0072469Y0155115D02*
X0073399Y0155115D01*
X0073399Y0156164D02*
X0072469Y0156164D01*
X0072469Y0157213D02*
X0073399Y0157213D01*
X0073399Y0158262D02*
X0072469Y0158262D01*
X0070501Y0158776D02*
X0070501Y0154066D01*
X0070501Y0158776D02*
X0071431Y0158776D01*
X0071431Y0154066D01*
X0070501Y0154066D01*
X0070501Y0155115D02*
X0071431Y0155115D01*
X0071431Y0156164D02*
X0070501Y0156164D01*
X0070501Y0157213D02*
X0071431Y0157213D01*
X0071431Y0158262D02*
X0070501Y0158262D01*
X0068532Y0158776D02*
X0068532Y0154066D01*
X0068532Y0158776D02*
X0069462Y0158776D01*
X0069462Y0154066D01*
X0068532Y0154066D01*
X0068532Y0155115D02*
X0069462Y0155115D01*
X0069462Y0156164D02*
X0068532Y0156164D01*
X0068532Y0157213D02*
X0069462Y0157213D01*
X0069462Y0158262D02*
X0068532Y0158262D01*
X0065919Y0162319D02*
X0061209Y0162319D01*
X0065919Y0162319D02*
X0065919Y0161389D01*
X0061209Y0161389D01*
X0061209Y0162319D01*
X0061209Y0164288D02*
X0065919Y0164288D01*
X0065919Y0163358D01*
X0061209Y0163358D01*
X0061209Y0164288D01*
X0061209Y0166256D02*
X0065919Y0166256D01*
X0065919Y0165326D01*
X0061209Y0165326D01*
X0061209Y0166256D01*
X0061209Y0168225D02*
X0065919Y0168225D01*
X0065919Y0167295D01*
X0061209Y0167295D01*
X0061209Y0168225D01*
X0061209Y0170193D02*
X0065919Y0170193D01*
X0065919Y0169263D01*
X0061209Y0169263D01*
X0061209Y0170193D01*
X0061209Y0172162D02*
X0065919Y0172162D01*
X0065919Y0171232D01*
X0061209Y0171232D01*
X0061209Y0172162D01*
X0061209Y0174130D02*
X0065919Y0174130D01*
X0065919Y0173200D01*
X0061209Y0173200D01*
X0061209Y0174130D01*
X0061209Y0176099D02*
X0065919Y0176099D01*
X0065919Y0175169D01*
X0061209Y0175169D01*
X0061209Y0176099D01*
X0061209Y0178067D02*
X0065919Y0178067D01*
X0065919Y0177137D01*
X0061209Y0177137D01*
X0061209Y0178067D01*
X0061209Y0180036D02*
X0065919Y0180036D01*
X0065919Y0179106D01*
X0061209Y0179106D01*
X0061209Y0180036D01*
X0061209Y0182004D02*
X0065919Y0182004D01*
X0065919Y0181074D01*
X0061209Y0181074D01*
X0061209Y0182004D01*
X0061209Y0183973D02*
X0065919Y0183973D01*
X0065919Y0183043D01*
X0061209Y0183043D01*
X0061209Y0183973D01*
X0069462Y0186586D02*
X0069462Y0191296D01*
X0069462Y0186586D02*
X0068532Y0186586D01*
X0068532Y0191296D01*
X0069462Y0191296D01*
X0069462Y0187635D02*
X0068532Y0187635D01*
X0068532Y0188684D02*
X0069462Y0188684D01*
X0069462Y0189733D02*
X0068532Y0189733D01*
X0068532Y0190782D02*
X0069462Y0190782D01*
X0071431Y0191296D02*
X0071431Y0186586D01*
X0070501Y0186586D01*
X0070501Y0191296D01*
X0071431Y0191296D01*
X0071431Y0187635D02*
X0070501Y0187635D01*
X0070501Y0188684D02*
X0071431Y0188684D01*
X0071431Y0189733D02*
X0070501Y0189733D01*
X0070501Y0190782D02*
X0071431Y0190782D01*
X0073399Y0191296D02*
X0073399Y0186586D01*
X0072469Y0186586D01*
X0072469Y0191296D01*
X0073399Y0191296D01*
X0073399Y0187635D02*
X0072469Y0187635D01*
X0072469Y0188684D02*
X0073399Y0188684D01*
X0073399Y0189733D02*
X0072469Y0189733D01*
X0072469Y0190782D02*
X0073399Y0190782D01*
X0075368Y0191296D02*
X0075368Y0186586D01*
X0074438Y0186586D01*
X0074438Y0191296D01*
X0075368Y0191296D01*
X0075368Y0187635D02*
X0074438Y0187635D01*
X0074438Y0188684D02*
X0075368Y0188684D01*
X0075368Y0189733D02*
X0074438Y0189733D01*
X0074438Y0190782D02*
X0075368Y0190782D01*
X0077336Y0191296D02*
X0077336Y0186586D01*
X0076406Y0186586D01*
X0076406Y0191296D01*
X0077336Y0191296D01*
X0077336Y0187635D02*
X0076406Y0187635D01*
X0076406Y0188684D02*
X0077336Y0188684D01*
X0077336Y0189733D02*
X0076406Y0189733D01*
X0076406Y0190782D02*
X0077336Y0190782D01*
X0079305Y0191296D02*
X0079305Y0186586D01*
X0078375Y0186586D01*
X0078375Y0191296D01*
X0079305Y0191296D01*
X0079305Y0187635D02*
X0078375Y0187635D01*
X0078375Y0188684D02*
X0079305Y0188684D01*
X0079305Y0189733D02*
X0078375Y0189733D01*
X0078375Y0190782D02*
X0079305Y0190782D01*
X0081273Y0191296D02*
X0081273Y0186586D01*
X0080343Y0186586D01*
X0080343Y0191296D01*
X0081273Y0191296D01*
X0081273Y0187635D02*
X0080343Y0187635D01*
X0080343Y0188684D02*
X0081273Y0188684D01*
X0081273Y0189733D02*
X0080343Y0189733D01*
X0080343Y0190782D02*
X0081273Y0190782D01*
X0083242Y0191296D02*
X0083242Y0186586D01*
X0082312Y0186586D01*
X0082312Y0191296D01*
X0083242Y0191296D01*
X0083242Y0187635D02*
X0082312Y0187635D01*
X0082312Y0188684D02*
X0083242Y0188684D01*
X0083242Y0189733D02*
X0082312Y0189733D01*
X0082312Y0190782D02*
X0083242Y0190782D01*
X0085210Y0191296D02*
X0085210Y0186586D01*
X0084280Y0186586D01*
X0084280Y0191296D01*
X0085210Y0191296D01*
X0085210Y0187635D02*
X0084280Y0187635D01*
X0084280Y0188684D02*
X0085210Y0188684D01*
X0085210Y0189733D02*
X0084280Y0189733D01*
X0084280Y0190782D02*
X0085210Y0190782D01*
X0087179Y0191296D02*
X0087179Y0186586D01*
X0086249Y0186586D01*
X0086249Y0191296D01*
X0087179Y0191296D01*
X0087179Y0187635D02*
X0086249Y0187635D01*
X0086249Y0188684D02*
X0087179Y0188684D01*
X0087179Y0189733D02*
X0086249Y0189733D01*
X0086249Y0190782D02*
X0087179Y0190782D01*
X0089147Y0191296D02*
X0089147Y0186586D01*
X0088217Y0186586D01*
X0088217Y0191296D01*
X0089147Y0191296D01*
X0089147Y0187635D02*
X0088217Y0187635D01*
X0088217Y0188684D02*
X0089147Y0188684D01*
X0089147Y0189733D02*
X0088217Y0189733D01*
X0088217Y0190782D02*
X0089147Y0190782D01*
X0091116Y0191296D02*
X0091116Y0186586D01*
X0090186Y0186586D01*
X0090186Y0191296D01*
X0091116Y0191296D01*
X0091116Y0187635D02*
X0090186Y0187635D01*
X0090186Y0188684D02*
X0091116Y0188684D01*
X0091116Y0189733D02*
X0090186Y0189733D01*
X0090186Y0190782D02*
X0091116Y0190782D01*
D28*
X0063564Y0188941D03*
X0096084Y0156421D03*
X0552785Y0305720D03*
X0612863Y0245642D03*
D29*
X0421962Y0226917D03*
X0416962Y0226917D03*
X0411962Y0226917D03*
X0406962Y0226917D03*
X0406962Y0206445D03*
X0411962Y0206445D03*
X0416962Y0206445D03*
X0421962Y0206445D03*
D30*
X0930462Y0322681D02*
X0930462Y0328681D01*
X0940462Y0328681D02*
X0940462Y0322681D01*
X0950462Y0322681D02*
X0950462Y0328681D01*
D31*
X0929698Y0184181D03*
X0929698Y0179181D03*
X0929698Y0174181D03*
X0929698Y0169181D03*
X0929698Y0164181D03*
X0929698Y0159181D03*
X0929698Y0154181D03*
X0929698Y0149181D03*
X0909226Y0149181D03*
X0909226Y0154181D03*
X0909226Y0159181D03*
X0909226Y0164181D03*
X0909226Y0169181D03*
X0909226Y0174181D03*
X0909226Y0179181D03*
X0909226Y0184181D03*
X0491312Y0289681D03*
X0491312Y0294681D03*
X0491312Y0299681D03*
X0491312Y0304681D03*
X0491312Y0309681D03*
X0491312Y0314681D03*
X0491312Y0319681D03*
X0470840Y0319681D03*
X0470840Y0314681D03*
X0470840Y0309681D03*
X0470840Y0304681D03*
X0470840Y0299681D03*
X0470840Y0294681D03*
X0470840Y0289681D03*
X0399785Y0290681D03*
X0399785Y0295681D03*
X0399785Y0300681D03*
X0399785Y0305681D03*
X0399785Y0310681D03*
X0399785Y0315681D03*
X0399785Y0320681D03*
X0379312Y0320681D03*
X0379312Y0315681D03*
X0379312Y0310681D03*
X0379312Y0305681D03*
X0379312Y0300681D03*
X0379312Y0295681D03*
X0379312Y0290681D03*
X0286257Y0290681D03*
X0286257Y0295681D03*
X0286257Y0300681D03*
X0286257Y0305681D03*
X0286257Y0310681D03*
X0286257Y0315681D03*
X0286257Y0320681D03*
X0265785Y0320681D03*
X0265785Y0315681D03*
X0265785Y0310681D03*
X0265785Y0305681D03*
X0265785Y0300681D03*
X0265785Y0295681D03*
X0265785Y0290681D03*
X0183730Y0290681D03*
X0183730Y0295681D03*
X0183730Y0300681D03*
X0183730Y0305681D03*
X0183730Y0310681D03*
X0183730Y0315681D03*
X0183730Y0320681D03*
X0163257Y0320681D03*
X0163257Y0315681D03*
X0163257Y0310681D03*
X0163257Y0305681D03*
X0163257Y0300681D03*
X0163257Y0295681D03*
X0163257Y0290681D03*
D32*
X1038169Y0350858D03*
X1038169Y0355858D03*
X1038169Y0360858D03*
X1038169Y0365858D03*
X1062369Y0365858D03*
X1062369Y0360858D03*
X1062369Y0355858D03*
X1062369Y0350858D03*
X1144024Y0280681D03*
X1144024Y0275681D03*
X1144024Y0270681D03*
X1144024Y0265681D03*
X1144024Y0260681D03*
X1144024Y0255681D03*
X1144024Y0250681D03*
X1144024Y0245681D03*
X1144024Y0240681D03*
X1183624Y0240681D03*
X1183624Y0245681D03*
X1183624Y0250681D03*
X1183624Y0255681D03*
X1183624Y0260681D03*
X1183624Y0265681D03*
X1183624Y0270681D03*
X1183624Y0275681D03*
X1183624Y0280681D03*
X1183624Y0190681D03*
X1183624Y0185681D03*
X1183624Y0180681D03*
X1183624Y0175681D03*
X1183624Y0170681D03*
X1183624Y0165681D03*
X1183624Y0160681D03*
X1183624Y0155681D03*
X1183624Y0150681D03*
X1144024Y0150681D03*
X1144024Y0155681D03*
X1144024Y0160681D03*
X1144024Y0165681D03*
X1144024Y0170681D03*
X1144024Y0175681D03*
X1144024Y0180681D03*
X1144024Y0185681D03*
X1144024Y0190681D03*
X1144024Y0100681D03*
X1144024Y0095681D03*
X1144024Y0090681D03*
X1144024Y0085681D03*
X1144024Y0080681D03*
X1144024Y0075681D03*
X1144024Y0070681D03*
X1144024Y0065681D03*
X1144024Y0060681D03*
X1183624Y0060681D03*
X1183624Y0065681D03*
X1183624Y0070681D03*
X1183624Y0075681D03*
X1183624Y0080681D03*
X1183624Y0085681D03*
X1183624Y0090681D03*
X1183624Y0095681D03*
X1183624Y0100681D03*
D33*
X0917075Y0200294D02*
X0913849Y0200294D01*
X0917075Y0200294D02*
X0917075Y0197068D01*
X0913849Y0197068D01*
X0913849Y0200294D01*
X0913849Y0198142D02*
X0917075Y0198142D01*
X0917075Y0199216D02*
X0913849Y0199216D01*
X0913849Y0200290D02*
X0917075Y0200290D01*
X0911075Y0200294D02*
X0907849Y0200294D01*
X0911075Y0200294D02*
X0911075Y0197068D01*
X0907849Y0197068D01*
X0907849Y0200294D01*
X0907849Y0198142D02*
X0911075Y0198142D01*
X0911075Y0199216D02*
X0907849Y0199216D01*
X0907849Y0200290D02*
X0911075Y0200290D01*
X0476349Y0262430D02*
X0476349Y0265656D01*
X0479575Y0265656D01*
X0479575Y0262430D01*
X0476349Y0262430D01*
X0476349Y0263504D02*
X0479575Y0263504D01*
X0479575Y0264578D02*
X0476349Y0264578D01*
X0476349Y0265652D02*
X0479575Y0265652D01*
X0476349Y0268430D02*
X0476349Y0271656D01*
X0479575Y0271656D01*
X0479575Y0268430D01*
X0476349Y0268430D01*
X0476349Y0269504D02*
X0479575Y0269504D01*
X0479575Y0270578D02*
X0476349Y0270578D01*
X0476349Y0271652D02*
X0479575Y0271652D01*
X0442575Y0248794D02*
X0442575Y0245568D01*
X0439349Y0245568D01*
X0439349Y0248794D01*
X0442575Y0248794D01*
X0442575Y0246642D02*
X0439349Y0246642D01*
X0439349Y0247716D02*
X0442575Y0247716D01*
X0442575Y0248790D02*
X0439349Y0248790D01*
X0442575Y0242794D02*
X0442575Y0239568D01*
X0439349Y0239568D01*
X0439349Y0242794D01*
X0442575Y0242794D01*
X0442575Y0240642D02*
X0439349Y0240642D01*
X0439349Y0241716D02*
X0442575Y0241716D01*
X0442575Y0242790D02*
X0439349Y0242790D01*
X0388575Y0262430D02*
X0388575Y0265656D01*
X0388575Y0262430D02*
X0385349Y0262430D01*
X0385349Y0265656D01*
X0388575Y0265656D01*
X0388575Y0263504D02*
X0385349Y0263504D01*
X0385349Y0264578D02*
X0388575Y0264578D01*
X0388575Y0265652D02*
X0385349Y0265652D01*
X0388575Y0268430D02*
X0388575Y0271656D01*
X0388575Y0268430D02*
X0385349Y0268430D01*
X0385349Y0271656D01*
X0388575Y0271656D01*
X0388575Y0269504D02*
X0385349Y0269504D01*
X0385349Y0270578D02*
X0388575Y0270578D01*
X0388575Y0271652D02*
X0385349Y0271652D01*
X0274575Y0271656D02*
X0274575Y0268430D01*
X0271349Y0268430D01*
X0271349Y0271656D01*
X0274575Y0271656D01*
X0274575Y0269504D02*
X0271349Y0269504D01*
X0271349Y0270578D02*
X0274575Y0270578D01*
X0274575Y0271652D02*
X0271349Y0271652D01*
X0274575Y0265656D02*
X0274575Y0262430D01*
X0271349Y0262430D01*
X0271349Y0265656D01*
X0274575Y0265656D01*
X0274575Y0263504D02*
X0271349Y0263504D01*
X0271349Y0264578D02*
X0274575Y0264578D01*
X0274575Y0265652D02*
X0271349Y0265652D01*
X0172575Y0265656D02*
X0172575Y0262430D01*
X0169349Y0262430D01*
X0169349Y0265656D01*
X0172575Y0265656D01*
X0172575Y0263504D02*
X0169349Y0263504D01*
X0169349Y0264578D02*
X0172575Y0264578D01*
X0172575Y0265652D02*
X0169349Y0265652D01*
X0172575Y0268430D02*
X0172575Y0271656D01*
X0172575Y0268430D02*
X0169349Y0268430D01*
X0169349Y0271656D01*
X0172575Y0271656D01*
X0172575Y0269504D02*
X0169349Y0269504D01*
X0169349Y0270578D02*
X0172575Y0270578D01*
X0172575Y0271652D02*
X0169349Y0271652D01*
X0131849Y0208794D02*
X0131849Y0205568D01*
X0131849Y0208794D02*
X0135075Y0208794D01*
X0135075Y0205568D01*
X0131849Y0205568D01*
X0131849Y0206642D02*
X0135075Y0206642D01*
X0135075Y0207716D02*
X0131849Y0207716D01*
X0131849Y0208790D02*
X0135075Y0208790D01*
X0131849Y0202794D02*
X0131849Y0199568D01*
X0131849Y0202794D02*
X0135075Y0202794D01*
X0135075Y0199568D01*
X0131849Y0199568D01*
X0131849Y0200642D02*
X0135075Y0200642D01*
X0135075Y0201716D02*
X0131849Y0201716D01*
X0131849Y0202790D02*
X0135075Y0202790D01*
X1045656Y0374971D02*
X1048882Y0374971D01*
X1048882Y0371745D01*
X1045656Y0371745D01*
X1045656Y0374971D01*
X1045656Y0372819D02*
X1048882Y0372819D01*
X1048882Y0373893D02*
X1045656Y0373893D01*
X1045656Y0374967D02*
X1048882Y0374967D01*
X1051656Y0374971D02*
X1054882Y0374971D01*
X1054882Y0371745D01*
X1051656Y0371745D01*
X1051656Y0374971D01*
X1051656Y0372819D02*
X1054882Y0372819D01*
X1054882Y0373893D02*
X1051656Y0373893D01*
X1051656Y0374967D02*
X1054882Y0374967D01*
X1202211Y0421568D02*
X1202211Y0424794D01*
X1205437Y0424794D01*
X1205437Y0421568D01*
X1202211Y0421568D01*
X1202211Y0422642D02*
X1205437Y0422642D01*
X1205437Y0423716D02*
X1202211Y0423716D01*
X1202211Y0424790D02*
X1205437Y0424790D01*
X1202211Y0427568D02*
X1202211Y0430794D01*
X1205437Y0430794D01*
X1205437Y0427568D01*
X1202211Y0427568D01*
X1202211Y0428642D02*
X1205437Y0428642D01*
X1205437Y0429716D02*
X1202211Y0429716D01*
X1202211Y0430790D02*
X1205437Y0430790D01*
D34*
X0603912Y0387981D02*
X0603912Y0384381D01*
X0603912Y0387981D02*
X0609012Y0387981D01*
X0609012Y0384381D01*
X0603912Y0384381D01*
X0603912Y0385580D02*
X0609012Y0385580D01*
X0609012Y0386779D02*
X0603912Y0386779D01*
X0603912Y0387978D02*
X0609012Y0387978D01*
X0603912Y0380981D02*
X0603912Y0377381D01*
X0603912Y0380981D02*
X0609012Y0380981D01*
X0609012Y0377381D01*
X0603912Y0377381D01*
X0603912Y0378580D02*
X0609012Y0378580D01*
X0609012Y0379779D02*
X0603912Y0379779D01*
X0603912Y0380978D02*
X0609012Y0380978D01*
X0107912Y0260481D02*
X0107912Y0256881D01*
X0107912Y0260481D02*
X0113012Y0260481D01*
X0113012Y0256881D01*
X0107912Y0256881D01*
X0107912Y0258080D02*
X0113012Y0258080D01*
X0113012Y0259279D02*
X0107912Y0259279D01*
X0107912Y0260478D02*
X0113012Y0260478D01*
X0107912Y0253481D02*
X0107912Y0249881D01*
X0107912Y0253481D02*
X0113012Y0253481D01*
X0113012Y0249881D01*
X0107912Y0249881D01*
X0107912Y0251080D02*
X0113012Y0251080D01*
X0113012Y0252279D02*
X0107912Y0252279D01*
X0107912Y0253478D02*
X0113012Y0253478D01*
X0042839Y0253981D02*
X0042839Y0250381D01*
X0037739Y0250381D01*
X0037739Y0253981D01*
X0042839Y0253981D01*
X0042839Y0251580D02*
X0037739Y0251580D01*
X0037739Y0252779D02*
X0042839Y0252779D01*
X0042839Y0253978D02*
X0037739Y0253978D01*
X0042839Y0257381D02*
X0042839Y0260981D01*
X0042839Y0257381D02*
X0037739Y0257381D01*
X0037739Y0260981D01*
X0042839Y0260981D01*
X0042839Y0258580D02*
X0037739Y0258580D01*
X0037739Y0259779D02*
X0042839Y0259779D01*
X0042839Y0260978D02*
X0037739Y0260978D01*
D35*
X0111651Y0208681D03*
X0118651Y0208681D03*
X0118651Y0200413D03*
X0111651Y0200413D03*
D36*
X1143648Y0384233D02*
X1143648Y0387271D01*
X1147276Y0387271D01*
X1147276Y0384233D01*
X1143648Y0384233D01*
X1143648Y0386523D02*
X1147276Y0386523D01*
X1147276Y0393091D02*
X1147276Y0396129D01*
X1147276Y0393091D02*
X1143648Y0393091D01*
X1143648Y0396129D01*
X1147276Y0396129D01*
X1147276Y0395381D02*
X1143648Y0395381D01*
D37*
X1084580Y0313181D03*
X1084580Y0308181D03*
X1084580Y0303181D03*
X1084580Y0298181D03*
X1084580Y0293181D03*
X1084580Y0288181D03*
X1084580Y0283181D03*
X1084580Y0278181D03*
X1084580Y0268181D03*
X1084580Y0263181D03*
X1084580Y0258181D03*
X1084580Y0253181D03*
X1084580Y0248181D03*
X1084580Y0243181D03*
X1084580Y0238181D03*
X1084580Y0233181D03*
X1084580Y0223181D03*
X1084580Y0218181D03*
X1084580Y0213181D03*
X1084580Y0208181D03*
X1084580Y0203181D03*
X1084580Y0198181D03*
X1084580Y0193181D03*
X1084580Y0188181D03*
X1084580Y0178181D03*
X1084580Y0173181D03*
X1084580Y0168181D03*
X1084580Y0163181D03*
X1084580Y0158181D03*
X1084580Y0153181D03*
X1084580Y0148181D03*
X1084580Y0143181D03*
X1059068Y0143181D03*
X1059068Y0148181D03*
X1059068Y0153181D03*
X1059068Y0158181D03*
X1059068Y0163181D03*
X1059068Y0168181D03*
X1059068Y0173181D03*
X1059068Y0178181D03*
X1059068Y0188181D03*
X1059068Y0193181D03*
X1059068Y0198181D03*
X1059068Y0203181D03*
X1059068Y0208181D03*
X1059068Y0213181D03*
X1059068Y0218181D03*
X1059068Y0223181D03*
X1059068Y0233181D03*
X1059068Y0238181D03*
X1059068Y0243181D03*
X1059068Y0248181D03*
X1059068Y0253181D03*
X1059068Y0258181D03*
X1059068Y0263181D03*
X1059068Y0268181D03*
X1059068Y0278181D03*
X1059068Y0283181D03*
X1059068Y0288181D03*
X1059068Y0293181D03*
X1059068Y0298181D03*
X1059068Y0303181D03*
X1059068Y0308181D03*
X1059068Y0313181D03*
X1059068Y0133181D03*
X1059068Y0128181D03*
X1059068Y0123181D03*
X1059068Y0118181D03*
X1059068Y0113181D03*
X1059068Y0108181D03*
X1059068Y0103181D03*
X1059068Y0098181D03*
X1059068Y0088181D03*
X1059068Y0083181D03*
X1059068Y0078181D03*
X1059068Y0073181D03*
X1059068Y0068181D03*
X1059068Y0063181D03*
X1059068Y0058181D03*
X1059068Y0053181D03*
X1084580Y0053181D03*
X1084580Y0058181D03*
X1084580Y0063181D03*
X1084580Y0068181D03*
X1084580Y0073181D03*
X1084580Y0078181D03*
X1084580Y0083181D03*
X1084580Y0088181D03*
X1084580Y0098181D03*
X1084580Y0103181D03*
X1084580Y0108181D03*
X1084580Y0113181D03*
X1084580Y0118181D03*
X1084580Y0123181D03*
X1084580Y0128181D03*
X1084580Y0133181D03*
D38*
X0838824Y0137925D03*
X0833824Y0137925D03*
X0828824Y0137925D03*
X0823824Y0137925D03*
X0818824Y0137925D03*
X0813824Y0137925D03*
X0808824Y0137925D03*
X0803824Y0137925D03*
X0803824Y0163437D03*
X0808824Y0163437D03*
X0813824Y0163437D03*
X0818824Y0163437D03*
X0823824Y0163437D03*
X0828824Y0163437D03*
X0833824Y0163437D03*
X0838824Y0163437D03*
X0703824Y0163437D03*
X0698824Y0163437D03*
X0693824Y0163437D03*
X0688824Y0163437D03*
X0683824Y0163437D03*
X0678824Y0163437D03*
X0673824Y0163437D03*
X0668824Y0163437D03*
X0668824Y0137925D03*
X0673824Y0137925D03*
X0678824Y0137925D03*
X0683824Y0137925D03*
X0688824Y0137925D03*
X0693824Y0137925D03*
X0698824Y0137925D03*
X0703824Y0137925D03*
X0548824Y0137925D03*
X0543824Y0137925D03*
X0538824Y0137925D03*
X0533824Y0137925D03*
X0528824Y0137925D03*
X0523824Y0137925D03*
X0518824Y0137925D03*
X0513824Y0137925D03*
X0513824Y0163437D03*
X0518824Y0163437D03*
X0523824Y0163437D03*
X0528824Y0163437D03*
X0533824Y0163437D03*
X0538824Y0163437D03*
X0543824Y0163437D03*
X0548824Y0163437D03*
X0387824Y0163437D03*
X0382824Y0163437D03*
X0377824Y0163437D03*
X0372824Y0163437D03*
X0367824Y0163437D03*
X0362824Y0163437D03*
X0357824Y0163437D03*
X0352824Y0163437D03*
X0352824Y0137925D03*
X0357824Y0137925D03*
X0362824Y0137925D03*
X0367824Y0137925D03*
X0372824Y0137925D03*
X0377824Y0137925D03*
X0382824Y0137925D03*
X0387824Y0137925D03*
X0222824Y0137925D03*
X0217824Y0137925D03*
X0212824Y0137925D03*
X0207824Y0137925D03*
X0202824Y0137925D03*
X0197824Y0137925D03*
X0192824Y0137925D03*
X0187824Y0137925D03*
X0187824Y0163437D03*
X0192824Y0163437D03*
X0197824Y0163437D03*
X0202824Y0163437D03*
X0207824Y0163437D03*
X0212824Y0163437D03*
X0217824Y0163437D03*
X0222824Y0163437D03*
D39*
X0228024Y0112811D02*
X0228024Y0110245D01*
X0222624Y0110245D01*
X0222624Y0112811D01*
X0228024Y0112811D01*
X0228024Y0112612D02*
X0222624Y0112612D01*
X0218024Y0112811D02*
X0218024Y0110245D01*
X0212624Y0110245D01*
X0212624Y0112811D01*
X0218024Y0112811D01*
X0218024Y0112612D02*
X0212624Y0112612D01*
X0203024Y0112811D02*
X0203024Y0110245D01*
X0197624Y0110245D01*
X0197624Y0112811D01*
X0203024Y0112811D01*
X0203024Y0112612D02*
X0197624Y0112612D01*
X0193024Y0112811D02*
X0193024Y0110245D01*
X0187624Y0110245D01*
X0187624Y0112811D01*
X0193024Y0112811D01*
X0193024Y0112612D02*
X0187624Y0112612D01*
X0178024Y0112811D02*
X0178024Y0110245D01*
X0172624Y0110245D01*
X0172624Y0112811D01*
X0178024Y0112811D01*
X0178024Y0112612D02*
X0172624Y0112612D01*
X0168024Y0112811D02*
X0168024Y0110245D01*
X0162624Y0110245D01*
X0162624Y0112811D01*
X0168024Y0112811D01*
X0168024Y0112612D02*
X0162624Y0112612D01*
X0162624Y0101118D02*
X0162624Y0098552D01*
X0162624Y0101118D02*
X0168024Y0101118D01*
X0168024Y0098552D01*
X0162624Y0098552D01*
X0162624Y0100919D02*
X0168024Y0100919D01*
X0172624Y0101118D02*
X0172624Y0098552D01*
X0172624Y0101118D02*
X0178024Y0101118D01*
X0178024Y0098552D01*
X0172624Y0098552D01*
X0172624Y0100919D02*
X0178024Y0100919D01*
X0187624Y0101118D02*
X0187624Y0098552D01*
X0187624Y0101118D02*
X0193024Y0101118D01*
X0193024Y0098552D01*
X0187624Y0098552D01*
X0187624Y0100919D02*
X0193024Y0100919D01*
X0197624Y0101118D02*
X0197624Y0098552D01*
X0197624Y0101118D02*
X0203024Y0101118D01*
X0203024Y0098552D01*
X0197624Y0098552D01*
X0197624Y0100919D02*
X0203024Y0100919D01*
X0212624Y0101118D02*
X0212624Y0098552D01*
X0212624Y0101118D02*
X0218024Y0101118D01*
X0218024Y0098552D01*
X0212624Y0098552D01*
X0212624Y0100919D02*
X0218024Y0100919D01*
X0222624Y0101118D02*
X0222624Y0098552D01*
X0222624Y0101118D02*
X0228024Y0101118D01*
X0228024Y0098552D01*
X0222624Y0098552D01*
X0222624Y0100919D02*
X0228024Y0100919D01*
X0237624Y0101118D02*
X0237624Y0098552D01*
X0237624Y0101118D02*
X0243024Y0101118D01*
X0243024Y0098552D01*
X0237624Y0098552D01*
X0237624Y0100919D02*
X0243024Y0100919D01*
X0247624Y0101118D02*
X0247624Y0098552D01*
X0247624Y0101118D02*
X0253024Y0101118D01*
X0253024Y0098552D01*
X0247624Y0098552D01*
X0247624Y0100919D02*
X0253024Y0100919D01*
X0253024Y0110245D02*
X0253024Y0112811D01*
X0253024Y0110245D02*
X0247624Y0110245D01*
X0247624Y0112811D01*
X0253024Y0112811D01*
X0253024Y0112612D02*
X0247624Y0112612D01*
X0243024Y0112811D02*
X0243024Y0110245D01*
X0237624Y0110245D01*
X0237624Y0112811D01*
X0243024Y0112811D01*
X0243024Y0112612D02*
X0237624Y0112612D01*
X0333024Y0112811D02*
X0333024Y0110245D01*
X0327624Y0110245D01*
X0327624Y0112811D01*
X0333024Y0112811D01*
X0333024Y0112612D02*
X0327624Y0112612D01*
X0343024Y0112811D02*
X0343024Y0110245D01*
X0337624Y0110245D01*
X0337624Y0112811D01*
X0343024Y0112811D01*
X0343024Y0112612D02*
X0337624Y0112612D01*
X0358024Y0112811D02*
X0358024Y0110245D01*
X0352624Y0110245D01*
X0352624Y0112811D01*
X0358024Y0112811D01*
X0358024Y0112612D02*
X0352624Y0112612D01*
X0368024Y0112811D02*
X0368024Y0110245D01*
X0362624Y0110245D01*
X0362624Y0112811D01*
X0368024Y0112811D01*
X0368024Y0112612D02*
X0362624Y0112612D01*
X0383024Y0112811D02*
X0383024Y0110245D01*
X0377624Y0110245D01*
X0377624Y0112811D01*
X0383024Y0112811D01*
X0383024Y0112612D02*
X0377624Y0112612D01*
X0393024Y0112811D02*
X0393024Y0110245D01*
X0387624Y0110245D01*
X0387624Y0112811D01*
X0393024Y0112811D01*
X0393024Y0112612D02*
X0387624Y0112612D01*
X0408024Y0112811D02*
X0408024Y0110245D01*
X0402624Y0110245D01*
X0402624Y0112811D01*
X0408024Y0112811D01*
X0408024Y0112612D02*
X0402624Y0112612D01*
X0418024Y0112811D02*
X0418024Y0110245D01*
X0412624Y0110245D01*
X0412624Y0112811D01*
X0418024Y0112811D01*
X0418024Y0112612D02*
X0412624Y0112612D01*
X0412624Y0101118D02*
X0412624Y0098552D01*
X0412624Y0101118D02*
X0418024Y0101118D01*
X0418024Y0098552D01*
X0412624Y0098552D01*
X0412624Y0100919D02*
X0418024Y0100919D01*
X0402624Y0101118D02*
X0402624Y0098552D01*
X0402624Y0101118D02*
X0408024Y0101118D01*
X0408024Y0098552D01*
X0402624Y0098552D01*
X0402624Y0100919D02*
X0408024Y0100919D01*
X0387624Y0101118D02*
X0387624Y0098552D01*
X0387624Y0101118D02*
X0393024Y0101118D01*
X0393024Y0098552D01*
X0387624Y0098552D01*
X0387624Y0100919D02*
X0393024Y0100919D01*
X0377624Y0101118D02*
X0377624Y0098552D01*
X0377624Y0101118D02*
X0383024Y0101118D01*
X0383024Y0098552D01*
X0377624Y0098552D01*
X0377624Y0100919D02*
X0383024Y0100919D01*
X0362624Y0101118D02*
X0362624Y0098552D01*
X0362624Y0101118D02*
X0368024Y0101118D01*
X0368024Y0098552D01*
X0362624Y0098552D01*
X0362624Y0100919D02*
X0368024Y0100919D01*
X0352624Y0101118D02*
X0352624Y0098552D01*
X0352624Y0101118D02*
X0358024Y0101118D01*
X0358024Y0098552D01*
X0352624Y0098552D01*
X0352624Y0100919D02*
X0358024Y0100919D01*
X0337624Y0101118D02*
X0337624Y0098552D01*
X0337624Y0101118D02*
X0343024Y0101118D01*
X0343024Y0098552D01*
X0337624Y0098552D01*
X0337624Y0100919D02*
X0343024Y0100919D01*
X0327624Y0101118D02*
X0327624Y0098552D01*
X0327624Y0101118D02*
X0333024Y0101118D01*
X0333024Y0098552D01*
X0327624Y0098552D01*
X0327624Y0100919D02*
X0333024Y0100919D01*
X0487624Y0101118D02*
X0487624Y0098552D01*
X0487624Y0101118D02*
X0493024Y0101118D01*
X0493024Y0098552D01*
X0487624Y0098552D01*
X0487624Y0100919D02*
X0493024Y0100919D01*
X0497624Y0101118D02*
X0497624Y0098552D01*
X0497624Y0101118D02*
X0503024Y0101118D01*
X0503024Y0098552D01*
X0497624Y0098552D01*
X0497624Y0100919D02*
X0503024Y0100919D01*
X0512624Y0101118D02*
X0512624Y0098552D01*
X0512624Y0101118D02*
X0518024Y0101118D01*
X0518024Y0098552D01*
X0512624Y0098552D01*
X0512624Y0100919D02*
X0518024Y0100919D01*
X0522624Y0101118D02*
X0522624Y0098552D01*
X0522624Y0101118D02*
X0528024Y0101118D01*
X0528024Y0098552D01*
X0522624Y0098552D01*
X0522624Y0100919D02*
X0528024Y0100919D01*
X0537624Y0101118D02*
X0537624Y0098552D01*
X0537624Y0101118D02*
X0543024Y0101118D01*
X0543024Y0098552D01*
X0537624Y0098552D01*
X0537624Y0100919D02*
X0543024Y0100919D01*
X0547624Y0101118D02*
X0547624Y0098552D01*
X0547624Y0101118D02*
X0553024Y0101118D01*
X0553024Y0098552D01*
X0547624Y0098552D01*
X0547624Y0100919D02*
X0553024Y0100919D01*
X0562624Y0101118D02*
X0562624Y0098552D01*
X0562624Y0101118D02*
X0568024Y0101118D01*
X0568024Y0098552D01*
X0562624Y0098552D01*
X0562624Y0100919D02*
X0568024Y0100919D01*
X0572624Y0101118D02*
X0572624Y0098552D01*
X0572624Y0101118D02*
X0578024Y0101118D01*
X0578024Y0098552D01*
X0572624Y0098552D01*
X0572624Y0100919D02*
X0578024Y0100919D01*
X0578024Y0110245D02*
X0578024Y0112811D01*
X0578024Y0110245D02*
X0572624Y0110245D01*
X0572624Y0112811D01*
X0578024Y0112811D01*
X0578024Y0112612D02*
X0572624Y0112612D01*
X0568024Y0112811D02*
X0568024Y0110245D01*
X0562624Y0110245D01*
X0562624Y0112811D01*
X0568024Y0112811D01*
X0568024Y0112612D02*
X0562624Y0112612D01*
X0553024Y0112811D02*
X0553024Y0110245D01*
X0547624Y0110245D01*
X0547624Y0112811D01*
X0553024Y0112811D01*
X0553024Y0112612D02*
X0547624Y0112612D01*
X0543024Y0112811D02*
X0543024Y0110245D01*
X0537624Y0110245D01*
X0537624Y0112811D01*
X0543024Y0112811D01*
X0543024Y0112612D02*
X0537624Y0112612D01*
X0528024Y0112811D02*
X0528024Y0110245D01*
X0522624Y0110245D01*
X0522624Y0112811D01*
X0528024Y0112811D01*
X0528024Y0112612D02*
X0522624Y0112612D01*
X0518024Y0112811D02*
X0518024Y0110245D01*
X0512624Y0110245D01*
X0512624Y0112811D01*
X0518024Y0112811D01*
X0518024Y0112612D02*
X0512624Y0112612D01*
X0503024Y0112811D02*
X0503024Y0110245D01*
X0497624Y0110245D01*
X0497624Y0112811D01*
X0503024Y0112811D01*
X0503024Y0112612D02*
X0497624Y0112612D01*
X0493024Y0112811D02*
X0493024Y0110245D01*
X0487624Y0110245D01*
X0487624Y0112811D01*
X0493024Y0112811D01*
X0493024Y0112612D02*
X0487624Y0112612D01*
X0648024Y0112811D02*
X0648024Y0110245D01*
X0642624Y0110245D01*
X0642624Y0112811D01*
X0648024Y0112811D01*
X0648024Y0112612D02*
X0642624Y0112612D01*
X0658024Y0112811D02*
X0658024Y0110245D01*
X0652624Y0110245D01*
X0652624Y0112811D01*
X0658024Y0112811D01*
X0658024Y0112612D02*
X0652624Y0112612D01*
X0673024Y0112811D02*
X0673024Y0110245D01*
X0667624Y0110245D01*
X0667624Y0112811D01*
X0673024Y0112811D01*
X0673024Y0112612D02*
X0667624Y0112612D01*
X0683024Y0112811D02*
X0683024Y0110245D01*
X0677624Y0110245D01*
X0677624Y0112811D01*
X0683024Y0112811D01*
X0683024Y0112612D02*
X0677624Y0112612D01*
X0698024Y0112811D02*
X0698024Y0110245D01*
X0692624Y0110245D01*
X0692624Y0112811D01*
X0698024Y0112811D01*
X0698024Y0112612D02*
X0692624Y0112612D01*
X0708024Y0112811D02*
X0708024Y0110245D01*
X0702624Y0110245D01*
X0702624Y0112811D01*
X0708024Y0112811D01*
X0708024Y0112612D02*
X0702624Y0112612D01*
X0723024Y0112811D02*
X0723024Y0110245D01*
X0717624Y0110245D01*
X0717624Y0112811D01*
X0723024Y0112811D01*
X0723024Y0112612D02*
X0717624Y0112612D01*
X0733024Y0112811D02*
X0733024Y0110245D01*
X0727624Y0110245D01*
X0727624Y0112811D01*
X0733024Y0112811D01*
X0733024Y0112612D02*
X0727624Y0112612D01*
X0727624Y0101118D02*
X0727624Y0098552D01*
X0727624Y0101118D02*
X0733024Y0101118D01*
X0733024Y0098552D01*
X0727624Y0098552D01*
X0727624Y0100919D02*
X0733024Y0100919D01*
X0717624Y0101118D02*
X0717624Y0098552D01*
X0717624Y0101118D02*
X0723024Y0101118D01*
X0723024Y0098552D01*
X0717624Y0098552D01*
X0717624Y0100919D02*
X0723024Y0100919D01*
X0702624Y0101118D02*
X0702624Y0098552D01*
X0702624Y0101118D02*
X0708024Y0101118D01*
X0708024Y0098552D01*
X0702624Y0098552D01*
X0702624Y0100919D02*
X0708024Y0100919D01*
X0692624Y0101118D02*
X0692624Y0098552D01*
X0692624Y0101118D02*
X0698024Y0101118D01*
X0698024Y0098552D01*
X0692624Y0098552D01*
X0692624Y0100919D02*
X0698024Y0100919D01*
X0677624Y0101118D02*
X0677624Y0098552D01*
X0677624Y0101118D02*
X0683024Y0101118D01*
X0683024Y0098552D01*
X0677624Y0098552D01*
X0677624Y0100919D02*
X0683024Y0100919D01*
X0667624Y0101118D02*
X0667624Y0098552D01*
X0667624Y0101118D02*
X0673024Y0101118D01*
X0673024Y0098552D01*
X0667624Y0098552D01*
X0667624Y0100919D02*
X0673024Y0100919D01*
X0652624Y0101118D02*
X0652624Y0098552D01*
X0652624Y0101118D02*
X0658024Y0101118D01*
X0658024Y0098552D01*
X0652624Y0098552D01*
X0652624Y0100919D02*
X0658024Y0100919D01*
X0642624Y0101118D02*
X0642624Y0098552D01*
X0642624Y0101118D02*
X0648024Y0101118D01*
X0648024Y0098552D01*
X0642624Y0098552D01*
X0642624Y0100919D02*
X0648024Y0100919D01*
X0777624Y0101118D02*
X0777624Y0098552D01*
X0777624Y0101118D02*
X0783024Y0101118D01*
X0783024Y0098552D01*
X0777624Y0098552D01*
X0777624Y0100919D02*
X0783024Y0100919D01*
X0787624Y0101118D02*
X0787624Y0098552D01*
X0787624Y0101118D02*
X0793024Y0101118D01*
X0793024Y0098552D01*
X0787624Y0098552D01*
X0787624Y0100919D02*
X0793024Y0100919D01*
X0802624Y0101118D02*
X0802624Y0098552D01*
X0802624Y0101118D02*
X0808024Y0101118D01*
X0808024Y0098552D01*
X0802624Y0098552D01*
X0802624Y0100919D02*
X0808024Y0100919D01*
X0812624Y0101118D02*
X0812624Y0098552D01*
X0812624Y0101118D02*
X0818024Y0101118D01*
X0818024Y0098552D01*
X0812624Y0098552D01*
X0812624Y0100919D02*
X0818024Y0100919D01*
X0827624Y0101118D02*
X0827624Y0098552D01*
X0827624Y0101118D02*
X0833024Y0101118D01*
X0833024Y0098552D01*
X0827624Y0098552D01*
X0827624Y0100919D02*
X0833024Y0100919D01*
X0837624Y0101118D02*
X0837624Y0098552D01*
X0837624Y0101118D02*
X0843024Y0101118D01*
X0843024Y0098552D01*
X0837624Y0098552D01*
X0837624Y0100919D02*
X0843024Y0100919D01*
X0852624Y0101118D02*
X0852624Y0098552D01*
X0852624Y0101118D02*
X0858024Y0101118D01*
X0858024Y0098552D01*
X0852624Y0098552D01*
X0852624Y0100919D02*
X0858024Y0100919D01*
X0862624Y0101118D02*
X0862624Y0098552D01*
X0862624Y0101118D02*
X0868024Y0101118D01*
X0868024Y0098552D01*
X0862624Y0098552D01*
X0862624Y0100919D02*
X0868024Y0100919D01*
X0868024Y0110245D02*
X0868024Y0112811D01*
X0868024Y0110245D02*
X0862624Y0110245D01*
X0862624Y0112811D01*
X0868024Y0112811D01*
X0868024Y0112612D02*
X0862624Y0112612D01*
X0858024Y0112811D02*
X0858024Y0110245D01*
X0852624Y0110245D01*
X0852624Y0112811D01*
X0858024Y0112811D01*
X0858024Y0112612D02*
X0852624Y0112612D01*
X0843024Y0112811D02*
X0843024Y0110245D01*
X0837624Y0110245D01*
X0837624Y0112811D01*
X0843024Y0112811D01*
X0843024Y0112612D02*
X0837624Y0112612D01*
X0833024Y0112811D02*
X0833024Y0110245D01*
X0827624Y0110245D01*
X0827624Y0112811D01*
X0833024Y0112811D01*
X0833024Y0112612D02*
X0827624Y0112612D01*
X0818024Y0112811D02*
X0818024Y0110245D01*
X0812624Y0110245D01*
X0812624Y0112811D01*
X0818024Y0112811D01*
X0818024Y0112612D02*
X0812624Y0112612D01*
X0808024Y0112811D02*
X0808024Y0110245D01*
X0802624Y0110245D01*
X0802624Y0112811D01*
X0808024Y0112811D01*
X0808024Y0112612D02*
X0802624Y0112612D01*
X0793024Y0112811D02*
X0793024Y0110245D01*
X0787624Y0110245D01*
X0787624Y0112811D01*
X0793024Y0112811D01*
X0793024Y0112612D02*
X0787624Y0112612D01*
X0783024Y0112811D02*
X0783024Y0110245D01*
X0777624Y0110245D01*
X0777624Y0112811D01*
X0783024Y0112811D01*
X0783024Y0112612D02*
X0777624Y0112612D01*
X0941762Y0115552D02*
X0941762Y0118118D01*
X0947162Y0118118D01*
X0947162Y0115552D01*
X0941762Y0115552D01*
X0941762Y0117919D02*
X0947162Y0117919D01*
X0947162Y0127245D02*
X0947162Y0129811D01*
X0947162Y0127245D02*
X0941762Y0127245D01*
X0941762Y0129811D01*
X0947162Y0129811D01*
X0947162Y0129612D02*
X0941762Y0129612D01*
X0959486Y0346381D02*
X0962052Y0346381D01*
X0962052Y0340981D01*
X0959486Y0340981D01*
X0959486Y0346381D01*
X0959486Y0343348D02*
X0962052Y0343348D01*
X0962052Y0345715D02*
X0959486Y0345715D01*
X0971179Y0340981D02*
X0973745Y0340981D01*
X0971179Y0340981D02*
X0971179Y0346381D01*
X0973745Y0346381D01*
X0973745Y0340981D01*
X0973745Y0343348D02*
X0971179Y0343348D01*
X0971179Y0345715D02*
X0973745Y0345715D01*
X1098085Y0352359D02*
X1098085Y0354925D01*
X1103485Y0354925D01*
X1103485Y0352359D01*
X1098085Y0352359D01*
X1098085Y0354726D02*
X1103485Y0354726D01*
X1103485Y0364052D02*
X1103485Y0366618D01*
X1103485Y0364052D02*
X1098085Y0364052D01*
X1098085Y0366618D01*
X1103485Y0366618D01*
X1103485Y0366419D02*
X1098085Y0366419D01*
X0575524Y0368245D02*
X0575524Y0370811D01*
X0575524Y0368245D02*
X0570124Y0368245D01*
X0570124Y0370811D01*
X0575524Y0370811D01*
X0575524Y0370612D02*
X0570124Y0370612D01*
X0570124Y0359118D02*
X0570124Y0356552D01*
X0570124Y0359118D02*
X0575524Y0359118D01*
X0575524Y0356552D01*
X0570124Y0356552D01*
X0570124Y0358919D02*
X0575524Y0358919D01*
X0530124Y0359118D02*
X0530124Y0356552D01*
X0530124Y0359118D02*
X0535524Y0359118D01*
X0535524Y0356552D01*
X0530124Y0356552D01*
X0530124Y0358919D02*
X0535524Y0358919D01*
X0535524Y0368245D02*
X0535524Y0370811D01*
X0535524Y0368245D02*
X0530124Y0368245D01*
X0530124Y0370811D01*
X0535524Y0370811D01*
X0535524Y0370612D02*
X0530124Y0370612D01*
X0495524Y0370811D02*
X0495524Y0368245D01*
X0490124Y0368245D01*
X0490124Y0370811D01*
X0495524Y0370811D01*
X0495524Y0370612D02*
X0490124Y0370612D01*
X0490124Y0359118D02*
X0490124Y0356552D01*
X0490124Y0359118D02*
X0495524Y0359118D01*
X0495524Y0356552D01*
X0490124Y0356552D01*
X0490124Y0358919D02*
X0495524Y0358919D01*
X0450124Y0359118D02*
X0450124Y0356552D01*
X0450124Y0359118D02*
X0455524Y0359118D01*
X0455524Y0356552D01*
X0450124Y0356552D01*
X0450124Y0358919D02*
X0455524Y0358919D01*
X0455524Y0368245D02*
X0455524Y0370811D01*
X0455524Y0368245D02*
X0450124Y0368245D01*
X0450124Y0370811D01*
X0455524Y0370811D01*
X0455524Y0370612D02*
X0450124Y0370612D01*
X0415524Y0370811D02*
X0415524Y0368245D01*
X0410124Y0368245D01*
X0410124Y0370811D01*
X0415524Y0370811D01*
X0415524Y0370612D02*
X0410124Y0370612D01*
X0410124Y0359118D02*
X0410124Y0356552D01*
X0410124Y0359118D02*
X0415524Y0359118D01*
X0415524Y0356552D01*
X0410124Y0356552D01*
X0410124Y0358919D02*
X0415524Y0358919D01*
X0370124Y0359118D02*
X0370124Y0356552D01*
X0370124Y0359118D02*
X0375524Y0359118D01*
X0375524Y0356552D01*
X0370124Y0356552D01*
X0370124Y0358919D02*
X0375524Y0358919D01*
X0375524Y0368245D02*
X0375524Y0370811D01*
X0375524Y0368245D02*
X0370124Y0368245D01*
X0370124Y0370811D01*
X0375524Y0370811D01*
X0375524Y0370612D02*
X0370124Y0370612D01*
X0335524Y0370811D02*
X0335524Y0368245D01*
X0330124Y0368245D01*
X0330124Y0370811D01*
X0335524Y0370811D01*
X0335524Y0370612D02*
X0330124Y0370612D01*
X0330124Y0359118D02*
X0330124Y0356552D01*
X0330124Y0359118D02*
X0335524Y0359118D01*
X0335524Y0356552D01*
X0330124Y0356552D01*
X0330124Y0358919D02*
X0335524Y0358919D01*
X0290124Y0359118D02*
X0290124Y0356552D01*
X0290124Y0359118D02*
X0295524Y0359118D01*
X0295524Y0356552D01*
X0290124Y0356552D01*
X0290124Y0358919D02*
X0295524Y0358919D01*
X0295524Y0368245D02*
X0295524Y0370811D01*
X0295524Y0368245D02*
X0290124Y0368245D01*
X0290124Y0370811D01*
X0295524Y0370811D01*
X0295524Y0370612D02*
X0290124Y0370612D01*
X0255524Y0370811D02*
X0255524Y0368245D01*
X0250124Y0368245D01*
X0250124Y0370811D01*
X0255524Y0370811D01*
X0255524Y0370612D02*
X0250124Y0370612D01*
X0250124Y0359118D02*
X0250124Y0356552D01*
X0250124Y0359118D02*
X0255524Y0359118D01*
X0255524Y0356552D01*
X0250124Y0356552D01*
X0250124Y0358919D02*
X0255524Y0358919D01*
X0210124Y0359118D02*
X0210124Y0356552D01*
X0210124Y0359118D02*
X0215524Y0359118D01*
X0215524Y0356552D01*
X0210124Y0356552D01*
X0210124Y0358919D02*
X0215524Y0358919D01*
X0215524Y0368245D02*
X0215524Y0370811D01*
X0215524Y0368245D02*
X0210124Y0368245D01*
X0210124Y0370811D01*
X0215524Y0370811D01*
X0215524Y0370612D02*
X0210124Y0370612D01*
X0175524Y0370811D02*
X0175524Y0368245D01*
X0170124Y0368245D01*
X0170124Y0370811D01*
X0175524Y0370811D01*
X0175524Y0370612D02*
X0170124Y0370612D01*
X0170124Y0359118D02*
X0170124Y0356552D01*
X0170124Y0359118D02*
X0175524Y0359118D01*
X0175524Y0356552D01*
X0170124Y0356552D01*
X0170124Y0358919D02*
X0175524Y0358919D01*
X0130124Y0359118D02*
X0130124Y0356552D01*
X0130124Y0359118D02*
X0135524Y0359118D01*
X0135524Y0356552D01*
X0130124Y0356552D01*
X0130124Y0358919D02*
X0135524Y0358919D01*
X0135524Y0368245D02*
X0135524Y0370811D01*
X0135524Y0368245D02*
X0130124Y0368245D01*
X0130124Y0370811D01*
X0135524Y0370811D01*
X0135524Y0370612D02*
X0130124Y0370612D01*
D40*
X0125060Y0358752D02*
X0125060Y0356556D01*
X0122588Y0356556D01*
X0122588Y0358752D01*
X0125060Y0358752D01*
X0125060Y0358664D02*
X0122588Y0358664D01*
X0122588Y0352807D02*
X0122588Y0350611D01*
X0122588Y0352807D02*
X0125060Y0352807D01*
X0125060Y0350611D01*
X0122588Y0350611D01*
X0122588Y0352719D02*
X0125060Y0352719D01*
X0101032Y0356945D02*
X0098836Y0356945D01*
X0098836Y0359417D01*
X0101032Y0359417D01*
X0101032Y0356945D01*
X0101032Y0359053D02*
X0098836Y0359053D01*
X0095087Y0359417D02*
X0092891Y0359417D01*
X0095087Y0359417D02*
X0095087Y0356945D01*
X0092891Y0356945D01*
X0092891Y0359417D01*
X0092891Y0359053D02*
X0095087Y0359053D01*
X0165060Y0358752D02*
X0165060Y0356556D01*
X0162588Y0356556D01*
X0162588Y0358752D01*
X0165060Y0358752D01*
X0165060Y0358664D02*
X0162588Y0358664D01*
X0162588Y0352807D02*
X0162588Y0350611D01*
X0162588Y0352807D02*
X0165060Y0352807D01*
X0165060Y0350611D01*
X0162588Y0350611D01*
X0162588Y0352719D02*
X0165060Y0352719D01*
X0202588Y0352807D02*
X0202588Y0350611D01*
X0202588Y0352807D02*
X0205060Y0352807D01*
X0205060Y0350611D01*
X0202588Y0350611D01*
X0202588Y0352719D02*
X0205060Y0352719D01*
X0205060Y0356556D02*
X0205060Y0358752D01*
X0205060Y0356556D02*
X0202588Y0356556D01*
X0202588Y0358752D01*
X0205060Y0358752D01*
X0205060Y0358664D02*
X0202588Y0358664D01*
X0245060Y0358752D02*
X0245060Y0356556D01*
X0242588Y0356556D01*
X0242588Y0358752D01*
X0245060Y0358752D01*
X0245060Y0358664D02*
X0242588Y0358664D01*
X0242588Y0352807D02*
X0242588Y0350611D01*
X0242588Y0352807D02*
X0245060Y0352807D01*
X0245060Y0350611D01*
X0242588Y0350611D01*
X0242588Y0352719D02*
X0245060Y0352719D01*
X0282588Y0351807D02*
X0282588Y0349611D01*
X0282588Y0351807D02*
X0285060Y0351807D01*
X0285060Y0349611D01*
X0282588Y0349611D01*
X0282588Y0351719D02*
X0285060Y0351719D01*
X0285060Y0355556D02*
X0285060Y0357752D01*
X0285060Y0355556D02*
X0282588Y0355556D01*
X0282588Y0357752D01*
X0285060Y0357752D01*
X0285060Y0357664D02*
X0282588Y0357664D01*
X0325060Y0358752D02*
X0325060Y0356556D01*
X0322588Y0356556D01*
X0322588Y0358752D01*
X0325060Y0358752D01*
X0325060Y0358664D02*
X0322588Y0358664D01*
X0322588Y0352807D02*
X0322588Y0350611D01*
X0322588Y0352807D02*
X0325060Y0352807D01*
X0325060Y0350611D01*
X0322588Y0350611D01*
X0322588Y0352719D02*
X0325060Y0352719D01*
X0362588Y0352807D02*
X0362588Y0350611D01*
X0362588Y0352807D02*
X0365060Y0352807D01*
X0365060Y0350611D01*
X0362588Y0350611D01*
X0362588Y0352719D02*
X0365060Y0352719D01*
X0365060Y0356556D02*
X0365060Y0358752D01*
X0365060Y0356556D02*
X0362588Y0356556D01*
X0362588Y0358752D01*
X0365060Y0358752D01*
X0365060Y0358664D02*
X0362588Y0358664D01*
X0405060Y0358752D02*
X0405060Y0356556D01*
X0402588Y0356556D01*
X0402588Y0358752D01*
X0405060Y0358752D01*
X0405060Y0358664D02*
X0402588Y0358664D01*
X0402588Y0352807D02*
X0402588Y0350611D01*
X0402588Y0352807D02*
X0405060Y0352807D01*
X0405060Y0350611D01*
X0402588Y0350611D01*
X0402588Y0352719D02*
X0405060Y0352719D01*
X0442588Y0352807D02*
X0442588Y0350611D01*
X0442588Y0352807D02*
X0445060Y0352807D01*
X0445060Y0350611D01*
X0442588Y0350611D01*
X0442588Y0352719D02*
X0445060Y0352719D01*
X0445060Y0356556D02*
X0445060Y0358752D01*
X0445060Y0356556D02*
X0442588Y0356556D01*
X0442588Y0358752D01*
X0445060Y0358752D01*
X0445060Y0358664D02*
X0442588Y0358664D01*
X0485060Y0358752D02*
X0485060Y0356556D01*
X0482588Y0356556D01*
X0482588Y0358752D01*
X0485060Y0358752D01*
X0485060Y0358664D02*
X0482588Y0358664D01*
X0482588Y0352807D02*
X0482588Y0350611D01*
X0482588Y0352807D02*
X0485060Y0352807D01*
X0485060Y0350611D01*
X0482588Y0350611D01*
X0482588Y0352719D02*
X0485060Y0352719D01*
X0522588Y0352807D02*
X0522588Y0350611D01*
X0522588Y0352807D02*
X0525060Y0352807D01*
X0525060Y0350611D01*
X0522588Y0350611D01*
X0522588Y0352719D02*
X0525060Y0352719D01*
X0525060Y0356556D02*
X0525060Y0358752D01*
X0525060Y0356556D02*
X0522588Y0356556D01*
X0522588Y0358752D01*
X0525060Y0358752D01*
X0525060Y0358664D02*
X0522588Y0358664D01*
X0565060Y0358752D02*
X0565060Y0356556D01*
X0562588Y0356556D01*
X0562588Y0358752D01*
X0565060Y0358752D01*
X0565060Y0358664D02*
X0562588Y0358664D01*
X0562588Y0352807D02*
X0562588Y0350611D01*
X0562588Y0352807D02*
X0565060Y0352807D01*
X0565060Y0350611D01*
X0562588Y0350611D01*
X0562588Y0352719D02*
X0565060Y0352719D01*
X0569198Y0332252D02*
X0569198Y0330056D01*
X0566726Y0330056D01*
X0566726Y0332252D01*
X0569198Y0332252D01*
X0569198Y0332164D02*
X0566726Y0332164D01*
X0557198Y0332252D02*
X0557198Y0330056D01*
X0554726Y0330056D01*
X0554726Y0332252D01*
X0557198Y0332252D01*
X0557198Y0332164D02*
X0554726Y0332164D01*
X0545198Y0332252D02*
X0545198Y0330056D01*
X0542726Y0330056D01*
X0542726Y0332252D01*
X0545198Y0332252D01*
X0545198Y0332164D02*
X0542726Y0332164D01*
X0532198Y0332252D02*
X0532198Y0330056D01*
X0529726Y0330056D01*
X0529726Y0332252D01*
X0532198Y0332252D01*
X0532198Y0332164D02*
X0529726Y0332164D01*
X0529726Y0326307D02*
X0529726Y0324111D01*
X0529726Y0326307D02*
X0532198Y0326307D01*
X0532198Y0324111D01*
X0529726Y0324111D01*
X0529726Y0326219D02*
X0532198Y0326219D01*
X0542726Y0326307D02*
X0542726Y0324111D01*
X0542726Y0326307D02*
X0545198Y0326307D01*
X0545198Y0324111D01*
X0542726Y0324111D01*
X0542726Y0326219D02*
X0545198Y0326219D01*
X0554726Y0326307D02*
X0554726Y0324111D01*
X0554726Y0326307D02*
X0557198Y0326307D01*
X0557198Y0324111D01*
X0554726Y0324111D01*
X0554726Y0326219D02*
X0557198Y0326219D01*
X0566726Y0326307D02*
X0566726Y0324111D01*
X0566726Y0326307D02*
X0569198Y0326307D01*
X0569198Y0324111D01*
X0566726Y0324111D01*
X0566726Y0326219D02*
X0569198Y0326219D01*
X0578726Y0326307D02*
X0578726Y0324111D01*
X0578726Y0326307D02*
X0581198Y0326307D01*
X0581198Y0324111D01*
X0578726Y0324111D01*
X0578726Y0326219D02*
X0581198Y0326219D01*
X0590726Y0326307D02*
X0590726Y0324111D01*
X0590726Y0326307D02*
X0593198Y0326307D01*
X0593198Y0324111D01*
X0590726Y0324111D01*
X0590726Y0326219D02*
X0593198Y0326219D01*
X0593198Y0330056D02*
X0593198Y0332252D01*
X0593198Y0330056D02*
X0590726Y0330056D01*
X0590726Y0332252D01*
X0593198Y0332252D01*
X0593198Y0332164D02*
X0590726Y0332164D01*
X0581198Y0332252D02*
X0581198Y0330056D01*
X0578726Y0330056D01*
X0578726Y0332252D01*
X0581198Y0332252D01*
X0581198Y0332164D02*
X0578726Y0332164D01*
X0627891Y0309417D02*
X0630087Y0309417D01*
X0630087Y0306945D01*
X0627891Y0306945D01*
X0627891Y0309417D01*
X0627891Y0309053D02*
X0630087Y0309053D01*
X0633836Y0306945D02*
X0636032Y0306945D01*
X0633836Y0306945D02*
X0633836Y0309417D01*
X0636032Y0309417D01*
X0636032Y0306945D01*
X0636032Y0309053D02*
X0633836Y0309053D01*
X0633698Y0286445D02*
X0635894Y0286445D01*
X0633698Y0286445D02*
X0633698Y0288917D01*
X0635894Y0288917D01*
X0635894Y0286445D01*
X0635894Y0288553D02*
X0633698Y0288553D01*
X0629950Y0288917D02*
X0627754Y0288917D01*
X0629950Y0288917D02*
X0629950Y0286445D01*
X0627754Y0286445D01*
X0627754Y0288917D01*
X0627754Y0288553D02*
X0629950Y0288553D01*
X0531894Y0286445D02*
X0529698Y0286445D01*
X0529698Y0288917D01*
X0531894Y0288917D01*
X0531894Y0286445D01*
X0531894Y0288553D02*
X0529698Y0288553D01*
X0525950Y0288917D02*
X0523754Y0288917D01*
X0525950Y0288917D02*
X0525950Y0286445D01*
X0523754Y0286445D01*
X0523754Y0288917D01*
X0523754Y0288553D02*
X0525950Y0288553D01*
X0525950Y0276917D02*
X0523754Y0276917D01*
X0525950Y0276917D02*
X0525950Y0274445D01*
X0523754Y0274445D01*
X0523754Y0276917D01*
X0523754Y0276553D02*
X0525950Y0276553D01*
X0529698Y0274445D02*
X0531894Y0274445D01*
X0529698Y0274445D02*
X0529698Y0276917D01*
X0531894Y0276917D01*
X0531894Y0274445D01*
X0531894Y0276553D02*
X0529698Y0276553D01*
X0529698Y0262445D02*
X0531894Y0262445D01*
X0529698Y0262445D02*
X0529698Y0264917D01*
X0531894Y0264917D01*
X0531894Y0262445D01*
X0531894Y0264553D02*
X0529698Y0264553D01*
X0525950Y0264917D02*
X0523754Y0264917D01*
X0525950Y0264917D02*
X0525950Y0262445D01*
X0523754Y0262445D01*
X0523754Y0264917D01*
X0523754Y0264553D02*
X0525950Y0264553D01*
X0525950Y0252917D02*
X0523754Y0252917D01*
X0525950Y0252917D02*
X0525950Y0250445D01*
X0523754Y0250445D01*
X0523754Y0252917D01*
X0523754Y0252553D02*
X0525950Y0252553D01*
X0529698Y0250445D02*
X0531894Y0250445D01*
X0529698Y0250445D02*
X0529698Y0252917D01*
X0531894Y0252917D01*
X0531894Y0250445D01*
X0531894Y0252553D02*
X0529698Y0252553D01*
X0529698Y0238445D02*
X0531894Y0238445D01*
X0529698Y0238445D02*
X0529698Y0240917D01*
X0531894Y0240917D01*
X0531894Y0238445D01*
X0531894Y0240553D02*
X0529698Y0240553D01*
X0525950Y0240917D02*
X0523754Y0240917D01*
X0525950Y0240917D02*
X0525950Y0238445D01*
X0523754Y0238445D01*
X0523754Y0240917D01*
X0523754Y0240553D02*
X0525950Y0240553D01*
X0421726Y0240111D02*
X0421726Y0242307D01*
X0424198Y0242307D01*
X0424198Y0240111D01*
X0421726Y0240111D01*
X0421726Y0242219D02*
X0424198Y0242219D01*
X0424198Y0246056D02*
X0424198Y0248252D01*
X0424198Y0246056D02*
X0421726Y0246056D01*
X0421726Y0248252D01*
X0424198Y0248252D01*
X0424198Y0248164D02*
X0421726Y0248164D01*
X0418198Y0248252D02*
X0418198Y0246056D01*
X0415726Y0246056D01*
X0415726Y0248252D01*
X0418198Y0248252D01*
X0418198Y0248164D02*
X0415726Y0248164D01*
X0412198Y0248252D02*
X0412198Y0246056D01*
X0409726Y0246056D01*
X0409726Y0248252D01*
X0412198Y0248252D01*
X0412198Y0248164D02*
X0409726Y0248164D01*
X0409726Y0242307D02*
X0409726Y0240111D01*
X0409726Y0242307D02*
X0412198Y0242307D01*
X0412198Y0240111D01*
X0409726Y0240111D01*
X0409726Y0242219D02*
X0412198Y0242219D01*
X0415726Y0242307D02*
X0415726Y0240111D01*
X0415726Y0242307D02*
X0418198Y0242307D01*
X0418198Y0240111D01*
X0415726Y0240111D01*
X0415726Y0242219D02*
X0418198Y0242219D01*
X0419588Y0291611D02*
X0419588Y0293807D01*
X0422060Y0293807D01*
X0422060Y0291611D01*
X0419588Y0291611D01*
X0419588Y0293719D02*
X0422060Y0293719D01*
X0425588Y0293807D02*
X0425588Y0291611D01*
X0425588Y0293807D02*
X0428060Y0293807D01*
X0428060Y0291611D01*
X0425588Y0291611D01*
X0425588Y0293719D02*
X0428060Y0293719D01*
X0431588Y0293807D02*
X0431588Y0291611D01*
X0431588Y0293807D02*
X0434060Y0293807D01*
X0434060Y0291611D01*
X0431588Y0291611D01*
X0431588Y0293719D02*
X0434060Y0293719D01*
X0434060Y0297556D02*
X0434060Y0299752D01*
X0434060Y0297556D02*
X0431588Y0297556D01*
X0431588Y0299752D01*
X0434060Y0299752D01*
X0434060Y0299664D02*
X0431588Y0299664D01*
X0428060Y0299752D02*
X0428060Y0297556D01*
X0425588Y0297556D01*
X0425588Y0299752D01*
X0428060Y0299752D01*
X0428060Y0299664D02*
X0425588Y0299664D01*
X0422060Y0299752D02*
X0422060Y0297556D01*
X0419588Y0297556D01*
X0419588Y0299752D01*
X0422060Y0299752D01*
X0422060Y0299664D02*
X0419588Y0299664D01*
X0419588Y0311611D02*
X0419588Y0313807D01*
X0422060Y0313807D01*
X0422060Y0311611D01*
X0419588Y0311611D01*
X0419588Y0313719D02*
X0422060Y0313719D01*
X0425588Y0313807D02*
X0425588Y0311611D01*
X0425588Y0313807D02*
X0428060Y0313807D01*
X0428060Y0311611D01*
X0425588Y0311611D01*
X0425588Y0313719D02*
X0428060Y0313719D01*
X0431588Y0313807D02*
X0431588Y0311611D01*
X0431588Y0313807D02*
X0434060Y0313807D01*
X0434060Y0311611D01*
X0431588Y0311611D01*
X0431588Y0313719D02*
X0434060Y0313719D01*
X0434060Y0317556D02*
X0434060Y0319752D01*
X0434060Y0317556D02*
X0431588Y0317556D01*
X0431588Y0319752D01*
X0434060Y0319752D01*
X0434060Y0319664D02*
X0431588Y0319664D01*
X0428060Y0319752D02*
X0428060Y0317556D01*
X0425588Y0317556D01*
X0425588Y0319752D01*
X0428060Y0319752D01*
X0428060Y0319664D02*
X0425588Y0319664D01*
X0422060Y0319752D02*
X0422060Y0317556D01*
X0419588Y0317556D01*
X0419588Y0319752D01*
X0422060Y0319752D01*
X0422060Y0319664D02*
X0419588Y0319664D01*
X0449754Y0308917D02*
X0451950Y0308917D01*
X0451950Y0306445D01*
X0449754Y0306445D01*
X0449754Y0308917D01*
X0449754Y0308553D02*
X0451950Y0308553D01*
X0455698Y0306445D02*
X0457894Y0306445D01*
X0455698Y0306445D02*
X0455698Y0308917D01*
X0457894Y0308917D01*
X0457894Y0306445D01*
X0457894Y0308553D02*
X0455698Y0308553D01*
X0523754Y0306917D02*
X0525950Y0306917D01*
X0525950Y0304445D01*
X0523754Y0304445D01*
X0523754Y0306917D01*
X0523754Y0306553D02*
X0525950Y0306553D01*
X0529698Y0304445D02*
X0531894Y0304445D01*
X0529698Y0304445D02*
X0529698Y0306917D01*
X0531894Y0306917D01*
X0531894Y0304445D01*
X0531894Y0306553D02*
X0529698Y0306553D01*
X0352588Y0311611D02*
X0352588Y0313807D01*
X0355060Y0313807D01*
X0355060Y0311611D01*
X0352588Y0311611D01*
X0352588Y0313719D02*
X0355060Y0313719D01*
X0355060Y0317556D02*
X0355060Y0319752D01*
X0355060Y0317556D02*
X0352588Y0317556D01*
X0352588Y0319752D01*
X0355060Y0319752D01*
X0355060Y0319664D02*
X0352588Y0319664D01*
X0349060Y0319752D02*
X0349060Y0317556D01*
X0346588Y0317556D01*
X0346588Y0319752D01*
X0349060Y0319752D01*
X0349060Y0319664D02*
X0346588Y0319664D01*
X0343060Y0319752D02*
X0343060Y0317556D01*
X0340588Y0317556D01*
X0340588Y0319752D01*
X0343060Y0319752D01*
X0343060Y0319664D02*
X0340588Y0319664D01*
X0340588Y0313807D02*
X0340588Y0311611D01*
X0340588Y0313807D02*
X0343060Y0313807D01*
X0343060Y0311611D01*
X0340588Y0311611D01*
X0340588Y0313719D02*
X0343060Y0313719D01*
X0346588Y0313807D02*
X0346588Y0311611D01*
X0346588Y0313807D02*
X0349060Y0313807D01*
X0349060Y0311611D01*
X0346588Y0311611D01*
X0346588Y0313719D02*
X0349060Y0313719D01*
X0317588Y0313807D02*
X0317588Y0311611D01*
X0317588Y0313807D02*
X0320060Y0313807D01*
X0320060Y0311611D01*
X0317588Y0311611D01*
X0317588Y0313719D02*
X0320060Y0313719D01*
X0320060Y0317556D02*
X0320060Y0319752D01*
X0320060Y0317556D02*
X0317588Y0317556D01*
X0317588Y0319752D01*
X0320060Y0319752D01*
X0320060Y0319664D02*
X0317588Y0319664D01*
X0314060Y0319752D02*
X0314060Y0317556D01*
X0311588Y0317556D01*
X0311588Y0319752D01*
X0314060Y0319752D01*
X0314060Y0319664D02*
X0311588Y0319664D01*
X0308060Y0319752D02*
X0308060Y0317556D01*
X0305588Y0317556D01*
X0305588Y0319752D01*
X0308060Y0319752D01*
X0308060Y0319664D02*
X0305588Y0319664D01*
X0305588Y0313807D02*
X0305588Y0311611D01*
X0305588Y0313807D02*
X0308060Y0313807D01*
X0308060Y0311611D01*
X0305588Y0311611D01*
X0305588Y0313719D02*
X0308060Y0313719D01*
X0311588Y0313807D02*
X0311588Y0311611D01*
X0311588Y0313807D02*
X0314060Y0313807D01*
X0314060Y0311611D01*
X0311588Y0311611D01*
X0311588Y0313719D02*
X0314060Y0313719D01*
X0314060Y0299752D02*
X0314060Y0297556D01*
X0311588Y0297556D01*
X0311588Y0299752D01*
X0314060Y0299752D01*
X0314060Y0299664D02*
X0311588Y0299664D01*
X0308060Y0299752D02*
X0308060Y0297556D01*
X0305588Y0297556D01*
X0305588Y0299752D01*
X0308060Y0299752D01*
X0308060Y0299664D02*
X0305588Y0299664D01*
X0305588Y0293807D02*
X0305588Y0291611D01*
X0305588Y0293807D02*
X0308060Y0293807D01*
X0308060Y0291611D01*
X0305588Y0291611D01*
X0305588Y0293719D02*
X0308060Y0293719D01*
X0311588Y0293807D02*
X0311588Y0291611D01*
X0311588Y0293807D02*
X0314060Y0293807D01*
X0314060Y0291611D01*
X0311588Y0291611D01*
X0311588Y0293719D02*
X0314060Y0293719D01*
X0317588Y0293807D02*
X0317588Y0291611D01*
X0317588Y0293807D02*
X0320060Y0293807D01*
X0320060Y0291611D01*
X0317588Y0291611D01*
X0317588Y0293719D02*
X0320060Y0293719D01*
X0320060Y0297556D02*
X0320060Y0299752D01*
X0320060Y0297556D02*
X0317588Y0297556D01*
X0317588Y0299752D01*
X0320060Y0299752D01*
X0320060Y0299664D02*
X0317588Y0299664D01*
X0343060Y0299752D02*
X0343060Y0297556D01*
X0340588Y0297556D01*
X0340588Y0299752D01*
X0343060Y0299752D01*
X0343060Y0299664D02*
X0340588Y0299664D01*
X0349060Y0299752D02*
X0349060Y0297556D01*
X0346588Y0297556D01*
X0346588Y0299752D01*
X0349060Y0299752D01*
X0349060Y0299664D02*
X0346588Y0299664D01*
X0355060Y0299752D02*
X0355060Y0297556D01*
X0352588Y0297556D01*
X0352588Y0299752D01*
X0355060Y0299752D01*
X0355060Y0299664D02*
X0352588Y0299664D01*
X0352588Y0293807D02*
X0352588Y0291611D01*
X0352588Y0293807D02*
X0355060Y0293807D01*
X0355060Y0291611D01*
X0352588Y0291611D01*
X0352588Y0293719D02*
X0355060Y0293719D01*
X0346588Y0293807D02*
X0346588Y0291611D01*
X0346588Y0293807D02*
X0349060Y0293807D01*
X0349060Y0291611D01*
X0346588Y0291611D01*
X0346588Y0293719D02*
X0349060Y0293719D01*
X0340588Y0293807D02*
X0340588Y0291611D01*
X0340588Y0293807D02*
X0343060Y0293807D01*
X0343060Y0291611D01*
X0340588Y0291611D01*
X0340588Y0293719D02*
X0343060Y0293719D01*
X0243588Y0293807D02*
X0243588Y0291611D01*
X0243588Y0293807D02*
X0246060Y0293807D01*
X0246060Y0291611D01*
X0243588Y0291611D01*
X0243588Y0293719D02*
X0246060Y0293719D01*
X0246060Y0297556D02*
X0246060Y0299752D01*
X0246060Y0297556D02*
X0243588Y0297556D01*
X0243588Y0299752D01*
X0246060Y0299752D01*
X0246060Y0299664D02*
X0243588Y0299664D01*
X0240060Y0299752D02*
X0240060Y0297556D01*
X0237588Y0297556D01*
X0237588Y0299752D01*
X0240060Y0299752D01*
X0240060Y0299664D02*
X0237588Y0299664D01*
X0234060Y0299752D02*
X0234060Y0297556D01*
X0231588Y0297556D01*
X0231588Y0299752D01*
X0234060Y0299752D01*
X0234060Y0299664D02*
X0231588Y0299664D01*
X0231588Y0293807D02*
X0231588Y0291611D01*
X0231588Y0293807D02*
X0234060Y0293807D01*
X0234060Y0291611D01*
X0231588Y0291611D01*
X0231588Y0293719D02*
X0234060Y0293719D01*
X0237588Y0293807D02*
X0237588Y0291611D01*
X0237588Y0293807D02*
X0240060Y0293807D01*
X0240060Y0291611D01*
X0237588Y0291611D01*
X0237588Y0293719D02*
X0240060Y0293719D01*
X0214588Y0293807D02*
X0214588Y0291611D01*
X0214588Y0293807D02*
X0217060Y0293807D01*
X0217060Y0291611D01*
X0214588Y0291611D01*
X0214588Y0293719D02*
X0217060Y0293719D01*
X0217060Y0297556D02*
X0217060Y0299752D01*
X0217060Y0297556D02*
X0214588Y0297556D01*
X0214588Y0299752D01*
X0217060Y0299752D01*
X0217060Y0299664D02*
X0214588Y0299664D01*
X0211060Y0299752D02*
X0211060Y0297556D01*
X0208588Y0297556D01*
X0208588Y0299752D01*
X0211060Y0299752D01*
X0211060Y0299664D02*
X0208588Y0299664D01*
X0199060Y0299752D02*
X0199060Y0297556D01*
X0196588Y0297556D01*
X0196588Y0299752D01*
X0199060Y0299752D01*
X0199060Y0299664D02*
X0196588Y0299664D01*
X0196588Y0293807D02*
X0196588Y0291611D01*
X0196588Y0293807D02*
X0199060Y0293807D01*
X0199060Y0291611D01*
X0196588Y0291611D01*
X0196588Y0293719D02*
X0199060Y0293719D01*
X0208588Y0293807D02*
X0208588Y0291611D01*
X0208588Y0293807D02*
X0211060Y0293807D01*
X0211060Y0291611D01*
X0208588Y0291611D01*
X0208588Y0293719D02*
X0211060Y0293719D01*
X0208588Y0311611D02*
X0208588Y0313807D01*
X0211060Y0313807D01*
X0211060Y0311611D01*
X0208588Y0311611D01*
X0208588Y0313719D02*
X0211060Y0313719D01*
X0214588Y0313807D02*
X0214588Y0311611D01*
X0214588Y0313807D02*
X0217060Y0313807D01*
X0217060Y0311611D01*
X0214588Y0311611D01*
X0214588Y0313719D02*
X0217060Y0313719D01*
X0217060Y0317556D02*
X0217060Y0319752D01*
X0217060Y0317556D02*
X0214588Y0317556D01*
X0214588Y0319752D01*
X0217060Y0319752D01*
X0217060Y0319664D02*
X0214588Y0319664D01*
X0211060Y0319752D02*
X0211060Y0317556D01*
X0208588Y0317556D01*
X0208588Y0319752D01*
X0211060Y0319752D01*
X0211060Y0319664D02*
X0208588Y0319664D01*
X0205060Y0319752D02*
X0205060Y0317556D01*
X0202588Y0317556D01*
X0202588Y0319752D01*
X0205060Y0319752D01*
X0205060Y0319664D02*
X0202588Y0319664D01*
X0202588Y0313807D02*
X0202588Y0311611D01*
X0202588Y0313807D02*
X0205060Y0313807D01*
X0205060Y0311611D01*
X0202588Y0311611D01*
X0202588Y0313719D02*
X0205060Y0313719D01*
X0231588Y0313807D02*
X0231588Y0311611D01*
X0231588Y0313807D02*
X0234060Y0313807D01*
X0234060Y0311611D01*
X0231588Y0311611D01*
X0231588Y0313719D02*
X0234060Y0313719D01*
X0237588Y0313807D02*
X0237588Y0311611D01*
X0237588Y0313807D02*
X0240060Y0313807D01*
X0240060Y0311611D01*
X0237588Y0311611D01*
X0237588Y0313719D02*
X0240060Y0313719D01*
X0243588Y0313807D02*
X0243588Y0311611D01*
X0243588Y0313807D02*
X0246060Y0313807D01*
X0246060Y0311611D01*
X0243588Y0311611D01*
X0243588Y0313719D02*
X0246060Y0313719D01*
X0246060Y0317556D02*
X0246060Y0319752D01*
X0246060Y0317556D02*
X0243588Y0317556D01*
X0243588Y0319752D01*
X0246060Y0319752D01*
X0246060Y0319664D02*
X0243588Y0319664D01*
X0240060Y0319752D02*
X0240060Y0317556D01*
X0237588Y0317556D01*
X0237588Y0319752D01*
X0240060Y0319752D01*
X0240060Y0319664D02*
X0237588Y0319664D01*
X0234060Y0319752D02*
X0234060Y0317556D01*
X0231588Y0317556D01*
X0231588Y0319752D01*
X0234060Y0319752D01*
X0234060Y0319664D02*
X0231588Y0319664D01*
X0149060Y0299752D02*
X0149060Y0297556D01*
X0146588Y0297556D01*
X0146588Y0299752D01*
X0149060Y0299752D01*
X0149060Y0299664D02*
X0146588Y0299664D01*
X0137060Y0299752D02*
X0137060Y0297556D01*
X0134588Y0297556D01*
X0134588Y0299752D01*
X0137060Y0299752D01*
X0137060Y0299664D02*
X0134588Y0299664D01*
X0131060Y0299752D02*
X0131060Y0297556D01*
X0128588Y0297556D01*
X0128588Y0299752D01*
X0131060Y0299752D01*
X0131060Y0299664D02*
X0128588Y0299664D01*
X0128588Y0293807D02*
X0128588Y0291611D01*
X0128588Y0293807D02*
X0131060Y0293807D01*
X0131060Y0291611D01*
X0128588Y0291611D01*
X0128588Y0293719D02*
X0131060Y0293719D01*
X0134588Y0293807D02*
X0134588Y0291611D01*
X0134588Y0293807D02*
X0137060Y0293807D01*
X0137060Y0291611D01*
X0134588Y0291611D01*
X0134588Y0293719D02*
X0137060Y0293719D01*
X0146588Y0293807D02*
X0146588Y0291611D01*
X0146588Y0293807D02*
X0149060Y0293807D01*
X0149060Y0291611D01*
X0146588Y0291611D01*
X0146588Y0293719D02*
X0149060Y0293719D01*
X0140588Y0311611D02*
X0140588Y0313807D01*
X0143060Y0313807D01*
X0143060Y0311611D01*
X0140588Y0311611D01*
X0140588Y0313719D02*
X0143060Y0313719D01*
X0143060Y0317556D02*
X0143060Y0319752D01*
X0143060Y0317556D02*
X0140588Y0317556D01*
X0140588Y0319752D01*
X0143060Y0319752D01*
X0143060Y0319664D02*
X0140588Y0319664D01*
X0137060Y0319752D02*
X0137060Y0317556D01*
X0134588Y0317556D01*
X0134588Y0319752D01*
X0137060Y0319752D01*
X0137060Y0319664D02*
X0134588Y0319664D01*
X0131060Y0319752D02*
X0131060Y0317556D01*
X0128588Y0317556D01*
X0128588Y0319752D01*
X0131060Y0319752D01*
X0131060Y0319664D02*
X0128588Y0319664D01*
X0128588Y0313807D02*
X0128588Y0311611D01*
X0128588Y0313807D02*
X0131060Y0313807D01*
X0131060Y0311611D01*
X0128588Y0311611D01*
X0128588Y0313719D02*
X0131060Y0313719D01*
X0134588Y0313807D02*
X0134588Y0311611D01*
X0134588Y0313807D02*
X0137060Y0313807D01*
X0137060Y0311611D01*
X0134588Y0311611D01*
X0134588Y0313719D02*
X0137060Y0313719D01*
X0106060Y0208752D02*
X0106060Y0206556D01*
X0103588Y0206556D01*
X0103588Y0208752D01*
X0106060Y0208752D01*
X0106060Y0208664D02*
X0103588Y0208664D01*
X0100060Y0208752D02*
X0100060Y0206556D01*
X0097588Y0206556D01*
X0097588Y0208752D01*
X0100060Y0208752D01*
X0100060Y0208664D02*
X0097588Y0208664D01*
X0097588Y0202807D02*
X0097588Y0200611D01*
X0097588Y0202807D02*
X0100060Y0202807D01*
X0100060Y0200611D01*
X0097588Y0200611D01*
X0097588Y0202719D02*
X0100060Y0202719D01*
X0103588Y0202807D02*
X0103588Y0200611D01*
X0103588Y0202807D02*
X0106060Y0202807D01*
X0106060Y0200611D01*
X0103588Y0200611D01*
X0103588Y0202719D02*
X0106060Y0202719D01*
X0076894Y0200445D02*
X0074698Y0200445D01*
X0074698Y0202917D01*
X0076894Y0202917D01*
X0076894Y0200445D01*
X0076894Y0202553D02*
X0074698Y0202553D01*
X0070950Y0202917D02*
X0068754Y0202917D01*
X0070950Y0202917D02*
X0070950Y0200445D01*
X0068754Y0200445D01*
X0068754Y0202917D01*
X0068754Y0202553D02*
X0070950Y0202553D01*
X0070950Y0208917D02*
X0068754Y0208917D01*
X0070950Y0208917D02*
X0070950Y0206445D01*
X0068754Y0206445D01*
X0068754Y0208917D01*
X0068754Y0208553D02*
X0070950Y0208553D01*
X0074698Y0206445D02*
X0076894Y0206445D01*
X0074698Y0206445D02*
X0074698Y0208917D01*
X0076894Y0208917D01*
X0076894Y0206445D01*
X0076894Y0208553D02*
X0074698Y0208553D01*
X0047894Y0196445D02*
X0045698Y0196445D01*
X0045698Y0198917D01*
X0047894Y0198917D01*
X0047894Y0196445D01*
X0047894Y0198553D02*
X0045698Y0198553D01*
X0041950Y0198917D02*
X0039754Y0198917D01*
X0041950Y0198917D02*
X0041950Y0196445D01*
X0039754Y0196445D01*
X0039754Y0198917D01*
X0039754Y0198553D02*
X0041950Y0198553D01*
X0041950Y0192917D02*
X0039754Y0192917D01*
X0041950Y0192917D02*
X0041950Y0190445D01*
X0039754Y0190445D01*
X0039754Y0192917D01*
X0039754Y0192553D02*
X0041950Y0192553D01*
X0045698Y0190445D02*
X0047894Y0190445D01*
X0045698Y0190445D02*
X0045698Y0192917D01*
X0047894Y0192917D01*
X0047894Y0190445D01*
X0047894Y0192553D02*
X0045698Y0192553D01*
X0045698Y0184445D02*
X0047894Y0184445D01*
X0045698Y0184445D02*
X0045698Y0186917D01*
X0047894Y0186917D01*
X0047894Y0184445D01*
X0047894Y0186553D02*
X0045698Y0186553D01*
X0041950Y0186917D02*
X0039754Y0186917D01*
X0041950Y0186917D02*
X0041950Y0184445D01*
X0039754Y0184445D01*
X0039754Y0186917D01*
X0039754Y0186553D02*
X0041950Y0186553D01*
X0041950Y0180917D02*
X0039754Y0180917D01*
X0041950Y0180917D02*
X0041950Y0178445D01*
X0039754Y0178445D01*
X0039754Y0180917D01*
X0039754Y0180553D02*
X0041950Y0180553D01*
X0045698Y0178445D02*
X0047894Y0178445D01*
X0045698Y0178445D02*
X0045698Y0180917D01*
X0047894Y0180917D01*
X0047894Y0178445D01*
X0047894Y0180553D02*
X0045698Y0180553D01*
X0045698Y0172445D02*
X0047894Y0172445D01*
X0045698Y0172445D02*
X0045698Y0174917D01*
X0047894Y0174917D01*
X0047894Y0172445D01*
X0047894Y0174553D02*
X0045698Y0174553D01*
X0041950Y0174917D02*
X0039754Y0174917D01*
X0041950Y0174917D02*
X0041950Y0172445D01*
X0039754Y0172445D01*
X0039754Y0174917D01*
X0039754Y0174553D02*
X0041950Y0174553D01*
X0041950Y0168917D02*
X0039754Y0168917D01*
X0041950Y0168917D02*
X0041950Y0166445D01*
X0039754Y0166445D01*
X0039754Y0168917D01*
X0039754Y0168553D02*
X0041950Y0168553D01*
X0045698Y0166445D02*
X0047894Y0166445D01*
X0045698Y0166445D02*
X0045698Y0168917D01*
X0047894Y0168917D01*
X0047894Y0166445D01*
X0047894Y0168553D02*
X0045698Y0168553D01*
X0045698Y0160445D02*
X0047894Y0160445D01*
X0045698Y0160445D02*
X0045698Y0162917D01*
X0047894Y0162917D01*
X0047894Y0160445D01*
X0047894Y0162553D02*
X0045698Y0162553D01*
X0041950Y0162917D02*
X0039754Y0162917D01*
X0041950Y0162917D02*
X0041950Y0160445D01*
X0039754Y0160445D01*
X0039754Y0162917D01*
X0039754Y0162553D02*
X0041950Y0162553D01*
X0041950Y0156917D02*
X0039754Y0156917D01*
X0041950Y0156917D02*
X0041950Y0154445D01*
X0039754Y0154445D01*
X0039754Y0156917D01*
X0039754Y0156553D02*
X0041950Y0156553D01*
X0045698Y0154445D02*
X0047894Y0154445D01*
X0045698Y0154445D02*
X0045698Y0156917D01*
X0047894Y0156917D01*
X0047894Y0154445D01*
X0047894Y0156553D02*
X0045698Y0156553D01*
X0075060Y0145752D02*
X0075060Y0143556D01*
X0072588Y0143556D01*
X0072588Y0145752D01*
X0075060Y0145752D01*
X0075060Y0145664D02*
X0072588Y0145664D01*
X0072588Y0139807D02*
X0072588Y0137611D01*
X0072588Y0139807D02*
X0075060Y0139807D01*
X0075060Y0137611D01*
X0072588Y0137611D01*
X0072588Y0139719D02*
X0075060Y0139719D01*
X0080588Y0139807D02*
X0080588Y0137611D01*
X0080588Y0139807D02*
X0083060Y0139807D01*
X0083060Y0137611D01*
X0080588Y0137611D01*
X0080588Y0139719D02*
X0083060Y0139719D01*
X0086588Y0139807D02*
X0086588Y0137611D01*
X0086588Y0139807D02*
X0089060Y0139807D01*
X0089060Y0137611D01*
X0086588Y0137611D01*
X0086588Y0139719D02*
X0089060Y0139719D01*
X0089060Y0143556D02*
X0089060Y0145752D01*
X0089060Y0143556D02*
X0086588Y0143556D01*
X0086588Y0145752D01*
X0089060Y0145752D01*
X0089060Y0145664D02*
X0086588Y0145664D01*
X0083060Y0145752D02*
X0083060Y0143556D01*
X0080588Y0143556D01*
X0080588Y0145752D01*
X0083060Y0145752D01*
X0083060Y0145664D02*
X0080588Y0145664D01*
X0065060Y0122752D02*
X0065060Y0120556D01*
X0062588Y0120556D01*
X0062588Y0122752D01*
X0065060Y0122752D01*
X0065060Y0122664D02*
X0062588Y0122664D01*
X0058060Y0122752D02*
X0058060Y0120556D01*
X0055588Y0120556D01*
X0055588Y0122752D01*
X0058060Y0122752D01*
X0058060Y0122664D02*
X0055588Y0122664D01*
X0050060Y0122752D02*
X0050060Y0120556D01*
X0047588Y0120556D01*
X0047588Y0122752D01*
X0050060Y0122752D01*
X0050060Y0122664D02*
X0047588Y0122664D01*
X0047588Y0116807D02*
X0047588Y0114611D01*
X0047588Y0116807D02*
X0050060Y0116807D01*
X0050060Y0114611D01*
X0047588Y0114611D01*
X0047588Y0116719D02*
X0050060Y0116719D01*
X0055588Y0116807D02*
X0055588Y0114611D01*
X0055588Y0116807D02*
X0058060Y0116807D01*
X0058060Y0114611D01*
X0055588Y0114611D01*
X0055588Y0116719D02*
X0058060Y0116719D01*
X0062588Y0116807D02*
X0062588Y0114611D01*
X0062588Y0116807D02*
X0065060Y0116807D01*
X0065060Y0114611D01*
X0062588Y0114611D01*
X0062588Y0116719D02*
X0065060Y0116719D01*
X0098588Y0116807D02*
X0098588Y0114611D01*
X0098588Y0116807D02*
X0101060Y0116807D01*
X0101060Y0114611D01*
X0098588Y0114611D01*
X0098588Y0116719D02*
X0101060Y0116719D01*
X0104588Y0116807D02*
X0104588Y0114611D01*
X0104588Y0116807D02*
X0107060Y0116807D01*
X0107060Y0114611D01*
X0104588Y0114611D01*
X0104588Y0116719D02*
X0107060Y0116719D01*
X0107060Y0120556D02*
X0107060Y0122752D01*
X0107060Y0120556D02*
X0104588Y0120556D01*
X0104588Y0122752D01*
X0107060Y0122752D01*
X0107060Y0122664D02*
X0104588Y0122664D01*
X0101060Y0122752D02*
X0101060Y0120556D01*
X0098588Y0120556D01*
X0098588Y0122752D01*
X0101060Y0122752D01*
X0101060Y0122664D02*
X0098588Y0122664D01*
X0189088Y0173611D02*
X0189088Y0175807D01*
X0191560Y0175807D01*
X0191560Y0173611D01*
X0189088Y0173611D01*
X0189088Y0175719D02*
X0191560Y0175719D01*
X0191560Y0179556D02*
X0191560Y0181752D01*
X0191560Y0179556D02*
X0189088Y0179556D01*
X0189088Y0181752D01*
X0191560Y0181752D01*
X0191560Y0181664D02*
X0189088Y0181664D01*
X0203560Y0181752D02*
X0203560Y0179556D01*
X0201088Y0179556D01*
X0201088Y0181752D01*
X0203560Y0181752D01*
X0203560Y0181664D02*
X0201088Y0181664D01*
X0201088Y0175807D02*
X0201088Y0173611D01*
X0201088Y0175807D02*
X0203560Y0175807D01*
X0203560Y0173611D01*
X0201088Y0173611D01*
X0201088Y0175719D02*
X0203560Y0175719D01*
X0213088Y0175807D02*
X0213088Y0173611D01*
X0213088Y0175807D02*
X0215560Y0175807D01*
X0215560Y0173611D01*
X0213088Y0173611D01*
X0213088Y0175719D02*
X0215560Y0175719D01*
X0215560Y0179556D02*
X0215560Y0181752D01*
X0215560Y0179556D02*
X0213088Y0179556D01*
X0213088Y0181752D01*
X0215560Y0181752D01*
X0215560Y0181664D02*
X0213088Y0181664D01*
X0227560Y0181752D02*
X0227560Y0179556D01*
X0225088Y0179556D01*
X0225088Y0181752D01*
X0227560Y0181752D01*
X0227560Y0181664D02*
X0225088Y0181664D01*
X0225088Y0175807D02*
X0225088Y0173611D01*
X0225088Y0175807D02*
X0227560Y0175807D01*
X0227560Y0173611D01*
X0225088Y0173611D01*
X0225088Y0175719D02*
X0227560Y0175719D01*
X0116532Y0186445D02*
X0114336Y0186445D01*
X0114336Y0188917D01*
X0116532Y0188917D01*
X0116532Y0186445D01*
X0116532Y0188553D02*
X0114336Y0188553D01*
X0110587Y0188917D02*
X0108391Y0188917D01*
X0110587Y0188917D02*
X0110587Y0186445D01*
X0108391Y0186445D01*
X0108391Y0188917D01*
X0108391Y0188553D02*
X0110587Y0188553D01*
X0354560Y0182752D02*
X0354560Y0180556D01*
X0352088Y0180556D01*
X0352088Y0182752D01*
X0354560Y0182752D01*
X0354560Y0182664D02*
X0352088Y0182664D01*
X0352088Y0176807D02*
X0352088Y0174611D01*
X0352088Y0176807D02*
X0354560Y0176807D01*
X0354560Y0174611D01*
X0352088Y0174611D01*
X0352088Y0176719D02*
X0354560Y0176719D01*
X0364088Y0176807D02*
X0364088Y0174611D01*
X0364088Y0176807D02*
X0366560Y0176807D01*
X0366560Y0174611D01*
X0364088Y0174611D01*
X0364088Y0176719D02*
X0366560Y0176719D01*
X0366560Y0180556D02*
X0366560Y0182752D01*
X0366560Y0180556D02*
X0364088Y0180556D01*
X0364088Y0182752D01*
X0366560Y0182752D01*
X0366560Y0182664D02*
X0364088Y0182664D01*
X0378560Y0182752D02*
X0378560Y0180556D01*
X0376088Y0180556D01*
X0376088Y0182752D01*
X0378560Y0182752D01*
X0378560Y0182664D02*
X0376088Y0182664D01*
X0376088Y0176807D02*
X0376088Y0174611D01*
X0376088Y0176807D02*
X0378560Y0176807D01*
X0378560Y0174611D01*
X0376088Y0174611D01*
X0376088Y0176719D02*
X0378560Y0176719D01*
X0388088Y0176807D02*
X0388088Y0174611D01*
X0388088Y0176807D02*
X0390560Y0176807D01*
X0390560Y0174611D01*
X0388088Y0174611D01*
X0388088Y0176719D02*
X0390560Y0176719D01*
X0390560Y0180556D02*
X0390560Y0182752D01*
X0390560Y0180556D02*
X0388088Y0180556D01*
X0388088Y0182752D01*
X0390560Y0182752D01*
X0390560Y0182664D02*
X0388088Y0182664D01*
X0518560Y0182752D02*
X0518560Y0180556D01*
X0516088Y0180556D01*
X0516088Y0182752D01*
X0518560Y0182752D01*
X0518560Y0182664D02*
X0516088Y0182664D01*
X0516088Y0176807D02*
X0516088Y0174611D01*
X0516088Y0176807D02*
X0518560Y0176807D01*
X0518560Y0174611D01*
X0516088Y0174611D01*
X0516088Y0176719D02*
X0518560Y0176719D01*
X0528088Y0176807D02*
X0528088Y0174611D01*
X0528088Y0176807D02*
X0530560Y0176807D01*
X0530560Y0174611D01*
X0528088Y0174611D01*
X0528088Y0176719D02*
X0530560Y0176719D01*
X0530560Y0180556D02*
X0530560Y0182752D01*
X0530560Y0180556D02*
X0528088Y0180556D01*
X0528088Y0182752D01*
X0530560Y0182752D01*
X0530560Y0182664D02*
X0528088Y0182664D01*
X0542560Y0182752D02*
X0542560Y0180556D01*
X0540088Y0180556D01*
X0540088Y0182752D01*
X0542560Y0182752D01*
X0542560Y0182664D02*
X0540088Y0182664D01*
X0540088Y0176807D02*
X0540088Y0174611D01*
X0540088Y0176807D02*
X0542560Y0176807D01*
X0542560Y0174611D01*
X0540088Y0174611D01*
X0540088Y0176719D02*
X0542560Y0176719D01*
X0552088Y0176807D02*
X0552088Y0174611D01*
X0552088Y0176807D02*
X0554560Y0176807D01*
X0554560Y0174611D01*
X0552088Y0174611D01*
X0552088Y0176719D02*
X0554560Y0176719D01*
X0554560Y0180556D02*
X0554560Y0182752D01*
X0554560Y0180556D02*
X0552088Y0180556D01*
X0552088Y0182752D01*
X0554560Y0182752D01*
X0554560Y0182664D02*
X0552088Y0182664D01*
X0671560Y0182752D02*
X0671560Y0180556D01*
X0669088Y0180556D01*
X0669088Y0182752D01*
X0671560Y0182752D01*
X0671560Y0182664D02*
X0669088Y0182664D01*
X0669088Y0176807D02*
X0669088Y0174611D01*
X0669088Y0176807D02*
X0671560Y0176807D01*
X0671560Y0174611D01*
X0669088Y0174611D01*
X0669088Y0176719D02*
X0671560Y0176719D01*
X0681088Y0176807D02*
X0681088Y0174611D01*
X0681088Y0176807D02*
X0683560Y0176807D01*
X0683560Y0174611D01*
X0681088Y0174611D01*
X0681088Y0176719D02*
X0683560Y0176719D01*
X0683560Y0180556D02*
X0683560Y0182752D01*
X0683560Y0180556D02*
X0681088Y0180556D01*
X0681088Y0182752D01*
X0683560Y0182752D01*
X0683560Y0182664D02*
X0681088Y0182664D01*
X0695560Y0182752D02*
X0695560Y0180556D01*
X0693088Y0180556D01*
X0693088Y0182752D01*
X0695560Y0182752D01*
X0695560Y0182664D02*
X0693088Y0182664D01*
X0693088Y0176807D02*
X0693088Y0174611D01*
X0693088Y0176807D02*
X0695560Y0176807D01*
X0695560Y0174611D01*
X0693088Y0174611D01*
X0693088Y0176719D02*
X0695560Y0176719D01*
X0705088Y0176807D02*
X0705088Y0174611D01*
X0705088Y0176807D02*
X0707560Y0176807D01*
X0707560Y0174611D01*
X0705088Y0174611D01*
X0705088Y0176719D02*
X0707560Y0176719D01*
X0707560Y0180556D02*
X0707560Y0182752D01*
X0707560Y0180556D02*
X0705088Y0180556D01*
X0705088Y0182752D01*
X0707560Y0182752D01*
X0707560Y0182664D02*
X0705088Y0182664D01*
X0807560Y0181752D02*
X0807560Y0179556D01*
X0805088Y0179556D01*
X0805088Y0181752D01*
X0807560Y0181752D01*
X0807560Y0181664D02*
X0805088Y0181664D01*
X0805088Y0175807D02*
X0805088Y0173611D01*
X0805088Y0175807D02*
X0807560Y0175807D01*
X0807560Y0173611D01*
X0805088Y0173611D01*
X0805088Y0175719D02*
X0807560Y0175719D01*
X0817088Y0175807D02*
X0817088Y0173611D01*
X0817088Y0175807D02*
X0819560Y0175807D01*
X0819560Y0173611D01*
X0817088Y0173611D01*
X0817088Y0175719D02*
X0819560Y0175719D01*
X0819560Y0179556D02*
X0819560Y0181752D01*
X0819560Y0179556D02*
X0817088Y0179556D01*
X0817088Y0181752D01*
X0819560Y0181752D01*
X0819560Y0181664D02*
X0817088Y0181664D01*
X0831560Y0181752D02*
X0831560Y0179556D01*
X0829088Y0179556D01*
X0829088Y0181752D01*
X0831560Y0181752D01*
X0831560Y0181664D02*
X0829088Y0181664D01*
X0829088Y0175807D02*
X0829088Y0173611D01*
X0829088Y0175807D02*
X0831560Y0175807D01*
X0831560Y0173611D01*
X0829088Y0173611D01*
X0829088Y0175719D02*
X0831560Y0175719D01*
X0841088Y0175807D02*
X0841088Y0173611D01*
X0841088Y0175807D02*
X0843560Y0175807D01*
X0843560Y0173611D01*
X0841088Y0173611D01*
X0841088Y0175719D02*
X0843560Y0175719D01*
X0843560Y0179556D02*
X0843560Y0181752D01*
X0843560Y0179556D02*
X0841088Y0179556D01*
X0841088Y0181752D01*
X0843560Y0181752D01*
X0843560Y0181664D02*
X0841088Y0181664D01*
X0939391Y0176917D02*
X0941587Y0176917D01*
X0941587Y0174445D01*
X0939391Y0174445D01*
X0939391Y0176917D01*
X0939391Y0176553D02*
X0941587Y0176553D01*
X0945336Y0174445D02*
X0947532Y0174445D01*
X0945336Y0174445D02*
X0945336Y0176917D01*
X0947532Y0176917D01*
X0947532Y0174445D01*
X0947532Y0176553D02*
X0945336Y0176553D01*
X0945336Y0167445D02*
X0947532Y0167445D01*
X0945336Y0167445D02*
X0945336Y0169917D01*
X0947532Y0169917D01*
X0947532Y0167445D01*
X0947532Y0169553D02*
X0945336Y0169553D01*
X0941587Y0169917D02*
X0939391Y0169917D01*
X0941587Y0169917D02*
X0941587Y0167445D01*
X0939391Y0167445D01*
X0939391Y0169917D01*
X0939391Y0169553D02*
X0941587Y0169553D01*
X0932532Y0136445D02*
X0930336Y0136445D01*
X0930336Y0138917D01*
X0932532Y0138917D01*
X0932532Y0136445D01*
X0932532Y0138553D02*
X0930336Y0138553D01*
X0926587Y0138917D02*
X0924391Y0138917D01*
X0926587Y0138917D02*
X0926587Y0136445D01*
X0924391Y0136445D01*
X0924391Y0138917D01*
X0924391Y0138553D02*
X0926587Y0138553D01*
X0915532Y0136445D02*
X0913336Y0136445D01*
X0913336Y0138917D01*
X0915532Y0138917D01*
X0915532Y0136445D01*
X0915532Y0138553D02*
X0913336Y0138553D01*
X0909587Y0138917D02*
X0907391Y0138917D01*
X0909587Y0138917D02*
X0909587Y0136445D01*
X0907391Y0136445D01*
X0907391Y0138917D01*
X0907391Y0138553D02*
X0909587Y0138553D01*
X1041754Y0134417D02*
X1043950Y0134417D01*
X1043950Y0131945D01*
X1041754Y0131945D01*
X1041754Y0134417D01*
X1041754Y0134053D02*
X1043950Y0134053D01*
X1047698Y0131945D02*
X1049894Y0131945D01*
X1047698Y0131945D02*
X1047698Y0134417D01*
X1049894Y0134417D01*
X1049894Y0131945D01*
X1049894Y0134053D02*
X1047698Y0134053D01*
X1047698Y0121945D02*
X1049894Y0121945D01*
X1047698Y0121945D02*
X1047698Y0124417D01*
X1049894Y0124417D01*
X1049894Y0121945D01*
X1049894Y0124053D02*
X1047698Y0124053D01*
X1043950Y0124417D02*
X1041754Y0124417D01*
X1043950Y0124417D02*
X1043950Y0121945D01*
X1041754Y0121945D01*
X1041754Y0124417D01*
X1041754Y0124053D02*
X1043950Y0124053D01*
X1043950Y0114417D02*
X1041754Y0114417D01*
X1043950Y0114417D02*
X1043950Y0111945D01*
X1041754Y0111945D01*
X1041754Y0114417D01*
X1041754Y0114053D02*
X1043950Y0114053D01*
X1047698Y0111945D02*
X1049894Y0111945D01*
X1047698Y0111945D02*
X1047698Y0114417D01*
X1049894Y0114417D01*
X1049894Y0111945D01*
X1049894Y0114053D02*
X1047698Y0114053D01*
X1047698Y0101945D02*
X1049894Y0101945D01*
X1047698Y0101945D02*
X1047698Y0104417D01*
X1049894Y0104417D01*
X1049894Y0101945D01*
X1049894Y0104053D02*
X1047698Y0104053D01*
X1043950Y0104417D02*
X1041754Y0104417D01*
X1043950Y0104417D02*
X1043950Y0101945D01*
X1041754Y0101945D01*
X1041754Y0104417D01*
X1041754Y0104053D02*
X1043950Y0104053D01*
X1043950Y0089417D02*
X1041754Y0089417D01*
X1043950Y0089417D02*
X1043950Y0086945D01*
X1041754Y0086945D01*
X1041754Y0089417D01*
X1041754Y0089053D02*
X1043950Y0089053D01*
X1047698Y0086945D02*
X1049894Y0086945D01*
X1047698Y0086945D02*
X1047698Y0089417D01*
X1049894Y0089417D01*
X1049894Y0086945D01*
X1049894Y0089053D02*
X1047698Y0089053D01*
X1047698Y0076945D02*
X1049894Y0076945D01*
X1047698Y0076945D02*
X1047698Y0079417D01*
X1049894Y0079417D01*
X1049894Y0076945D01*
X1049894Y0079053D02*
X1047698Y0079053D01*
X1043950Y0079417D02*
X1041754Y0079417D01*
X1043950Y0079417D02*
X1043950Y0076945D01*
X1041754Y0076945D01*
X1041754Y0079417D01*
X1041754Y0079053D02*
X1043950Y0079053D01*
X1043950Y0069417D02*
X1041754Y0069417D01*
X1043950Y0069417D02*
X1043950Y0066945D01*
X1041754Y0066945D01*
X1041754Y0069417D01*
X1041754Y0069053D02*
X1043950Y0069053D01*
X1047698Y0066945D02*
X1049894Y0066945D01*
X1047698Y0066945D02*
X1047698Y0069417D01*
X1049894Y0069417D01*
X1049894Y0066945D01*
X1049894Y0069053D02*
X1047698Y0069053D01*
X1047698Y0056945D02*
X1049894Y0056945D01*
X1047698Y0056945D02*
X1047698Y0059417D01*
X1049894Y0059417D01*
X1049894Y0056945D01*
X1049894Y0059053D02*
X1047698Y0059053D01*
X1043950Y0059417D02*
X1041754Y0059417D01*
X1043950Y0059417D02*
X1043950Y0056945D01*
X1041754Y0056945D01*
X1041754Y0059417D01*
X1041754Y0059053D02*
X1043950Y0059053D01*
X1092754Y0059417D02*
X1094950Y0059417D01*
X1094950Y0056945D01*
X1092754Y0056945D01*
X1092754Y0059417D01*
X1092754Y0059053D02*
X1094950Y0059053D01*
X1098698Y0056945D02*
X1100894Y0056945D01*
X1098698Y0056945D02*
X1098698Y0059417D01*
X1100894Y0059417D01*
X1100894Y0056945D01*
X1100894Y0059053D02*
X1098698Y0059053D01*
X1098698Y0066945D02*
X1100894Y0066945D01*
X1098698Y0066945D02*
X1098698Y0069417D01*
X1100894Y0069417D01*
X1100894Y0066945D01*
X1100894Y0069053D02*
X1098698Y0069053D01*
X1094950Y0069417D02*
X1092754Y0069417D01*
X1094950Y0069417D02*
X1094950Y0066945D01*
X1092754Y0066945D01*
X1092754Y0069417D01*
X1092754Y0069053D02*
X1094950Y0069053D01*
X1094950Y0079417D02*
X1092754Y0079417D01*
X1094950Y0079417D02*
X1094950Y0076945D01*
X1092754Y0076945D01*
X1092754Y0079417D01*
X1092754Y0079053D02*
X1094950Y0079053D01*
X1098698Y0076945D02*
X1100894Y0076945D01*
X1098698Y0076945D02*
X1098698Y0079417D01*
X1100894Y0079417D01*
X1100894Y0076945D01*
X1100894Y0079053D02*
X1098698Y0079053D01*
X1098698Y0086945D02*
X1100894Y0086945D01*
X1098698Y0086945D02*
X1098698Y0089417D01*
X1100894Y0089417D01*
X1100894Y0086945D01*
X1100894Y0089053D02*
X1098698Y0089053D01*
X1094950Y0089417D02*
X1092754Y0089417D01*
X1094950Y0089417D02*
X1094950Y0086945D01*
X1092754Y0086945D01*
X1092754Y0089417D01*
X1092754Y0089053D02*
X1094950Y0089053D01*
X1094950Y0104417D02*
X1092754Y0104417D01*
X1094950Y0104417D02*
X1094950Y0101945D01*
X1092754Y0101945D01*
X1092754Y0104417D01*
X1092754Y0104053D02*
X1094950Y0104053D01*
X1098698Y0101945D02*
X1100894Y0101945D01*
X1098698Y0101945D02*
X1098698Y0104417D01*
X1100894Y0104417D01*
X1100894Y0101945D01*
X1100894Y0104053D02*
X1098698Y0104053D01*
X1098698Y0111945D02*
X1100894Y0111945D01*
X1098698Y0111945D02*
X1098698Y0114417D01*
X1100894Y0114417D01*
X1100894Y0111945D01*
X1100894Y0114053D02*
X1098698Y0114053D01*
X1094950Y0114417D02*
X1092754Y0114417D01*
X1094950Y0114417D02*
X1094950Y0111945D01*
X1092754Y0111945D01*
X1092754Y0114417D01*
X1092754Y0114053D02*
X1094950Y0114053D01*
X1094950Y0124417D02*
X1092754Y0124417D01*
X1094950Y0124417D02*
X1094950Y0121945D01*
X1092754Y0121945D01*
X1092754Y0124417D01*
X1092754Y0124053D02*
X1094950Y0124053D01*
X1098698Y0121945D02*
X1100894Y0121945D01*
X1098698Y0121945D02*
X1098698Y0124417D01*
X1100894Y0124417D01*
X1100894Y0121945D01*
X1100894Y0124053D02*
X1098698Y0124053D01*
X1098698Y0131945D02*
X1100894Y0131945D01*
X1098698Y0131945D02*
X1098698Y0134417D01*
X1100894Y0134417D01*
X1100894Y0131945D01*
X1100894Y0134053D02*
X1098698Y0134053D01*
X1094950Y0134417D02*
X1092754Y0134417D01*
X1094950Y0134417D02*
X1094950Y0131945D01*
X1092754Y0131945D01*
X1092754Y0134417D01*
X1092754Y0134053D02*
X1094950Y0134053D01*
X1094950Y0149417D02*
X1092754Y0149417D01*
X1094950Y0149417D02*
X1094950Y0146945D01*
X1092754Y0146945D01*
X1092754Y0149417D01*
X1092754Y0149053D02*
X1094950Y0149053D01*
X1098698Y0146945D02*
X1100894Y0146945D01*
X1098698Y0146945D02*
X1098698Y0149417D01*
X1100894Y0149417D01*
X1100894Y0146945D01*
X1100894Y0149053D02*
X1098698Y0149053D01*
X1098698Y0156945D02*
X1100894Y0156945D01*
X1098698Y0156945D02*
X1098698Y0159417D01*
X1100894Y0159417D01*
X1100894Y0156945D01*
X1100894Y0159053D02*
X1098698Y0159053D01*
X1094950Y0159417D02*
X1092754Y0159417D01*
X1094950Y0159417D02*
X1094950Y0156945D01*
X1092754Y0156945D01*
X1092754Y0159417D01*
X1092754Y0159053D02*
X1094950Y0159053D01*
X1094950Y0169417D02*
X1092754Y0169417D01*
X1094950Y0169417D02*
X1094950Y0166945D01*
X1092754Y0166945D01*
X1092754Y0169417D01*
X1092754Y0169053D02*
X1094950Y0169053D01*
X1098698Y0166945D02*
X1100894Y0166945D01*
X1098698Y0166945D02*
X1098698Y0169417D01*
X1100894Y0169417D01*
X1100894Y0166945D01*
X1100894Y0169053D02*
X1098698Y0169053D01*
X1098698Y0176945D02*
X1100894Y0176945D01*
X1098698Y0176945D02*
X1098698Y0179417D01*
X1100894Y0179417D01*
X1100894Y0176945D01*
X1100894Y0179053D02*
X1098698Y0179053D01*
X1094950Y0179417D02*
X1092754Y0179417D01*
X1094950Y0179417D02*
X1094950Y0176945D01*
X1092754Y0176945D01*
X1092754Y0179417D01*
X1092754Y0179053D02*
X1094950Y0179053D01*
X1049894Y0176945D02*
X1047698Y0176945D01*
X1047698Y0179417D01*
X1049894Y0179417D01*
X1049894Y0176945D01*
X1049894Y0179053D02*
X1047698Y0179053D01*
X1043950Y0179417D02*
X1041754Y0179417D01*
X1043950Y0179417D02*
X1043950Y0176945D01*
X1041754Y0176945D01*
X1041754Y0179417D01*
X1041754Y0179053D02*
X1043950Y0179053D01*
X1043950Y0169417D02*
X1041754Y0169417D01*
X1043950Y0169417D02*
X1043950Y0166945D01*
X1041754Y0166945D01*
X1041754Y0169417D01*
X1041754Y0169053D02*
X1043950Y0169053D01*
X1047698Y0166945D02*
X1049894Y0166945D01*
X1047698Y0166945D02*
X1047698Y0169417D01*
X1049894Y0169417D01*
X1049894Y0166945D01*
X1049894Y0169053D02*
X1047698Y0169053D01*
X1047698Y0156945D02*
X1049894Y0156945D01*
X1047698Y0156945D02*
X1047698Y0159417D01*
X1049894Y0159417D01*
X1049894Y0156945D01*
X1049894Y0159053D02*
X1047698Y0159053D01*
X1043950Y0159417D02*
X1041754Y0159417D01*
X1043950Y0159417D02*
X1043950Y0156945D01*
X1041754Y0156945D01*
X1041754Y0159417D01*
X1041754Y0159053D02*
X1043950Y0159053D01*
X1043950Y0149417D02*
X1041754Y0149417D01*
X1043950Y0149417D02*
X1043950Y0146945D01*
X1041754Y0146945D01*
X1041754Y0149417D01*
X1041754Y0149053D02*
X1043950Y0149053D01*
X1047698Y0146945D02*
X1049894Y0146945D01*
X1047698Y0146945D02*
X1047698Y0149417D01*
X1049894Y0149417D01*
X1049894Y0146945D01*
X1049894Y0149053D02*
X1047698Y0149053D01*
X1047698Y0191945D02*
X1049894Y0191945D01*
X1047698Y0191945D02*
X1047698Y0194417D01*
X1049894Y0194417D01*
X1049894Y0191945D01*
X1049894Y0194053D02*
X1047698Y0194053D01*
X1043950Y0194417D02*
X1041754Y0194417D01*
X1043950Y0194417D02*
X1043950Y0191945D01*
X1041754Y0191945D01*
X1041754Y0194417D01*
X1041754Y0194053D02*
X1043950Y0194053D01*
X1043950Y0204417D02*
X1041754Y0204417D01*
X1043950Y0204417D02*
X1043950Y0201945D01*
X1041754Y0201945D01*
X1041754Y0204417D01*
X1041754Y0204053D02*
X1043950Y0204053D01*
X1047698Y0201945D02*
X1049894Y0201945D01*
X1047698Y0201945D02*
X1047698Y0204417D01*
X1049894Y0204417D01*
X1049894Y0201945D01*
X1049894Y0204053D02*
X1047698Y0204053D01*
X1047698Y0211945D02*
X1049894Y0211945D01*
X1047698Y0211945D02*
X1047698Y0214417D01*
X1049894Y0214417D01*
X1049894Y0211945D01*
X1049894Y0214053D02*
X1047698Y0214053D01*
X1043950Y0214417D02*
X1041754Y0214417D01*
X1043950Y0214417D02*
X1043950Y0211945D01*
X1041754Y0211945D01*
X1041754Y0214417D01*
X1041754Y0214053D02*
X1043950Y0214053D01*
X1043950Y0224417D02*
X1041754Y0224417D01*
X1043950Y0224417D02*
X1043950Y0221945D01*
X1041754Y0221945D01*
X1041754Y0224417D01*
X1041754Y0224053D02*
X1043950Y0224053D01*
X1047698Y0221945D02*
X1049894Y0221945D01*
X1047698Y0221945D02*
X1047698Y0224417D01*
X1049894Y0224417D01*
X1049894Y0221945D01*
X1049894Y0224053D02*
X1047698Y0224053D01*
X1047698Y0236945D02*
X1049894Y0236945D01*
X1047698Y0236945D02*
X1047698Y0239417D01*
X1049894Y0239417D01*
X1049894Y0236945D01*
X1049894Y0239053D02*
X1047698Y0239053D01*
X1043950Y0239417D02*
X1041754Y0239417D01*
X1043950Y0239417D02*
X1043950Y0236945D01*
X1041754Y0236945D01*
X1041754Y0239417D01*
X1041754Y0239053D02*
X1043950Y0239053D01*
X1043950Y0249417D02*
X1041754Y0249417D01*
X1043950Y0249417D02*
X1043950Y0246945D01*
X1041754Y0246945D01*
X1041754Y0249417D01*
X1041754Y0249053D02*
X1043950Y0249053D01*
X1047698Y0246945D02*
X1049894Y0246945D01*
X1047698Y0246945D02*
X1047698Y0249417D01*
X1049894Y0249417D01*
X1049894Y0246945D01*
X1049894Y0249053D02*
X1047698Y0249053D01*
X1047698Y0256945D02*
X1049894Y0256945D01*
X1047698Y0256945D02*
X1047698Y0259417D01*
X1049894Y0259417D01*
X1049894Y0256945D01*
X1049894Y0259053D02*
X1047698Y0259053D01*
X1043950Y0259417D02*
X1041754Y0259417D01*
X1043950Y0259417D02*
X1043950Y0256945D01*
X1041754Y0256945D01*
X1041754Y0259417D01*
X1041754Y0259053D02*
X1043950Y0259053D01*
X1043950Y0269417D02*
X1041754Y0269417D01*
X1043950Y0269417D02*
X1043950Y0266945D01*
X1041754Y0266945D01*
X1041754Y0269417D01*
X1041754Y0269053D02*
X1043950Y0269053D01*
X1047698Y0266945D02*
X1049894Y0266945D01*
X1047698Y0266945D02*
X1047698Y0269417D01*
X1049894Y0269417D01*
X1049894Y0266945D01*
X1049894Y0269053D02*
X1047698Y0269053D01*
X1047698Y0281945D02*
X1049894Y0281945D01*
X1047698Y0281945D02*
X1047698Y0284417D01*
X1049894Y0284417D01*
X1049894Y0281945D01*
X1049894Y0284053D02*
X1047698Y0284053D01*
X1043950Y0284417D02*
X1041754Y0284417D01*
X1043950Y0284417D02*
X1043950Y0281945D01*
X1041754Y0281945D01*
X1041754Y0284417D01*
X1041754Y0284053D02*
X1043950Y0284053D01*
X1043950Y0294417D02*
X1041754Y0294417D01*
X1043950Y0294417D02*
X1043950Y0291945D01*
X1041754Y0291945D01*
X1041754Y0294417D01*
X1041754Y0294053D02*
X1043950Y0294053D01*
X1047698Y0291945D02*
X1049894Y0291945D01*
X1047698Y0291945D02*
X1047698Y0294417D01*
X1049894Y0294417D01*
X1049894Y0291945D01*
X1049894Y0294053D02*
X1047698Y0294053D01*
X1047698Y0301945D02*
X1049894Y0301945D01*
X1047698Y0301945D02*
X1047698Y0304417D01*
X1049894Y0304417D01*
X1049894Y0301945D01*
X1049894Y0304053D02*
X1047698Y0304053D01*
X1043950Y0304417D02*
X1041754Y0304417D01*
X1043950Y0304417D02*
X1043950Y0301945D01*
X1041754Y0301945D01*
X1041754Y0304417D01*
X1041754Y0304053D02*
X1043950Y0304053D01*
X1043950Y0314417D02*
X1041754Y0314417D01*
X1043950Y0314417D02*
X1043950Y0311945D01*
X1041754Y0311945D01*
X1041754Y0314417D01*
X1041754Y0314053D02*
X1043950Y0314053D01*
X1047698Y0311945D02*
X1049894Y0311945D01*
X1047698Y0311945D02*
X1047698Y0314417D01*
X1049894Y0314417D01*
X1049894Y0311945D01*
X1049894Y0314053D02*
X1047698Y0314053D01*
X1092754Y0314417D02*
X1094950Y0314417D01*
X1094950Y0311945D01*
X1092754Y0311945D01*
X1092754Y0314417D01*
X1092754Y0314053D02*
X1094950Y0314053D01*
X1098698Y0311945D02*
X1100894Y0311945D01*
X1098698Y0311945D02*
X1098698Y0314417D01*
X1100894Y0314417D01*
X1100894Y0311945D01*
X1100894Y0314053D02*
X1098698Y0314053D01*
X1098698Y0301945D02*
X1100894Y0301945D01*
X1098698Y0301945D02*
X1098698Y0304417D01*
X1100894Y0304417D01*
X1100894Y0301945D01*
X1100894Y0304053D02*
X1098698Y0304053D01*
X1094950Y0304417D02*
X1092754Y0304417D01*
X1094950Y0304417D02*
X1094950Y0301945D01*
X1092754Y0301945D01*
X1092754Y0304417D01*
X1092754Y0304053D02*
X1094950Y0304053D01*
X1094950Y0294417D02*
X1092754Y0294417D01*
X1094950Y0294417D02*
X1094950Y0291945D01*
X1092754Y0291945D01*
X1092754Y0294417D01*
X1092754Y0294053D02*
X1094950Y0294053D01*
X1098698Y0291945D02*
X1100894Y0291945D01*
X1098698Y0291945D02*
X1098698Y0294417D01*
X1100894Y0294417D01*
X1100894Y0291945D01*
X1100894Y0294053D02*
X1098698Y0294053D01*
X1098698Y0281945D02*
X1100894Y0281945D01*
X1098698Y0281945D02*
X1098698Y0284417D01*
X1100894Y0284417D01*
X1100894Y0281945D01*
X1100894Y0284053D02*
X1098698Y0284053D01*
X1094950Y0284417D02*
X1092754Y0284417D01*
X1094950Y0284417D02*
X1094950Y0281945D01*
X1092754Y0281945D01*
X1092754Y0284417D01*
X1092754Y0284053D02*
X1094950Y0284053D01*
X1094950Y0269417D02*
X1092754Y0269417D01*
X1094950Y0269417D02*
X1094950Y0266945D01*
X1092754Y0266945D01*
X1092754Y0269417D01*
X1092754Y0269053D02*
X1094950Y0269053D01*
X1098698Y0266945D02*
X1100894Y0266945D01*
X1098698Y0266945D02*
X1098698Y0269417D01*
X1100894Y0269417D01*
X1100894Y0266945D01*
X1100894Y0269053D02*
X1098698Y0269053D01*
X1098698Y0256945D02*
X1100894Y0256945D01*
X1098698Y0256945D02*
X1098698Y0259417D01*
X1100894Y0259417D01*
X1100894Y0256945D01*
X1100894Y0259053D02*
X1098698Y0259053D01*
X1094950Y0259417D02*
X1092754Y0259417D01*
X1094950Y0259417D02*
X1094950Y0256945D01*
X1092754Y0256945D01*
X1092754Y0259417D01*
X1092754Y0259053D02*
X1094950Y0259053D01*
X1094450Y0249417D02*
X1092254Y0249417D01*
X1094450Y0249417D02*
X1094450Y0246945D01*
X1092254Y0246945D01*
X1092254Y0249417D01*
X1092254Y0249053D02*
X1094450Y0249053D01*
X1098198Y0246945D02*
X1100394Y0246945D01*
X1098198Y0246945D02*
X1098198Y0249417D01*
X1100394Y0249417D01*
X1100394Y0246945D01*
X1100394Y0249053D02*
X1098198Y0249053D01*
X1098198Y0236945D02*
X1100394Y0236945D01*
X1098198Y0236945D02*
X1098198Y0239417D01*
X1100394Y0239417D01*
X1100394Y0236945D01*
X1100394Y0239053D02*
X1098198Y0239053D01*
X1094450Y0239417D02*
X1092254Y0239417D01*
X1094450Y0239417D02*
X1094450Y0236945D01*
X1092254Y0236945D01*
X1092254Y0239417D01*
X1092254Y0239053D02*
X1094450Y0239053D01*
X1094950Y0224417D02*
X1092754Y0224417D01*
X1094950Y0224417D02*
X1094950Y0221945D01*
X1092754Y0221945D01*
X1092754Y0224417D01*
X1092754Y0224053D02*
X1094950Y0224053D01*
X1098698Y0221945D02*
X1100894Y0221945D01*
X1098698Y0221945D02*
X1098698Y0224417D01*
X1100894Y0224417D01*
X1100894Y0221945D01*
X1100894Y0224053D02*
X1098698Y0224053D01*
X1098698Y0211945D02*
X1100894Y0211945D01*
X1098698Y0211945D02*
X1098698Y0214417D01*
X1100894Y0214417D01*
X1100894Y0211945D01*
X1100894Y0214053D02*
X1098698Y0214053D01*
X1094950Y0214417D02*
X1092754Y0214417D01*
X1094950Y0214417D02*
X1094950Y0211945D01*
X1092754Y0211945D01*
X1092754Y0214417D01*
X1092754Y0214053D02*
X1094950Y0214053D01*
X1094950Y0204417D02*
X1092754Y0204417D01*
X1094950Y0204417D02*
X1094950Y0201945D01*
X1092754Y0201945D01*
X1092754Y0204417D01*
X1092754Y0204053D02*
X1094950Y0204053D01*
X1098698Y0201945D02*
X1100894Y0201945D01*
X1098698Y0201945D02*
X1098698Y0204417D01*
X1100894Y0204417D01*
X1100894Y0201945D01*
X1100894Y0204053D02*
X1098698Y0204053D01*
X1098698Y0191945D02*
X1100894Y0191945D01*
X1098698Y0191945D02*
X1098698Y0194417D01*
X1100894Y0194417D01*
X1100894Y0191945D01*
X1100894Y0194053D02*
X1098698Y0194053D01*
X1094950Y0194417D02*
X1092754Y0194417D01*
X1094950Y0194417D02*
X1094950Y0191945D01*
X1092754Y0191945D01*
X1092754Y0194417D01*
X1092754Y0194053D02*
X1094950Y0194053D01*
X1071726Y0349138D02*
X1071726Y0351334D01*
X1074198Y0351334D01*
X1074198Y0349138D01*
X1071726Y0349138D01*
X1071726Y0351246D02*
X1074198Y0351246D01*
X1074198Y0355083D02*
X1074198Y0357279D01*
X1074198Y0355083D02*
X1071726Y0355083D01*
X1071726Y0357279D01*
X1074198Y0357279D01*
X1074198Y0357191D02*
X1071726Y0357191D01*
X1071726Y0361138D02*
X1071726Y0363334D01*
X1074198Y0363334D01*
X1074198Y0361138D01*
X1071726Y0361138D01*
X1071726Y0363246D02*
X1074198Y0363246D01*
X1074198Y0367083D02*
X1074198Y0369279D01*
X1074198Y0367083D02*
X1071726Y0367083D01*
X1071726Y0369279D01*
X1074198Y0369279D01*
X1074198Y0369191D02*
X1071726Y0369191D01*
X1029312Y0365217D02*
X1027116Y0365217D01*
X1027116Y0367689D01*
X1029312Y0367689D01*
X1029312Y0365217D01*
X1029312Y0367325D02*
X1027116Y0367325D01*
X1023367Y0367689D02*
X1021171Y0367689D01*
X1023367Y0367689D02*
X1023367Y0365217D01*
X1021171Y0365217D01*
X1021171Y0367689D01*
X1021171Y0367325D02*
X1023367Y0367325D01*
X1023367Y0359689D02*
X1021171Y0359689D01*
X1023367Y0359689D02*
X1023367Y0357217D01*
X1021171Y0357217D01*
X1021171Y0359689D01*
X1021171Y0359325D02*
X1023367Y0359325D01*
X1027116Y0357217D02*
X1029312Y0357217D01*
X1027116Y0357217D02*
X1027116Y0359689D01*
X1029312Y0359689D01*
X1029312Y0357217D01*
X1029312Y0359325D02*
X1027116Y0359325D01*
X1027116Y0349717D02*
X1029312Y0349717D01*
X1027116Y0349717D02*
X1027116Y0352189D01*
X1029312Y0352189D01*
X1029312Y0349717D01*
X1029312Y0351825D02*
X1027116Y0351825D01*
X1023367Y0352189D02*
X1021171Y0352189D01*
X1023367Y0352189D02*
X1023367Y0349717D01*
X1021171Y0349717D01*
X1021171Y0352189D01*
X1021171Y0351825D02*
X1023367Y0351825D01*
X1144226Y0371111D02*
X1144226Y0373307D01*
X1146698Y0373307D01*
X1146698Y0371111D01*
X1144226Y0371111D01*
X1144226Y0373219D02*
X1146698Y0373219D01*
X1146698Y0377056D02*
X1146698Y0379252D01*
X1146698Y0377056D02*
X1144226Y0377056D01*
X1144226Y0379252D01*
X1146698Y0379252D01*
X1146698Y0379164D02*
X1144226Y0379164D01*
X1196588Y0422111D02*
X1196588Y0424307D01*
X1199060Y0424307D01*
X1199060Y0422111D01*
X1196588Y0422111D01*
X1196588Y0424219D02*
X1199060Y0424219D01*
X1199060Y0428056D02*
X1199060Y0430252D01*
X1199060Y0428056D02*
X1196588Y0428056D01*
X1196588Y0430252D01*
X1199060Y0430252D01*
X1199060Y0430164D02*
X1196588Y0430164D01*
D41*
X1198277Y0412511D02*
X1198277Y0409363D01*
X1204182Y0409363D02*
X1204182Y0412511D01*
X1210088Y0412511D02*
X1210088Y0409363D01*
X1192371Y0409363D02*
X1192371Y0412511D01*
X1186466Y0412511D02*
X1186466Y0409363D01*
X1180560Y0409363D02*
X1180560Y0412511D01*
X1174655Y0412511D02*
X1174655Y0409363D01*
X1168749Y0409363D02*
X1168749Y0412511D01*
X1162449Y0405276D02*
X1159301Y0405276D01*
X1159301Y0399370D02*
X1162449Y0399370D01*
X1162449Y0393465D02*
X1159301Y0393465D01*
X1159301Y0387559D02*
X1162449Y0387559D01*
X1162449Y0381654D02*
X1159301Y0381654D01*
X1159301Y0375748D02*
X1162449Y0375748D01*
X1162449Y0369843D02*
X1159301Y0369843D01*
X1159301Y0363937D02*
X1162449Y0363937D01*
X1168749Y0359755D02*
X1168749Y0356607D01*
X1174655Y0356607D02*
X1174655Y0359755D01*
X1180560Y0359755D02*
X1180560Y0356607D01*
X1186466Y0356607D02*
X1186466Y0359755D01*
X1192371Y0359755D02*
X1192371Y0356607D01*
X1198277Y0356607D02*
X1198277Y0359755D01*
X1204182Y0359755D02*
X1204182Y0356607D01*
X1210088Y0356607D02*
X1210088Y0359755D01*
D42*
X0974862Y0187281D03*
X0986062Y0181881D03*
X0974862Y0176481D03*
X0986062Y0171081D03*
X0974862Y0165681D03*
X0986062Y0160281D03*
X0974862Y0154881D03*
X0986062Y0149481D03*
X0974862Y0144081D03*
D43*
X0980462Y0116381D03*
X0980462Y0214981D03*
D44*
X0971741Y0066587D03*
X0991741Y0066587D03*
X0991741Y0036587D03*
X0971741Y0036587D03*
X0921682Y0399776D03*
X0901682Y0399776D03*
X0901682Y0429776D03*
X0921682Y0429776D03*
X0076682Y0429776D03*
X0056682Y0429776D03*
X0056682Y0399776D03*
X0076682Y0399776D03*
D45*
X0363135Y0218280D03*
X0384789Y0218280D03*
X0384789Y0205682D03*
X0363135Y0205682D03*
D46*
X0090824Y0229681D03*
X0052824Y0229681D03*
X0649824Y0305681D03*
X0687824Y0305681D03*
D47*
X0108059Y0079162D03*
X0041524Y0079162D03*
D48*
X0032273Y0032492D03*
X0052292Y0063808D03*
X0097292Y0063808D03*
X0032273Y0434854D03*
X1248808Y0434854D03*
X1248808Y0032492D03*
D49*
X0092292Y0098808D03*
X0082292Y0098808D03*
X0072292Y0098808D03*
X0062292Y0098808D03*
X0067292Y0088808D03*
X0077292Y0088808D03*
X0087292Y0088808D03*
X0057292Y0088808D03*
D50*
X0059890Y0047627D03*
X0049890Y0047627D03*
X0089693Y0047627D03*
X0099693Y0047627D03*
D51*
X0080304Y0293681D03*
D52*
X0051564Y0284705D03*
X0051564Y0302657D03*
D53*
X0082462Y0358181D03*
X0928962Y0357181D03*
D54*
X0913962Y0357181D03*
X0898962Y0357181D03*
X0883962Y0357181D03*
X0067462Y0358181D03*
X0052462Y0358181D03*
X0037462Y0358181D03*
D55*
X0932391Y0343681D03*
X0948533Y0343681D03*
D56*
X0858962Y0285681D03*
D57*
X0878962Y0285681D03*
D58*
X0304048Y0245181D03*
D59*
X0307017Y0164472D02*
X0301080Y0164472D01*
D60*
X0241462Y0170988D03*
X0241462Y0184472D03*
X0133462Y0221890D03*
X0133462Y0235374D03*
X0093462Y0248488D03*
X0093462Y0261972D03*
X0149462Y0263390D03*
X0149462Y0276874D03*
X0245462Y0277374D03*
X0245462Y0263890D03*
X0358462Y0263890D03*
X0358462Y0277374D03*
X0457962Y0277874D03*
X0457962Y0264390D03*
X0494462Y0185472D03*
X0494462Y0171988D03*
X0725462Y0177488D03*
X0725462Y0190972D03*
X0606462Y0353988D03*
X0606462Y0367472D03*
X1139462Y0416890D03*
X1139462Y0430374D03*
D61*
X0151655Y0186181D03*
X0138170Y0186181D03*
D62*
X0905029Y0307413D03*
X0975895Y0307413D03*
D63*
X1102962Y0373839D03*
X1123462Y0373839D03*
X1123462Y0393524D03*
X1102962Y0393524D03*
D64*
X0928879Y0376681D03*
X0906044Y0376681D03*
X0963044Y0090681D03*
X0985879Y0090681D03*
X0090379Y0376681D03*
X0067544Y0376681D03*
D65*
X0241462Y0214681D03*
X0883962Y0191681D03*
M02*
