G75*
%MOIN*%
%OFA0B0*%
%FSLAX25Y25*%
%IPPOS*%
%LPD*%
%AMOC8*
5,1,8,0,0,1.08239X$1,22.5*
%
%ADD10OC8,0.13200*%
%ADD11C,0.13200*%
%ADD12OC8,0.07100*%
%ADD13C,0.07100*%
%ADD14C,0.08477*%
%ADD15C,0.09400*%
%ADD16R,0.06800X0.06800*%
%ADD17C,0.06800*%
%ADD18C,0.06400*%
%ADD19OC8,0.06400*%
%ADD20C,0.06800*%
%ADD21OC8,0.06800*%
%ADD22C,0.20800*%
%ADD23C,0.10800*%
%ADD24C,0.10426*%
%ADD25C,0.13398*%
%ADD26C,0.06304*%
%ADD27C,0.06824*%
%ADD28R,0.07296X0.07296*%
%ADD29C,0.07296*%
%ADD30OC8,0.06000*%
%ADD31C,0.06000*%
%ADD32R,0.08400X0.08400*%
%ADD33C,0.06737*%
%ADD34C,0.07887*%
%ADD35C,0.06146*%
%ADD36C,0.06737*%
%ADD37C,0.04762*%
D10*
X0986962Y0401181D03*
D11*
X0956962Y0401181D03*
D12*
X0095462Y0337681D03*
X0050462Y0337681D03*
D13*
X0050462Y0323681D03*
X0095462Y0323681D03*
D14*
X0144044Y0399776D03*
X0164044Y0399776D03*
X0184044Y0399776D03*
X0204044Y0399776D03*
X0224044Y0399776D03*
X0244044Y0399776D03*
X0264044Y0399776D03*
X0284044Y0399776D03*
X0304044Y0399776D03*
X0324044Y0399776D03*
X0344044Y0399776D03*
X0364044Y0399776D03*
X0384044Y0399776D03*
X0404044Y0399776D03*
X0424044Y0399776D03*
X0444044Y0399776D03*
X0464044Y0399776D03*
X0484044Y0399776D03*
X0504044Y0399776D03*
X0524044Y0399776D03*
X0544044Y0399776D03*
X0564044Y0399776D03*
X0584044Y0399776D03*
X0584044Y0429776D03*
X0564044Y0429776D03*
X0544044Y0429776D03*
X0524044Y0429776D03*
X0504044Y0429776D03*
X0484044Y0429776D03*
X0464044Y0429776D03*
X0444044Y0429776D03*
X0424044Y0429776D03*
X0404044Y0429776D03*
X0384044Y0429776D03*
X0364044Y0429776D03*
X0344044Y0429776D03*
X0324044Y0429776D03*
X0304044Y0429776D03*
X0284044Y0429776D03*
X0264044Y0429776D03*
X0244044Y0429776D03*
X0224044Y0429776D03*
X0204044Y0429776D03*
X0184044Y0429776D03*
X0164044Y0429776D03*
X0144044Y0429776D03*
X0656682Y0429776D03*
X0676682Y0429776D03*
X0696682Y0429776D03*
X0716682Y0429776D03*
X0736682Y0429776D03*
X0756682Y0429776D03*
X0776682Y0429776D03*
X0796682Y0429776D03*
X0816682Y0429776D03*
X0836682Y0429776D03*
X0856682Y0429776D03*
X0856682Y0399776D03*
X0836682Y0399776D03*
X0816682Y0399776D03*
X0796682Y0399776D03*
X0776682Y0399776D03*
X0756682Y0399776D03*
X0736682Y0399776D03*
X0716682Y0399776D03*
X0696682Y0399776D03*
X0676682Y0399776D03*
X0656682Y0399776D03*
X0656682Y0364776D03*
X0676682Y0364776D03*
X0696682Y0364776D03*
X0716682Y0364776D03*
X0736682Y0364776D03*
X0756682Y0364776D03*
X0776682Y0364776D03*
X0796682Y0364776D03*
X0816682Y0364776D03*
X0836682Y0364776D03*
X0856682Y0364776D03*
X0856682Y0334776D03*
X0836682Y0334776D03*
X0816682Y0334776D03*
X0796682Y0334776D03*
X0776682Y0334776D03*
X0756682Y0334776D03*
X0736682Y0334776D03*
X0716682Y0334776D03*
X0696682Y0334776D03*
X0676682Y0334776D03*
X0656682Y0334776D03*
X1056682Y0399776D03*
X1076682Y0399776D03*
X1076682Y0429776D03*
X1056682Y0429776D03*
X0899104Y0068087D03*
X0879104Y0068087D03*
X0859104Y0068087D03*
X0839104Y0068087D03*
X0819104Y0068087D03*
X0799104Y0068087D03*
X0779104Y0068087D03*
X0759104Y0068087D03*
X0739104Y0068087D03*
X0719104Y0068087D03*
X0699104Y0068087D03*
X0679104Y0068087D03*
X0659104Y0068087D03*
X0639104Y0068087D03*
X0619104Y0068087D03*
X0599104Y0068087D03*
X0579104Y0068087D03*
X0559104Y0068087D03*
X0539104Y0068087D03*
X0519104Y0068087D03*
X0499104Y0068087D03*
X0479104Y0068087D03*
X0459104Y0068087D03*
X0439104Y0068087D03*
X0419104Y0068087D03*
X0399104Y0068087D03*
X0379104Y0068087D03*
X0359104Y0068087D03*
X0339104Y0068087D03*
X0319104Y0068087D03*
X0299104Y0068087D03*
X0279104Y0068087D03*
X0259104Y0068087D03*
X0239104Y0068087D03*
X0219104Y0068087D03*
X0199104Y0068087D03*
X0179104Y0068087D03*
X0159104Y0068087D03*
X0139104Y0068087D03*
X0139104Y0038087D03*
X0159104Y0038087D03*
X0179104Y0038087D03*
X0199104Y0038087D03*
X0219104Y0038087D03*
X0239104Y0038087D03*
X0259104Y0038087D03*
X0279104Y0038087D03*
X0299104Y0038087D03*
X0319104Y0038087D03*
X0339104Y0038087D03*
X0359104Y0038087D03*
X0379104Y0038087D03*
X0399104Y0038087D03*
X0419104Y0038087D03*
X0439104Y0038087D03*
X0459104Y0038087D03*
X0479104Y0038087D03*
X0499104Y0038087D03*
X0519104Y0038087D03*
X0539104Y0038087D03*
X0559104Y0038087D03*
X0579104Y0038087D03*
X0599104Y0038087D03*
X0619104Y0038087D03*
X0639104Y0038087D03*
X0659104Y0038087D03*
X0679104Y0038087D03*
X0699104Y0038087D03*
X0719104Y0038087D03*
X0739104Y0038087D03*
X0759104Y0038087D03*
X0779104Y0038087D03*
X0799104Y0038087D03*
X0819104Y0038087D03*
X0839104Y0038087D03*
X0859104Y0038087D03*
X0879104Y0038087D03*
X0899104Y0038087D03*
D15*
X0919104Y0038087D03*
X0919104Y0068087D03*
X0636682Y0334776D03*
X0636682Y0364776D03*
X0636682Y0399776D03*
X0636682Y0429776D03*
X1036682Y0429776D03*
X1036682Y0399776D03*
X0124044Y0399776D03*
X0124044Y0429776D03*
D16*
X0645824Y0243681D03*
D17*
X0655824Y0243681D03*
X0665824Y0243681D03*
X0675824Y0243681D03*
D18*
X1223824Y0240681D03*
D19*
X1233824Y0240681D03*
X1233824Y0230681D03*
X1223824Y0230681D03*
X1223824Y0220681D03*
X1233824Y0220681D03*
X1233824Y0210681D03*
X1223824Y0210681D03*
X1223824Y0200681D03*
X1233824Y0200681D03*
X1233824Y0190681D03*
X1223824Y0190681D03*
X1223824Y0180681D03*
X1233824Y0180681D03*
X1233824Y0170681D03*
X1223824Y0170681D03*
X1223824Y0160681D03*
X1233824Y0160681D03*
X1233824Y0150681D03*
X1223824Y0150681D03*
X1223824Y0140681D03*
X1233824Y0140681D03*
X1233824Y0130681D03*
X1223824Y0130681D03*
X1223824Y0120681D03*
X1233824Y0120681D03*
D20*
X0950462Y0322681D02*
X0950462Y0328681D01*
X0940462Y0328681D02*
X0940462Y0322681D01*
X0930462Y0322681D02*
X0930462Y0328681D01*
D21*
X0974862Y0187281D03*
X0986062Y0181881D03*
X0974862Y0176481D03*
X0986062Y0171081D03*
X0974862Y0165681D03*
X0986062Y0160281D03*
X0974862Y0154881D03*
X0986062Y0149481D03*
X0974862Y0144081D03*
D22*
X0980462Y0116381D03*
X0980462Y0214981D03*
D23*
X0971741Y0066587D03*
X0991741Y0066587D03*
X0991741Y0036587D03*
X0971741Y0036587D03*
X0921682Y0399776D03*
X0901682Y0399776D03*
X0901682Y0429776D03*
X0921682Y0429776D03*
X0076682Y0429776D03*
X0056682Y0429776D03*
X0056682Y0399776D03*
X0076682Y0399776D03*
D24*
X0108059Y0079162D03*
X0041524Y0079162D03*
D25*
X0032273Y0032492D03*
X0052292Y0063808D03*
X0097292Y0063808D03*
X0032273Y0434854D03*
X1248808Y0434854D03*
X1248808Y0032492D03*
D26*
X0092292Y0098808D03*
X0082292Y0098808D03*
X0072292Y0098808D03*
X0062292Y0098808D03*
X0067292Y0088808D03*
X0077292Y0088808D03*
X0087292Y0088808D03*
X0057292Y0088808D03*
D27*
X0059890Y0047627D03*
X0049890Y0047627D03*
X0089693Y0047627D03*
X0099693Y0047627D03*
D28*
X0082462Y0358181D03*
X0928962Y0357181D03*
D29*
X0913962Y0357181D03*
X0898962Y0357181D03*
X0883962Y0357181D03*
X0067462Y0358181D03*
X0052462Y0358181D03*
X0037462Y0358181D03*
D30*
X0858962Y0285681D03*
D31*
X0878962Y0285681D03*
D32*
X0304048Y0245181D03*
D33*
X0307017Y0164472D02*
X0301080Y0164472D01*
D34*
X0905029Y0307413D03*
X0975895Y0307413D03*
D35*
X1102962Y0373839D03*
X1123462Y0373839D03*
X1123462Y0393524D03*
X1102962Y0393524D03*
D36*
X0928879Y0376681D03*
X0906044Y0376681D03*
X0963044Y0090681D03*
X0985879Y0090681D03*
X0090379Y0376681D03*
X0067544Y0376681D03*
D37*
X0241462Y0214681D03*
X0883962Y0191681D03*
M02*
