%
M48
M72
T01C0.01575
T02C0.01772
T03C0.01969
T04C0.02362
T05C0.03200
T06C0.03346
T07C0.03504
T08C0.03600
T09C0.03937
T10C0.04000
T11C0.04016
T12C0.04331
T13C0.04724
T14C0.05118
T15C0.06417
T16C0.12598
T17C0.13000
%
T01
X70462Y163681
X72462Y167681
X70462Y171681
X76462Y171681
X78462Y167681
X81462Y163681
X85462Y163681
X89462Y164681
X84462Y167681
X81462Y171681
X85462Y173681
X90824Y170681
X90824Y177681
X80089Y183681
X77106Y181326
X73277Y181496
X73132Y177352
X75462Y163681
X134462Y172681
X446462Y240681
X456462Y239681
X466462Y239681
X476462Y239681
X486462Y239681
X520462Y245681
X546462Y240181
X550462Y247181
X559182Y251401
X562562Y253360
X566337Y253244
X567737Y257019
X569137Y260794
X570537Y264569
X573256Y267188
X576087Y264681
X577112Y260681
X578512Y256906
X598462Y256181
X599462Y252209
X619962Y243681
X613462Y238681
X605462Y238681
X577818Y228325
X578931Y223681
X570537Y221681
X571937Y217906
X573756Y214387
X562462Y209681
X558687Y210669
X559762Y215403
X558362Y219178
X569137Y225681
X567737Y229456
X566337Y233681
X546462Y254746
X520462Y257681
X520462Y269681
X504962Y267181
X520462Y281681
X498462Y286181
X520462Y293681
X520462Y299681
X503962Y301181
X520462Y311681
X523462Y320181
X523462Y330681
X516462Y330681
X512462Y332681
X508421Y332641
X504381Y332600
X500409Y331181
X530462Y336181
X537462Y336181
X543962Y336181
X549462Y336181
X555962Y336181
X561462Y336181
X567962Y336181
X570962Y341181
X573962Y336081
X579962Y336181
X585462Y336181
X585462Y341181
X591462Y336181
X597462Y336181
X597462Y341681
X572962Y320181
X571962Y313681
X582962Y312181
X588962Y314181
X589962Y299681
X584962Y300181
X580462Y300181
X566962Y300181
X559462Y298681
X561462Y294181
X569962Y290181
X573962Y286539
X570462Y283853
X573962Y281167
X580437Y286656
X582462Y290681
X577462Y290181
X593091Y290052
X596575Y292294
X596899Y288244
X600962Y288458
X601049Y284487
X606462Y273681
X606462Y269181
X606462Y264681
X593768Y265552
X593768Y269524
X593768Y273495
X559462Y289181
X546462Y302681
X547962Y311681
X541962Y311681
X600304Y294181
X604276Y295181
X618962Y293681
X621549Y290681
X621462Y297681
X624462Y311681
X650462Y290681
X680462Y285681
X546462Y269181
X462824Y294681
X462462Y319681
X647462Y210181
X585962Y185494
X581846Y185456
X581962Y181681
X577853Y181820
X602462Y179681
X605462Y177094
X609462Y175694
X613237Y174294
X1006111Y286681
X1009886Y286281
X1011624Y282681
X1018503Y282381
X1019589Y252895
X1019565Y249120
X1105462Y46681
T02
X1087324Y46681
X1105324Y58181
X1105324Y68181
X1121824Y68181
X1121824Y58181
X1144462Y55681
X1152462Y60681
X1155462Y52681
X1173824Y45181
X1173824Y60681
X1121824Y78181
X1121824Y88181
X1105324Y88181
X1088824Y93181
X1105324Y103181
X1105324Y113181
X1105324Y123181
X1105324Y133181
X1121824Y133181
X1140462Y124681
X1121824Y123181
X1121824Y113181
X1121824Y103181
X1150462Y115681
X1192324Y106681
X1173824Y100681
X1192324Y126681
X1150462Y133681
X1143462Y146681
X1152824Y150681
X1176824Y143681
X1184324Y143681
X1199962Y145181
X1205324Y145181
X1121824Y148181
X1121824Y158181
X1121824Y168181
X1121824Y178181
X1105324Y178181
X1088824Y183181
X1105324Y193181
X1105324Y203181
X1105324Y213181
X1105324Y223181
X1088324Y228181
X1105324Y238181
X1121824Y238181
X1144462Y236681
X1152824Y240681
X1175824Y233681
X1152462Y223681
X1142462Y213681
X1121824Y213181
X1121824Y203181
X1121824Y193181
X1152462Y204681
X1121824Y223181
X1121824Y248181
X1121824Y258181
X1121824Y268181
X1105324Y268181
X1088824Y273181
X1105324Y283181
X1105324Y293181
X1105324Y303181
X1121824Y303181
X1121824Y293181
X1121824Y283181
X1155824Y291681
X1151462Y302681
X1140824Y312681
X1121824Y313181
X1116324Y318681
X1105324Y313181
X1099824Y319681
X1088824Y321681
X1099824Y328681
X1061462Y331681
X1055462Y331681
X1049462Y331681
X1042962Y331681
X1036462Y331681
X1030462Y331681
X999462Y335681
X999462Y345681
X999462Y355681
X999462Y365681
X999462Y375681
X1045962Y379181
X1054462Y379181
X1094462Y359681
X1077962Y350181
X1062462Y345681
X1054462Y351181
X1046462Y351181
X1031962Y345681
X1024462Y344681
X999462Y325681
X999462Y315681
X999462Y305681
X990462Y295681
X975462Y295681
X965462Y295681
X955462Y295681
X945462Y295681
X937462Y295681
X920462Y295681
X905462Y295681
X890462Y295681
X860462Y295681
X850462Y295681
X845462Y285681
X835462Y285681
X825462Y285681
X815462Y285681
X805462Y285681
X795462Y285681
X785462Y285681
X775462Y285681
X765462Y285681
X755462Y285681
X745462Y285681
X735462Y285681
X725462Y285681
X715462Y285681
X705462Y285681
X694962Y285681
X685962Y285681
X668462Y290681
X634962Y293467
X634962Y297681
X639962Y314181
X610462Y336181
X604462Y336181
X612962Y353681
X592462Y352681
X572462Y364681
X563962Y374681
X592462Y370681
X532462Y364681
X523962Y374681
X492462Y364681
X483962Y374681
X452462Y364681
X443962Y374681
X412462Y364681
X403462Y374681
X372462Y364681
X363462Y374681
X332462Y364681
X323462Y374681
X292462Y364681
X283962Y374681
X252462Y364681
X243962Y374681
X212462Y364681
X203962Y374681
X172462Y364681
X163962Y374681
X132462Y364681
X123962Y374681
X103962Y379681
X103962Y389681
X103962Y399681
X103962Y409681
X104962Y364181
X104962Y358181
X152462Y349681
X152462Y339181
X164462Y326681
X135824Y324681
X129824Y324681
X118462Y325681
X96824Y303681
X96824Y297681
X96824Y292681
X96824Y287681
X96824Y281681
X121462Y292181
X129824Y286681
X141324Y283681
X149462Y285181
X164824Y282681
X171462Y292681
X176462Y292681
X193824Y282681
X209824Y286681
X220824Y286681
X220962Y292681
X232962Y287681
X238462Y287681
X245462Y285181
X250462Y283181
X267462Y282681
X284462Y282681
X278462Y292681
X273462Y292681
X257462Y305681
X227462Y318681
X221462Y318681
X209824Y324681
X203824Y324681
X238462Y324681
X259962Y326681
X265785Y324681
X283962Y326181
X287462Y330681
X295962Y330681
X295962Y326181
X301462Y324681
X312462Y324681
X323962Y318681
X336462Y318681
X347462Y324181
X373962Y329181
X379712Y325431
X407462Y325681
X414462Y324181
X420962Y324181
X426962Y324181
X447462Y329181
X452462Y329181
X470962Y326681
X490462Y326681
X445462Y313681
X445462Y307681
X445462Y300681
X432462Y305181
X423462Y305181
X409962Y305681
X392462Y292681
X386462Y290681
X381462Y282681
X365462Y277681
X378962Y275681
X397462Y276681
X397462Y282681
X420462Y274681
X438962Y270181
X450962Y277681
X464962Y277681
X457962Y285181
X438962Y287681
X432824Y287681
X426462Y287681
X463462Y304681
X483462Y304681
X489462Y282681
X489462Y276681
X400462Y245681
X390462Y245681
X380462Y245681
X370462Y245681
X360462Y245681
X350462Y245681
X340462Y245681
X330462Y245681
X320462Y245681
X365462Y235681
X375462Y235681
X385462Y235681
X395962Y237181
X411962Y236181
X416962Y236181
X421962Y236181
X440962Y222181
X450962Y222181
X460962Y222181
X470962Y222181
X480962Y222181
X490962Y222181
X500962Y222181
X510962Y222181
X520962Y222181
X530962Y222181
X538462Y222181
X496962Y239681
X600462Y200681
X605462Y195681
X610462Y190681
X615462Y185681
X620462Y190681
X625462Y185681
X635462Y185681
X645462Y185681
X664324Y187681
X676324Y187681
X688324Y187681
X700324Y187681
X718462Y177681
X732462Y177681
X725462Y169681
X708462Y168681
X708462Y163681
X700324Y169681
X690324Y169681
X679324Y169681
X670324Y169681
X660462Y155681
X650462Y155681
X640462Y155681
X630462Y155681
X620462Y155681
X610462Y155681
X600462Y155681
X590462Y155681
X580462Y155681
X570462Y155681
X560462Y155681
X553462Y163681
X550462Y169681
X544324Y169681
X534324Y169681
X524324Y169681
X515324Y169681
X501462Y172181
X487462Y172181
X487462Y163181
X494462Y163181
X501462Y163181
X505962Y155681
X495962Y155681
X485962Y155681
X475962Y155681
X465962Y155681
X455962Y155681
X445962Y155681
X435962Y155681
X425962Y155681
X420962Y160681
X415962Y155681
X410962Y160681
X405462Y155681
X400462Y160681
X395462Y155681
X385462Y155681
X375462Y155681
X365462Y155681
X355462Y155681
X345462Y155681
X335462Y155681
X325462Y155681
X315462Y155681
X305462Y155681
X295462Y155681
X285462Y155681
X275462Y155681
X265462Y155681
X255462Y155681
X245462Y155681
X235462Y155681
X225462Y155681
X218462Y155681
X208462Y155681
X198462Y155681
X188462Y155681
X178462Y155681
X168462Y155681
X158462Y155681
X148462Y155681
X138947Y151581
X135412Y148045
X120462Y155681
X115824Y151681
X120462Y161681
X120462Y167181
X105462Y169728
X120462Y178681
X120462Y183181
X120462Y187681
X102462Y184681
X98462Y187681
X111462Y194681
X118462Y194681
X133462Y195181
X151462Y192181
X160462Y192181
X160462Y186181
X160462Y180181
X151462Y180181
X184324Y185681
X196324Y185681
X208324Y185681
X220324Y185681
X234462Y171181
X220324Y169681
X227462Y163681
X241462Y163681
X262462Y174181
X208324Y169681
X196324Y169681
X188324Y168681
X128340Y140974
X123876Y136010
X119462Y129681
X104462Y126681
X99462Y126681
X93824Y128681
X93824Y133681
X89824Y133681
X83852Y133681
X74462Y133681
X68462Y133681
X62462Y136681
X44462Y131681
X48824Y126681
X56824Y126681
X69824Y126681
X74462Y121681
X26462Y122681
X26462Y112681
X26462Y102681
X26462Y89681
X26462Y79681
X26462Y69681
X26462Y59681
X26462Y49681
X109462Y29681
X119462Y29681
X119462Y39681
X119462Y49681
X119462Y59681
X119462Y69681
X119462Y79681
X119462Y89681
X119462Y99681
X119462Y109681
X119462Y119681
X93824Y149681
X81785Y149721
X74462Y149681
X57824Y157681
X35462Y155681
X26462Y155681
X26462Y162681
X26462Y172681
X35462Y173681
X35462Y179681
X35462Y185681
X35462Y191681
X35462Y197681
X56462Y197681
X56462Y204681
X66962Y195181
X56462Y190681
X84026Y196681
X87962Y212681
X90462Y215681
X105462Y223181
X126462Y211681
X139462Y213181
X165462Y213181
X175462Y213181
X185462Y213181
X195462Y213181
X205462Y213181
X215462Y213181
X225462Y213181
X154462Y230181
X147462Y230181
X140462Y236181
X133324Y242681
X126462Y236181
X120462Y245681
X100962Y249181
X85962Y249181
X72462Y243681
X93462Y240181
X85824Y261681
X72324Y261681
X46324Y262681
X39824Y265681
X33824Y261681
X34462Y251181
X40462Y246181
X46462Y248681
X29462Y273681
X64824Y281681
X64824Y287681
X64824Y292681
X64824Y297681
X64824Y303681
X121462Y302681
X154824Y303681
X191824Y303681
X215824Y305181
X227462Y336681
X259962Y336681
X293462Y304681
X312462Y286681
X318824Y286681
X341462Y286681
X347462Y287681
X358462Y285181
X351462Y277681
X370462Y305681
X362962Y308181
X391962Y351681
X432462Y351681
X472462Y351681
X512962Y351681
X260462Y270181
X232962Y275181
X220462Y271681
X204962Y271681
X192962Y271681
X176962Y271681
X155462Y271181
X142462Y271181
X145462Y245681
X155462Y245681
X165462Y245681
X175462Y245681
X185462Y245681
X195462Y245681
X205462Y245681
X215462Y245681
X225462Y245681
X235462Y245681
X245462Y245681
X255462Y245681
X311462Y198181
X316462Y198181
X321462Y198181
X326462Y198181
X331462Y198181
X336462Y198181
X341462Y198181
X347324Y186681
X359324Y186681
X371324Y186681
X383324Y186681
X383324Y169681
X392462Y163681
X371324Y169681
X362324Y169681
X350324Y169681
X511324Y186681
X523324Y186681
X535324Y186681
X547324Y186681
X565462Y191681
X585962Y192681
X595462Y195681
X600462Y190681
X605462Y185681
X595462Y185681
X615462Y195681
X610462Y200681
X636962Y208681
X636962Y213681
X653962Y213681
X657962Y209681
X660962Y204681
X670962Y204681
X680962Y204681
X690962Y204681
X700962Y204681
X710962Y204681
X720962Y204681
X760962Y211181
X770962Y211181
X780962Y211181
X790962Y211181
X800962Y211181
X810962Y211181
X820962Y211181
X830962Y211181
X840962Y211181
X850962Y211181
X860962Y211181
X870962Y211181
X880962Y211181
X890962Y211181
X900962Y211181
X910962Y211181
X920962Y211181
X930962Y211181
X932462Y204181
X940962Y211181
X903462Y191681
X880962Y184181
X870962Y184181
X860962Y184181
X850962Y184181
X836324Y185681
X824324Y185681
X812324Y185681
X800324Y185681
X773276Y197181
X769473Y198995
X802324Y168681
X812324Y168681
X823324Y168681
X833324Y168681
X841462Y168681
X843462Y163681
X850962Y158181
X860962Y158181
X870962Y158181
X880962Y158181
X892462Y159681
X892462Y164681
X917962Y154681
X922462Y159181
X922462Y164181
X919462Y170681
X922462Y178681
X938462Y182181
X1012962Y178181
X1012962Y168181
X1012962Y158181
X1012962Y148181
X1012962Y138181
X1036462Y133681
X1036962Y141181
X1045824Y140181
X1053824Y143181
X1036462Y148681
X1032962Y153181
X1036962Y158181
X1053824Y153181
X1053824Y163181
X1036824Y167681
X1053824Y173181
X1036824Y177681
X1045824Y185681
X1053824Y188181
X1036824Y192681
X1053824Y198181
X1036824Y202681
X1053824Y208181
X1036962Y213181
X1053824Y218181
X1036962Y223181
X1045824Y230681
X1053824Y233181
X1036962Y238181
X1053824Y243181
X1036962Y248181
X1023462Y252681
X1036824Y258181
X1053824Y253181
X1053824Y263181
X1036824Y267681
X1041324Y275681
X1046324Y275681
X1053824Y278181
X1058824Y273181
X1037462Y283181
X1027976Y283181
X1029376Y293181
X1037462Y293181
X1053824Y288181
X1053824Y298181
X1037462Y303181
X1030776Y303181
X1053824Y308181
X1026576Y271794
X1105324Y258181
X1105324Y248181
X1012962Y218181
X1012962Y208181
X1012962Y198181
X1012962Y188181
X1105324Y168181
X1105324Y158181
X1105324Y148181
X1088824Y138181
X1053824Y128181
X1036462Y123681
X1053824Y118181
X1053824Y108181
X1036324Y108181
X1053824Y98181
X1045824Y95681
X1037824Y95681
X1036462Y88681
X1053824Y83181
X1036462Y78681
X1036462Y69681
X1053824Y73181
X1053824Y63181
X1053824Y53181
X1058824Y48681
X1052962Y42181
X1042962Y42181
X1032962Y37181
X1042962Y32181
X1052962Y32181
X1022962Y32181
X1014962Y37181
X1022962Y42181
X1032962Y47181
X1022962Y52181
X1022962Y62181
X1012962Y87181
X1012962Y97181
X1012962Y108181
X1012962Y118181
X1012962Y128181
X988962Y101181
X978962Y101181
X968962Y101181
X957962Y101181
X947962Y101181
X928962Y118181
X904962Y117181
X894962Y117181
X884962Y122181
X884962Y132181
X902462Y137681
X884962Y142181
X892462Y149681
X936462Y137681
X937324Y129181
X944462Y134681
X951824Y128681
X919962Y132181
X941962Y80181
X941962Y70181
X941962Y60181
X941962Y50181
X941962Y41181
X941962Y32181
X1105324Y78181
X770462Y160681
X760462Y160681
X750462Y160681
X740462Y160681
X730462Y160681
X720462Y160681
X640962Y204681
X568462Y172181
X695962Y242181
X705962Y242181
X715962Y242181
X725962Y242181
X735962Y242181
X745962Y242181
X755962Y242181
X765962Y242181
X775962Y242181
X785962Y242181
X795962Y242181
X805962Y242181
X815962Y242181
X825962Y242181
X835962Y242181
X845962Y242181
X855962Y242181
X865962Y242181
X875962Y242181
X891462Y248181
X895462Y248181
X899490Y248181
X903462Y248181
X907462Y248181
X911962Y248181
X915962Y248181
X919962Y248181
X923962Y248181
X927962Y248181
X932462Y248181
X936462Y248181
X890462Y310681
X890462Y322681
X890462Y335681
X905462Y335681
X1105462Y348181
X1110462Y348181
X1115462Y348181
X1130462Y348181
X1135462Y348181
X1140462Y348181
X1145462Y348181
X1160462Y355681
X1169962Y366181
X1169962Y370681
X1169962Y375681
X1169962Y380681
X1169962Y385681
X1169962Y390681
X1169962Y395681
X1169962Y400681
X1174962Y400681
X1179962Y400681
X1184962Y400681
X1189962Y400681
X1194962Y400681
X1199962Y400681
X1204962Y400681
X1203962Y417681
X1146462Y430181
X1132462Y430181
X1113962Y429681
X1108962Y429681
X1103962Y429681
X1098962Y429681
X1093962Y429681
X1093962Y405681
X1098962Y405681
X1103962Y405681
X1108962Y405681
X1113962Y405681
X1118962Y405681
X1126962Y400181
X1131962Y404181
X1145462Y401181
X1109462Y380681
X1145462Y366181
X1174962Y366181
X1179962Y366181
X1184962Y366181
X1189962Y366181
X1194962Y366181
X1199962Y366181
X1204962Y366181
X1204962Y340181
X1199962Y340181
X1194962Y340181
X1189962Y340181
X1184962Y340181
X1179962Y340181
X1174962Y340181
X1169962Y340181
X1151462Y322681
X1185824Y320681
X1185824Y305681
X1227824Y297681
X1236824Y305681
X1226824Y252681
X1226824Y245681
X1219824Y246681
X1219824Y252681
X1212962Y439681
X1204962Y439681
X1199962Y439681
X1194962Y439681
X1189962Y439681
X1184962Y439681
X1179962Y439681
X1174962Y439681
X1169962Y439681
X71462Y214681
X45462Y145681
X36824Y145681
X26462Y132681
T03
X903462Y198681
X1139462Y438854
T04
X883962Y191681
X241462Y214681
T05
X95462Y323681
X95462Y337681
X50462Y337681
X50462Y323681
X858962Y285681
X878962Y285681
T06
X1102962Y373839
X1123462Y373839
X1123462Y393524
X1102962Y393524
T07
X92292Y98808
X82292Y98808
X72292Y98808
X62292Y98808
X67292Y88808
X77292Y88808
X87292Y88808
X57292Y88808
T08
X1223824Y120681
X1233824Y120681
X1233824Y130681
X1223824Y130681
X1223824Y140681
X1233824Y140681
X1233824Y150681
X1223824Y150681
X1223824Y160681
X1233824Y160681
X1233824Y170681
X1223824Y170681
X1223824Y180681
X1233824Y180681
X1233824Y190681
X1223824Y190681
X1223824Y200681
X1233824Y200681
X1233824Y210681
X1223824Y210681
X1223824Y220681
X1233824Y220681
X1233824Y230681
X1223824Y230681
X1223824Y240681
X1233824Y240681
T09
X928879Y376681
X906044Y376681
X304048Y245181
X304048Y164472
X90379Y376681
X67544Y376681
X963044Y90681
X985879Y90681
T10
X974862Y144081
X986062Y149481
X974862Y154881
X986062Y160281
X974862Y165681
X986062Y171081
X974862Y176481
X986062Y181881
X974862Y187281
X675824Y243681
X665824Y243681
X655824Y243681
X645824Y243681
X930462Y325681
X940462Y325681
X950462Y325681
X956962Y401181
X986962Y401181
T11
X99693Y47627
X89693Y47627
X59890Y47627
X49890Y47627
T12
X52462Y358181
X67462Y358181
X82462Y358181
X37462Y358181
X883962Y357181
X898962Y357181
X913962Y357181
X928962Y357181
T13
X905029Y307413
X975895Y307413
T14
X856682Y334776
X836682Y334776
X816682Y334776
X796682Y334776
X776682Y334776
X756682Y334776
X736682Y334776
X716682Y334776
X696682Y334776
X676682Y334776
X656682Y334776
X636682Y334776
X636682Y364776
X656682Y364776
X676682Y364776
X696682Y364776
X716682Y364776
X736682Y364776
X756682Y364776
X776682Y364776
X796682Y364776
X816682Y364776
X836682Y364776
X856682Y364776
X856682Y399776
X836682Y399776
X816682Y399776
X796682Y399776
X776682Y399776
X756682Y399776
X736682Y399776
X716682Y399776
X696682Y399776
X676682Y399776
X656682Y399776
X636682Y399776
X584044Y399776
X564044Y399776
X544044Y399776
X524044Y399776
X504044Y399776
X484044Y399776
X464044Y399776
X444044Y399776
X424044Y399776
X404044Y399776
X384044Y399776
X364044Y399776
X344044Y399776
X324044Y399776
X304044Y399776
X284044Y399776
X264044Y399776
X244044Y399776
X224044Y399776
X204044Y399776
X184044Y399776
X164044Y399776
X144044Y399776
X124044Y399776
X76682Y399776
X56682Y399776
X56682Y429776
X76682Y429776
X124044Y429776
X144044Y429776
X164044Y429776
X184044Y429776
X204044Y429776
X224044Y429776
X244044Y429776
X264044Y429776
X284044Y429776
X304044Y429776
X324044Y429776
X344044Y429776
X364044Y429776
X384044Y429776
X404044Y429776
X424044Y429776
X444044Y429776
X464044Y429776
X484044Y429776
X504044Y429776
X524044Y429776
X544044Y429776
X564044Y429776
X584044Y429776
X636682Y429776
X656682Y429776
X676682Y429776
X696682Y429776
X716682Y429776
X736682Y429776
X756682Y429776
X776682Y429776
X796682Y429776
X816682Y429776
X836682Y429776
X856682Y429776
X901682Y429776
X921682Y429776
X921682Y399776
X901682Y399776
X1036682Y399776
X1056682Y399776
X1076682Y399776
X1076682Y429776
X1056682Y429776
X1036682Y429776
X991741Y66587
X971741Y66587
X919104Y68087
X899104Y68087
X879104Y68087
X859104Y68087
X839104Y68087
X819104Y68087
X799104Y68087
X779104Y68087
X759104Y68087
X739104Y68087
X719104Y68087
X699104Y68087
X679104Y68087
X659104Y68087
X639104Y68087
X619104Y68087
X599104Y68087
X579104Y68087
X559104Y68087
X539104Y68087
X519104Y68087
X499104Y68087
X479104Y68087
X459104Y68087
X439104Y68087
X419104Y68087
X399104Y68087
X379104Y68087
X359104Y68087
X339104Y68087
X319104Y68087
X299104Y68087
X279104Y68087
X259104Y68087
X239104Y68087
X219104Y68087
X199104Y68087
X179104Y68087
X159104Y68087
X139104Y68087
X139104Y38087
X159104Y38087
X179104Y38087
X199104Y38087
X219104Y38087
X239104Y38087
X259104Y38087
X279104Y38087
X299104Y38087
X319104Y38087
X339104Y38087
X359104Y38087
X379104Y38087
X399104Y38087
X419104Y38087
X439104Y38087
X459104Y38087
X479104Y38087
X499104Y38087
X519104Y38087
X539104Y38087
X559104Y38087
X579104Y38087
X599104Y38087
X619104Y38087
X639104Y38087
X659104Y38087
X679104Y38087
X699104Y38087
X719104Y38087
X739104Y38087
X759104Y38087
X779104Y38087
X799104Y38087
X819104Y38087
X839104Y38087
X859104Y38087
X879104Y38087
X899104Y38087
X919104Y38087
X971741Y36587
X991741Y36587
T15
X108059Y79162
X41524Y79162
T16
X32273Y32492
X52292Y63808
X97292Y63808
X32273Y434854
X1248808Y434854
X1248808Y32492
T17
X980462Y116381
X980462Y214981
M30
