G75*
%MOIN*%
%OFA0B0*%
%FSLAX25Y25*%
%IPPOS*%
%LPD*%
%AMOC8*
5,1,8,0,0,1.08239X$1,22.5*
%
%ADD10C,0.01506*%
%ADD11C,0.01953*%
%ADD12R,0.05118X0.06693*%
%ADD13R,0.03071X0.03071*%
%ADD14R,0.06693X0.05118*%
%ADD15R,0.06693X0.07087*%
%ADD16R,0.12992X0.05118*%
%ADD17C,0.00626*%
%ADD18R,0.02362X0.08661*%
%ADD19R,0.08661X0.02362*%
%ADD20R,0.08000X0.02600*%
%ADD21C,0.00875*%
%ADD22C,0.01000*%
%ADD23R,0.04724X0.04724*%
%ADD24C,0.01947*%
%ADD25R,0.03937X0.01969*%
%ADD26R,0.01969X0.03937*%
%ADD27C,0.01984*%
%ADD28C,0.01717*%
%ADD29C,0.03150*%
%ADD30R,0.05118X0.07480*%
%ADD31R,0.20000X0.07000*%
%ADD32R,0.24409X0.21260*%
%ADD33R,0.06299X0.03937*%
%ADD34R,0.07087X0.06693*%
%ADD35R,0.03937X0.09055*%
%ADD36R,0.09055X0.03937*%
D10*
X0069101Y0114906D02*
X0069101Y0116550D01*
X0070547Y0116550D01*
X0070547Y0114906D01*
X0069101Y0114906D01*
X0069101Y0116411D02*
X0070547Y0116411D01*
X0070547Y0120812D02*
X0070547Y0122456D01*
X0070547Y0120812D02*
X0069101Y0120812D01*
X0069101Y0122456D01*
X0070547Y0122456D01*
X0070547Y0122317D02*
X0069101Y0122317D01*
X0082547Y0122456D02*
X0082547Y0120812D01*
X0081101Y0120812D01*
X0081101Y0122456D01*
X0082547Y0122456D01*
X0082547Y0122317D02*
X0081101Y0122317D01*
X0081101Y0116550D02*
X0081101Y0114906D01*
X0081101Y0116550D02*
X0082547Y0116550D01*
X0082547Y0114906D01*
X0081101Y0114906D01*
X0081101Y0116411D02*
X0082547Y0116411D01*
X0087101Y0116550D02*
X0087101Y0114906D01*
X0087101Y0116550D02*
X0088547Y0116550D01*
X0088547Y0114906D01*
X0087101Y0114906D01*
X0087101Y0116411D02*
X0088547Y0116411D01*
X0088547Y0120812D02*
X0088547Y0122456D01*
X0088547Y0120812D02*
X0087101Y0120812D01*
X0087101Y0122456D01*
X0088547Y0122456D01*
X0088547Y0122317D02*
X0087101Y0122317D01*
X0094547Y0122456D02*
X0094547Y0120812D01*
X0093101Y0120812D01*
X0093101Y0122456D01*
X0094547Y0122456D01*
X0094547Y0122317D02*
X0093101Y0122317D01*
X0093101Y0116550D02*
X0093101Y0114906D01*
X0093101Y0116550D02*
X0094547Y0116550D01*
X0094547Y0114906D01*
X0093101Y0114906D01*
X0093101Y0116411D02*
X0094547Y0116411D01*
X0093101Y0137906D02*
X0093101Y0139550D01*
X0094547Y0139550D01*
X0094547Y0137906D01*
X0093101Y0137906D01*
X0093101Y0139411D02*
X0094547Y0139411D01*
X0094547Y0143812D02*
X0094547Y0145456D01*
X0094547Y0143812D02*
X0093101Y0143812D01*
X0093101Y0145456D01*
X0094547Y0145456D01*
X0094547Y0145317D02*
X0093101Y0145317D01*
X0068547Y0145456D02*
X0068547Y0143812D01*
X0067101Y0143812D01*
X0067101Y0145456D01*
X0068547Y0145456D01*
X0068547Y0145317D02*
X0067101Y0145317D01*
X0067101Y0139550D02*
X0067101Y0137906D01*
X0067101Y0139550D02*
X0068547Y0139550D01*
X0068547Y0137906D01*
X0067101Y0137906D01*
X0067101Y0139411D02*
X0068547Y0139411D01*
X0108687Y0158404D02*
X0110331Y0158404D01*
X0110331Y0156958D01*
X0108687Y0156958D01*
X0108687Y0158404D01*
X0108687Y0164404D02*
X0110331Y0164404D01*
X0110331Y0162958D01*
X0108687Y0162958D01*
X0108687Y0164404D01*
X0108687Y0170404D02*
X0110331Y0170404D01*
X0110331Y0168958D01*
X0108687Y0168958D01*
X0108687Y0170404D01*
X0108687Y0176404D02*
X0110331Y0176404D01*
X0110331Y0174958D01*
X0108687Y0174958D01*
X0108687Y0176404D01*
X0108687Y0182404D02*
X0110331Y0182404D01*
X0110331Y0180958D01*
X0108687Y0180958D01*
X0108687Y0182404D01*
X0114593Y0180958D02*
X0116237Y0180958D01*
X0114593Y0180958D02*
X0114593Y0182404D01*
X0116237Y0182404D01*
X0116237Y0180958D01*
X0116237Y0174958D02*
X0114593Y0174958D01*
X0114593Y0176404D01*
X0116237Y0176404D01*
X0116237Y0174958D01*
X0116237Y0168958D02*
X0114593Y0168958D01*
X0114593Y0170404D01*
X0116237Y0170404D01*
X0116237Y0168958D01*
X0116237Y0162958D02*
X0114593Y0162958D01*
X0114593Y0164404D01*
X0116237Y0164404D01*
X0116237Y0162958D01*
X0116237Y0156958D02*
X0114593Y0156958D01*
X0114593Y0158404D01*
X0116237Y0158404D01*
X0116237Y0156958D01*
X0183601Y0173906D02*
X0183601Y0175550D01*
X0185047Y0175550D01*
X0185047Y0173906D01*
X0183601Y0173906D01*
X0183601Y0175411D02*
X0185047Y0175411D01*
X0185047Y0179812D02*
X0185047Y0181456D01*
X0185047Y0179812D02*
X0183601Y0179812D01*
X0183601Y0181456D01*
X0185047Y0181456D01*
X0185047Y0181317D02*
X0183601Y0181317D01*
X0197047Y0181456D02*
X0197047Y0179812D01*
X0195601Y0179812D01*
X0195601Y0181456D01*
X0197047Y0181456D01*
X0197047Y0181317D02*
X0195601Y0181317D01*
X0195601Y0175550D02*
X0195601Y0173906D01*
X0195601Y0175550D02*
X0197047Y0175550D01*
X0197047Y0173906D01*
X0195601Y0173906D01*
X0195601Y0175411D02*
X0197047Y0175411D01*
X0207601Y0175550D02*
X0207601Y0173906D01*
X0207601Y0175550D02*
X0209047Y0175550D01*
X0209047Y0173906D01*
X0207601Y0173906D01*
X0207601Y0175411D02*
X0209047Y0175411D01*
X0209047Y0179812D02*
X0209047Y0181456D01*
X0209047Y0179812D02*
X0207601Y0179812D01*
X0207601Y0181456D01*
X0209047Y0181456D01*
X0209047Y0181317D02*
X0207601Y0181317D01*
X0221047Y0181456D02*
X0221047Y0179812D01*
X0219601Y0179812D01*
X0219601Y0181456D01*
X0221047Y0181456D01*
X0221047Y0181317D02*
X0219601Y0181317D01*
X0219601Y0175550D02*
X0219601Y0173906D01*
X0219601Y0175550D02*
X0221047Y0175550D01*
X0221047Y0173906D01*
X0219601Y0173906D01*
X0219601Y0175411D02*
X0221047Y0175411D01*
X0256239Y0175050D02*
X0256239Y0173406D01*
X0256239Y0175050D02*
X0257685Y0175050D01*
X0257685Y0173406D01*
X0256239Y0173406D01*
X0256239Y0174911D02*
X0257685Y0174911D01*
X0257685Y0179312D02*
X0257685Y0180956D01*
X0257685Y0179312D02*
X0256239Y0179312D01*
X0256239Y0180956D01*
X0257685Y0180956D01*
X0257685Y0180817D02*
X0256239Y0180817D01*
X0348047Y0180812D02*
X0348047Y0182456D01*
X0348047Y0180812D02*
X0346601Y0180812D01*
X0346601Y0182456D01*
X0348047Y0182456D01*
X0348047Y0182317D02*
X0346601Y0182317D01*
X0346601Y0176550D02*
X0346601Y0174906D01*
X0346601Y0176550D02*
X0348047Y0176550D01*
X0348047Y0174906D01*
X0346601Y0174906D01*
X0346601Y0176411D02*
X0348047Y0176411D01*
X0358601Y0176550D02*
X0358601Y0174906D01*
X0358601Y0176550D02*
X0360047Y0176550D01*
X0360047Y0174906D01*
X0358601Y0174906D01*
X0358601Y0176411D02*
X0360047Y0176411D01*
X0360047Y0180812D02*
X0360047Y0182456D01*
X0360047Y0180812D02*
X0358601Y0180812D01*
X0358601Y0182456D01*
X0360047Y0182456D01*
X0360047Y0182317D02*
X0358601Y0182317D01*
X0372047Y0182456D02*
X0372047Y0180812D01*
X0370601Y0180812D01*
X0370601Y0182456D01*
X0372047Y0182456D01*
X0372047Y0182317D02*
X0370601Y0182317D01*
X0370601Y0176550D02*
X0370601Y0174906D01*
X0370601Y0176550D02*
X0372047Y0176550D01*
X0372047Y0174906D01*
X0370601Y0174906D01*
X0370601Y0176411D02*
X0372047Y0176411D01*
X0382601Y0176550D02*
X0382601Y0174906D01*
X0382601Y0176550D02*
X0384047Y0176550D01*
X0384047Y0174906D01*
X0382601Y0174906D01*
X0382601Y0176411D02*
X0384047Y0176411D01*
X0384047Y0180812D02*
X0384047Y0182456D01*
X0384047Y0180812D02*
X0382601Y0180812D01*
X0382601Y0182456D01*
X0384047Y0182456D01*
X0384047Y0182317D02*
X0382601Y0182317D01*
X0395239Y0202406D02*
X0395239Y0204050D01*
X0396685Y0204050D01*
X0396685Y0202406D01*
X0395239Y0202406D01*
X0395239Y0203911D02*
X0396685Y0203911D01*
X0396685Y0208312D02*
X0396685Y0209956D01*
X0396685Y0208312D02*
X0395239Y0208312D01*
X0395239Y0209956D01*
X0396685Y0209956D01*
X0396685Y0209817D02*
X0395239Y0209817D01*
X0395239Y0213906D02*
X0395239Y0215550D01*
X0396685Y0215550D01*
X0396685Y0213906D01*
X0395239Y0213906D01*
X0395239Y0215411D02*
X0396685Y0215411D01*
X0396685Y0219812D02*
X0396685Y0221456D01*
X0396685Y0219812D02*
X0395239Y0219812D01*
X0395239Y0221456D01*
X0396685Y0221456D01*
X0396685Y0221317D02*
X0395239Y0221317D01*
X0395239Y0225406D02*
X0395239Y0227050D01*
X0396685Y0227050D01*
X0396685Y0225406D01*
X0395239Y0225406D01*
X0395239Y0226911D02*
X0396685Y0226911D01*
X0396685Y0231312D02*
X0396685Y0232956D01*
X0396685Y0231312D02*
X0395239Y0231312D01*
X0395239Y0232956D01*
X0396685Y0232956D01*
X0396685Y0232817D02*
X0395239Y0232817D01*
X0428239Y0240406D02*
X0428239Y0242050D01*
X0429685Y0242050D01*
X0429685Y0240406D01*
X0428239Y0240406D01*
X0428239Y0241911D02*
X0429685Y0241911D01*
X0429685Y0246312D02*
X0429685Y0247956D01*
X0429685Y0246312D02*
X0428239Y0246312D01*
X0428239Y0247956D01*
X0429685Y0247956D01*
X0429685Y0247817D02*
X0428239Y0247817D01*
X0435685Y0247956D02*
X0435685Y0246312D01*
X0434239Y0246312D01*
X0434239Y0247956D01*
X0435685Y0247956D01*
X0435685Y0247817D02*
X0434239Y0247817D01*
X0434239Y0242050D02*
X0434239Y0240406D01*
X0434239Y0242050D02*
X0435685Y0242050D01*
X0435685Y0240406D01*
X0434239Y0240406D01*
X0434239Y0241911D02*
X0435685Y0241911D01*
X0524049Y0246404D02*
X0525693Y0246404D01*
X0525693Y0244958D01*
X0524049Y0244958D01*
X0524049Y0246404D01*
X0529955Y0244958D02*
X0531599Y0244958D01*
X0529955Y0244958D02*
X0529955Y0246404D01*
X0531599Y0246404D01*
X0531599Y0244958D01*
X0531599Y0256958D02*
X0529955Y0256958D01*
X0529955Y0258404D01*
X0531599Y0258404D01*
X0531599Y0256958D01*
X0525693Y0258404D02*
X0524049Y0258404D01*
X0525693Y0258404D02*
X0525693Y0256958D01*
X0524049Y0256958D01*
X0524049Y0258404D01*
X0524049Y0270404D02*
X0525693Y0270404D01*
X0525693Y0268958D01*
X0524049Y0268958D01*
X0524049Y0270404D01*
X0529955Y0268958D02*
X0531599Y0268958D01*
X0529955Y0268958D02*
X0529955Y0270404D01*
X0531599Y0270404D01*
X0531599Y0268958D01*
X0531599Y0280958D02*
X0529955Y0280958D01*
X0529955Y0282404D01*
X0531599Y0282404D01*
X0531599Y0280958D01*
X0525693Y0282404D02*
X0524049Y0282404D01*
X0525693Y0282404D02*
X0525693Y0280958D01*
X0524049Y0280958D01*
X0524049Y0282404D01*
X0524049Y0294404D02*
X0525693Y0294404D01*
X0525693Y0292958D01*
X0524049Y0292958D01*
X0524049Y0294404D01*
X0524049Y0300404D02*
X0525693Y0300404D01*
X0525693Y0298958D01*
X0524049Y0298958D01*
X0524049Y0300404D01*
X0529955Y0298958D02*
X0531599Y0298958D01*
X0529955Y0298958D02*
X0529955Y0300404D01*
X0531599Y0300404D01*
X0531599Y0298958D01*
X0531599Y0292958D02*
X0529955Y0292958D01*
X0529955Y0294404D01*
X0531599Y0294404D01*
X0531599Y0292958D01*
X0531874Y0310958D02*
X0530230Y0310958D01*
X0530230Y0312404D01*
X0531874Y0312404D01*
X0531874Y0310958D01*
X0525969Y0312404D02*
X0524325Y0312404D01*
X0525969Y0312404D02*
X0525969Y0310958D01*
X0524325Y0310958D01*
X0524325Y0312404D01*
X0536739Y0324406D02*
X0536739Y0326050D01*
X0538185Y0326050D01*
X0538185Y0324406D01*
X0536739Y0324406D01*
X0536739Y0325911D02*
X0538185Y0325911D01*
X0549239Y0326050D02*
X0549239Y0324406D01*
X0549239Y0326050D02*
X0550685Y0326050D01*
X0550685Y0324406D01*
X0549239Y0324406D01*
X0549239Y0325911D02*
X0550685Y0325911D01*
X0561239Y0326050D02*
X0561239Y0324406D01*
X0561239Y0326050D02*
X0562685Y0326050D01*
X0562685Y0324406D01*
X0561239Y0324406D01*
X0561239Y0325911D02*
X0562685Y0325911D01*
X0573239Y0326050D02*
X0573239Y0324406D01*
X0573239Y0326050D02*
X0574685Y0326050D01*
X0574685Y0324406D01*
X0573239Y0324406D01*
X0573239Y0325911D02*
X0574685Y0325911D01*
X0585239Y0326050D02*
X0585239Y0324406D01*
X0585239Y0326050D02*
X0586685Y0326050D01*
X0586685Y0324406D01*
X0585239Y0324406D01*
X0585239Y0325911D02*
X0586685Y0325911D01*
X0597239Y0326050D02*
X0597239Y0324406D01*
X0597239Y0326050D02*
X0598685Y0326050D01*
X0598685Y0324406D01*
X0597239Y0324406D01*
X0597239Y0325911D02*
X0598685Y0325911D01*
X0603239Y0326050D02*
X0603239Y0324406D01*
X0603239Y0326050D02*
X0604685Y0326050D01*
X0604685Y0324406D01*
X0603239Y0324406D01*
X0603239Y0325911D02*
X0604685Y0325911D01*
X0609239Y0326050D02*
X0609239Y0324406D01*
X0609239Y0326050D02*
X0610685Y0326050D01*
X0610685Y0324406D01*
X0609239Y0324406D01*
X0609239Y0325911D02*
X0610685Y0325911D01*
X0610685Y0330312D02*
X0610685Y0331956D01*
X0610685Y0330312D02*
X0609239Y0330312D01*
X0609239Y0331956D01*
X0610685Y0331956D01*
X0610685Y0331817D02*
X0609239Y0331817D01*
X0604685Y0331956D02*
X0604685Y0330312D01*
X0603239Y0330312D01*
X0603239Y0331956D01*
X0604685Y0331956D01*
X0604685Y0331817D02*
X0603239Y0331817D01*
X0598685Y0331956D02*
X0598685Y0330312D01*
X0597239Y0330312D01*
X0597239Y0331956D01*
X0598685Y0331956D01*
X0598685Y0331817D02*
X0597239Y0331817D01*
X0586685Y0331956D02*
X0586685Y0330312D01*
X0585239Y0330312D01*
X0585239Y0331956D01*
X0586685Y0331956D01*
X0586685Y0331817D02*
X0585239Y0331817D01*
X0574685Y0331956D02*
X0574685Y0330312D01*
X0573239Y0330312D01*
X0573239Y0331956D01*
X0574685Y0331956D01*
X0574685Y0331817D02*
X0573239Y0331817D01*
X0562685Y0331956D02*
X0562685Y0330312D01*
X0561239Y0330312D01*
X0561239Y0331956D01*
X0562685Y0331956D01*
X0562685Y0331817D02*
X0561239Y0331817D01*
X0550685Y0331956D02*
X0550685Y0330312D01*
X0549239Y0330312D01*
X0549239Y0331956D01*
X0550685Y0331956D01*
X0550685Y0331817D02*
X0549239Y0331817D01*
X0538185Y0331956D02*
X0538185Y0330312D01*
X0536739Y0330312D01*
X0536739Y0331956D01*
X0538185Y0331956D01*
X0538185Y0331817D02*
X0536739Y0331817D01*
X0523101Y0362906D02*
X0523101Y0364550D01*
X0524547Y0364550D01*
X0524547Y0362906D01*
X0523101Y0362906D01*
X0523101Y0364411D02*
X0524547Y0364411D01*
X0524547Y0368812D02*
X0524547Y0370456D01*
X0524547Y0368812D02*
X0523101Y0368812D01*
X0523101Y0370456D01*
X0524547Y0370456D01*
X0524547Y0370317D02*
X0523101Y0370317D01*
X0564547Y0370456D02*
X0564547Y0368812D01*
X0563101Y0368812D01*
X0563101Y0370456D01*
X0564547Y0370456D01*
X0564547Y0370317D02*
X0563101Y0370317D01*
X0563101Y0364550D02*
X0563101Y0362906D01*
X0563101Y0364550D02*
X0564547Y0364550D01*
X0564547Y0362906D01*
X0563101Y0362906D01*
X0563101Y0364411D02*
X0564547Y0364411D01*
X0483101Y0364550D02*
X0483101Y0362906D01*
X0483101Y0364550D02*
X0484547Y0364550D01*
X0484547Y0362906D01*
X0483101Y0362906D01*
X0483101Y0364411D02*
X0484547Y0364411D01*
X0484547Y0368812D02*
X0484547Y0370456D01*
X0484547Y0368812D02*
X0483101Y0368812D01*
X0483101Y0370456D01*
X0484547Y0370456D01*
X0484547Y0370317D02*
X0483101Y0370317D01*
X0444547Y0370456D02*
X0444547Y0368812D01*
X0443101Y0368812D01*
X0443101Y0370456D01*
X0444547Y0370456D01*
X0444547Y0370317D02*
X0443101Y0370317D01*
X0443101Y0364550D02*
X0443101Y0362906D01*
X0443101Y0364550D02*
X0444547Y0364550D01*
X0444547Y0362906D01*
X0443101Y0362906D01*
X0443101Y0364411D02*
X0444547Y0364411D01*
X0403101Y0364550D02*
X0403101Y0362906D01*
X0403101Y0364550D02*
X0404547Y0364550D01*
X0404547Y0362906D01*
X0403101Y0362906D01*
X0403101Y0364411D02*
X0404547Y0364411D01*
X0404547Y0368812D02*
X0404547Y0370456D01*
X0404547Y0368812D02*
X0403101Y0368812D01*
X0403101Y0370456D01*
X0404547Y0370456D01*
X0404547Y0370317D02*
X0403101Y0370317D01*
X0364547Y0370456D02*
X0364547Y0368812D01*
X0363101Y0368812D01*
X0363101Y0370456D01*
X0364547Y0370456D01*
X0364547Y0370317D02*
X0363101Y0370317D01*
X0363101Y0364550D02*
X0363101Y0362906D01*
X0363101Y0364550D02*
X0364547Y0364550D01*
X0364547Y0362906D01*
X0363101Y0362906D01*
X0363101Y0364411D02*
X0364547Y0364411D01*
X0323101Y0364550D02*
X0323101Y0362906D01*
X0323101Y0364550D02*
X0324547Y0364550D01*
X0324547Y0362906D01*
X0323101Y0362906D01*
X0323101Y0364411D02*
X0324547Y0364411D01*
X0324547Y0368812D02*
X0324547Y0370456D01*
X0324547Y0368812D02*
X0323101Y0368812D01*
X0323101Y0370456D01*
X0324547Y0370456D01*
X0324547Y0370317D02*
X0323101Y0370317D01*
X0284547Y0370456D02*
X0284547Y0368812D01*
X0283101Y0368812D01*
X0283101Y0370456D01*
X0284547Y0370456D01*
X0284547Y0370317D02*
X0283101Y0370317D01*
X0283101Y0364550D02*
X0283101Y0362906D01*
X0283101Y0364550D02*
X0284547Y0364550D01*
X0284547Y0362906D01*
X0283101Y0362906D01*
X0283101Y0364411D02*
X0284547Y0364411D01*
X0243101Y0364550D02*
X0243101Y0362906D01*
X0243101Y0364550D02*
X0244547Y0364550D01*
X0244547Y0362906D01*
X0243101Y0362906D01*
X0243101Y0364411D02*
X0244547Y0364411D01*
X0244547Y0368812D02*
X0244547Y0370456D01*
X0244547Y0368812D02*
X0243101Y0368812D01*
X0243101Y0370456D01*
X0244547Y0370456D01*
X0244547Y0370317D02*
X0243101Y0370317D01*
X0204547Y0370456D02*
X0204547Y0368812D01*
X0203101Y0368812D01*
X0203101Y0370456D01*
X0204547Y0370456D01*
X0204547Y0370317D02*
X0203101Y0370317D01*
X0203101Y0364550D02*
X0203101Y0362906D01*
X0203101Y0364550D02*
X0204547Y0364550D01*
X0204547Y0362906D01*
X0203101Y0362906D01*
X0203101Y0364411D02*
X0204547Y0364411D01*
X0163101Y0364550D02*
X0163101Y0362906D01*
X0163101Y0364550D02*
X0164547Y0364550D01*
X0164547Y0362906D01*
X0163101Y0362906D01*
X0163101Y0364411D02*
X0164547Y0364411D01*
X0164547Y0368812D02*
X0164547Y0370456D01*
X0164547Y0368812D02*
X0163101Y0368812D01*
X0163101Y0370456D01*
X0164547Y0370456D01*
X0164547Y0370317D02*
X0163101Y0370317D01*
X0124547Y0370456D02*
X0124547Y0368812D01*
X0123101Y0368812D01*
X0123101Y0370456D01*
X0124547Y0370456D01*
X0124547Y0370317D02*
X0123101Y0370317D01*
X0123101Y0364550D02*
X0123101Y0362906D01*
X0123101Y0364550D02*
X0124547Y0364550D01*
X0124547Y0362906D01*
X0123101Y0362906D01*
X0123101Y0364411D02*
X0124547Y0364411D01*
X0100737Y0363458D02*
X0099093Y0363458D01*
X0099093Y0364904D01*
X0100737Y0364904D01*
X0100737Y0363458D01*
X0094831Y0364904D02*
X0093187Y0364904D01*
X0094831Y0364904D02*
X0094831Y0363458D01*
X0093187Y0363458D01*
X0093187Y0364904D01*
X0148547Y0319456D02*
X0148547Y0317812D01*
X0147101Y0317812D01*
X0147101Y0319456D01*
X0148547Y0319456D01*
X0148547Y0319317D02*
X0147101Y0319317D01*
X0147101Y0313550D02*
X0147101Y0311906D01*
X0147101Y0313550D02*
X0148547Y0313550D01*
X0148547Y0311906D01*
X0147101Y0311906D01*
X0147101Y0313411D02*
X0148547Y0313411D01*
X0142547Y0299456D02*
X0142547Y0297812D01*
X0141101Y0297812D01*
X0141101Y0299456D01*
X0142547Y0299456D01*
X0142547Y0299317D02*
X0141101Y0299317D01*
X0141101Y0293550D02*
X0141101Y0291906D01*
X0141101Y0293550D02*
X0142547Y0293550D01*
X0142547Y0291906D01*
X0141101Y0291906D01*
X0141101Y0293411D02*
X0142547Y0293411D01*
X0170049Y0283404D02*
X0171693Y0283404D01*
X0171693Y0281958D01*
X0170049Y0281958D01*
X0170049Y0283404D01*
X0175955Y0281958D02*
X0177599Y0281958D01*
X0175955Y0281958D02*
X0175955Y0283404D01*
X0177599Y0283404D01*
X0177599Y0281958D01*
X0177599Y0275958D02*
X0175955Y0275958D01*
X0175955Y0277404D01*
X0177599Y0277404D01*
X0177599Y0275958D01*
X0171693Y0277404D02*
X0170049Y0277404D01*
X0171693Y0277404D02*
X0171693Y0275958D01*
X0170049Y0275958D01*
X0170049Y0277404D01*
X0203101Y0291906D02*
X0203101Y0293550D01*
X0204547Y0293550D01*
X0204547Y0291906D01*
X0203101Y0291906D01*
X0203101Y0293411D02*
X0204547Y0293411D01*
X0204547Y0297812D02*
X0204547Y0299456D01*
X0204547Y0297812D02*
X0203101Y0297812D01*
X0203101Y0299456D01*
X0204547Y0299456D01*
X0204547Y0299317D02*
X0203101Y0299317D01*
X0197101Y0311906D02*
X0197101Y0313550D01*
X0198547Y0313550D01*
X0198547Y0311906D01*
X0197101Y0311906D01*
X0197101Y0313411D02*
X0198547Y0313411D01*
X0198547Y0317812D02*
X0198547Y0319456D01*
X0198547Y0317812D02*
X0197101Y0317812D01*
X0197101Y0319456D01*
X0198547Y0319456D01*
X0198547Y0319317D02*
X0197101Y0319317D01*
X0251547Y0319456D02*
X0251547Y0317812D01*
X0250101Y0317812D01*
X0250101Y0319456D01*
X0251547Y0319456D01*
X0251547Y0319317D02*
X0250101Y0319317D01*
X0250101Y0313550D02*
X0250101Y0311906D01*
X0250101Y0313550D02*
X0251547Y0313550D01*
X0251547Y0311906D01*
X0250101Y0311906D01*
X0250101Y0313411D02*
X0251547Y0313411D01*
X0251547Y0299456D02*
X0251547Y0297812D01*
X0250101Y0297812D01*
X0250101Y0299456D01*
X0251547Y0299456D01*
X0251547Y0299317D02*
X0250101Y0299317D01*
X0250101Y0293550D02*
X0250101Y0291906D01*
X0250101Y0293550D02*
X0251547Y0293550D01*
X0251547Y0291906D01*
X0250101Y0291906D01*
X0250101Y0293411D02*
X0251547Y0293411D01*
X0272049Y0283404D02*
X0273693Y0283404D01*
X0273693Y0281958D01*
X0272049Y0281958D01*
X0272049Y0283404D01*
X0277955Y0281958D02*
X0279599Y0281958D01*
X0277955Y0281958D02*
X0277955Y0283404D01*
X0279599Y0283404D01*
X0279599Y0281958D01*
X0279599Y0275958D02*
X0277955Y0275958D01*
X0277955Y0277404D01*
X0279599Y0277404D01*
X0279599Y0275958D01*
X0273693Y0277404D02*
X0272049Y0277404D01*
X0273693Y0277404D02*
X0273693Y0275958D01*
X0272049Y0275958D01*
X0272049Y0277404D01*
X0266685Y0270956D02*
X0266685Y0269312D01*
X0265239Y0269312D01*
X0265239Y0270956D01*
X0266685Y0270956D01*
X0266685Y0270817D02*
X0265239Y0270817D01*
X0265239Y0265050D02*
X0265239Y0263406D01*
X0265239Y0265050D02*
X0266685Y0265050D01*
X0266685Y0263406D01*
X0265239Y0263406D01*
X0265239Y0264911D02*
X0266685Y0264911D01*
X0300101Y0291906D02*
X0300101Y0293550D01*
X0301547Y0293550D01*
X0301547Y0291906D01*
X0300101Y0291906D01*
X0300101Y0293411D02*
X0301547Y0293411D01*
X0301547Y0297812D02*
X0301547Y0299456D01*
X0301547Y0297812D02*
X0300101Y0297812D01*
X0300101Y0299456D01*
X0301547Y0299456D01*
X0301547Y0299317D02*
X0300101Y0299317D01*
X0300101Y0311906D02*
X0300101Y0313550D01*
X0301547Y0313550D01*
X0301547Y0311906D01*
X0300101Y0311906D01*
X0300101Y0313411D02*
X0301547Y0313411D01*
X0301547Y0317812D02*
X0301547Y0319456D01*
X0301547Y0317812D02*
X0300101Y0317812D01*
X0300101Y0319456D01*
X0301547Y0319456D01*
X0301547Y0319317D02*
X0300101Y0319317D01*
X0360547Y0319456D02*
X0360547Y0317812D01*
X0359101Y0317812D01*
X0359101Y0319456D01*
X0360547Y0319456D01*
X0360547Y0319317D02*
X0359101Y0319317D01*
X0359101Y0313550D02*
X0359101Y0311906D01*
X0359101Y0313550D02*
X0360547Y0313550D01*
X0360547Y0311906D01*
X0359101Y0311906D01*
X0359101Y0313411D02*
X0360547Y0313411D01*
X0360547Y0299456D02*
X0360547Y0297812D01*
X0359101Y0297812D01*
X0359101Y0299456D01*
X0360547Y0299456D01*
X0360547Y0299317D02*
X0359101Y0299317D01*
X0359101Y0293550D02*
X0359101Y0291906D01*
X0359101Y0293550D02*
X0360547Y0293550D01*
X0360547Y0291906D01*
X0359101Y0291906D01*
X0359101Y0293411D02*
X0360547Y0293411D01*
X0386049Y0283404D02*
X0387693Y0283404D01*
X0387693Y0281958D01*
X0386049Y0281958D01*
X0386049Y0283404D01*
X0391955Y0281958D02*
X0393599Y0281958D01*
X0391955Y0281958D02*
X0391955Y0283404D01*
X0393599Y0283404D01*
X0393599Y0281958D01*
X0393599Y0275958D02*
X0391955Y0275958D01*
X0391955Y0277404D01*
X0393599Y0277404D01*
X0393599Y0275958D01*
X0387693Y0277404D02*
X0386049Y0277404D01*
X0387693Y0277404D02*
X0387693Y0275958D01*
X0386049Y0275958D01*
X0386049Y0277404D01*
X0414101Y0291906D02*
X0414101Y0293550D01*
X0415547Y0293550D01*
X0415547Y0291906D01*
X0414101Y0291906D01*
X0414101Y0293411D02*
X0415547Y0293411D01*
X0415547Y0297812D02*
X0415547Y0299456D01*
X0415547Y0297812D02*
X0414101Y0297812D01*
X0414101Y0299456D01*
X0415547Y0299456D01*
X0415547Y0299317D02*
X0414101Y0299317D01*
X0414101Y0311906D02*
X0414101Y0313550D01*
X0415547Y0313550D01*
X0415547Y0311906D01*
X0414101Y0311906D01*
X0414101Y0313411D02*
X0415547Y0313411D01*
X0415547Y0317812D02*
X0415547Y0319456D01*
X0415547Y0317812D02*
X0414101Y0317812D01*
X0414101Y0319456D01*
X0415547Y0319456D01*
X0415547Y0319317D02*
X0414101Y0319317D01*
X0450049Y0314404D02*
X0451693Y0314404D01*
X0451693Y0312958D01*
X0450049Y0312958D01*
X0450049Y0314404D01*
X0455955Y0312958D02*
X0457599Y0312958D01*
X0455955Y0312958D02*
X0455955Y0314404D01*
X0457599Y0314404D01*
X0457599Y0312958D01*
X0477049Y0283404D02*
X0478693Y0283404D01*
X0478693Y0281958D01*
X0477049Y0281958D01*
X0477049Y0283404D01*
X0482955Y0281958D02*
X0484599Y0281958D01*
X0482955Y0281958D02*
X0482955Y0283404D01*
X0484599Y0283404D01*
X0484599Y0281958D01*
X0484599Y0275958D02*
X0482955Y0275958D01*
X0482955Y0277404D01*
X0484599Y0277404D01*
X0484599Y0275958D01*
X0478693Y0277404D02*
X0477049Y0277404D01*
X0478693Y0277404D02*
X0478693Y0275958D01*
X0477049Y0275958D01*
X0477049Y0277404D01*
X0545185Y0228094D02*
X0545185Y0226450D01*
X0543739Y0226450D01*
X0543739Y0228094D01*
X0545185Y0228094D01*
X0545185Y0227955D02*
X0543739Y0227955D01*
X0543739Y0222188D02*
X0543739Y0220544D01*
X0543739Y0222188D02*
X0545185Y0222188D01*
X0545185Y0220544D01*
X0543739Y0220544D01*
X0543739Y0222049D02*
X0545185Y0222049D01*
X0550239Y0222188D02*
X0550239Y0220544D01*
X0550239Y0222188D02*
X0551685Y0222188D01*
X0551685Y0220544D01*
X0550239Y0220544D01*
X0550239Y0222049D02*
X0551685Y0222049D01*
X0551685Y0226450D02*
X0551685Y0228094D01*
X0551685Y0226450D02*
X0550239Y0226450D01*
X0550239Y0228094D01*
X0551685Y0228094D01*
X0551685Y0227955D02*
X0550239Y0227955D01*
X0619325Y0239404D02*
X0620969Y0239404D01*
X0620969Y0237958D01*
X0619325Y0237958D01*
X0619325Y0239404D01*
X0625230Y0237958D02*
X0626874Y0237958D01*
X0625230Y0237958D02*
X0625230Y0239404D01*
X0626874Y0239404D01*
X0626874Y0237958D01*
X0742185Y0192094D02*
X0742185Y0190450D01*
X0740739Y0190450D01*
X0740739Y0192094D01*
X0742185Y0192094D01*
X0742185Y0191955D02*
X0740739Y0191955D01*
X0740739Y0186188D02*
X0740739Y0184544D01*
X0740739Y0186188D02*
X0742185Y0186188D01*
X0742185Y0184544D01*
X0740739Y0184544D01*
X0740739Y0186049D02*
X0742185Y0186049D01*
X0701047Y0182456D02*
X0701047Y0180812D01*
X0699601Y0180812D01*
X0699601Y0182456D01*
X0701047Y0182456D01*
X0701047Y0182317D02*
X0699601Y0182317D01*
X0699601Y0176550D02*
X0699601Y0174906D01*
X0699601Y0176550D02*
X0701047Y0176550D01*
X0701047Y0174906D01*
X0699601Y0174906D01*
X0699601Y0176411D02*
X0701047Y0176411D01*
X0687601Y0176550D02*
X0687601Y0174906D01*
X0687601Y0176550D02*
X0689047Y0176550D01*
X0689047Y0174906D01*
X0687601Y0174906D01*
X0687601Y0176411D02*
X0689047Y0176411D01*
X0689047Y0180812D02*
X0689047Y0182456D01*
X0689047Y0180812D02*
X0687601Y0180812D01*
X0687601Y0182456D01*
X0689047Y0182456D01*
X0689047Y0182317D02*
X0687601Y0182317D01*
X0677047Y0182456D02*
X0677047Y0180812D01*
X0675601Y0180812D01*
X0675601Y0182456D01*
X0677047Y0182456D01*
X0677047Y0182317D02*
X0675601Y0182317D01*
X0675601Y0176550D02*
X0675601Y0174906D01*
X0675601Y0176550D02*
X0677047Y0176550D01*
X0677047Y0174906D01*
X0675601Y0174906D01*
X0675601Y0176411D02*
X0677047Y0176411D01*
X0663601Y0176550D02*
X0663601Y0174906D01*
X0663601Y0176550D02*
X0665047Y0176550D01*
X0665047Y0174906D01*
X0663601Y0174906D01*
X0663601Y0176411D02*
X0665047Y0176411D01*
X0665047Y0180812D02*
X0665047Y0182456D01*
X0665047Y0180812D02*
X0663601Y0180812D01*
X0663601Y0182456D01*
X0665047Y0182456D01*
X0665047Y0182317D02*
X0663601Y0182317D01*
X0548047Y0182456D02*
X0548047Y0180812D01*
X0546601Y0180812D01*
X0546601Y0182456D01*
X0548047Y0182456D01*
X0548047Y0182317D02*
X0546601Y0182317D01*
X0546601Y0176550D02*
X0546601Y0174906D01*
X0546601Y0176550D02*
X0548047Y0176550D01*
X0548047Y0174906D01*
X0546601Y0174906D01*
X0546601Y0176411D02*
X0548047Y0176411D01*
X0534601Y0176550D02*
X0534601Y0174906D01*
X0534601Y0176550D02*
X0536047Y0176550D01*
X0536047Y0174906D01*
X0534601Y0174906D01*
X0534601Y0176411D02*
X0536047Y0176411D01*
X0536047Y0180812D02*
X0536047Y0182456D01*
X0536047Y0180812D02*
X0534601Y0180812D01*
X0534601Y0182456D01*
X0536047Y0182456D01*
X0536047Y0182317D02*
X0534601Y0182317D01*
X0524047Y0182456D02*
X0524047Y0180812D01*
X0522601Y0180812D01*
X0522601Y0182456D01*
X0524047Y0182456D01*
X0524047Y0182317D02*
X0522601Y0182317D01*
X0522601Y0176550D02*
X0522601Y0174906D01*
X0522601Y0176550D02*
X0524047Y0176550D01*
X0524047Y0174906D01*
X0522601Y0174906D01*
X0522601Y0176411D02*
X0524047Y0176411D01*
X0510601Y0176550D02*
X0510601Y0174906D01*
X0510601Y0176550D02*
X0512047Y0176550D01*
X0512047Y0174906D01*
X0510601Y0174906D01*
X0510601Y0176411D02*
X0512047Y0176411D01*
X0512047Y0180812D02*
X0512047Y0182456D01*
X0512047Y0180812D02*
X0510601Y0180812D01*
X0510601Y0182456D01*
X0512047Y0182456D01*
X0512047Y0182317D02*
X0510601Y0182317D01*
X0474239Y0182188D02*
X0474239Y0180544D01*
X0474239Y0182188D02*
X0475685Y0182188D01*
X0475685Y0180544D01*
X0474239Y0180544D01*
X0474239Y0182049D02*
X0475685Y0182049D01*
X0475685Y0186450D02*
X0475685Y0188094D01*
X0475685Y0186450D02*
X0474239Y0186450D01*
X0474239Y0188094D01*
X0475685Y0188094D01*
X0475685Y0187955D02*
X0474239Y0187955D01*
X0655049Y0291404D02*
X0656693Y0291404D01*
X0656693Y0289958D01*
X0655049Y0289958D01*
X0655049Y0291404D01*
X0660955Y0289958D02*
X0662599Y0289958D01*
X0660955Y0289958D02*
X0660955Y0291404D01*
X0662599Y0291404D01*
X0662599Y0289958D01*
X0674049Y0291404D02*
X0675693Y0291404D01*
X0675693Y0289958D01*
X0674049Y0289958D01*
X0674049Y0291404D01*
X0679955Y0289958D02*
X0681599Y0289958D01*
X0679955Y0289958D02*
X0679955Y0291404D01*
X0681599Y0291404D01*
X0681599Y0289958D01*
X0635737Y0301458D02*
X0634093Y0301458D01*
X0634093Y0302904D01*
X0635737Y0302904D01*
X0635737Y0301458D01*
X0629831Y0302904D02*
X0628187Y0302904D01*
X0629831Y0302904D02*
X0629831Y0301458D01*
X0628187Y0301458D01*
X0628187Y0302904D01*
X0628187Y0314904D02*
X0629831Y0314904D01*
X0629831Y0313458D01*
X0628187Y0313458D01*
X0628187Y0314904D01*
X0634093Y0313458D02*
X0635737Y0313458D01*
X0634093Y0313458D02*
X0634093Y0314904D01*
X0635737Y0314904D01*
X0635737Y0313458D01*
X0912687Y0344404D02*
X0914331Y0344404D01*
X0914331Y0342958D01*
X0912687Y0342958D01*
X0912687Y0344404D01*
X0918593Y0342958D02*
X0920237Y0342958D01*
X0918593Y0342958D02*
X0918593Y0344404D01*
X0920237Y0344404D01*
X0920237Y0342958D01*
X0962687Y0353404D02*
X0964331Y0353404D01*
X0964331Y0351958D01*
X0962687Y0351958D01*
X0962687Y0353404D01*
X0968593Y0351958D02*
X0970237Y0351958D01*
X0968593Y0351958D02*
X0968593Y0353404D01*
X0970237Y0353404D01*
X0970237Y0351958D01*
X1039546Y0372584D02*
X1039546Y0374228D01*
X1040992Y0374228D01*
X1040992Y0372584D01*
X1039546Y0372584D01*
X1039546Y0374089D02*
X1040992Y0374089D01*
X1040992Y0378489D02*
X1040992Y0380133D01*
X1040992Y0378489D02*
X1039546Y0378489D01*
X1039546Y0380133D01*
X1040992Y0380133D01*
X1040992Y0379994D02*
X1039546Y0379994D01*
X1060992Y0380133D02*
X1060992Y0378489D01*
X1059546Y0378489D01*
X1059546Y0380133D01*
X1060992Y0380133D01*
X1060992Y0379994D02*
X1059546Y0379994D01*
X1059546Y0374228D02*
X1059546Y0372584D01*
X1059546Y0374228D02*
X1060992Y0374228D01*
X1060992Y0372584D01*
X1059546Y0372584D01*
X1059546Y0374089D02*
X1060992Y0374089D01*
X1126239Y0403906D02*
X1126239Y0405550D01*
X1127685Y0405550D01*
X1127685Y0403906D01*
X1126239Y0403906D01*
X1126239Y0405411D02*
X1127685Y0405411D01*
X1127685Y0409812D02*
X1127685Y0411456D01*
X1127685Y0409812D02*
X1126239Y0409812D01*
X1126239Y0411456D01*
X1127685Y0411456D01*
X1127685Y0411317D02*
X1126239Y0411317D01*
X1209101Y0422406D02*
X1209101Y0424050D01*
X1210547Y0424050D01*
X1210547Y0422406D01*
X1209101Y0422406D01*
X1209101Y0423911D02*
X1210547Y0423911D01*
X1210547Y0428312D02*
X1210547Y0429956D01*
X1210547Y0428312D02*
X1209101Y0428312D01*
X1209101Y0429956D01*
X1210547Y0429956D01*
X1210547Y0429817D02*
X1209101Y0429817D01*
X1216547Y0429956D02*
X1216547Y0428312D01*
X1215101Y0428312D01*
X1215101Y0429956D01*
X1216547Y0429956D01*
X1216547Y0429817D02*
X1215101Y0429817D01*
X1215101Y0424050D02*
X1215101Y0422406D01*
X1215101Y0424050D02*
X1216547Y0424050D01*
X1216547Y0422406D01*
X1215101Y0422406D01*
X1215101Y0423911D02*
X1216547Y0423911D01*
X1117599Y0312458D02*
X1115955Y0312458D01*
X1115955Y0313904D01*
X1117599Y0313904D01*
X1117599Y0312458D01*
X1111693Y0313904D02*
X1110049Y0313904D01*
X1111693Y0313904D02*
X1111693Y0312458D01*
X1110049Y0312458D01*
X1110049Y0313904D01*
X1110049Y0303904D02*
X1111693Y0303904D01*
X1111693Y0302458D01*
X1110049Y0302458D01*
X1110049Y0303904D01*
X1115955Y0302458D02*
X1117599Y0302458D01*
X1115955Y0302458D02*
X1115955Y0303904D01*
X1117599Y0303904D01*
X1117599Y0302458D01*
X1117599Y0292458D02*
X1115955Y0292458D01*
X1115955Y0293904D01*
X1117599Y0293904D01*
X1117599Y0292458D01*
X1111693Y0293904D02*
X1110049Y0293904D01*
X1111693Y0293904D02*
X1111693Y0292458D01*
X1110049Y0292458D01*
X1110049Y0293904D01*
X1110049Y0283904D02*
X1111693Y0283904D01*
X1111693Y0282458D01*
X1110049Y0282458D01*
X1110049Y0283904D01*
X1115955Y0282458D02*
X1117599Y0282458D01*
X1115955Y0282458D02*
X1115955Y0283904D01*
X1117599Y0283904D01*
X1117599Y0282458D01*
X1117599Y0267458D02*
X1115955Y0267458D01*
X1115955Y0268904D01*
X1117599Y0268904D01*
X1117599Y0267458D01*
X1111693Y0268904D02*
X1110049Y0268904D01*
X1111693Y0268904D02*
X1111693Y0267458D01*
X1110049Y0267458D01*
X1110049Y0268904D01*
X1110049Y0258904D02*
X1111693Y0258904D01*
X1111693Y0257458D01*
X1110049Y0257458D01*
X1110049Y0258904D01*
X1115955Y0257458D02*
X1117599Y0257458D01*
X1115955Y0257458D02*
X1115955Y0258904D01*
X1117599Y0258904D01*
X1117599Y0257458D01*
X1117599Y0247458D02*
X1115955Y0247458D01*
X1115955Y0248904D01*
X1117599Y0248904D01*
X1117599Y0247458D01*
X1111693Y0248904D02*
X1110049Y0248904D01*
X1111693Y0248904D02*
X1111693Y0247458D01*
X1110049Y0247458D01*
X1110049Y0248904D01*
X1110049Y0238904D02*
X1111693Y0238904D01*
X1111693Y0237458D01*
X1110049Y0237458D01*
X1110049Y0238904D01*
X1115955Y0237458D02*
X1117599Y0237458D01*
X1115955Y0237458D02*
X1115955Y0238904D01*
X1117599Y0238904D01*
X1117599Y0237458D01*
X1117599Y0222458D02*
X1115955Y0222458D01*
X1115955Y0223904D01*
X1117599Y0223904D01*
X1117599Y0222458D01*
X1111693Y0223904D02*
X1110049Y0223904D01*
X1111693Y0223904D02*
X1111693Y0222458D01*
X1110049Y0222458D01*
X1110049Y0223904D01*
X1110049Y0213904D02*
X1111693Y0213904D01*
X1111693Y0212458D01*
X1110049Y0212458D01*
X1110049Y0213904D01*
X1115955Y0212458D02*
X1117599Y0212458D01*
X1115955Y0212458D02*
X1115955Y0213904D01*
X1117599Y0213904D01*
X1117599Y0212458D01*
X1117599Y0202458D02*
X1115955Y0202458D01*
X1115955Y0203904D01*
X1117599Y0203904D01*
X1117599Y0202458D01*
X1111693Y0203904D02*
X1110049Y0203904D01*
X1111693Y0203904D02*
X1111693Y0202458D01*
X1110049Y0202458D01*
X1110049Y0203904D01*
X1110049Y0193904D02*
X1111693Y0193904D01*
X1111693Y0192458D01*
X1110049Y0192458D01*
X1110049Y0193904D01*
X1115955Y0192458D02*
X1117599Y0192458D01*
X1115955Y0192458D02*
X1115955Y0193904D01*
X1117599Y0193904D01*
X1117599Y0192458D01*
X1117599Y0177458D02*
X1115955Y0177458D01*
X1115955Y0178904D01*
X1117599Y0178904D01*
X1117599Y0177458D01*
X1111693Y0178904D02*
X1110049Y0178904D01*
X1111693Y0178904D02*
X1111693Y0177458D01*
X1110049Y0177458D01*
X1110049Y0178904D01*
X1110049Y0168904D02*
X1111693Y0168904D01*
X1111693Y0167458D01*
X1110049Y0167458D01*
X1110049Y0168904D01*
X1115955Y0167458D02*
X1117599Y0167458D01*
X1115955Y0167458D02*
X1115955Y0168904D01*
X1117599Y0168904D01*
X1117599Y0167458D01*
X1117599Y0157458D02*
X1115955Y0157458D01*
X1115955Y0158904D01*
X1117599Y0158904D01*
X1117599Y0157458D01*
X1111693Y0158904D02*
X1110049Y0158904D01*
X1111693Y0158904D02*
X1111693Y0157458D01*
X1110049Y0157458D01*
X1110049Y0158904D01*
X1110049Y0148904D02*
X1111693Y0148904D01*
X1111693Y0147458D01*
X1110049Y0147458D01*
X1110049Y0148904D01*
X1115955Y0147458D02*
X1117599Y0147458D01*
X1115955Y0147458D02*
X1115955Y0148904D01*
X1117599Y0148904D01*
X1117599Y0147458D01*
X1117599Y0132458D02*
X1115955Y0132458D01*
X1115955Y0133904D01*
X1117599Y0133904D01*
X1117599Y0132458D01*
X1111693Y0133904D02*
X1110049Y0133904D01*
X1111693Y0133904D02*
X1111693Y0132458D01*
X1110049Y0132458D01*
X1110049Y0133904D01*
X1110049Y0123904D02*
X1111693Y0123904D01*
X1111693Y0122458D01*
X1110049Y0122458D01*
X1110049Y0123904D01*
X1115955Y0122458D02*
X1117599Y0122458D01*
X1115955Y0122458D02*
X1115955Y0123904D01*
X1117599Y0123904D01*
X1117599Y0122458D01*
X1117599Y0112458D02*
X1115955Y0112458D01*
X1115955Y0113904D01*
X1117599Y0113904D01*
X1117599Y0112458D01*
X1111693Y0113904D02*
X1110049Y0113904D01*
X1111693Y0113904D02*
X1111693Y0112458D01*
X1110049Y0112458D01*
X1110049Y0113904D01*
X1110049Y0103904D02*
X1111693Y0103904D01*
X1111693Y0102458D01*
X1110049Y0102458D01*
X1110049Y0103904D01*
X1115955Y0102458D02*
X1117599Y0102458D01*
X1115955Y0102458D02*
X1115955Y0103904D01*
X1117599Y0103904D01*
X1117599Y0102458D01*
X1117599Y0087458D02*
X1115955Y0087458D01*
X1115955Y0088904D01*
X1117599Y0088904D01*
X1117599Y0087458D01*
X1111693Y0088904D02*
X1110049Y0088904D01*
X1111693Y0088904D02*
X1111693Y0087458D01*
X1110049Y0087458D01*
X1110049Y0088904D01*
X1110049Y0078904D02*
X1111693Y0078904D01*
X1111693Y0077458D01*
X1110049Y0077458D01*
X1110049Y0078904D01*
X1115955Y0077458D02*
X1117599Y0077458D01*
X1115955Y0077458D02*
X1115955Y0078904D01*
X1117599Y0078904D01*
X1117599Y0077458D01*
X1117599Y0067458D02*
X1115955Y0067458D01*
X1115955Y0068904D01*
X1117599Y0068904D01*
X1117599Y0067458D01*
X1111693Y0068904D02*
X1110049Y0068904D01*
X1111693Y0068904D02*
X1111693Y0067458D01*
X1110049Y0067458D01*
X1110049Y0068904D01*
X1110049Y0058904D02*
X1111693Y0058904D01*
X1111693Y0057458D01*
X1110049Y0057458D01*
X1110049Y0058904D01*
X1115955Y0057458D02*
X1117599Y0057458D01*
X1115955Y0057458D02*
X1115955Y0058904D01*
X1117599Y0058904D01*
X1117599Y0057458D01*
X1099874Y0045958D02*
X1098230Y0045958D01*
X1098230Y0047404D01*
X1099874Y0047404D01*
X1099874Y0045958D01*
X1093969Y0047404D02*
X1092325Y0047404D01*
X1093969Y0047404D02*
X1093969Y0045958D01*
X1092325Y0045958D01*
X1092325Y0047404D01*
X1159687Y0053404D02*
X1161331Y0053404D01*
X1161331Y0051958D01*
X1159687Y0051958D01*
X1159687Y0053404D01*
X1165593Y0051958D02*
X1167237Y0051958D01*
X1165593Y0051958D02*
X1165593Y0053404D01*
X1167237Y0053404D01*
X1167237Y0051958D01*
X1193325Y0151404D02*
X1194969Y0151404D01*
X1194969Y0149958D01*
X1193325Y0149958D01*
X1193325Y0151404D01*
X1199230Y0149958D02*
X1200874Y0149958D01*
X1199230Y0149958D02*
X1199230Y0151404D01*
X1200874Y0151404D01*
X1200874Y0149958D01*
X1187374Y0232958D02*
X1185730Y0232958D01*
X1185730Y0234404D01*
X1187374Y0234404D01*
X1187374Y0232958D01*
X1181469Y0234404D02*
X1179825Y0234404D01*
X1181469Y0234404D02*
X1181469Y0232958D01*
X1179825Y0232958D01*
X1179825Y0234404D01*
X1167237Y0290958D02*
X1165593Y0290958D01*
X1165593Y0292404D01*
X1167237Y0292404D01*
X1167237Y0290958D01*
X1161331Y0292404D02*
X1159687Y0292404D01*
X1161331Y0292404D02*
X1161331Y0290958D01*
X1159687Y0290958D01*
X1159687Y0292404D01*
X0933237Y0197958D02*
X0931593Y0197958D01*
X0931593Y0199404D01*
X0933237Y0199404D01*
X0933237Y0197958D01*
X0927331Y0199404D02*
X0925687Y0199404D01*
X0927331Y0199404D02*
X0927331Y0197958D01*
X0925687Y0197958D01*
X0925687Y0199404D01*
X0925687Y0192404D02*
X0927331Y0192404D01*
X0927331Y0190958D01*
X0925687Y0190958D01*
X0925687Y0192404D01*
X0931593Y0190958D02*
X0933237Y0190958D01*
X0931593Y0190958D02*
X0931593Y0192404D01*
X0933237Y0192404D01*
X0933237Y0190958D01*
X0916237Y0190958D02*
X0914593Y0190958D01*
X0914593Y0192404D01*
X0916237Y0192404D01*
X0916237Y0190958D01*
X0910331Y0192404D02*
X0908687Y0192404D01*
X0910331Y0192404D02*
X0910331Y0190958D01*
X0908687Y0190958D01*
X0908687Y0192404D01*
X0899185Y0185456D02*
X0899185Y0183812D01*
X0897739Y0183812D01*
X0897739Y0185456D01*
X0899185Y0185456D01*
X0899185Y0185317D02*
X0897739Y0185317D01*
X0897739Y0179550D02*
X0897739Y0177906D01*
X0897739Y0179550D02*
X0899185Y0179550D01*
X0899185Y0177906D01*
X0897739Y0177906D01*
X0897739Y0179411D02*
X0899185Y0179411D01*
X0899185Y0170456D02*
X0899185Y0168812D01*
X0897739Y0168812D01*
X0897739Y0170456D01*
X0899185Y0170456D01*
X0899185Y0170317D02*
X0897739Y0170317D01*
X0897739Y0164550D02*
X0897739Y0162906D01*
X0897739Y0164550D02*
X0899185Y0164550D01*
X0899185Y0162906D01*
X0897739Y0162906D01*
X0897739Y0164411D02*
X0899185Y0164411D01*
X0899185Y0156456D02*
X0899185Y0154812D01*
X0897739Y0154812D01*
X0897739Y0156456D01*
X0899185Y0156456D01*
X0899185Y0156317D02*
X0897739Y0156317D01*
X0897739Y0150550D02*
X0897739Y0148906D01*
X0897739Y0150550D02*
X0899185Y0150550D01*
X0899185Y0148906D01*
X0897739Y0148906D01*
X0897739Y0150411D02*
X0899185Y0150411D01*
X0835601Y0173906D02*
X0835601Y0175550D01*
X0837047Y0175550D01*
X0837047Y0173906D01*
X0835601Y0173906D01*
X0835601Y0175411D02*
X0837047Y0175411D01*
X0837047Y0179812D02*
X0837047Y0181456D01*
X0837047Y0179812D02*
X0835601Y0179812D01*
X0835601Y0181456D01*
X0837047Y0181456D01*
X0837047Y0181317D02*
X0835601Y0181317D01*
X0825047Y0181456D02*
X0825047Y0179812D01*
X0823601Y0179812D01*
X0823601Y0181456D01*
X0825047Y0181456D01*
X0825047Y0181317D02*
X0823601Y0181317D01*
X0823601Y0175550D02*
X0823601Y0173906D01*
X0823601Y0175550D02*
X0825047Y0175550D01*
X0825047Y0173906D01*
X0823601Y0173906D01*
X0823601Y0175411D02*
X0825047Y0175411D01*
X0811601Y0175550D02*
X0811601Y0173906D01*
X0811601Y0175550D02*
X0813047Y0175550D01*
X0813047Y0173906D01*
X0811601Y0173906D01*
X0811601Y0175411D02*
X0813047Y0175411D01*
X0813047Y0179812D02*
X0813047Y0181456D01*
X0813047Y0179812D02*
X0811601Y0179812D01*
X0811601Y0181456D01*
X0813047Y0181456D01*
X0813047Y0181317D02*
X0811601Y0181317D01*
X0801047Y0181456D02*
X0801047Y0179812D01*
X0799601Y0179812D01*
X0799601Y0181456D01*
X0801047Y0181456D01*
X0801047Y0181317D02*
X0799601Y0181317D01*
X0799601Y0175550D02*
X0799601Y0173906D01*
X0799601Y0175550D02*
X0801047Y0175550D01*
X0801047Y0173906D01*
X0799601Y0173906D01*
X0799601Y0175411D02*
X0801047Y0175411D01*
X0083739Y0200906D02*
X0083739Y0202550D01*
X0085185Y0202550D01*
X0085185Y0200906D01*
X0083739Y0200906D01*
X0083739Y0202411D02*
X0085185Y0202411D01*
X0085185Y0206812D02*
X0085185Y0208456D01*
X0085185Y0206812D02*
X0083739Y0206812D01*
X0083739Y0208456D01*
X0085185Y0208456D01*
X0085185Y0208317D02*
X0083739Y0208317D01*
X0083099Y0213958D02*
X0081455Y0213958D01*
X0081455Y0215404D01*
X0083099Y0215404D01*
X0083099Y0213958D01*
X0077193Y0215404D02*
X0075549Y0215404D01*
X0077193Y0215404D02*
X0077193Y0213958D01*
X0075549Y0213958D01*
X0075549Y0215404D01*
X0067099Y0213958D02*
X0065455Y0213958D01*
X0065455Y0215404D01*
X0067099Y0215404D01*
X0067099Y0213958D01*
X0061193Y0215404D02*
X0059549Y0215404D01*
X0061193Y0215404D02*
X0061193Y0213958D01*
X0059549Y0213958D01*
X0059549Y0215404D01*
X0041237Y0272958D02*
X0039593Y0272958D01*
X0039593Y0274404D01*
X0041237Y0274404D01*
X0041237Y0272958D01*
X0035331Y0274404D02*
X0033687Y0274404D01*
X0035331Y0274404D02*
X0035331Y0272958D01*
X0033687Y0272958D01*
X0033687Y0274404D01*
D11*
X0042257Y0127087D02*
X0042257Y0124275D01*
X0037045Y0124275D01*
X0037045Y0127087D01*
X0042257Y0127087D01*
X0042257Y0126227D02*
X0037045Y0126227D01*
X0037045Y0115670D02*
X0037045Y0112858D01*
X0037045Y0115670D02*
X0042257Y0115670D01*
X0042257Y0112858D01*
X0037045Y0112858D01*
X0037045Y0114810D02*
X0042257Y0114810D01*
D12*
X0163434Y0121681D03*
X0177214Y0121681D03*
X0188434Y0121681D03*
X0202214Y0121681D03*
X0213434Y0121681D03*
X0227214Y0121681D03*
X0238434Y0121681D03*
X0252214Y0121681D03*
X0328434Y0121681D03*
X0342214Y0121681D03*
X0353434Y0121681D03*
X0367214Y0121681D03*
X0378434Y0121681D03*
X0392214Y0121681D03*
X0403434Y0121681D03*
X0417214Y0121681D03*
X0488434Y0121681D03*
X0502214Y0121681D03*
X0513434Y0121681D03*
X0527214Y0121681D03*
X0538434Y0121681D03*
X0552214Y0121681D03*
X0563434Y0121681D03*
X0577214Y0121681D03*
X0643434Y0121681D03*
X0657214Y0121681D03*
X0668434Y0121681D03*
X0682214Y0121681D03*
X0693434Y0121681D03*
X0707214Y0121681D03*
X0718434Y0121681D03*
X0732214Y0121681D03*
X0778434Y0121681D03*
X0792214Y0121681D03*
X0803434Y0121681D03*
X0817214Y0121681D03*
X0828434Y0121681D03*
X0842214Y0121681D03*
X0853434Y0121681D03*
X0867214Y0121681D03*
D13*
X0454824Y0291350D03*
X0451084Y0300012D03*
X0458564Y0300012D03*
X1080954Y0355748D03*
X1089615Y0359488D03*
X1080954Y0363228D03*
D14*
X0583824Y0368071D03*
X0583824Y0354291D03*
X0543824Y0354791D03*
X0543824Y0368571D03*
X0503824Y0368571D03*
X0503824Y0354791D03*
X0463824Y0354791D03*
X0463824Y0368571D03*
X0423824Y0367571D03*
X0423824Y0353791D03*
X0383824Y0353791D03*
X0383824Y0367571D03*
X0343824Y0367571D03*
X0343824Y0353791D03*
X0302824Y0353791D03*
X0302824Y0367571D03*
X0263824Y0367571D03*
X0263824Y0353791D03*
X0223824Y0353791D03*
X0223824Y0367571D03*
X0183824Y0367571D03*
X0183824Y0353791D03*
X0143824Y0353791D03*
X0143824Y0367571D03*
D15*
X0037462Y0301752D03*
X0037462Y0285610D03*
D16*
X1151159Y0312681D03*
X1175765Y0312681D03*
X1177127Y0213681D03*
X1152521Y0213681D03*
X1151159Y0124681D03*
X1175765Y0124681D03*
D17*
X0615030Y0251782D02*
X0610696Y0251782D01*
X0610696Y0252336D01*
X0615030Y0252336D01*
X0615030Y0251782D01*
X0615030Y0253751D02*
X0610696Y0253751D01*
X0610696Y0254305D01*
X0615030Y0254305D01*
X0615030Y0253751D01*
X0615030Y0255719D02*
X0610696Y0255719D01*
X0610696Y0256273D01*
X0615030Y0256273D01*
X0615030Y0255719D01*
X0615030Y0257688D02*
X0610696Y0257688D01*
X0610696Y0258242D01*
X0615030Y0258242D01*
X0615030Y0257688D01*
X0615030Y0259656D02*
X0610696Y0259656D01*
X0610696Y0260210D01*
X0615030Y0260210D01*
X0615030Y0259656D01*
X0615030Y0261625D02*
X0610696Y0261625D01*
X0610696Y0262179D01*
X0615030Y0262179D01*
X0615030Y0261625D01*
X0615030Y0263593D02*
X0610696Y0263593D01*
X0610696Y0264147D01*
X0615030Y0264147D01*
X0615030Y0263593D01*
X0615030Y0265562D02*
X0610696Y0265562D01*
X0610696Y0266116D01*
X0615030Y0266116D01*
X0615030Y0265562D01*
X0615030Y0267530D02*
X0610696Y0267530D01*
X0610696Y0268084D01*
X0615030Y0268084D01*
X0615030Y0267530D01*
X0615030Y0269499D02*
X0610696Y0269499D01*
X0610696Y0270053D01*
X0615030Y0270053D01*
X0615030Y0269499D01*
X0615030Y0271467D02*
X0610696Y0271467D01*
X0610696Y0272021D01*
X0615030Y0272021D01*
X0615030Y0271467D01*
X0615030Y0273436D02*
X0610696Y0273436D01*
X0610696Y0273990D01*
X0615030Y0273990D01*
X0615030Y0273436D01*
X0615030Y0275404D02*
X0610696Y0275404D01*
X0610696Y0275958D01*
X0615030Y0275958D01*
X0615030Y0275404D01*
X0615030Y0277373D02*
X0610696Y0277373D01*
X0610696Y0277927D01*
X0615030Y0277927D01*
X0615030Y0277373D01*
X0615030Y0279341D02*
X0610696Y0279341D01*
X0610696Y0279895D01*
X0615030Y0279895D01*
X0615030Y0279341D01*
X0615030Y0281310D02*
X0610696Y0281310D01*
X0610696Y0281864D01*
X0615030Y0281864D01*
X0615030Y0281310D01*
X0615030Y0283278D02*
X0610696Y0283278D01*
X0610696Y0283832D01*
X0615030Y0283832D01*
X0615030Y0283278D01*
X0615030Y0285247D02*
X0610696Y0285247D01*
X0610696Y0285801D01*
X0615030Y0285801D01*
X0615030Y0285247D01*
X0615030Y0287215D02*
X0610696Y0287215D01*
X0610696Y0287769D01*
X0615030Y0287769D01*
X0615030Y0287215D01*
X0615030Y0289184D02*
X0610696Y0289184D01*
X0610696Y0289738D01*
X0615030Y0289738D01*
X0615030Y0289184D01*
X0615030Y0291152D02*
X0610696Y0291152D01*
X0610696Y0291706D01*
X0615030Y0291706D01*
X0615030Y0291152D01*
X0615030Y0293121D02*
X0610696Y0293121D01*
X0610696Y0293675D01*
X0615030Y0293675D01*
X0615030Y0293121D01*
X0615030Y0295089D02*
X0610696Y0295089D01*
X0610696Y0295643D01*
X0615030Y0295643D01*
X0615030Y0295089D01*
X0615030Y0297058D02*
X0610696Y0297058D01*
X0610696Y0297612D01*
X0615030Y0297612D01*
X0615030Y0297058D01*
X0615030Y0299026D02*
X0610696Y0299026D01*
X0610696Y0299580D01*
X0615030Y0299580D01*
X0615030Y0299026D01*
X0606723Y0303553D02*
X0606723Y0307887D01*
X0606723Y0303553D02*
X0606169Y0303553D01*
X0606169Y0307887D01*
X0606723Y0307887D01*
X0606723Y0304178D02*
X0606169Y0304178D01*
X0606169Y0304803D02*
X0606723Y0304803D01*
X0606723Y0305428D02*
X0606169Y0305428D01*
X0606169Y0306053D02*
X0606723Y0306053D01*
X0606723Y0306678D02*
X0606169Y0306678D01*
X0606169Y0307303D02*
X0606723Y0307303D01*
X0604755Y0307887D02*
X0604755Y0303553D01*
X0604201Y0303553D01*
X0604201Y0307887D01*
X0604755Y0307887D01*
X0604755Y0304178D02*
X0604201Y0304178D01*
X0604201Y0304803D02*
X0604755Y0304803D01*
X0604755Y0305428D02*
X0604201Y0305428D01*
X0604201Y0306053D02*
X0604755Y0306053D01*
X0604755Y0306678D02*
X0604201Y0306678D01*
X0604201Y0307303D02*
X0604755Y0307303D01*
X0602786Y0307887D02*
X0602786Y0303553D01*
X0602232Y0303553D01*
X0602232Y0307887D01*
X0602786Y0307887D01*
X0602786Y0304178D02*
X0602232Y0304178D01*
X0602232Y0304803D02*
X0602786Y0304803D01*
X0602786Y0305428D02*
X0602232Y0305428D01*
X0602232Y0306053D02*
X0602786Y0306053D01*
X0602786Y0306678D02*
X0602232Y0306678D01*
X0602232Y0307303D02*
X0602786Y0307303D01*
X0600818Y0307887D02*
X0600818Y0303553D01*
X0600264Y0303553D01*
X0600264Y0307887D01*
X0600818Y0307887D01*
X0600818Y0304178D02*
X0600264Y0304178D01*
X0600264Y0304803D02*
X0600818Y0304803D01*
X0600818Y0305428D02*
X0600264Y0305428D01*
X0600264Y0306053D02*
X0600818Y0306053D01*
X0600818Y0306678D02*
X0600264Y0306678D01*
X0600264Y0307303D02*
X0600818Y0307303D01*
X0598849Y0307887D02*
X0598849Y0303553D01*
X0598295Y0303553D01*
X0598295Y0307887D01*
X0598849Y0307887D01*
X0598849Y0304178D02*
X0598295Y0304178D01*
X0598295Y0304803D02*
X0598849Y0304803D01*
X0598849Y0305428D02*
X0598295Y0305428D01*
X0598295Y0306053D02*
X0598849Y0306053D01*
X0598849Y0306678D02*
X0598295Y0306678D01*
X0598295Y0307303D02*
X0598849Y0307303D01*
X0596881Y0307887D02*
X0596881Y0303553D01*
X0596327Y0303553D01*
X0596327Y0307887D01*
X0596881Y0307887D01*
X0596881Y0304178D02*
X0596327Y0304178D01*
X0596327Y0304803D02*
X0596881Y0304803D01*
X0596881Y0305428D02*
X0596327Y0305428D01*
X0596327Y0306053D02*
X0596881Y0306053D01*
X0596881Y0306678D02*
X0596327Y0306678D01*
X0596327Y0307303D02*
X0596881Y0307303D01*
X0594912Y0307887D02*
X0594912Y0303553D01*
X0594358Y0303553D01*
X0594358Y0307887D01*
X0594912Y0307887D01*
X0594912Y0304178D02*
X0594358Y0304178D01*
X0594358Y0304803D02*
X0594912Y0304803D01*
X0594912Y0305428D02*
X0594358Y0305428D01*
X0594358Y0306053D02*
X0594912Y0306053D01*
X0594912Y0306678D02*
X0594358Y0306678D01*
X0594358Y0307303D02*
X0594912Y0307303D01*
X0592944Y0307887D02*
X0592944Y0303553D01*
X0592390Y0303553D01*
X0592390Y0307887D01*
X0592944Y0307887D01*
X0592944Y0304178D02*
X0592390Y0304178D01*
X0592390Y0304803D02*
X0592944Y0304803D01*
X0592944Y0305428D02*
X0592390Y0305428D01*
X0592390Y0306053D02*
X0592944Y0306053D01*
X0592944Y0306678D02*
X0592390Y0306678D01*
X0592390Y0307303D02*
X0592944Y0307303D01*
X0590975Y0307887D02*
X0590975Y0303553D01*
X0590421Y0303553D01*
X0590421Y0307887D01*
X0590975Y0307887D01*
X0590975Y0304178D02*
X0590421Y0304178D01*
X0590421Y0304803D02*
X0590975Y0304803D01*
X0590975Y0305428D02*
X0590421Y0305428D01*
X0590421Y0306053D02*
X0590975Y0306053D01*
X0590975Y0306678D02*
X0590421Y0306678D01*
X0590421Y0307303D02*
X0590975Y0307303D01*
X0589007Y0307887D02*
X0589007Y0303553D01*
X0588453Y0303553D01*
X0588453Y0307887D01*
X0589007Y0307887D01*
X0589007Y0304178D02*
X0588453Y0304178D01*
X0588453Y0304803D02*
X0589007Y0304803D01*
X0589007Y0305428D02*
X0588453Y0305428D01*
X0588453Y0306053D02*
X0589007Y0306053D01*
X0589007Y0306678D02*
X0588453Y0306678D01*
X0588453Y0307303D02*
X0589007Y0307303D01*
X0587038Y0307887D02*
X0587038Y0303553D01*
X0586484Y0303553D01*
X0586484Y0307887D01*
X0587038Y0307887D01*
X0587038Y0304178D02*
X0586484Y0304178D01*
X0586484Y0304803D02*
X0587038Y0304803D01*
X0587038Y0305428D02*
X0586484Y0305428D01*
X0586484Y0306053D02*
X0587038Y0306053D01*
X0587038Y0306678D02*
X0586484Y0306678D01*
X0586484Y0307303D02*
X0587038Y0307303D01*
X0585070Y0307887D02*
X0585070Y0303553D01*
X0584516Y0303553D01*
X0584516Y0307887D01*
X0585070Y0307887D01*
X0585070Y0304178D02*
X0584516Y0304178D01*
X0584516Y0304803D02*
X0585070Y0304803D01*
X0585070Y0305428D02*
X0584516Y0305428D01*
X0584516Y0306053D02*
X0585070Y0306053D01*
X0585070Y0306678D02*
X0584516Y0306678D01*
X0584516Y0307303D02*
X0585070Y0307303D01*
X0583101Y0307887D02*
X0583101Y0303553D01*
X0582547Y0303553D01*
X0582547Y0307887D01*
X0583101Y0307887D01*
X0583101Y0304178D02*
X0582547Y0304178D01*
X0582547Y0304803D02*
X0583101Y0304803D01*
X0583101Y0305428D02*
X0582547Y0305428D01*
X0582547Y0306053D02*
X0583101Y0306053D01*
X0583101Y0306678D02*
X0582547Y0306678D01*
X0582547Y0307303D02*
X0583101Y0307303D01*
X0581133Y0307887D02*
X0581133Y0303553D01*
X0580579Y0303553D01*
X0580579Y0307887D01*
X0581133Y0307887D01*
X0581133Y0304178D02*
X0580579Y0304178D01*
X0580579Y0304803D02*
X0581133Y0304803D01*
X0581133Y0305428D02*
X0580579Y0305428D01*
X0580579Y0306053D02*
X0581133Y0306053D01*
X0581133Y0306678D02*
X0580579Y0306678D01*
X0580579Y0307303D02*
X0581133Y0307303D01*
X0579164Y0307887D02*
X0579164Y0303553D01*
X0578610Y0303553D01*
X0578610Y0307887D01*
X0579164Y0307887D01*
X0579164Y0304178D02*
X0578610Y0304178D01*
X0578610Y0304803D02*
X0579164Y0304803D01*
X0579164Y0305428D02*
X0578610Y0305428D01*
X0578610Y0306053D02*
X0579164Y0306053D01*
X0579164Y0306678D02*
X0578610Y0306678D01*
X0578610Y0307303D02*
X0579164Y0307303D01*
X0577196Y0307887D02*
X0577196Y0303553D01*
X0576642Y0303553D01*
X0576642Y0307887D01*
X0577196Y0307887D01*
X0577196Y0304178D02*
X0576642Y0304178D01*
X0576642Y0304803D02*
X0577196Y0304803D01*
X0577196Y0305428D02*
X0576642Y0305428D01*
X0576642Y0306053D02*
X0577196Y0306053D01*
X0577196Y0306678D02*
X0576642Y0306678D01*
X0576642Y0307303D02*
X0577196Y0307303D01*
X0575227Y0307887D02*
X0575227Y0303553D01*
X0574673Y0303553D01*
X0574673Y0307887D01*
X0575227Y0307887D01*
X0575227Y0304178D02*
X0574673Y0304178D01*
X0574673Y0304803D02*
X0575227Y0304803D01*
X0575227Y0305428D02*
X0574673Y0305428D01*
X0574673Y0306053D02*
X0575227Y0306053D01*
X0575227Y0306678D02*
X0574673Y0306678D01*
X0574673Y0307303D02*
X0575227Y0307303D01*
X0573258Y0307887D02*
X0573258Y0303553D01*
X0572704Y0303553D01*
X0572704Y0307887D01*
X0573258Y0307887D01*
X0573258Y0304178D02*
X0572704Y0304178D01*
X0572704Y0304803D02*
X0573258Y0304803D01*
X0573258Y0305428D02*
X0572704Y0305428D01*
X0572704Y0306053D02*
X0573258Y0306053D01*
X0573258Y0306678D02*
X0572704Y0306678D01*
X0572704Y0307303D02*
X0573258Y0307303D01*
X0571290Y0307887D02*
X0571290Y0303553D01*
X0570736Y0303553D01*
X0570736Y0307887D01*
X0571290Y0307887D01*
X0571290Y0304178D02*
X0570736Y0304178D01*
X0570736Y0304803D02*
X0571290Y0304803D01*
X0571290Y0305428D02*
X0570736Y0305428D01*
X0570736Y0306053D02*
X0571290Y0306053D01*
X0571290Y0306678D02*
X0570736Y0306678D01*
X0570736Y0307303D02*
X0571290Y0307303D01*
X0569321Y0307887D02*
X0569321Y0303553D01*
X0568767Y0303553D01*
X0568767Y0307887D01*
X0569321Y0307887D01*
X0569321Y0304178D02*
X0568767Y0304178D01*
X0568767Y0304803D02*
X0569321Y0304803D01*
X0569321Y0305428D02*
X0568767Y0305428D01*
X0568767Y0306053D02*
X0569321Y0306053D01*
X0569321Y0306678D02*
X0568767Y0306678D01*
X0568767Y0307303D02*
X0569321Y0307303D01*
X0567353Y0307887D02*
X0567353Y0303553D01*
X0566799Y0303553D01*
X0566799Y0307887D01*
X0567353Y0307887D01*
X0567353Y0304178D02*
X0566799Y0304178D01*
X0566799Y0304803D02*
X0567353Y0304803D01*
X0567353Y0305428D02*
X0566799Y0305428D01*
X0566799Y0306053D02*
X0567353Y0306053D01*
X0567353Y0306678D02*
X0566799Y0306678D01*
X0566799Y0307303D02*
X0567353Y0307303D01*
X0565384Y0307887D02*
X0565384Y0303553D01*
X0564830Y0303553D01*
X0564830Y0307887D01*
X0565384Y0307887D01*
X0565384Y0304178D02*
X0564830Y0304178D01*
X0564830Y0304803D02*
X0565384Y0304803D01*
X0565384Y0305428D02*
X0564830Y0305428D01*
X0564830Y0306053D02*
X0565384Y0306053D01*
X0565384Y0306678D02*
X0564830Y0306678D01*
X0564830Y0307303D02*
X0565384Y0307303D01*
X0563416Y0307887D02*
X0563416Y0303553D01*
X0562862Y0303553D01*
X0562862Y0307887D01*
X0563416Y0307887D01*
X0563416Y0304178D02*
X0562862Y0304178D01*
X0562862Y0304803D02*
X0563416Y0304803D01*
X0563416Y0305428D02*
X0562862Y0305428D01*
X0562862Y0306053D02*
X0563416Y0306053D01*
X0563416Y0306678D02*
X0562862Y0306678D01*
X0562862Y0307303D02*
X0563416Y0307303D01*
X0561447Y0307887D02*
X0561447Y0303553D01*
X0560893Y0303553D01*
X0560893Y0307887D01*
X0561447Y0307887D01*
X0561447Y0304178D02*
X0560893Y0304178D01*
X0560893Y0304803D02*
X0561447Y0304803D01*
X0561447Y0305428D02*
X0560893Y0305428D01*
X0560893Y0306053D02*
X0561447Y0306053D01*
X0561447Y0306678D02*
X0560893Y0306678D01*
X0560893Y0307303D02*
X0561447Y0307303D01*
X0559479Y0307887D02*
X0559479Y0303553D01*
X0558925Y0303553D01*
X0558925Y0307887D01*
X0559479Y0307887D01*
X0559479Y0304178D02*
X0558925Y0304178D01*
X0558925Y0304803D02*
X0559479Y0304803D01*
X0559479Y0305428D02*
X0558925Y0305428D01*
X0558925Y0306053D02*
X0559479Y0306053D01*
X0559479Y0306678D02*
X0558925Y0306678D01*
X0558925Y0307303D02*
X0559479Y0307303D01*
X0554952Y0299580D02*
X0550618Y0299580D01*
X0554952Y0299580D02*
X0554952Y0299026D01*
X0550618Y0299026D01*
X0550618Y0299580D01*
X0550618Y0297612D02*
X0554952Y0297612D01*
X0554952Y0297058D01*
X0550618Y0297058D01*
X0550618Y0297612D01*
X0550618Y0295643D02*
X0554952Y0295643D01*
X0554952Y0295089D01*
X0550618Y0295089D01*
X0550618Y0295643D01*
X0550618Y0293675D02*
X0554952Y0293675D01*
X0554952Y0293121D01*
X0550618Y0293121D01*
X0550618Y0293675D01*
X0550618Y0291706D02*
X0554952Y0291706D01*
X0554952Y0291152D01*
X0550618Y0291152D01*
X0550618Y0291706D01*
X0550618Y0289738D02*
X0554952Y0289738D01*
X0554952Y0289184D01*
X0550618Y0289184D01*
X0550618Y0289738D01*
X0550618Y0287769D02*
X0554952Y0287769D01*
X0554952Y0287215D01*
X0550618Y0287215D01*
X0550618Y0287769D01*
X0550618Y0285801D02*
X0554952Y0285801D01*
X0554952Y0285247D01*
X0550618Y0285247D01*
X0550618Y0285801D01*
X0550618Y0283832D02*
X0554952Y0283832D01*
X0554952Y0283278D01*
X0550618Y0283278D01*
X0550618Y0283832D01*
X0550618Y0281864D02*
X0554952Y0281864D01*
X0554952Y0281310D01*
X0550618Y0281310D01*
X0550618Y0281864D01*
X0550618Y0279895D02*
X0554952Y0279895D01*
X0554952Y0279341D01*
X0550618Y0279341D01*
X0550618Y0279895D01*
X0550618Y0277927D02*
X0554952Y0277927D01*
X0554952Y0277373D01*
X0550618Y0277373D01*
X0550618Y0277927D01*
X0550618Y0275958D02*
X0554952Y0275958D01*
X0554952Y0275404D01*
X0550618Y0275404D01*
X0550618Y0275958D01*
X0550618Y0273990D02*
X0554952Y0273990D01*
X0554952Y0273436D01*
X0550618Y0273436D01*
X0550618Y0273990D01*
X0550618Y0272021D02*
X0554952Y0272021D01*
X0554952Y0271467D01*
X0550618Y0271467D01*
X0550618Y0272021D01*
X0550618Y0270053D02*
X0554952Y0270053D01*
X0554952Y0269499D01*
X0550618Y0269499D01*
X0550618Y0270053D01*
X0550618Y0268084D02*
X0554952Y0268084D01*
X0554952Y0267530D01*
X0550618Y0267530D01*
X0550618Y0268084D01*
X0550618Y0266116D02*
X0554952Y0266116D01*
X0554952Y0265562D01*
X0550618Y0265562D01*
X0550618Y0266116D01*
X0550618Y0264147D02*
X0554952Y0264147D01*
X0554952Y0263593D01*
X0550618Y0263593D01*
X0550618Y0264147D01*
X0550618Y0262179D02*
X0554952Y0262179D01*
X0554952Y0261625D01*
X0550618Y0261625D01*
X0550618Y0262179D01*
X0550618Y0260210D02*
X0554952Y0260210D01*
X0554952Y0259656D01*
X0550618Y0259656D01*
X0550618Y0260210D01*
X0550618Y0258242D02*
X0554952Y0258242D01*
X0554952Y0257688D01*
X0550618Y0257688D01*
X0550618Y0258242D01*
X0550618Y0256273D02*
X0554952Y0256273D01*
X0554952Y0255719D01*
X0550618Y0255719D01*
X0550618Y0256273D01*
X0550618Y0254305D02*
X0554952Y0254305D01*
X0554952Y0253751D01*
X0550618Y0253751D01*
X0550618Y0254305D01*
X0550618Y0252336D02*
X0554952Y0252336D01*
X0554952Y0251782D01*
X0550618Y0251782D01*
X0550618Y0252336D01*
X0558925Y0247809D02*
X0558925Y0243475D01*
X0558925Y0247809D02*
X0559479Y0247809D01*
X0559479Y0243475D01*
X0558925Y0243475D01*
X0558925Y0244100D02*
X0559479Y0244100D01*
X0559479Y0244725D02*
X0558925Y0244725D01*
X0558925Y0245350D02*
X0559479Y0245350D01*
X0559479Y0245975D02*
X0558925Y0245975D01*
X0558925Y0246600D02*
X0559479Y0246600D01*
X0559479Y0247225D02*
X0558925Y0247225D01*
X0560893Y0247809D02*
X0560893Y0243475D01*
X0560893Y0247809D02*
X0561447Y0247809D01*
X0561447Y0243475D01*
X0560893Y0243475D01*
X0560893Y0244100D02*
X0561447Y0244100D01*
X0561447Y0244725D02*
X0560893Y0244725D01*
X0560893Y0245350D02*
X0561447Y0245350D01*
X0561447Y0245975D02*
X0560893Y0245975D01*
X0560893Y0246600D02*
X0561447Y0246600D01*
X0561447Y0247225D02*
X0560893Y0247225D01*
X0562862Y0247809D02*
X0562862Y0243475D01*
X0562862Y0247809D02*
X0563416Y0247809D01*
X0563416Y0243475D01*
X0562862Y0243475D01*
X0562862Y0244100D02*
X0563416Y0244100D01*
X0563416Y0244725D02*
X0562862Y0244725D01*
X0562862Y0245350D02*
X0563416Y0245350D01*
X0563416Y0245975D02*
X0562862Y0245975D01*
X0562862Y0246600D02*
X0563416Y0246600D01*
X0563416Y0247225D02*
X0562862Y0247225D01*
X0564830Y0247809D02*
X0564830Y0243475D01*
X0564830Y0247809D02*
X0565384Y0247809D01*
X0565384Y0243475D01*
X0564830Y0243475D01*
X0564830Y0244100D02*
X0565384Y0244100D01*
X0565384Y0244725D02*
X0564830Y0244725D01*
X0564830Y0245350D02*
X0565384Y0245350D01*
X0565384Y0245975D02*
X0564830Y0245975D01*
X0564830Y0246600D02*
X0565384Y0246600D01*
X0565384Y0247225D02*
X0564830Y0247225D01*
X0566799Y0247809D02*
X0566799Y0243475D01*
X0566799Y0247809D02*
X0567353Y0247809D01*
X0567353Y0243475D01*
X0566799Y0243475D01*
X0566799Y0244100D02*
X0567353Y0244100D01*
X0567353Y0244725D02*
X0566799Y0244725D01*
X0566799Y0245350D02*
X0567353Y0245350D01*
X0567353Y0245975D02*
X0566799Y0245975D01*
X0566799Y0246600D02*
X0567353Y0246600D01*
X0567353Y0247225D02*
X0566799Y0247225D01*
X0568767Y0247809D02*
X0568767Y0243475D01*
X0568767Y0247809D02*
X0569321Y0247809D01*
X0569321Y0243475D01*
X0568767Y0243475D01*
X0568767Y0244100D02*
X0569321Y0244100D01*
X0569321Y0244725D02*
X0568767Y0244725D01*
X0568767Y0245350D02*
X0569321Y0245350D01*
X0569321Y0245975D02*
X0568767Y0245975D01*
X0568767Y0246600D02*
X0569321Y0246600D01*
X0569321Y0247225D02*
X0568767Y0247225D01*
X0570736Y0247809D02*
X0570736Y0243475D01*
X0570736Y0247809D02*
X0571290Y0247809D01*
X0571290Y0243475D01*
X0570736Y0243475D01*
X0570736Y0244100D02*
X0571290Y0244100D01*
X0571290Y0244725D02*
X0570736Y0244725D01*
X0570736Y0245350D02*
X0571290Y0245350D01*
X0571290Y0245975D02*
X0570736Y0245975D01*
X0570736Y0246600D02*
X0571290Y0246600D01*
X0571290Y0247225D02*
X0570736Y0247225D01*
X0572704Y0247809D02*
X0572704Y0243475D01*
X0572704Y0247809D02*
X0573258Y0247809D01*
X0573258Y0243475D01*
X0572704Y0243475D01*
X0572704Y0244100D02*
X0573258Y0244100D01*
X0573258Y0244725D02*
X0572704Y0244725D01*
X0572704Y0245350D02*
X0573258Y0245350D01*
X0573258Y0245975D02*
X0572704Y0245975D01*
X0572704Y0246600D02*
X0573258Y0246600D01*
X0573258Y0247225D02*
X0572704Y0247225D01*
X0574673Y0247809D02*
X0574673Y0243475D01*
X0574673Y0247809D02*
X0575227Y0247809D01*
X0575227Y0243475D01*
X0574673Y0243475D01*
X0574673Y0244100D02*
X0575227Y0244100D01*
X0575227Y0244725D02*
X0574673Y0244725D01*
X0574673Y0245350D02*
X0575227Y0245350D01*
X0575227Y0245975D02*
X0574673Y0245975D01*
X0574673Y0246600D02*
X0575227Y0246600D01*
X0575227Y0247225D02*
X0574673Y0247225D01*
X0576642Y0247809D02*
X0576642Y0243475D01*
X0576642Y0247809D02*
X0577196Y0247809D01*
X0577196Y0243475D01*
X0576642Y0243475D01*
X0576642Y0244100D02*
X0577196Y0244100D01*
X0577196Y0244725D02*
X0576642Y0244725D01*
X0576642Y0245350D02*
X0577196Y0245350D01*
X0577196Y0245975D02*
X0576642Y0245975D01*
X0576642Y0246600D02*
X0577196Y0246600D01*
X0577196Y0247225D02*
X0576642Y0247225D01*
X0578610Y0247809D02*
X0578610Y0243475D01*
X0578610Y0247809D02*
X0579164Y0247809D01*
X0579164Y0243475D01*
X0578610Y0243475D01*
X0578610Y0244100D02*
X0579164Y0244100D01*
X0579164Y0244725D02*
X0578610Y0244725D01*
X0578610Y0245350D02*
X0579164Y0245350D01*
X0579164Y0245975D02*
X0578610Y0245975D01*
X0578610Y0246600D02*
X0579164Y0246600D01*
X0579164Y0247225D02*
X0578610Y0247225D01*
X0580579Y0247809D02*
X0580579Y0243475D01*
X0580579Y0247809D02*
X0581133Y0247809D01*
X0581133Y0243475D01*
X0580579Y0243475D01*
X0580579Y0244100D02*
X0581133Y0244100D01*
X0581133Y0244725D02*
X0580579Y0244725D01*
X0580579Y0245350D02*
X0581133Y0245350D01*
X0581133Y0245975D02*
X0580579Y0245975D01*
X0580579Y0246600D02*
X0581133Y0246600D01*
X0581133Y0247225D02*
X0580579Y0247225D01*
X0582547Y0247809D02*
X0582547Y0243475D01*
X0582547Y0247809D02*
X0583101Y0247809D01*
X0583101Y0243475D01*
X0582547Y0243475D01*
X0582547Y0244100D02*
X0583101Y0244100D01*
X0583101Y0244725D02*
X0582547Y0244725D01*
X0582547Y0245350D02*
X0583101Y0245350D01*
X0583101Y0245975D02*
X0582547Y0245975D01*
X0582547Y0246600D02*
X0583101Y0246600D01*
X0583101Y0247225D02*
X0582547Y0247225D01*
X0584516Y0247809D02*
X0584516Y0243475D01*
X0584516Y0247809D02*
X0585070Y0247809D01*
X0585070Y0243475D01*
X0584516Y0243475D01*
X0584516Y0244100D02*
X0585070Y0244100D01*
X0585070Y0244725D02*
X0584516Y0244725D01*
X0584516Y0245350D02*
X0585070Y0245350D01*
X0585070Y0245975D02*
X0584516Y0245975D01*
X0584516Y0246600D02*
X0585070Y0246600D01*
X0585070Y0247225D02*
X0584516Y0247225D01*
X0586484Y0247809D02*
X0586484Y0243475D01*
X0586484Y0247809D02*
X0587038Y0247809D01*
X0587038Y0243475D01*
X0586484Y0243475D01*
X0586484Y0244100D02*
X0587038Y0244100D01*
X0587038Y0244725D02*
X0586484Y0244725D01*
X0586484Y0245350D02*
X0587038Y0245350D01*
X0587038Y0245975D02*
X0586484Y0245975D01*
X0586484Y0246600D02*
X0587038Y0246600D01*
X0587038Y0247225D02*
X0586484Y0247225D01*
X0588453Y0247809D02*
X0588453Y0243475D01*
X0588453Y0247809D02*
X0589007Y0247809D01*
X0589007Y0243475D01*
X0588453Y0243475D01*
X0588453Y0244100D02*
X0589007Y0244100D01*
X0589007Y0244725D02*
X0588453Y0244725D01*
X0588453Y0245350D02*
X0589007Y0245350D01*
X0589007Y0245975D02*
X0588453Y0245975D01*
X0588453Y0246600D02*
X0589007Y0246600D01*
X0589007Y0247225D02*
X0588453Y0247225D01*
X0590421Y0247809D02*
X0590421Y0243475D01*
X0590421Y0247809D02*
X0590975Y0247809D01*
X0590975Y0243475D01*
X0590421Y0243475D01*
X0590421Y0244100D02*
X0590975Y0244100D01*
X0590975Y0244725D02*
X0590421Y0244725D01*
X0590421Y0245350D02*
X0590975Y0245350D01*
X0590975Y0245975D02*
X0590421Y0245975D01*
X0590421Y0246600D02*
X0590975Y0246600D01*
X0590975Y0247225D02*
X0590421Y0247225D01*
X0592390Y0247809D02*
X0592390Y0243475D01*
X0592390Y0247809D02*
X0592944Y0247809D01*
X0592944Y0243475D01*
X0592390Y0243475D01*
X0592390Y0244100D02*
X0592944Y0244100D01*
X0592944Y0244725D02*
X0592390Y0244725D01*
X0592390Y0245350D02*
X0592944Y0245350D01*
X0592944Y0245975D02*
X0592390Y0245975D01*
X0592390Y0246600D02*
X0592944Y0246600D01*
X0592944Y0247225D02*
X0592390Y0247225D01*
X0594358Y0247809D02*
X0594358Y0243475D01*
X0594358Y0247809D02*
X0594912Y0247809D01*
X0594912Y0243475D01*
X0594358Y0243475D01*
X0594358Y0244100D02*
X0594912Y0244100D01*
X0594912Y0244725D02*
X0594358Y0244725D01*
X0594358Y0245350D02*
X0594912Y0245350D01*
X0594912Y0245975D02*
X0594358Y0245975D01*
X0594358Y0246600D02*
X0594912Y0246600D01*
X0594912Y0247225D02*
X0594358Y0247225D01*
X0596327Y0247809D02*
X0596327Y0243475D01*
X0596327Y0247809D02*
X0596881Y0247809D01*
X0596881Y0243475D01*
X0596327Y0243475D01*
X0596327Y0244100D02*
X0596881Y0244100D01*
X0596881Y0244725D02*
X0596327Y0244725D01*
X0596327Y0245350D02*
X0596881Y0245350D01*
X0596881Y0245975D02*
X0596327Y0245975D01*
X0596327Y0246600D02*
X0596881Y0246600D01*
X0596881Y0247225D02*
X0596327Y0247225D01*
X0598295Y0247809D02*
X0598295Y0243475D01*
X0598295Y0247809D02*
X0598849Y0247809D01*
X0598849Y0243475D01*
X0598295Y0243475D01*
X0598295Y0244100D02*
X0598849Y0244100D01*
X0598849Y0244725D02*
X0598295Y0244725D01*
X0598295Y0245350D02*
X0598849Y0245350D01*
X0598849Y0245975D02*
X0598295Y0245975D01*
X0598295Y0246600D02*
X0598849Y0246600D01*
X0598849Y0247225D02*
X0598295Y0247225D01*
X0600264Y0247809D02*
X0600264Y0243475D01*
X0600264Y0247809D02*
X0600818Y0247809D01*
X0600818Y0243475D01*
X0600264Y0243475D01*
X0600264Y0244100D02*
X0600818Y0244100D01*
X0600818Y0244725D02*
X0600264Y0244725D01*
X0600264Y0245350D02*
X0600818Y0245350D01*
X0600818Y0245975D02*
X0600264Y0245975D01*
X0600264Y0246600D02*
X0600818Y0246600D01*
X0600818Y0247225D02*
X0600264Y0247225D01*
X0602232Y0247809D02*
X0602232Y0243475D01*
X0602232Y0247809D02*
X0602786Y0247809D01*
X0602786Y0243475D01*
X0602232Y0243475D01*
X0602232Y0244100D02*
X0602786Y0244100D01*
X0602786Y0244725D02*
X0602232Y0244725D01*
X0602232Y0245350D02*
X0602786Y0245350D01*
X0602786Y0245975D02*
X0602232Y0245975D01*
X0602232Y0246600D02*
X0602786Y0246600D01*
X0602786Y0247225D02*
X0602232Y0247225D01*
X0604201Y0247809D02*
X0604201Y0243475D01*
X0604201Y0247809D02*
X0604755Y0247809D01*
X0604755Y0243475D01*
X0604201Y0243475D01*
X0604201Y0244100D02*
X0604755Y0244100D01*
X0604755Y0244725D02*
X0604201Y0244725D01*
X0604201Y0245350D02*
X0604755Y0245350D01*
X0604755Y0245975D02*
X0604201Y0245975D01*
X0604201Y0246600D02*
X0604755Y0246600D01*
X0604755Y0247225D02*
X0604201Y0247225D01*
X0606169Y0247809D02*
X0606169Y0243475D01*
X0606169Y0247809D02*
X0606723Y0247809D01*
X0606723Y0243475D01*
X0606169Y0243475D01*
X0606169Y0244100D02*
X0606723Y0244100D01*
X0606723Y0244725D02*
X0606169Y0244725D01*
X0606169Y0245350D02*
X0606723Y0245350D01*
X0606723Y0245975D02*
X0606169Y0245975D01*
X0606169Y0246600D02*
X0606723Y0246600D01*
X0606723Y0247225D02*
X0606169Y0247225D01*
X0098251Y0183231D02*
X0093917Y0183231D01*
X0093917Y0183785D01*
X0098251Y0183785D01*
X0098251Y0183231D01*
X0098251Y0181262D02*
X0093917Y0181262D01*
X0093917Y0181816D01*
X0098251Y0181816D01*
X0098251Y0181262D01*
X0098251Y0179294D02*
X0093917Y0179294D01*
X0093917Y0179848D01*
X0098251Y0179848D01*
X0098251Y0179294D01*
X0098251Y0177325D02*
X0093917Y0177325D01*
X0093917Y0177879D01*
X0098251Y0177879D01*
X0098251Y0177325D01*
X0098251Y0175357D02*
X0093917Y0175357D01*
X0093917Y0175911D01*
X0098251Y0175911D01*
X0098251Y0175357D01*
X0098251Y0173388D02*
X0093917Y0173388D01*
X0093917Y0173942D01*
X0098251Y0173942D01*
X0098251Y0173388D01*
X0098251Y0171420D02*
X0093917Y0171420D01*
X0093917Y0171974D01*
X0098251Y0171974D01*
X0098251Y0171420D01*
X0098251Y0169451D02*
X0093917Y0169451D01*
X0093917Y0170005D01*
X0098251Y0170005D01*
X0098251Y0169451D01*
X0098251Y0167483D02*
X0093917Y0167483D01*
X0093917Y0168037D01*
X0098251Y0168037D01*
X0098251Y0167483D01*
X0098251Y0165514D02*
X0093917Y0165514D01*
X0093917Y0166068D01*
X0098251Y0166068D01*
X0098251Y0165514D01*
X0098251Y0163546D02*
X0093917Y0163546D01*
X0093917Y0164100D01*
X0098251Y0164100D01*
X0098251Y0163546D01*
X0098251Y0161577D02*
X0093917Y0161577D01*
X0093917Y0162131D01*
X0098251Y0162131D01*
X0098251Y0161577D01*
X0090374Y0158588D02*
X0090374Y0154254D01*
X0090374Y0158588D02*
X0090928Y0158588D01*
X0090928Y0154254D01*
X0090374Y0154254D01*
X0090374Y0154879D02*
X0090928Y0154879D01*
X0090928Y0155504D02*
X0090374Y0155504D01*
X0090374Y0156129D02*
X0090928Y0156129D01*
X0090928Y0156754D02*
X0090374Y0156754D01*
X0090374Y0157379D02*
X0090928Y0157379D01*
X0090928Y0158004D02*
X0090374Y0158004D01*
X0088405Y0158588D02*
X0088405Y0154254D01*
X0088405Y0158588D02*
X0088959Y0158588D01*
X0088959Y0154254D01*
X0088405Y0154254D01*
X0088405Y0154879D02*
X0088959Y0154879D01*
X0088959Y0155504D02*
X0088405Y0155504D01*
X0088405Y0156129D02*
X0088959Y0156129D01*
X0088959Y0156754D02*
X0088405Y0156754D01*
X0088405Y0157379D02*
X0088959Y0157379D01*
X0088959Y0158004D02*
X0088405Y0158004D01*
X0086437Y0158588D02*
X0086437Y0154254D01*
X0086437Y0158588D02*
X0086991Y0158588D01*
X0086991Y0154254D01*
X0086437Y0154254D01*
X0086437Y0154879D02*
X0086991Y0154879D01*
X0086991Y0155504D02*
X0086437Y0155504D01*
X0086437Y0156129D02*
X0086991Y0156129D01*
X0086991Y0156754D02*
X0086437Y0156754D01*
X0086437Y0157379D02*
X0086991Y0157379D01*
X0086991Y0158004D02*
X0086437Y0158004D01*
X0084468Y0158588D02*
X0084468Y0154254D01*
X0084468Y0158588D02*
X0085022Y0158588D01*
X0085022Y0154254D01*
X0084468Y0154254D01*
X0084468Y0154879D02*
X0085022Y0154879D01*
X0085022Y0155504D02*
X0084468Y0155504D01*
X0084468Y0156129D02*
X0085022Y0156129D01*
X0085022Y0156754D02*
X0084468Y0156754D01*
X0084468Y0157379D02*
X0085022Y0157379D01*
X0085022Y0158004D02*
X0084468Y0158004D01*
X0082500Y0158588D02*
X0082500Y0154254D01*
X0082500Y0158588D02*
X0083054Y0158588D01*
X0083054Y0154254D01*
X0082500Y0154254D01*
X0082500Y0154879D02*
X0083054Y0154879D01*
X0083054Y0155504D02*
X0082500Y0155504D01*
X0082500Y0156129D02*
X0083054Y0156129D01*
X0083054Y0156754D02*
X0082500Y0156754D01*
X0082500Y0157379D02*
X0083054Y0157379D01*
X0083054Y0158004D02*
X0082500Y0158004D01*
X0080531Y0158588D02*
X0080531Y0154254D01*
X0080531Y0158588D02*
X0081085Y0158588D01*
X0081085Y0154254D01*
X0080531Y0154254D01*
X0080531Y0154879D02*
X0081085Y0154879D01*
X0081085Y0155504D02*
X0080531Y0155504D01*
X0080531Y0156129D02*
X0081085Y0156129D01*
X0081085Y0156754D02*
X0080531Y0156754D01*
X0080531Y0157379D02*
X0081085Y0157379D01*
X0081085Y0158004D02*
X0080531Y0158004D01*
X0078563Y0158588D02*
X0078563Y0154254D01*
X0078563Y0158588D02*
X0079117Y0158588D01*
X0079117Y0154254D01*
X0078563Y0154254D01*
X0078563Y0154879D02*
X0079117Y0154879D01*
X0079117Y0155504D02*
X0078563Y0155504D01*
X0078563Y0156129D02*
X0079117Y0156129D01*
X0079117Y0156754D02*
X0078563Y0156754D01*
X0078563Y0157379D02*
X0079117Y0157379D01*
X0079117Y0158004D02*
X0078563Y0158004D01*
X0076594Y0158588D02*
X0076594Y0154254D01*
X0076594Y0158588D02*
X0077148Y0158588D01*
X0077148Y0154254D01*
X0076594Y0154254D01*
X0076594Y0154879D02*
X0077148Y0154879D01*
X0077148Y0155504D02*
X0076594Y0155504D01*
X0076594Y0156129D02*
X0077148Y0156129D01*
X0077148Y0156754D02*
X0076594Y0156754D01*
X0076594Y0157379D02*
X0077148Y0157379D01*
X0077148Y0158004D02*
X0076594Y0158004D01*
X0074626Y0158588D02*
X0074626Y0154254D01*
X0074626Y0158588D02*
X0075180Y0158588D01*
X0075180Y0154254D01*
X0074626Y0154254D01*
X0074626Y0154879D02*
X0075180Y0154879D01*
X0075180Y0155504D02*
X0074626Y0155504D01*
X0074626Y0156129D02*
X0075180Y0156129D01*
X0075180Y0156754D02*
X0074626Y0156754D01*
X0074626Y0157379D02*
X0075180Y0157379D01*
X0075180Y0158004D02*
X0074626Y0158004D01*
X0072657Y0158588D02*
X0072657Y0154254D01*
X0072657Y0158588D02*
X0073211Y0158588D01*
X0073211Y0154254D01*
X0072657Y0154254D01*
X0072657Y0154879D02*
X0073211Y0154879D01*
X0073211Y0155504D02*
X0072657Y0155504D01*
X0072657Y0156129D02*
X0073211Y0156129D01*
X0073211Y0156754D02*
X0072657Y0156754D01*
X0072657Y0157379D02*
X0073211Y0157379D01*
X0073211Y0158004D02*
X0072657Y0158004D01*
X0070689Y0158588D02*
X0070689Y0154254D01*
X0070689Y0158588D02*
X0071243Y0158588D01*
X0071243Y0154254D01*
X0070689Y0154254D01*
X0070689Y0154879D02*
X0071243Y0154879D01*
X0071243Y0155504D02*
X0070689Y0155504D01*
X0070689Y0156129D02*
X0071243Y0156129D01*
X0071243Y0156754D02*
X0070689Y0156754D01*
X0070689Y0157379D02*
X0071243Y0157379D01*
X0071243Y0158004D02*
X0070689Y0158004D01*
X0068720Y0158588D02*
X0068720Y0154254D01*
X0068720Y0158588D02*
X0069274Y0158588D01*
X0069274Y0154254D01*
X0068720Y0154254D01*
X0068720Y0154879D02*
X0069274Y0154879D01*
X0069274Y0155504D02*
X0068720Y0155504D01*
X0068720Y0156129D02*
X0069274Y0156129D01*
X0069274Y0156754D02*
X0068720Y0156754D01*
X0068720Y0157379D02*
X0069274Y0157379D01*
X0069274Y0158004D02*
X0068720Y0158004D01*
X0065731Y0162131D02*
X0061397Y0162131D01*
X0065731Y0162131D02*
X0065731Y0161577D01*
X0061397Y0161577D01*
X0061397Y0162131D01*
X0061397Y0164100D02*
X0065731Y0164100D01*
X0065731Y0163546D01*
X0061397Y0163546D01*
X0061397Y0164100D01*
X0061397Y0166068D02*
X0065731Y0166068D01*
X0065731Y0165514D01*
X0061397Y0165514D01*
X0061397Y0166068D01*
X0061397Y0168037D02*
X0065731Y0168037D01*
X0065731Y0167483D01*
X0061397Y0167483D01*
X0061397Y0168037D01*
X0061397Y0170005D02*
X0065731Y0170005D01*
X0065731Y0169451D01*
X0061397Y0169451D01*
X0061397Y0170005D01*
X0061397Y0171974D02*
X0065731Y0171974D01*
X0065731Y0171420D01*
X0061397Y0171420D01*
X0061397Y0171974D01*
X0061397Y0173942D02*
X0065731Y0173942D01*
X0065731Y0173388D01*
X0061397Y0173388D01*
X0061397Y0173942D01*
X0061397Y0175911D02*
X0065731Y0175911D01*
X0065731Y0175357D01*
X0061397Y0175357D01*
X0061397Y0175911D01*
X0061397Y0177879D02*
X0065731Y0177879D01*
X0065731Y0177325D01*
X0061397Y0177325D01*
X0061397Y0177879D01*
X0061397Y0179848D02*
X0065731Y0179848D01*
X0065731Y0179294D01*
X0061397Y0179294D01*
X0061397Y0179848D01*
X0061397Y0181816D02*
X0065731Y0181816D01*
X0065731Y0181262D01*
X0061397Y0181262D01*
X0061397Y0181816D01*
X0061397Y0183785D02*
X0065731Y0183785D01*
X0065731Y0183231D01*
X0061397Y0183231D01*
X0061397Y0183785D01*
X0069274Y0186774D02*
X0069274Y0191108D01*
X0069274Y0186774D02*
X0068720Y0186774D01*
X0068720Y0191108D01*
X0069274Y0191108D01*
X0069274Y0187399D02*
X0068720Y0187399D01*
X0068720Y0188024D02*
X0069274Y0188024D01*
X0069274Y0188649D02*
X0068720Y0188649D01*
X0068720Y0189274D02*
X0069274Y0189274D01*
X0069274Y0189899D02*
X0068720Y0189899D01*
X0068720Y0190524D02*
X0069274Y0190524D01*
X0071243Y0191108D02*
X0071243Y0186774D01*
X0070689Y0186774D01*
X0070689Y0191108D01*
X0071243Y0191108D01*
X0071243Y0187399D02*
X0070689Y0187399D01*
X0070689Y0188024D02*
X0071243Y0188024D01*
X0071243Y0188649D02*
X0070689Y0188649D01*
X0070689Y0189274D02*
X0071243Y0189274D01*
X0071243Y0189899D02*
X0070689Y0189899D01*
X0070689Y0190524D02*
X0071243Y0190524D01*
X0073211Y0191108D02*
X0073211Y0186774D01*
X0072657Y0186774D01*
X0072657Y0191108D01*
X0073211Y0191108D01*
X0073211Y0187399D02*
X0072657Y0187399D01*
X0072657Y0188024D02*
X0073211Y0188024D01*
X0073211Y0188649D02*
X0072657Y0188649D01*
X0072657Y0189274D02*
X0073211Y0189274D01*
X0073211Y0189899D02*
X0072657Y0189899D01*
X0072657Y0190524D02*
X0073211Y0190524D01*
X0075180Y0191108D02*
X0075180Y0186774D01*
X0074626Y0186774D01*
X0074626Y0191108D01*
X0075180Y0191108D01*
X0075180Y0187399D02*
X0074626Y0187399D01*
X0074626Y0188024D02*
X0075180Y0188024D01*
X0075180Y0188649D02*
X0074626Y0188649D01*
X0074626Y0189274D02*
X0075180Y0189274D01*
X0075180Y0189899D02*
X0074626Y0189899D01*
X0074626Y0190524D02*
X0075180Y0190524D01*
X0077148Y0191108D02*
X0077148Y0186774D01*
X0076594Y0186774D01*
X0076594Y0191108D01*
X0077148Y0191108D01*
X0077148Y0187399D02*
X0076594Y0187399D01*
X0076594Y0188024D02*
X0077148Y0188024D01*
X0077148Y0188649D02*
X0076594Y0188649D01*
X0076594Y0189274D02*
X0077148Y0189274D01*
X0077148Y0189899D02*
X0076594Y0189899D01*
X0076594Y0190524D02*
X0077148Y0190524D01*
X0079117Y0191108D02*
X0079117Y0186774D01*
X0078563Y0186774D01*
X0078563Y0191108D01*
X0079117Y0191108D01*
X0079117Y0187399D02*
X0078563Y0187399D01*
X0078563Y0188024D02*
X0079117Y0188024D01*
X0079117Y0188649D02*
X0078563Y0188649D01*
X0078563Y0189274D02*
X0079117Y0189274D01*
X0079117Y0189899D02*
X0078563Y0189899D01*
X0078563Y0190524D02*
X0079117Y0190524D01*
X0081085Y0191108D02*
X0081085Y0186774D01*
X0080531Y0186774D01*
X0080531Y0191108D01*
X0081085Y0191108D01*
X0081085Y0187399D02*
X0080531Y0187399D01*
X0080531Y0188024D02*
X0081085Y0188024D01*
X0081085Y0188649D02*
X0080531Y0188649D01*
X0080531Y0189274D02*
X0081085Y0189274D01*
X0081085Y0189899D02*
X0080531Y0189899D01*
X0080531Y0190524D02*
X0081085Y0190524D01*
X0083054Y0191108D02*
X0083054Y0186774D01*
X0082500Y0186774D01*
X0082500Y0191108D01*
X0083054Y0191108D01*
X0083054Y0187399D02*
X0082500Y0187399D01*
X0082500Y0188024D02*
X0083054Y0188024D01*
X0083054Y0188649D02*
X0082500Y0188649D01*
X0082500Y0189274D02*
X0083054Y0189274D01*
X0083054Y0189899D02*
X0082500Y0189899D01*
X0082500Y0190524D02*
X0083054Y0190524D01*
X0085022Y0191108D02*
X0085022Y0186774D01*
X0084468Y0186774D01*
X0084468Y0191108D01*
X0085022Y0191108D01*
X0085022Y0187399D02*
X0084468Y0187399D01*
X0084468Y0188024D02*
X0085022Y0188024D01*
X0085022Y0188649D02*
X0084468Y0188649D01*
X0084468Y0189274D02*
X0085022Y0189274D01*
X0085022Y0189899D02*
X0084468Y0189899D01*
X0084468Y0190524D02*
X0085022Y0190524D01*
X0086991Y0191108D02*
X0086991Y0186774D01*
X0086437Y0186774D01*
X0086437Y0191108D01*
X0086991Y0191108D01*
X0086991Y0187399D02*
X0086437Y0187399D01*
X0086437Y0188024D02*
X0086991Y0188024D01*
X0086991Y0188649D02*
X0086437Y0188649D01*
X0086437Y0189274D02*
X0086991Y0189274D01*
X0086991Y0189899D02*
X0086437Y0189899D01*
X0086437Y0190524D02*
X0086991Y0190524D01*
X0088959Y0191108D02*
X0088959Y0186774D01*
X0088405Y0186774D01*
X0088405Y0191108D01*
X0088959Y0191108D01*
X0088959Y0187399D02*
X0088405Y0187399D01*
X0088405Y0188024D02*
X0088959Y0188024D01*
X0088959Y0188649D02*
X0088405Y0188649D01*
X0088405Y0189274D02*
X0088959Y0189274D01*
X0088959Y0189899D02*
X0088405Y0189899D01*
X0088405Y0190524D02*
X0088959Y0190524D01*
X0090928Y0191108D02*
X0090928Y0186774D01*
X0090374Y0186774D01*
X0090374Y0191108D01*
X0090928Y0191108D01*
X0090928Y0187399D02*
X0090374Y0187399D01*
X0090374Y0188024D02*
X0090928Y0188024D01*
X0090928Y0188649D02*
X0090374Y0188649D01*
X0090374Y0189274D02*
X0090928Y0189274D01*
X0090928Y0189899D02*
X0090374Y0189899D01*
X0090374Y0190524D02*
X0090928Y0190524D01*
D18*
X0406962Y0206445D03*
X0411962Y0206445D03*
X0416962Y0206445D03*
X0421962Y0206445D03*
X0421962Y0226917D03*
X0416962Y0226917D03*
X0411962Y0226917D03*
X0406962Y0226917D03*
D19*
X0399785Y0290681D03*
X0399785Y0295681D03*
X0399785Y0300681D03*
X0399785Y0305681D03*
X0399785Y0310681D03*
X0399785Y0315681D03*
X0399785Y0320681D03*
X0379312Y0320681D03*
X0379312Y0315681D03*
X0379312Y0310681D03*
X0379312Y0305681D03*
X0379312Y0300681D03*
X0379312Y0295681D03*
X0379312Y0290681D03*
X0470840Y0289681D03*
X0470840Y0294681D03*
X0470840Y0299681D03*
X0470840Y0304681D03*
X0470840Y0309681D03*
X0470840Y0314681D03*
X0470840Y0319681D03*
X0491312Y0319681D03*
X0491312Y0314681D03*
X0491312Y0309681D03*
X0491312Y0304681D03*
X0491312Y0299681D03*
X0491312Y0294681D03*
X0491312Y0289681D03*
X0286257Y0290681D03*
X0286257Y0295681D03*
X0286257Y0300681D03*
X0286257Y0305681D03*
X0286257Y0310681D03*
X0286257Y0315681D03*
X0286257Y0320681D03*
X0265785Y0320681D03*
X0265785Y0315681D03*
X0265785Y0310681D03*
X0265785Y0305681D03*
X0265785Y0300681D03*
X0265785Y0295681D03*
X0265785Y0290681D03*
X0183730Y0290681D03*
X0183730Y0295681D03*
X0183730Y0300681D03*
X0183730Y0305681D03*
X0183730Y0310681D03*
X0183730Y0315681D03*
X0183730Y0320681D03*
X0163257Y0320681D03*
X0163257Y0315681D03*
X0163257Y0310681D03*
X0163257Y0305681D03*
X0163257Y0300681D03*
X0163257Y0295681D03*
X0163257Y0290681D03*
X0909226Y0184181D03*
X0909226Y0179181D03*
X0909226Y0174181D03*
X0909226Y0169181D03*
X0909226Y0164181D03*
X0909226Y0159181D03*
X0909226Y0154181D03*
X0909226Y0149181D03*
X0929698Y0149181D03*
X0929698Y0154181D03*
X0929698Y0159181D03*
X0929698Y0164181D03*
X0929698Y0169181D03*
X0929698Y0174181D03*
X0929698Y0179181D03*
X0929698Y0184181D03*
D20*
X1144024Y0185681D03*
X1144024Y0180681D03*
X1144024Y0175681D03*
X1144024Y0170681D03*
X1144024Y0165681D03*
X1144024Y0160681D03*
X1144024Y0155681D03*
X1144024Y0150681D03*
X1183624Y0150681D03*
X1183624Y0155681D03*
X1183624Y0160681D03*
X1183624Y0165681D03*
X1183624Y0170681D03*
X1183624Y0175681D03*
X1183624Y0180681D03*
X1183624Y0185681D03*
X1183624Y0190681D03*
X1144024Y0190681D03*
X1144024Y0240681D03*
X1144024Y0245681D03*
X1144024Y0250681D03*
X1144024Y0255681D03*
X1144024Y0260681D03*
X1144024Y0265681D03*
X1144024Y0270681D03*
X1144024Y0275681D03*
X1144024Y0280681D03*
X1183624Y0280681D03*
X1183624Y0275681D03*
X1183624Y0270681D03*
X1183624Y0265681D03*
X1183624Y0260681D03*
X1183624Y0255681D03*
X1183624Y0250681D03*
X1183624Y0245681D03*
X1183624Y0240681D03*
X1062369Y0350858D03*
X1062369Y0355858D03*
X1062369Y0360858D03*
X1062369Y0365858D03*
X1038169Y0365858D03*
X1038169Y0360858D03*
X1038169Y0355858D03*
X1038169Y0350858D03*
X1144024Y0100681D03*
X1144024Y0095681D03*
X1144024Y0090681D03*
X1144024Y0085681D03*
X1144024Y0080681D03*
X1144024Y0075681D03*
X1144024Y0070681D03*
X1144024Y0065681D03*
X1144024Y0060681D03*
X1183624Y0060681D03*
X1183624Y0065681D03*
X1183624Y0070681D03*
X1183624Y0075681D03*
X1183624Y0080681D03*
X1183624Y0085681D03*
X1183624Y0090681D03*
X1183624Y0095681D03*
X1183624Y0100681D03*
D21*
X0916775Y0199994D02*
X0914149Y0199994D01*
X0916775Y0199994D02*
X0916775Y0197368D01*
X0914149Y0197368D01*
X0914149Y0199994D01*
X0914149Y0198242D02*
X0916775Y0198242D01*
X0916775Y0199116D02*
X0914149Y0199116D01*
X0914149Y0199990D02*
X0916775Y0199990D01*
X0910775Y0199994D02*
X0908149Y0199994D01*
X0910775Y0199994D02*
X0910775Y0197368D01*
X0908149Y0197368D01*
X0908149Y0199994D01*
X0908149Y0198242D02*
X0910775Y0198242D01*
X0910775Y0199116D02*
X0908149Y0199116D01*
X0908149Y0199990D02*
X0910775Y0199990D01*
X0476649Y0262730D02*
X0476649Y0265356D01*
X0479275Y0265356D01*
X0479275Y0262730D01*
X0476649Y0262730D01*
X0476649Y0263604D02*
X0479275Y0263604D01*
X0479275Y0264478D02*
X0476649Y0264478D01*
X0476649Y0265352D02*
X0479275Y0265352D01*
X0476649Y0268730D02*
X0476649Y0271356D01*
X0479275Y0271356D01*
X0479275Y0268730D01*
X0476649Y0268730D01*
X0476649Y0269604D02*
X0479275Y0269604D01*
X0479275Y0270478D02*
X0476649Y0270478D01*
X0476649Y0271352D02*
X0479275Y0271352D01*
X0442275Y0248494D02*
X0442275Y0245868D01*
X0439649Y0245868D01*
X0439649Y0248494D01*
X0442275Y0248494D01*
X0442275Y0246742D02*
X0439649Y0246742D01*
X0439649Y0247616D02*
X0442275Y0247616D01*
X0442275Y0248490D02*
X0439649Y0248490D01*
X0442275Y0242494D02*
X0442275Y0239868D01*
X0439649Y0239868D01*
X0439649Y0242494D01*
X0442275Y0242494D01*
X0442275Y0240742D02*
X0439649Y0240742D01*
X0439649Y0241616D02*
X0442275Y0241616D01*
X0442275Y0242490D02*
X0439649Y0242490D01*
X0388275Y0262730D02*
X0388275Y0265356D01*
X0388275Y0262730D02*
X0385649Y0262730D01*
X0385649Y0265356D01*
X0388275Y0265356D01*
X0388275Y0263604D02*
X0385649Y0263604D01*
X0385649Y0264478D02*
X0388275Y0264478D01*
X0388275Y0265352D02*
X0385649Y0265352D01*
X0388275Y0268730D02*
X0388275Y0271356D01*
X0388275Y0268730D02*
X0385649Y0268730D01*
X0385649Y0271356D01*
X0388275Y0271356D01*
X0388275Y0269604D02*
X0385649Y0269604D01*
X0385649Y0270478D02*
X0388275Y0270478D01*
X0388275Y0271352D02*
X0385649Y0271352D01*
X0274275Y0271356D02*
X0274275Y0268730D01*
X0271649Y0268730D01*
X0271649Y0271356D01*
X0274275Y0271356D01*
X0274275Y0269604D02*
X0271649Y0269604D01*
X0271649Y0270478D02*
X0274275Y0270478D01*
X0274275Y0271352D02*
X0271649Y0271352D01*
X0274275Y0265356D02*
X0274275Y0262730D01*
X0271649Y0262730D01*
X0271649Y0265356D01*
X0274275Y0265356D01*
X0274275Y0263604D02*
X0271649Y0263604D01*
X0271649Y0264478D02*
X0274275Y0264478D01*
X0274275Y0265352D02*
X0271649Y0265352D01*
X0172275Y0265356D02*
X0172275Y0262730D01*
X0169649Y0262730D01*
X0169649Y0265356D01*
X0172275Y0265356D01*
X0172275Y0263604D02*
X0169649Y0263604D01*
X0169649Y0264478D02*
X0172275Y0264478D01*
X0172275Y0265352D02*
X0169649Y0265352D01*
X0172275Y0268730D02*
X0172275Y0271356D01*
X0172275Y0268730D02*
X0169649Y0268730D01*
X0169649Y0271356D01*
X0172275Y0271356D01*
X0172275Y0269604D02*
X0169649Y0269604D01*
X0169649Y0270478D02*
X0172275Y0270478D01*
X0172275Y0271352D02*
X0169649Y0271352D01*
X0132149Y0208494D02*
X0132149Y0205868D01*
X0132149Y0208494D02*
X0134775Y0208494D01*
X0134775Y0205868D01*
X0132149Y0205868D01*
X0132149Y0206742D02*
X0134775Y0206742D01*
X0134775Y0207616D02*
X0132149Y0207616D01*
X0132149Y0208490D02*
X0134775Y0208490D01*
X0132149Y0202494D02*
X0132149Y0199868D01*
X0132149Y0202494D02*
X0134775Y0202494D01*
X0134775Y0199868D01*
X0132149Y0199868D01*
X0132149Y0200742D02*
X0134775Y0200742D01*
X0134775Y0201616D02*
X0132149Y0201616D01*
X0132149Y0202490D02*
X0134775Y0202490D01*
X1045956Y0374671D02*
X1048582Y0374671D01*
X1048582Y0372045D01*
X1045956Y0372045D01*
X1045956Y0374671D01*
X1045956Y0372919D02*
X1048582Y0372919D01*
X1048582Y0373793D02*
X1045956Y0373793D01*
X1045956Y0374667D02*
X1048582Y0374667D01*
X1051956Y0374671D02*
X1054582Y0374671D01*
X1054582Y0372045D01*
X1051956Y0372045D01*
X1051956Y0374671D01*
X1051956Y0372919D02*
X1054582Y0372919D01*
X1054582Y0373793D02*
X1051956Y0373793D01*
X1051956Y0374667D02*
X1054582Y0374667D01*
X1202511Y0421868D02*
X1202511Y0424494D01*
X1205137Y0424494D01*
X1205137Y0421868D01*
X1202511Y0421868D01*
X1202511Y0422742D02*
X1205137Y0422742D01*
X1205137Y0423616D02*
X1202511Y0423616D01*
X1202511Y0424490D02*
X1205137Y0424490D01*
X1202511Y0427868D02*
X1202511Y0430494D01*
X1205137Y0430494D01*
X1205137Y0427868D01*
X1202511Y0427868D01*
X1202511Y0428742D02*
X1205137Y0428742D01*
X1205137Y0429616D02*
X1202511Y0429616D01*
X1202511Y0430490D02*
X1205137Y0430490D01*
D22*
X0604212Y0387681D02*
X0604212Y0384681D01*
X0604212Y0387681D02*
X0608712Y0387681D01*
X0608712Y0384681D01*
X0604212Y0384681D01*
X0604212Y0385680D02*
X0608712Y0385680D01*
X0608712Y0386679D02*
X0604212Y0386679D01*
X0604212Y0387678D02*
X0608712Y0387678D01*
X0604212Y0380681D02*
X0604212Y0377681D01*
X0604212Y0380681D02*
X0608712Y0380681D01*
X0608712Y0377681D01*
X0604212Y0377681D01*
X0604212Y0378680D02*
X0608712Y0378680D01*
X0608712Y0379679D02*
X0604212Y0379679D01*
X0604212Y0380678D02*
X0608712Y0380678D01*
X0108212Y0260181D02*
X0108212Y0257181D01*
X0108212Y0260181D02*
X0112712Y0260181D01*
X0112712Y0257181D01*
X0108212Y0257181D01*
X0108212Y0258180D02*
X0112712Y0258180D01*
X0112712Y0259179D02*
X0108212Y0259179D01*
X0108212Y0260178D02*
X0112712Y0260178D01*
X0108212Y0253181D02*
X0108212Y0250181D01*
X0108212Y0253181D02*
X0112712Y0253181D01*
X0112712Y0250181D01*
X0108212Y0250181D01*
X0108212Y0251180D02*
X0112712Y0251180D01*
X0112712Y0252179D02*
X0108212Y0252179D01*
X0108212Y0253178D02*
X0112712Y0253178D01*
X0042539Y0253681D02*
X0042539Y0250681D01*
X0038039Y0250681D01*
X0038039Y0253681D01*
X0042539Y0253681D01*
X0042539Y0251680D02*
X0038039Y0251680D01*
X0038039Y0252679D02*
X0042539Y0252679D01*
X0042539Y0253678D02*
X0038039Y0253678D01*
X0042539Y0257681D02*
X0042539Y0260681D01*
X0042539Y0257681D02*
X0038039Y0257681D01*
X0038039Y0260681D01*
X0042539Y0260681D01*
X0042539Y0258680D02*
X0038039Y0258680D01*
X0038039Y0259679D02*
X0042539Y0259679D01*
X0042539Y0260678D02*
X0038039Y0260678D01*
D23*
X0111651Y0208681D03*
X0118651Y0208681D03*
X0118651Y0200413D03*
X0111651Y0200413D03*
D24*
X1143876Y0384461D02*
X1143876Y0387043D01*
X1147048Y0387043D01*
X1147048Y0384461D01*
X1143876Y0384461D01*
X1143876Y0386407D02*
X1147048Y0386407D01*
X1147048Y0393319D02*
X1147048Y0395901D01*
X1147048Y0393319D02*
X1143876Y0393319D01*
X1143876Y0395901D01*
X1147048Y0395901D01*
X1147048Y0395265D02*
X1143876Y0395265D01*
D25*
X1084580Y0313181D03*
X1084580Y0308181D03*
X1084580Y0303181D03*
X1084580Y0298181D03*
X1084580Y0293181D03*
X1084580Y0288181D03*
X1084580Y0283181D03*
X1084580Y0278181D03*
X1084580Y0268181D03*
X1084580Y0263181D03*
X1084580Y0258181D03*
X1084580Y0253181D03*
X1084580Y0248181D03*
X1084580Y0243181D03*
X1084580Y0238181D03*
X1084580Y0233181D03*
X1084580Y0223181D03*
X1084580Y0218181D03*
X1084580Y0213181D03*
X1084580Y0208181D03*
X1084580Y0203181D03*
X1084580Y0198181D03*
X1084580Y0193181D03*
X1084580Y0188181D03*
X1084580Y0178181D03*
X1084580Y0173181D03*
X1084580Y0168181D03*
X1084580Y0163181D03*
X1084580Y0158181D03*
X1084580Y0153181D03*
X1084580Y0148181D03*
X1084580Y0143181D03*
X1059068Y0143181D03*
X1059068Y0148181D03*
X1059068Y0153181D03*
X1059068Y0158181D03*
X1059068Y0163181D03*
X1059068Y0168181D03*
X1059068Y0173181D03*
X1059068Y0178181D03*
X1059068Y0188181D03*
X1059068Y0193181D03*
X1059068Y0198181D03*
X1059068Y0203181D03*
X1059068Y0208181D03*
X1059068Y0213181D03*
X1059068Y0218181D03*
X1059068Y0223181D03*
X1059068Y0233181D03*
X1059068Y0238181D03*
X1059068Y0243181D03*
X1059068Y0248181D03*
X1059068Y0253181D03*
X1059068Y0258181D03*
X1059068Y0263181D03*
X1059068Y0268181D03*
X1059068Y0278181D03*
X1059068Y0283181D03*
X1059068Y0288181D03*
X1059068Y0293181D03*
X1059068Y0298181D03*
X1059068Y0303181D03*
X1059068Y0308181D03*
X1059068Y0313181D03*
X1059068Y0133181D03*
X1059068Y0128181D03*
X1059068Y0123181D03*
X1059068Y0118181D03*
X1059068Y0113181D03*
X1059068Y0108181D03*
X1059068Y0103181D03*
X1059068Y0098181D03*
X1059068Y0088181D03*
X1059068Y0083181D03*
X1059068Y0078181D03*
X1059068Y0073181D03*
X1059068Y0068181D03*
X1059068Y0063181D03*
X1059068Y0058181D03*
X1059068Y0053181D03*
X1084580Y0053181D03*
X1084580Y0058181D03*
X1084580Y0063181D03*
X1084580Y0068181D03*
X1084580Y0073181D03*
X1084580Y0078181D03*
X1084580Y0083181D03*
X1084580Y0088181D03*
X1084580Y0098181D03*
X1084580Y0103181D03*
X1084580Y0108181D03*
X1084580Y0113181D03*
X1084580Y0118181D03*
X1084580Y0123181D03*
X1084580Y0128181D03*
X1084580Y0133181D03*
D26*
X0838824Y0137925D03*
X0833824Y0137925D03*
X0828824Y0137925D03*
X0823824Y0137925D03*
X0818824Y0137925D03*
X0813824Y0137925D03*
X0808824Y0137925D03*
X0803824Y0137925D03*
X0803824Y0163437D03*
X0808824Y0163437D03*
X0813824Y0163437D03*
X0818824Y0163437D03*
X0823824Y0163437D03*
X0828824Y0163437D03*
X0833824Y0163437D03*
X0838824Y0163437D03*
X0703824Y0163437D03*
X0698824Y0163437D03*
X0693824Y0163437D03*
X0688824Y0163437D03*
X0683824Y0163437D03*
X0678824Y0163437D03*
X0673824Y0163437D03*
X0668824Y0163437D03*
X0668824Y0137925D03*
X0673824Y0137925D03*
X0678824Y0137925D03*
X0683824Y0137925D03*
X0688824Y0137925D03*
X0693824Y0137925D03*
X0698824Y0137925D03*
X0703824Y0137925D03*
X0548824Y0137925D03*
X0543824Y0137925D03*
X0538824Y0137925D03*
X0533824Y0137925D03*
X0528824Y0137925D03*
X0523824Y0137925D03*
X0518824Y0137925D03*
X0513824Y0137925D03*
X0513824Y0163437D03*
X0518824Y0163437D03*
X0523824Y0163437D03*
X0528824Y0163437D03*
X0533824Y0163437D03*
X0538824Y0163437D03*
X0543824Y0163437D03*
X0548824Y0163437D03*
X0387824Y0163437D03*
X0382824Y0163437D03*
X0377824Y0163437D03*
X0372824Y0163437D03*
X0367824Y0163437D03*
X0362824Y0163437D03*
X0357824Y0163437D03*
X0352824Y0163437D03*
X0352824Y0137925D03*
X0357824Y0137925D03*
X0362824Y0137925D03*
X0367824Y0137925D03*
X0372824Y0137925D03*
X0377824Y0137925D03*
X0382824Y0137925D03*
X0387824Y0137925D03*
X0222824Y0137925D03*
X0217824Y0137925D03*
X0212824Y0137925D03*
X0207824Y0137925D03*
X0202824Y0137925D03*
X0197824Y0137925D03*
X0192824Y0137925D03*
X0187824Y0137925D03*
X0187824Y0163437D03*
X0192824Y0163437D03*
X0197824Y0163437D03*
X0202824Y0163437D03*
X0207824Y0163437D03*
X0212824Y0163437D03*
X0217824Y0163437D03*
X0222824Y0163437D03*
D27*
X0162832Y0100910D02*
X0162832Y0098760D01*
X0162832Y0100910D02*
X0167816Y0100910D01*
X0167816Y0098760D01*
X0162832Y0098760D01*
X0162832Y0100743D02*
X0167816Y0100743D01*
X0172832Y0100910D02*
X0172832Y0098760D01*
X0172832Y0100910D02*
X0177816Y0100910D01*
X0177816Y0098760D01*
X0172832Y0098760D01*
X0172832Y0100743D02*
X0177816Y0100743D01*
X0187832Y0100910D02*
X0187832Y0098760D01*
X0187832Y0100910D02*
X0192816Y0100910D01*
X0192816Y0098760D01*
X0187832Y0098760D01*
X0187832Y0100743D02*
X0192816Y0100743D01*
X0197832Y0100910D02*
X0197832Y0098760D01*
X0197832Y0100910D02*
X0202816Y0100910D01*
X0202816Y0098760D01*
X0197832Y0098760D01*
X0197832Y0100743D02*
X0202816Y0100743D01*
X0212832Y0100910D02*
X0212832Y0098760D01*
X0212832Y0100910D02*
X0217816Y0100910D01*
X0217816Y0098760D01*
X0212832Y0098760D01*
X0212832Y0100743D02*
X0217816Y0100743D01*
X0222832Y0100910D02*
X0222832Y0098760D01*
X0222832Y0100910D02*
X0227816Y0100910D01*
X0227816Y0098760D01*
X0222832Y0098760D01*
X0222832Y0100743D02*
X0227816Y0100743D01*
X0237832Y0100910D02*
X0237832Y0098760D01*
X0237832Y0100910D02*
X0242816Y0100910D01*
X0242816Y0098760D01*
X0237832Y0098760D01*
X0237832Y0100743D02*
X0242816Y0100743D01*
X0247832Y0100910D02*
X0247832Y0098760D01*
X0247832Y0100910D02*
X0252816Y0100910D01*
X0252816Y0098760D01*
X0247832Y0098760D01*
X0247832Y0100743D02*
X0252816Y0100743D01*
X0252816Y0110453D02*
X0252816Y0112603D01*
X0252816Y0110453D02*
X0247832Y0110453D01*
X0247832Y0112603D01*
X0252816Y0112603D01*
X0252816Y0112436D02*
X0247832Y0112436D01*
X0242816Y0112603D02*
X0242816Y0110453D01*
X0237832Y0110453D01*
X0237832Y0112603D01*
X0242816Y0112603D01*
X0242816Y0112436D02*
X0237832Y0112436D01*
X0227816Y0112603D02*
X0227816Y0110453D01*
X0222832Y0110453D01*
X0222832Y0112603D01*
X0227816Y0112603D01*
X0227816Y0112436D02*
X0222832Y0112436D01*
X0217816Y0112603D02*
X0217816Y0110453D01*
X0212832Y0110453D01*
X0212832Y0112603D01*
X0217816Y0112603D01*
X0217816Y0112436D02*
X0212832Y0112436D01*
X0202816Y0112603D02*
X0202816Y0110453D01*
X0197832Y0110453D01*
X0197832Y0112603D01*
X0202816Y0112603D01*
X0202816Y0112436D02*
X0197832Y0112436D01*
X0192816Y0112603D02*
X0192816Y0110453D01*
X0187832Y0110453D01*
X0187832Y0112603D01*
X0192816Y0112603D01*
X0192816Y0112436D02*
X0187832Y0112436D01*
X0177816Y0112603D02*
X0177816Y0110453D01*
X0172832Y0110453D01*
X0172832Y0112603D01*
X0177816Y0112603D01*
X0177816Y0112436D02*
X0172832Y0112436D01*
X0167816Y0112603D02*
X0167816Y0110453D01*
X0162832Y0110453D01*
X0162832Y0112603D01*
X0167816Y0112603D01*
X0167816Y0112436D02*
X0162832Y0112436D01*
X0332816Y0112603D02*
X0332816Y0110453D01*
X0327832Y0110453D01*
X0327832Y0112603D01*
X0332816Y0112603D01*
X0332816Y0112436D02*
X0327832Y0112436D01*
X0342816Y0112603D02*
X0342816Y0110453D01*
X0337832Y0110453D01*
X0337832Y0112603D01*
X0342816Y0112603D01*
X0342816Y0112436D02*
X0337832Y0112436D01*
X0357816Y0112603D02*
X0357816Y0110453D01*
X0352832Y0110453D01*
X0352832Y0112603D01*
X0357816Y0112603D01*
X0357816Y0112436D02*
X0352832Y0112436D01*
X0367816Y0112603D02*
X0367816Y0110453D01*
X0362832Y0110453D01*
X0362832Y0112603D01*
X0367816Y0112603D01*
X0367816Y0112436D02*
X0362832Y0112436D01*
X0382816Y0112603D02*
X0382816Y0110453D01*
X0377832Y0110453D01*
X0377832Y0112603D01*
X0382816Y0112603D01*
X0382816Y0112436D02*
X0377832Y0112436D01*
X0392816Y0112603D02*
X0392816Y0110453D01*
X0387832Y0110453D01*
X0387832Y0112603D01*
X0392816Y0112603D01*
X0392816Y0112436D02*
X0387832Y0112436D01*
X0407816Y0112603D02*
X0407816Y0110453D01*
X0402832Y0110453D01*
X0402832Y0112603D01*
X0407816Y0112603D01*
X0407816Y0112436D02*
X0402832Y0112436D01*
X0417816Y0112603D02*
X0417816Y0110453D01*
X0412832Y0110453D01*
X0412832Y0112603D01*
X0417816Y0112603D01*
X0417816Y0112436D02*
X0412832Y0112436D01*
X0412832Y0100910D02*
X0412832Y0098760D01*
X0412832Y0100910D02*
X0417816Y0100910D01*
X0417816Y0098760D01*
X0412832Y0098760D01*
X0412832Y0100743D02*
X0417816Y0100743D01*
X0402832Y0100910D02*
X0402832Y0098760D01*
X0402832Y0100910D02*
X0407816Y0100910D01*
X0407816Y0098760D01*
X0402832Y0098760D01*
X0402832Y0100743D02*
X0407816Y0100743D01*
X0387832Y0100910D02*
X0387832Y0098760D01*
X0387832Y0100910D02*
X0392816Y0100910D01*
X0392816Y0098760D01*
X0387832Y0098760D01*
X0387832Y0100743D02*
X0392816Y0100743D01*
X0377832Y0100910D02*
X0377832Y0098760D01*
X0377832Y0100910D02*
X0382816Y0100910D01*
X0382816Y0098760D01*
X0377832Y0098760D01*
X0377832Y0100743D02*
X0382816Y0100743D01*
X0362832Y0100910D02*
X0362832Y0098760D01*
X0362832Y0100910D02*
X0367816Y0100910D01*
X0367816Y0098760D01*
X0362832Y0098760D01*
X0362832Y0100743D02*
X0367816Y0100743D01*
X0352832Y0100910D02*
X0352832Y0098760D01*
X0352832Y0100910D02*
X0357816Y0100910D01*
X0357816Y0098760D01*
X0352832Y0098760D01*
X0352832Y0100743D02*
X0357816Y0100743D01*
X0337832Y0100910D02*
X0337832Y0098760D01*
X0337832Y0100910D02*
X0342816Y0100910D01*
X0342816Y0098760D01*
X0337832Y0098760D01*
X0337832Y0100743D02*
X0342816Y0100743D01*
X0327832Y0100910D02*
X0327832Y0098760D01*
X0327832Y0100910D02*
X0332816Y0100910D01*
X0332816Y0098760D01*
X0327832Y0098760D01*
X0327832Y0100743D02*
X0332816Y0100743D01*
X0487832Y0100910D02*
X0487832Y0098760D01*
X0487832Y0100910D02*
X0492816Y0100910D01*
X0492816Y0098760D01*
X0487832Y0098760D01*
X0487832Y0100743D02*
X0492816Y0100743D01*
X0497832Y0100910D02*
X0497832Y0098760D01*
X0497832Y0100910D02*
X0502816Y0100910D01*
X0502816Y0098760D01*
X0497832Y0098760D01*
X0497832Y0100743D02*
X0502816Y0100743D01*
X0512832Y0100910D02*
X0512832Y0098760D01*
X0512832Y0100910D02*
X0517816Y0100910D01*
X0517816Y0098760D01*
X0512832Y0098760D01*
X0512832Y0100743D02*
X0517816Y0100743D01*
X0522832Y0100910D02*
X0522832Y0098760D01*
X0522832Y0100910D02*
X0527816Y0100910D01*
X0527816Y0098760D01*
X0522832Y0098760D01*
X0522832Y0100743D02*
X0527816Y0100743D01*
X0537832Y0100910D02*
X0537832Y0098760D01*
X0537832Y0100910D02*
X0542816Y0100910D01*
X0542816Y0098760D01*
X0537832Y0098760D01*
X0537832Y0100743D02*
X0542816Y0100743D01*
X0547832Y0100910D02*
X0547832Y0098760D01*
X0547832Y0100910D02*
X0552816Y0100910D01*
X0552816Y0098760D01*
X0547832Y0098760D01*
X0547832Y0100743D02*
X0552816Y0100743D01*
X0562832Y0100910D02*
X0562832Y0098760D01*
X0562832Y0100910D02*
X0567816Y0100910D01*
X0567816Y0098760D01*
X0562832Y0098760D01*
X0562832Y0100743D02*
X0567816Y0100743D01*
X0572832Y0100910D02*
X0572832Y0098760D01*
X0572832Y0100910D02*
X0577816Y0100910D01*
X0577816Y0098760D01*
X0572832Y0098760D01*
X0572832Y0100743D02*
X0577816Y0100743D01*
X0577816Y0110453D02*
X0577816Y0112603D01*
X0577816Y0110453D02*
X0572832Y0110453D01*
X0572832Y0112603D01*
X0577816Y0112603D01*
X0577816Y0112436D02*
X0572832Y0112436D01*
X0567816Y0112603D02*
X0567816Y0110453D01*
X0562832Y0110453D01*
X0562832Y0112603D01*
X0567816Y0112603D01*
X0567816Y0112436D02*
X0562832Y0112436D01*
X0552816Y0112603D02*
X0552816Y0110453D01*
X0547832Y0110453D01*
X0547832Y0112603D01*
X0552816Y0112603D01*
X0552816Y0112436D02*
X0547832Y0112436D01*
X0542816Y0112603D02*
X0542816Y0110453D01*
X0537832Y0110453D01*
X0537832Y0112603D01*
X0542816Y0112603D01*
X0542816Y0112436D02*
X0537832Y0112436D01*
X0527816Y0112603D02*
X0527816Y0110453D01*
X0522832Y0110453D01*
X0522832Y0112603D01*
X0527816Y0112603D01*
X0527816Y0112436D02*
X0522832Y0112436D01*
X0517816Y0112603D02*
X0517816Y0110453D01*
X0512832Y0110453D01*
X0512832Y0112603D01*
X0517816Y0112603D01*
X0517816Y0112436D02*
X0512832Y0112436D01*
X0502816Y0112603D02*
X0502816Y0110453D01*
X0497832Y0110453D01*
X0497832Y0112603D01*
X0502816Y0112603D01*
X0502816Y0112436D02*
X0497832Y0112436D01*
X0492816Y0112603D02*
X0492816Y0110453D01*
X0487832Y0110453D01*
X0487832Y0112603D01*
X0492816Y0112603D01*
X0492816Y0112436D02*
X0487832Y0112436D01*
X0647816Y0112603D02*
X0647816Y0110453D01*
X0642832Y0110453D01*
X0642832Y0112603D01*
X0647816Y0112603D01*
X0647816Y0112436D02*
X0642832Y0112436D01*
X0657816Y0112603D02*
X0657816Y0110453D01*
X0652832Y0110453D01*
X0652832Y0112603D01*
X0657816Y0112603D01*
X0657816Y0112436D02*
X0652832Y0112436D01*
X0672816Y0112603D02*
X0672816Y0110453D01*
X0667832Y0110453D01*
X0667832Y0112603D01*
X0672816Y0112603D01*
X0672816Y0112436D02*
X0667832Y0112436D01*
X0682816Y0112603D02*
X0682816Y0110453D01*
X0677832Y0110453D01*
X0677832Y0112603D01*
X0682816Y0112603D01*
X0682816Y0112436D02*
X0677832Y0112436D01*
X0697816Y0112603D02*
X0697816Y0110453D01*
X0692832Y0110453D01*
X0692832Y0112603D01*
X0697816Y0112603D01*
X0697816Y0112436D02*
X0692832Y0112436D01*
X0707816Y0112603D02*
X0707816Y0110453D01*
X0702832Y0110453D01*
X0702832Y0112603D01*
X0707816Y0112603D01*
X0707816Y0112436D02*
X0702832Y0112436D01*
X0722816Y0112603D02*
X0722816Y0110453D01*
X0717832Y0110453D01*
X0717832Y0112603D01*
X0722816Y0112603D01*
X0722816Y0112436D02*
X0717832Y0112436D01*
X0732816Y0112603D02*
X0732816Y0110453D01*
X0727832Y0110453D01*
X0727832Y0112603D01*
X0732816Y0112603D01*
X0732816Y0112436D02*
X0727832Y0112436D01*
X0727832Y0100910D02*
X0727832Y0098760D01*
X0727832Y0100910D02*
X0732816Y0100910D01*
X0732816Y0098760D01*
X0727832Y0098760D01*
X0727832Y0100743D02*
X0732816Y0100743D01*
X0717832Y0100910D02*
X0717832Y0098760D01*
X0717832Y0100910D02*
X0722816Y0100910D01*
X0722816Y0098760D01*
X0717832Y0098760D01*
X0717832Y0100743D02*
X0722816Y0100743D01*
X0702832Y0100910D02*
X0702832Y0098760D01*
X0702832Y0100910D02*
X0707816Y0100910D01*
X0707816Y0098760D01*
X0702832Y0098760D01*
X0702832Y0100743D02*
X0707816Y0100743D01*
X0692832Y0100910D02*
X0692832Y0098760D01*
X0692832Y0100910D02*
X0697816Y0100910D01*
X0697816Y0098760D01*
X0692832Y0098760D01*
X0692832Y0100743D02*
X0697816Y0100743D01*
X0677832Y0100910D02*
X0677832Y0098760D01*
X0677832Y0100910D02*
X0682816Y0100910D01*
X0682816Y0098760D01*
X0677832Y0098760D01*
X0677832Y0100743D02*
X0682816Y0100743D01*
X0667832Y0100910D02*
X0667832Y0098760D01*
X0667832Y0100910D02*
X0672816Y0100910D01*
X0672816Y0098760D01*
X0667832Y0098760D01*
X0667832Y0100743D02*
X0672816Y0100743D01*
X0652832Y0100910D02*
X0652832Y0098760D01*
X0652832Y0100910D02*
X0657816Y0100910D01*
X0657816Y0098760D01*
X0652832Y0098760D01*
X0652832Y0100743D02*
X0657816Y0100743D01*
X0642832Y0100910D02*
X0642832Y0098760D01*
X0642832Y0100910D02*
X0647816Y0100910D01*
X0647816Y0098760D01*
X0642832Y0098760D01*
X0642832Y0100743D02*
X0647816Y0100743D01*
X0777832Y0100910D02*
X0777832Y0098760D01*
X0777832Y0100910D02*
X0782816Y0100910D01*
X0782816Y0098760D01*
X0777832Y0098760D01*
X0777832Y0100743D02*
X0782816Y0100743D01*
X0787832Y0100910D02*
X0787832Y0098760D01*
X0787832Y0100910D02*
X0792816Y0100910D01*
X0792816Y0098760D01*
X0787832Y0098760D01*
X0787832Y0100743D02*
X0792816Y0100743D01*
X0802832Y0100910D02*
X0802832Y0098760D01*
X0802832Y0100910D02*
X0807816Y0100910D01*
X0807816Y0098760D01*
X0802832Y0098760D01*
X0802832Y0100743D02*
X0807816Y0100743D01*
X0812832Y0100910D02*
X0812832Y0098760D01*
X0812832Y0100910D02*
X0817816Y0100910D01*
X0817816Y0098760D01*
X0812832Y0098760D01*
X0812832Y0100743D02*
X0817816Y0100743D01*
X0827832Y0100910D02*
X0827832Y0098760D01*
X0827832Y0100910D02*
X0832816Y0100910D01*
X0832816Y0098760D01*
X0827832Y0098760D01*
X0827832Y0100743D02*
X0832816Y0100743D01*
X0837832Y0100910D02*
X0837832Y0098760D01*
X0837832Y0100910D02*
X0842816Y0100910D01*
X0842816Y0098760D01*
X0837832Y0098760D01*
X0837832Y0100743D02*
X0842816Y0100743D01*
X0852832Y0100910D02*
X0852832Y0098760D01*
X0852832Y0100910D02*
X0857816Y0100910D01*
X0857816Y0098760D01*
X0852832Y0098760D01*
X0852832Y0100743D02*
X0857816Y0100743D01*
X0862832Y0100910D02*
X0862832Y0098760D01*
X0862832Y0100910D02*
X0867816Y0100910D01*
X0867816Y0098760D01*
X0862832Y0098760D01*
X0862832Y0100743D02*
X0867816Y0100743D01*
X0867816Y0110453D02*
X0867816Y0112603D01*
X0867816Y0110453D02*
X0862832Y0110453D01*
X0862832Y0112603D01*
X0867816Y0112603D01*
X0867816Y0112436D02*
X0862832Y0112436D01*
X0857816Y0112603D02*
X0857816Y0110453D01*
X0852832Y0110453D01*
X0852832Y0112603D01*
X0857816Y0112603D01*
X0857816Y0112436D02*
X0852832Y0112436D01*
X0842816Y0112603D02*
X0842816Y0110453D01*
X0837832Y0110453D01*
X0837832Y0112603D01*
X0842816Y0112603D01*
X0842816Y0112436D02*
X0837832Y0112436D01*
X0832816Y0112603D02*
X0832816Y0110453D01*
X0827832Y0110453D01*
X0827832Y0112603D01*
X0832816Y0112603D01*
X0832816Y0112436D02*
X0827832Y0112436D01*
X0817816Y0112603D02*
X0817816Y0110453D01*
X0812832Y0110453D01*
X0812832Y0112603D01*
X0817816Y0112603D01*
X0817816Y0112436D02*
X0812832Y0112436D01*
X0807816Y0112603D02*
X0807816Y0110453D01*
X0802832Y0110453D01*
X0802832Y0112603D01*
X0807816Y0112603D01*
X0807816Y0112436D02*
X0802832Y0112436D01*
X0792816Y0112603D02*
X0792816Y0110453D01*
X0787832Y0110453D01*
X0787832Y0112603D01*
X0792816Y0112603D01*
X0792816Y0112436D02*
X0787832Y0112436D01*
X0782816Y0112603D02*
X0782816Y0110453D01*
X0777832Y0110453D01*
X0777832Y0112603D01*
X0782816Y0112603D01*
X0782816Y0112436D02*
X0777832Y0112436D01*
X0941970Y0115760D02*
X0941970Y0117910D01*
X0946954Y0117910D01*
X0946954Y0115760D01*
X0941970Y0115760D01*
X0941970Y0117743D02*
X0946954Y0117743D01*
X0946954Y0127453D02*
X0946954Y0129603D01*
X0946954Y0127453D02*
X0941970Y0127453D01*
X0941970Y0129603D01*
X0946954Y0129603D01*
X0946954Y0129436D02*
X0941970Y0129436D01*
X0959694Y0346173D02*
X0961844Y0346173D01*
X0961844Y0341189D01*
X0959694Y0341189D01*
X0959694Y0346173D01*
X0959694Y0343172D02*
X0961844Y0343172D01*
X0961844Y0345155D02*
X0959694Y0345155D01*
X0971387Y0341189D02*
X0973537Y0341189D01*
X0971387Y0341189D02*
X0971387Y0346173D01*
X0973537Y0346173D01*
X0973537Y0341189D01*
X0973537Y0343172D02*
X0971387Y0343172D01*
X0971387Y0345155D02*
X0973537Y0345155D01*
X1098293Y0352567D02*
X1098293Y0354717D01*
X1103277Y0354717D01*
X1103277Y0352567D01*
X1098293Y0352567D01*
X1098293Y0354550D02*
X1103277Y0354550D01*
X1103277Y0364260D02*
X1103277Y0366410D01*
X1103277Y0364260D02*
X1098293Y0364260D01*
X1098293Y0366410D01*
X1103277Y0366410D01*
X1103277Y0366243D02*
X1098293Y0366243D01*
X0575316Y0368453D02*
X0575316Y0370603D01*
X0575316Y0368453D02*
X0570332Y0368453D01*
X0570332Y0370603D01*
X0575316Y0370603D01*
X0575316Y0370436D02*
X0570332Y0370436D01*
X0570332Y0358910D02*
X0570332Y0356760D01*
X0570332Y0358910D02*
X0575316Y0358910D01*
X0575316Y0356760D01*
X0570332Y0356760D01*
X0570332Y0358743D02*
X0575316Y0358743D01*
X0530332Y0358910D02*
X0530332Y0356760D01*
X0530332Y0358910D02*
X0535316Y0358910D01*
X0535316Y0356760D01*
X0530332Y0356760D01*
X0530332Y0358743D02*
X0535316Y0358743D01*
X0535316Y0368453D02*
X0535316Y0370603D01*
X0535316Y0368453D02*
X0530332Y0368453D01*
X0530332Y0370603D01*
X0535316Y0370603D01*
X0535316Y0370436D02*
X0530332Y0370436D01*
X0495316Y0370603D02*
X0495316Y0368453D01*
X0490332Y0368453D01*
X0490332Y0370603D01*
X0495316Y0370603D01*
X0495316Y0370436D02*
X0490332Y0370436D01*
X0490332Y0358910D02*
X0490332Y0356760D01*
X0490332Y0358910D02*
X0495316Y0358910D01*
X0495316Y0356760D01*
X0490332Y0356760D01*
X0490332Y0358743D02*
X0495316Y0358743D01*
X0450332Y0358910D02*
X0450332Y0356760D01*
X0450332Y0358910D02*
X0455316Y0358910D01*
X0455316Y0356760D01*
X0450332Y0356760D01*
X0450332Y0358743D02*
X0455316Y0358743D01*
X0455316Y0368453D02*
X0455316Y0370603D01*
X0455316Y0368453D02*
X0450332Y0368453D01*
X0450332Y0370603D01*
X0455316Y0370603D01*
X0455316Y0370436D02*
X0450332Y0370436D01*
X0415316Y0370603D02*
X0415316Y0368453D01*
X0410332Y0368453D01*
X0410332Y0370603D01*
X0415316Y0370603D01*
X0415316Y0370436D02*
X0410332Y0370436D01*
X0410332Y0358910D02*
X0410332Y0356760D01*
X0410332Y0358910D02*
X0415316Y0358910D01*
X0415316Y0356760D01*
X0410332Y0356760D01*
X0410332Y0358743D02*
X0415316Y0358743D01*
X0370332Y0358910D02*
X0370332Y0356760D01*
X0370332Y0358910D02*
X0375316Y0358910D01*
X0375316Y0356760D01*
X0370332Y0356760D01*
X0370332Y0358743D02*
X0375316Y0358743D01*
X0375316Y0368453D02*
X0375316Y0370603D01*
X0375316Y0368453D02*
X0370332Y0368453D01*
X0370332Y0370603D01*
X0375316Y0370603D01*
X0375316Y0370436D02*
X0370332Y0370436D01*
X0335316Y0370603D02*
X0335316Y0368453D01*
X0330332Y0368453D01*
X0330332Y0370603D01*
X0335316Y0370603D01*
X0335316Y0370436D02*
X0330332Y0370436D01*
X0330332Y0358910D02*
X0330332Y0356760D01*
X0330332Y0358910D02*
X0335316Y0358910D01*
X0335316Y0356760D01*
X0330332Y0356760D01*
X0330332Y0358743D02*
X0335316Y0358743D01*
X0290332Y0358910D02*
X0290332Y0356760D01*
X0290332Y0358910D02*
X0295316Y0358910D01*
X0295316Y0356760D01*
X0290332Y0356760D01*
X0290332Y0358743D02*
X0295316Y0358743D01*
X0295316Y0368453D02*
X0295316Y0370603D01*
X0295316Y0368453D02*
X0290332Y0368453D01*
X0290332Y0370603D01*
X0295316Y0370603D01*
X0295316Y0370436D02*
X0290332Y0370436D01*
X0255316Y0370603D02*
X0255316Y0368453D01*
X0250332Y0368453D01*
X0250332Y0370603D01*
X0255316Y0370603D01*
X0255316Y0370436D02*
X0250332Y0370436D01*
X0250332Y0358910D02*
X0250332Y0356760D01*
X0250332Y0358910D02*
X0255316Y0358910D01*
X0255316Y0356760D01*
X0250332Y0356760D01*
X0250332Y0358743D02*
X0255316Y0358743D01*
X0210332Y0358910D02*
X0210332Y0356760D01*
X0210332Y0358910D02*
X0215316Y0358910D01*
X0215316Y0356760D01*
X0210332Y0356760D01*
X0210332Y0358743D02*
X0215316Y0358743D01*
X0215316Y0368453D02*
X0215316Y0370603D01*
X0215316Y0368453D02*
X0210332Y0368453D01*
X0210332Y0370603D01*
X0215316Y0370603D01*
X0215316Y0370436D02*
X0210332Y0370436D01*
X0175316Y0370603D02*
X0175316Y0368453D01*
X0170332Y0368453D01*
X0170332Y0370603D01*
X0175316Y0370603D01*
X0175316Y0370436D02*
X0170332Y0370436D01*
X0170332Y0358910D02*
X0170332Y0356760D01*
X0170332Y0358910D02*
X0175316Y0358910D01*
X0175316Y0356760D01*
X0170332Y0356760D01*
X0170332Y0358743D02*
X0175316Y0358743D01*
X0130332Y0358910D02*
X0130332Y0356760D01*
X0130332Y0358910D02*
X0135316Y0358910D01*
X0135316Y0356760D01*
X0130332Y0356760D01*
X0130332Y0358743D02*
X0135316Y0358743D01*
X0135316Y0368453D02*
X0135316Y0370603D01*
X0135316Y0368453D02*
X0130332Y0368453D01*
X0130332Y0370603D01*
X0135316Y0370603D01*
X0135316Y0370436D02*
X0130332Y0370436D01*
D28*
X0124856Y0358548D02*
X0124856Y0356760D01*
X0122792Y0356760D01*
X0122792Y0358548D01*
X0124856Y0358548D01*
X0124856Y0358476D02*
X0122792Y0358476D01*
X0122792Y0352603D02*
X0122792Y0350815D01*
X0122792Y0352603D02*
X0124856Y0352603D01*
X0124856Y0350815D01*
X0122792Y0350815D01*
X0122792Y0352531D02*
X0124856Y0352531D01*
X0100828Y0357149D02*
X0099040Y0357149D01*
X0099040Y0359213D01*
X0100828Y0359213D01*
X0100828Y0357149D01*
X0100828Y0358865D02*
X0099040Y0358865D01*
X0094883Y0359213D02*
X0093095Y0359213D01*
X0094883Y0359213D02*
X0094883Y0357149D01*
X0093095Y0357149D01*
X0093095Y0359213D01*
X0093095Y0358865D02*
X0094883Y0358865D01*
X0164856Y0358548D02*
X0164856Y0356760D01*
X0162792Y0356760D01*
X0162792Y0358548D01*
X0164856Y0358548D01*
X0164856Y0358476D02*
X0162792Y0358476D01*
X0162792Y0352603D02*
X0162792Y0350815D01*
X0162792Y0352603D02*
X0164856Y0352603D01*
X0164856Y0350815D01*
X0162792Y0350815D01*
X0162792Y0352531D02*
X0164856Y0352531D01*
X0202792Y0352603D02*
X0202792Y0350815D01*
X0202792Y0352603D02*
X0204856Y0352603D01*
X0204856Y0350815D01*
X0202792Y0350815D01*
X0202792Y0352531D02*
X0204856Y0352531D01*
X0204856Y0356760D02*
X0204856Y0358548D01*
X0204856Y0356760D02*
X0202792Y0356760D01*
X0202792Y0358548D01*
X0204856Y0358548D01*
X0204856Y0358476D02*
X0202792Y0358476D01*
X0244856Y0358548D02*
X0244856Y0356760D01*
X0242792Y0356760D01*
X0242792Y0358548D01*
X0244856Y0358548D01*
X0244856Y0358476D02*
X0242792Y0358476D01*
X0242792Y0352603D02*
X0242792Y0350815D01*
X0242792Y0352603D02*
X0244856Y0352603D01*
X0244856Y0350815D01*
X0242792Y0350815D01*
X0242792Y0352531D02*
X0244856Y0352531D01*
X0282792Y0351603D02*
X0282792Y0349815D01*
X0282792Y0351603D02*
X0284856Y0351603D01*
X0284856Y0349815D01*
X0282792Y0349815D01*
X0282792Y0351531D02*
X0284856Y0351531D01*
X0284856Y0355760D02*
X0284856Y0357548D01*
X0284856Y0355760D02*
X0282792Y0355760D01*
X0282792Y0357548D01*
X0284856Y0357548D01*
X0284856Y0357476D02*
X0282792Y0357476D01*
X0324856Y0356760D02*
X0324856Y0358548D01*
X0324856Y0356760D02*
X0322792Y0356760D01*
X0322792Y0358548D01*
X0324856Y0358548D01*
X0324856Y0358476D02*
X0322792Y0358476D01*
X0322792Y0352603D02*
X0322792Y0350815D01*
X0322792Y0352603D02*
X0324856Y0352603D01*
X0324856Y0350815D01*
X0322792Y0350815D01*
X0322792Y0352531D02*
X0324856Y0352531D01*
X0362792Y0352603D02*
X0362792Y0350815D01*
X0362792Y0352603D02*
X0364856Y0352603D01*
X0364856Y0350815D01*
X0362792Y0350815D01*
X0362792Y0352531D02*
X0364856Y0352531D01*
X0364856Y0356760D02*
X0364856Y0358548D01*
X0364856Y0356760D02*
X0362792Y0356760D01*
X0362792Y0358548D01*
X0364856Y0358548D01*
X0364856Y0358476D02*
X0362792Y0358476D01*
X0404856Y0358548D02*
X0404856Y0356760D01*
X0402792Y0356760D01*
X0402792Y0358548D01*
X0404856Y0358548D01*
X0404856Y0358476D02*
X0402792Y0358476D01*
X0402792Y0352603D02*
X0402792Y0350815D01*
X0402792Y0352603D02*
X0404856Y0352603D01*
X0404856Y0350815D01*
X0402792Y0350815D01*
X0402792Y0352531D02*
X0404856Y0352531D01*
X0442792Y0352603D02*
X0442792Y0350815D01*
X0442792Y0352603D02*
X0444856Y0352603D01*
X0444856Y0350815D01*
X0442792Y0350815D01*
X0442792Y0352531D02*
X0444856Y0352531D01*
X0444856Y0356760D02*
X0444856Y0358548D01*
X0444856Y0356760D02*
X0442792Y0356760D01*
X0442792Y0358548D01*
X0444856Y0358548D01*
X0444856Y0358476D02*
X0442792Y0358476D01*
X0484856Y0358548D02*
X0484856Y0356760D01*
X0482792Y0356760D01*
X0482792Y0358548D01*
X0484856Y0358548D01*
X0484856Y0358476D02*
X0482792Y0358476D01*
X0482792Y0352603D02*
X0482792Y0350815D01*
X0482792Y0352603D02*
X0484856Y0352603D01*
X0484856Y0350815D01*
X0482792Y0350815D01*
X0482792Y0352531D02*
X0484856Y0352531D01*
X0522792Y0352603D02*
X0522792Y0350815D01*
X0522792Y0352603D02*
X0524856Y0352603D01*
X0524856Y0350815D01*
X0522792Y0350815D01*
X0522792Y0352531D02*
X0524856Y0352531D01*
X0524856Y0356760D02*
X0524856Y0358548D01*
X0524856Y0356760D02*
X0522792Y0356760D01*
X0522792Y0358548D01*
X0524856Y0358548D01*
X0524856Y0358476D02*
X0522792Y0358476D01*
X0564856Y0358548D02*
X0564856Y0356760D01*
X0562792Y0356760D01*
X0562792Y0358548D01*
X0564856Y0358548D01*
X0564856Y0358476D02*
X0562792Y0358476D01*
X0562792Y0352603D02*
X0562792Y0350815D01*
X0562792Y0352603D02*
X0564856Y0352603D01*
X0564856Y0350815D01*
X0562792Y0350815D01*
X0562792Y0352531D02*
X0564856Y0352531D01*
X0568994Y0332048D02*
X0568994Y0330260D01*
X0566930Y0330260D01*
X0566930Y0332048D01*
X0568994Y0332048D01*
X0568994Y0331976D02*
X0566930Y0331976D01*
X0556994Y0332048D02*
X0556994Y0330260D01*
X0554930Y0330260D01*
X0554930Y0332048D01*
X0556994Y0332048D01*
X0556994Y0331976D02*
X0554930Y0331976D01*
X0544994Y0332048D02*
X0544994Y0330260D01*
X0542930Y0330260D01*
X0542930Y0332048D01*
X0544994Y0332048D01*
X0544994Y0331976D02*
X0542930Y0331976D01*
X0531994Y0332048D02*
X0531994Y0330260D01*
X0529930Y0330260D01*
X0529930Y0332048D01*
X0531994Y0332048D01*
X0531994Y0331976D02*
X0529930Y0331976D01*
X0529930Y0326103D02*
X0529930Y0324315D01*
X0529930Y0326103D02*
X0531994Y0326103D01*
X0531994Y0324315D01*
X0529930Y0324315D01*
X0529930Y0326031D02*
X0531994Y0326031D01*
X0542930Y0326103D02*
X0542930Y0324315D01*
X0542930Y0326103D02*
X0544994Y0326103D01*
X0544994Y0324315D01*
X0542930Y0324315D01*
X0542930Y0326031D02*
X0544994Y0326031D01*
X0554930Y0326103D02*
X0554930Y0324315D01*
X0554930Y0326103D02*
X0556994Y0326103D01*
X0556994Y0324315D01*
X0554930Y0324315D01*
X0554930Y0326031D02*
X0556994Y0326031D01*
X0566930Y0326103D02*
X0566930Y0324315D01*
X0566930Y0326103D02*
X0568994Y0326103D01*
X0568994Y0324315D01*
X0566930Y0324315D01*
X0566930Y0326031D02*
X0568994Y0326031D01*
X0578930Y0326103D02*
X0578930Y0324315D01*
X0578930Y0326103D02*
X0580994Y0326103D01*
X0580994Y0324315D01*
X0578930Y0324315D01*
X0578930Y0326031D02*
X0580994Y0326031D01*
X0590930Y0326103D02*
X0590930Y0324315D01*
X0590930Y0326103D02*
X0592994Y0326103D01*
X0592994Y0324315D01*
X0590930Y0324315D01*
X0590930Y0326031D02*
X0592994Y0326031D01*
X0592994Y0330260D02*
X0592994Y0332048D01*
X0592994Y0330260D02*
X0590930Y0330260D01*
X0590930Y0332048D01*
X0592994Y0332048D01*
X0592994Y0331976D02*
X0590930Y0331976D01*
X0580994Y0332048D02*
X0580994Y0330260D01*
X0578930Y0330260D01*
X0578930Y0332048D01*
X0580994Y0332048D01*
X0580994Y0331976D02*
X0578930Y0331976D01*
X0628095Y0309213D02*
X0629883Y0309213D01*
X0629883Y0307149D01*
X0628095Y0307149D01*
X0628095Y0309213D01*
X0628095Y0308865D02*
X0629883Y0308865D01*
X0634040Y0307149D02*
X0635828Y0307149D01*
X0634040Y0307149D02*
X0634040Y0309213D01*
X0635828Y0309213D01*
X0635828Y0307149D01*
X0635828Y0308865D02*
X0634040Y0308865D01*
X0633902Y0286649D02*
X0635690Y0286649D01*
X0633902Y0286649D02*
X0633902Y0288713D01*
X0635690Y0288713D01*
X0635690Y0286649D01*
X0635690Y0288365D02*
X0633902Y0288365D01*
X0629746Y0288713D02*
X0627958Y0288713D01*
X0629746Y0288713D02*
X0629746Y0286649D01*
X0627958Y0286649D01*
X0627958Y0288713D01*
X0627958Y0288365D02*
X0629746Y0288365D01*
X0531690Y0286649D02*
X0529902Y0286649D01*
X0529902Y0288713D01*
X0531690Y0288713D01*
X0531690Y0286649D01*
X0531690Y0288365D02*
X0529902Y0288365D01*
X0525746Y0288713D02*
X0523958Y0288713D01*
X0525746Y0288713D02*
X0525746Y0286649D01*
X0523958Y0286649D01*
X0523958Y0288713D01*
X0523958Y0288365D02*
X0525746Y0288365D01*
X0525746Y0276713D02*
X0523958Y0276713D01*
X0525746Y0276713D02*
X0525746Y0274649D01*
X0523958Y0274649D01*
X0523958Y0276713D01*
X0523958Y0276365D02*
X0525746Y0276365D01*
X0529902Y0274649D02*
X0531690Y0274649D01*
X0529902Y0274649D02*
X0529902Y0276713D01*
X0531690Y0276713D01*
X0531690Y0274649D01*
X0531690Y0276365D02*
X0529902Y0276365D01*
X0529902Y0262649D02*
X0531690Y0262649D01*
X0529902Y0262649D02*
X0529902Y0264713D01*
X0531690Y0264713D01*
X0531690Y0262649D01*
X0531690Y0264365D02*
X0529902Y0264365D01*
X0525746Y0264713D02*
X0523958Y0264713D01*
X0525746Y0264713D02*
X0525746Y0262649D01*
X0523958Y0262649D01*
X0523958Y0264713D01*
X0523958Y0264365D02*
X0525746Y0264365D01*
X0525746Y0252713D02*
X0523958Y0252713D01*
X0525746Y0252713D02*
X0525746Y0250649D01*
X0523958Y0250649D01*
X0523958Y0252713D01*
X0523958Y0252365D02*
X0525746Y0252365D01*
X0529902Y0250649D02*
X0531690Y0250649D01*
X0529902Y0250649D02*
X0529902Y0252713D01*
X0531690Y0252713D01*
X0531690Y0250649D01*
X0531690Y0252365D02*
X0529902Y0252365D01*
X0529902Y0238649D02*
X0531690Y0238649D01*
X0529902Y0238649D02*
X0529902Y0240713D01*
X0531690Y0240713D01*
X0531690Y0238649D01*
X0531690Y0240365D02*
X0529902Y0240365D01*
X0525746Y0240713D02*
X0523958Y0240713D01*
X0525746Y0240713D02*
X0525746Y0238649D01*
X0523958Y0238649D01*
X0523958Y0240713D01*
X0523958Y0240365D02*
X0525746Y0240365D01*
X0421930Y0240315D02*
X0421930Y0242103D01*
X0423994Y0242103D01*
X0423994Y0240315D01*
X0421930Y0240315D01*
X0421930Y0242031D02*
X0423994Y0242031D01*
X0423994Y0246260D02*
X0423994Y0248048D01*
X0423994Y0246260D02*
X0421930Y0246260D01*
X0421930Y0248048D01*
X0423994Y0248048D01*
X0423994Y0247976D02*
X0421930Y0247976D01*
X0417994Y0248048D02*
X0417994Y0246260D01*
X0415930Y0246260D01*
X0415930Y0248048D01*
X0417994Y0248048D01*
X0417994Y0247976D02*
X0415930Y0247976D01*
X0411994Y0248048D02*
X0411994Y0246260D01*
X0409930Y0246260D01*
X0409930Y0248048D01*
X0411994Y0248048D01*
X0411994Y0247976D02*
X0409930Y0247976D01*
X0409930Y0242103D02*
X0409930Y0240315D01*
X0409930Y0242103D02*
X0411994Y0242103D01*
X0411994Y0240315D01*
X0409930Y0240315D01*
X0409930Y0242031D02*
X0411994Y0242031D01*
X0415930Y0242103D02*
X0415930Y0240315D01*
X0415930Y0242103D02*
X0417994Y0242103D01*
X0417994Y0240315D01*
X0415930Y0240315D01*
X0415930Y0242031D02*
X0417994Y0242031D01*
X0419792Y0291815D02*
X0419792Y0293603D01*
X0421856Y0293603D01*
X0421856Y0291815D01*
X0419792Y0291815D01*
X0419792Y0293531D02*
X0421856Y0293531D01*
X0425792Y0293603D02*
X0425792Y0291815D01*
X0425792Y0293603D02*
X0427856Y0293603D01*
X0427856Y0291815D01*
X0425792Y0291815D01*
X0425792Y0293531D02*
X0427856Y0293531D01*
X0431792Y0293603D02*
X0431792Y0291815D01*
X0431792Y0293603D02*
X0433856Y0293603D01*
X0433856Y0291815D01*
X0431792Y0291815D01*
X0431792Y0293531D02*
X0433856Y0293531D01*
X0433856Y0297760D02*
X0433856Y0299548D01*
X0433856Y0297760D02*
X0431792Y0297760D01*
X0431792Y0299548D01*
X0433856Y0299548D01*
X0433856Y0299476D02*
X0431792Y0299476D01*
X0427856Y0299548D02*
X0427856Y0297760D01*
X0425792Y0297760D01*
X0425792Y0299548D01*
X0427856Y0299548D01*
X0427856Y0299476D02*
X0425792Y0299476D01*
X0421856Y0299548D02*
X0421856Y0297760D01*
X0419792Y0297760D01*
X0419792Y0299548D01*
X0421856Y0299548D01*
X0421856Y0299476D02*
X0419792Y0299476D01*
X0419792Y0311815D02*
X0419792Y0313603D01*
X0421856Y0313603D01*
X0421856Y0311815D01*
X0419792Y0311815D01*
X0419792Y0313531D02*
X0421856Y0313531D01*
X0425792Y0313603D02*
X0425792Y0311815D01*
X0425792Y0313603D02*
X0427856Y0313603D01*
X0427856Y0311815D01*
X0425792Y0311815D01*
X0425792Y0313531D02*
X0427856Y0313531D01*
X0431792Y0313603D02*
X0431792Y0311815D01*
X0431792Y0313603D02*
X0433856Y0313603D01*
X0433856Y0311815D01*
X0431792Y0311815D01*
X0431792Y0313531D02*
X0433856Y0313531D01*
X0433856Y0317760D02*
X0433856Y0319548D01*
X0433856Y0317760D02*
X0431792Y0317760D01*
X0431792Y0319548D01*
X0433856Y0319548D01*
X0433856Y0319476D02*
X0431792Y0319476D01*
X0427856Y0319548D02*
X0427856Y0317760D01*
X0425792Y0317760D01*
X0425792Y0319548D01*
X0427856Y0319548D01*
X0427856Y0319476D02*
X0425792Y0319476D01*
X0421856Y0319548D02*
X0421856Y0317760D01*
X0419792Y0317760D01*
X0419792Y0319548D01*
X0421856Y0319548D01*
X0421856Y0319476D02*
X0419792Y0319476D01*
X0449958Y0308713D02*
X0451746Y0308713D01*
X0451746Y0306649D01*
X0449958Y0306649D01*
X0449958Y0308713D01*
X0449958Y0308365D02*
X0451746Y0308365D01*
X0455902Y0306649D02*
X0457690Y0306649D01*
X0455902Y0306649D02*
X0455902Y0308713D01*
X0457690Y0308713D01*
X0457690Y0306649D01*
X0457690Y0308365D02*
X0455902Y0308365D01*
X0523958Y0306713D02*
X0525746Y0306713D01*
X0525746Y0304649D01*
X0523958Y0304649D01*
X0523958Y0306713D01*
X0523958Y0306365D02*
X0525746Y0306365D01*
X0529902Y0304649D02*
X0531690Y0304649D01*
X0529902Y0304649D02*
X0529902Y0306713D01*
X0531690Y0306713D01*
X0531690Y0304649D01*
X0531690Y0306365D02*
X0529902Y0306365D01*
X0352792Y0311815D02*
X0352792Y0313603D01*
X0354856Y0313603D01*
X0354856Y0311815D01*
X0352792Y0311815D01*
X0352792Y0313531D02*
X0354856Y0313531D01*
X0354856Y0317760D02*
X0354856Y0319548D01*
X0354856Y0317760D02*
X0352792Y0317760D01*
X0352792Y0319548D01*
X0354856Y0319548D01*
X0354856Y0319476D02*
X0352792Y0319476D01*
X0348856Y0319548D02*
X0348856Y0317760D01*
X0346792Y0317760D01*
X0346792Y0319548D01*
X0348856Y0319548D01*
X0348856Y0319476D02*
X0346792Y0319476D01*
X0342856Y0319548D02*
X0342856Y0317760D01*
X0340792Y0317760D01*
X0340792Y0319548D01*
X0342856Y0319548D01*
X0342856Y0319476D02*
X0340792Y0319476D01*
X0340792Y0313603D02*
X0340792Y0311815D01*
X0340792Y0313603D02*
X0342856Y0313603D01*
X0342856Y0311815D01*
X0340792Y0311815D01*
X0340792Y0313531D02*
X0342856Y0313531D01*
X0346792Y0313603D02*
X0346792Y0311815D01*
X0346792Y0313603D02*
X0348856Y0313603D01*
X0348856Y0311815D01*
X0346792Y0311815D01*
X0346792Y0313531D02*
X0348856Y0313531D01*
X0317792Y0313603D02*
X0317792Y0311815D01*
X0317792Y0313603D02*
X0319856Y0313603D01*
X0319856Y0311815D01*
X0317792Y0311815D01*
X0317792Y0313531D02*
X0319856Y0313531D01*
X0319856Y0317760D02*
X0319856Y0319548D01*
X0319856Y0317760D02*
X0317792Y0317760D01*
X0317792Y0319548D01*
X0319856Y0319548D01*
X0319856Y0319476D02*
X0317792Y0319476D01*
X0313856Y0319548D02*
X0313856Y0317760D01*
X0311792Y0317760D01*
X0311792Y0319548D01*
X0313856Y0319548D01*
X0313856Y0319476D02*
X0311792Y0319476D01*
X0307856Y0319548D02*
X0307856Y0317760D01*
X0305792Y0317760D01*
X0305792Y0319548D01*
X0307856Y0319548D01*
X0307856Y0319476D02*
X0305792Y0319476D01*
X0305792Y0313603D02*
X0305792Y0311815D01*
X0305792Y0313603D02*
X0307856Y0313603D01*
X0307856Y0311815D01*
X0305792Y0311815D01*
X0305792Y0313531D02*
X0307856Y0313531D01*
X0311792Y0313603D02*
X0311792Y0311815D01*
X0311792Y0313603D02*
X0313856Y0313603D01*
X0313856Y0311815D01*
X0311792Y0311815D01*
X0311792Y0313531D02*
X0313856Y0313531D01*
X0313856Y0299548D02*
X0313856Y0297760D01*
X0311792Y0297760D01*
X0311792Y0299548D01*
X0313856Y0299548D01*
X0313856Y0299476D02*
X0311792Y0299476D01*
X0307856Y0299548D02*
X0307856Y0297760D01*
X0305792Y0297760D01*
X0305792Y0299548D01*
X0307856Y0299548D01*
X0307856Y0299476D02*
X0305792Y0299476D01*
X0319856Y0299548D02*
X0319856Y0297760D01*
X0317792Y0297760D01*
X0317792Y0299548D01*
X0319856Y0299548D01*
X0319856Y0299476D02*
X0317792Y0299476D01*
X0317792Y0293603D02*
X0317792Y0291815D01*
X0317792Y0293603D02*
X0319856Y0293603D01*
X0319856Y0291815D01*
X0317792Y0291815D01*
X0317792Y0293531D02*
X0319856Y0293531D01*
X0311792Y0293603D02*
X0311792Y0291815D01*
X0311792Y0293603D02*
X0313856Y0293603D01*
X0313856Y0291815D01*
X0311792Y0291815D01*
X0311792Y0293531D02*
X0313856Y0293531D01*
X0305792Y0293603D02*
X0305792Y0291815D01*
X0305792Y0293603D02*
X0307856Y0293603D01*
X0307856Y0291815D01*
X0305792Y0291815D01*
X0305792Y0293531D02*
X0307856Y0293531D01*
X0340792Y0293603D02*
X0340792Y0291815D01*
X0340792Y0293603D02*
X0342856Y0293603D01*
X0342856Y0291815D01*
X0340792Y0291815D01*
X0340792Y0293531D02*
X0342856Y0293531D01*
X0346792Y0293603D02*
X0346792Y0291815D01*
X0346792Y0293603D02*
X0348856Y0293603D01*
X0348856Y0291815D01*
X0346792Y0291815D01*
X0346792Y0293531D02*
X0348856Y0293531D01*
X0352792Y0293603D02*
X0352792Y0291815D01*
X0352792Y0293603D02*
X0354856Y0293603D01*
X0354856Y0291815D01*
X0352792Y0291815D01*
X0352792Y0293531D02*
X0354856Y0293531D01*
X0354856Y0297760D02*
X0354856Y0299548D01*
X0354856Y0297760D02*
X0352792Y0297760D01*
X0352792Y0299548D01*
X0354856Y0299548D01*
X0354856Y0299476D02*
X0352792Y0299476D01*
X0348856Y0299548D02*
X0348856Y0297760D01*
X0346792Y0297760D01*
X0346792Y0299548D01*
X0348856Y0299548D01*
X0348856Y0299476D02*
X0346792Y0299476D01*
X0342856Y0299548D02*
X0342856Y0297760D01*
X0340792Y0297760D01*
X0340792Y0299548D01*
X0342856Y0299548D01*
X0342856Y0299476D02*
X0340792Y0299476D01*
X0245856Y0299548D02*
X0245856Y0297760D01*
X0243792Y0297760D01*
X0243792Y0299548D01*
X0245856Y0299548D01*
X0245856Y0299476D02*
X0243792Y0299476D01*
X0239856Y0299548D02*
X0239856Y0297760D01*
X0237792Y0297760D01*
X0237792Y0299548D01*
X0239856Y0299548D01*
X0239856Y0299476D02*
X0237792Y0299476D01*
X0233856Y0299548D02*
X0233856Y0297760D01*
X0231792Y0297760D01*
X0231792Y0299548D01*
X0233856Y0299548D01*
X0233856Y0299476D02*
X0231792Y0299476D01*
X0231792Y0293603D02*
X0231792Y0291815D01*
X0231792Y0293603D02*
X0233856Y0293603D01*
X0233856Y0291815D01*
X0231792Y0291815D01*
X0231792Y0293531D02*
X0233856Y0293531D01*
X0237792Y0293603D02*
X0237792Y0291815D01*
X0237792Y0293603D02*
X0239856Y0293603D01*
X0239856Y0291815D01*
X0237792Y0291815D01*
X0237792Y0293531D02*
X0239856Y0293531D01*
X0243792Y0293603D02*
X0243792Y0291815D01*
X0243792Y0293603D02*
X0245856Y0293603D01*
X0245856Y0291815D01*
X0243792Y0291815D01*
X0243792Y0293531D02*
X0245856Y0293531D01*
X0214792Y0293603D02*
X0214792Y0291815D01*
X0214792Y0293603D02*
X0216856Y0293603D01*
X0216856Y0291815D01*
X0214792Y0291815D01*
X0214792Y0293531D02*
X0216856Y0293531D01*
X0216856Y0297760D02*
X0216856Y0299548D01*
X0216856Y0297760D02*
X0214792Y0297760D01*
X0214792Y0299548D01*
X0216856Y0299548D01*
X0216856Y0299476D02*
X0214792Y0299476D01*
X0210856Y0299548D02*
X0210856Y0297760D01*
X0208792Y0297760D01*
X0208792Y0299548D01*
X0210856Y0299548D01*
X0210856Y0299476D02*
X0208792Y0299476D01*
X0198856Y0299548D02*
X0198856Y0297760D01*
X0196792Y0297760D01*
X0196792Y0299548D01*
X0198856Y0299548D01*
X0198856Y0299476D02*
X0196792Y0299476D01*
X0196792Y0293603D02*
X0196792Y0291815D01*
X0196792Y0293603D02*
X0198856Y0293603D01*
X0198856Y0291815D01*
X0196792Y0291815D01*
X0196792Y0293531D02*
X0198856Y0293531D01*
X0208792Y0293603D02*
X0208792Y0291815D01*
X0208792Y0293603D02*
X0210856Y0293603D01*
X0210856Y0291815D01*
X0208792Y0291815D01*
X0208792Y0293531D02*
X0210856Y0293531D01*
X0208792Y0311815D02*
X0208792Y0313603D01*
X0210856Y0313603D01*
X0210856Y0311815D01*
X0208792Y0311815D01*
X0208792Y0313531D02*
X0210856Y0313531D01*
X0214792Y0313603D02*
X0214792Y0311815D01*
X0214792Y0313603D02*
X0216856Y0313603D01*
X0216856Y0311815D01*
X0214792Y0311815D01*
X0214792Y0313531D02*
X0216856Y0313531D01*
X0216856Y0317760D02*
X0216856Y0319548D01*
X0216856Y0317760D02*
X0214792Y0317760D01*
X0214792Y0319548D01*
X0216856Y0319548D01*
X0216856Y0319476D02*
X0214792Y0319476D01*
X0210856Y0319548D02*
X0210856Y0317760D01*
X0208792Y0317760D01*
X0208792Y0319548D01*
X0210856Y0319548D01*
X0210856Y0319476D02*
X0208792Y0319476D01*
X0204856Y0319548D02*
X0204856Y0317760D01*
X0202792Y0317760D01*
X0202792Y0319548D01*
X0204856Y0319548D01*
X0204856Y0319476D02*
X0202792Y0319476D01*
X0202792Y0313603D02*
X0202792Y0311815D01*
X0202792Y0313603D02*
X0204856Y0313603D01*
X0204856Y0311815D01*
X0202792Y0311815D01*
X0202792Y0313531D02*
X0204856Y0313531D01*
X0231792Y0313603D02*
X0231792Y0311815D01*
X0231792Y0313603D02*
X0233856Y0313603D01*
X0233856Y0311815D01*
X0231792Y0311815D01*
X0231792Y0313531D02*
X0233856Y0313531D01*
X0237792Y0313603D02*
X0237792Y0311815D01*
X0237792Y0313603D02*
X0239856Y0313603D01*
X0239856Y0311815D01*
X0237792Y0311815D01*
X0237792Y0313531D02*
X0239856Y0313531D01*
X0243792Y0313603D02*
X0243792Y0311815D01*
X0243792Y0313603D02*
X0245856Y0313603D01*
X0245856Y0311815D01*
X0243792Y0311815D01*
X0243792Y0313531D02*
X0245856Y0313531D01*
X0245856Y0317760D02*
X0245856Y0319548D01*
X0245856Y0317760D02*
X0243792Y0317760D01*
X0243792Y0319548D01*
X0245856Y0319548D01*
X0245856Y0319476D02*
X0243792Y0319476D01*
X0239856Y0319548D02*
X0239856Y0317760D01*
X0237792Y0317760D01*
X0237792Y0319548D01*
X0239856Y0319548D01*
X0239856Y0319476D02*
X0237792Y0319476D01*
X0233856Y0319548D02*
X0233856Y0317760D01*
X0231792Y0317760D01*
X0231792Y0319548D01*
X0233856Y0319548D01*
X0233856Y0319476D02*
X0231792Y0319476D01*
X0148856Y0299548D02*
X0148856Y0297760D01*
X0146792Y0297760D01*
X0146792Y0299548D01*
X0148856Y0299548D01*
X0148856Y0299476D02*
X0146792Y0299476D01*
X0136856Y0299548D02*
X0136856Y0297760D01*
X0134792Y0297760D01*
X0134792Y0299548D01*
X0136856Y0299548D01*
X0136856Y0299476D02*
X0134792Y0299476D01*
X0130856Y0299548D02*
X0130856Y0297760D01*
X0128792Y0297760D01*
X0128792Y0299548D01*
X0130856Y0299548D01*
X0130856Y0299476D02*
X0128792Y0299476D01*
X0128792Y0293603D02*
X0128792Y0291815D01*
X0128792Y0293603D02*
X0130856Y0293603D01*
X0130856Y0291815D01*
X0128792Y0291815D01*
X0128792Y0293531D02*
X0130856Y0293531D01*
X0134792Y0293603D02*
X0134792Y0291815D01*
X0134792Y0293603D02*
X0136856Y0293603D01*
X0136856Y0291815D01*
X0134792Y0291815D01*
X0134792Y0293531D02*
X0136856Y0293531D01*
X0146792Y0293603D02*
X0146792Y0291815D01*
X0146792Y0293603D02*
X0148856Y0293603D01*
X0148856Y0291815D01*
X0146792Y0291815D01*
X0146792Y0293531D02*
X0148856Y0293531D01*
X0140792Y0311815D02*
X0140792Y0313603D01*
X0142856Y0313603D01*
X0142856Y0311815D01*
X0140792Y0311815D01*
X0140792Y0313531D02*
X0142856Y0313531D01*
X0142856Y0317760D02*
X0142856Y0319548D01*
X0142856Y0317760D02*
X0140792Y0317760D01*
X0140792Y0319548D01*
X0142856Y0319548D01*
X0142856Y0319476D02*
X0140792Y0319476D01*
X0136856Y0319548D02*
X0136856Y0317760D01*
X0134792Y0317760D01*
X0134792Y0319548D01*
X0136856Y0319548D01*
X0136856Y0319476D02*
X0134792Y0319476D01*
X0130856Y0319548D02*
X0130856Y0317760D01*
X0128792Y0317760D01*
X0128792Y0319548D01*
X0130856Y0319548D01*
X0130856Y0319476D02*
X0128792Y0319476D01*
X0128792Y0313603D02*
X0128792Y0311815D01*
X0128792Y0313603D02*
X0130856Y0313603D01*
X0130856Y0311815D01*
X0128792Y0311815D01*
X0128792Y0313531D02*
X0130856Y0313531D01*
X0134792Y0313603D02*
X0134792Y0311815D01*
X0134792Y0313603D02*
X0136856Y0313603D01*
X0136856Y0311815D01*
X0134792Y0311815D01*
X0134792Y0313531D02*
X0136856Y0313531D01*
X0105856Y0208548D02*
X0105856Y0206760D01*
X0103792Y0206760D01*
X0103792Y0208548D01*
X0105856Y0208548D01*
X0105856Y0208476D02*
X0103792Y0208476D01*
X0099856Y0208548D02*
X0099856Y0206760D01*
X0097792Y0206760D01*
X0097792Y0208548D01*
X0099856Y0208548D01*
X0099856Y0208476D02*
X0097792Y0208476D01*
X0097792Y0202603D02*
X0097792Y0200815D01*
X0097792Y0202603D02*
X0099856Y0202603D01*
X0099856Y0200815D01*
X0097792Y0200815D01*
X0097792Y0202531D02*
X0099856Y0202531D01*
X0103792Y0202603D02*
X0103792Y0200815D01*
X0103792Y0202603D02*
X0105856Y0202603D01*
X0105856Y0200815D01*
X0103792Y0200815D01*
X0103792Y0202531D02*
X0105856Y0202531D01*
X0076690Y0200649D02*
X0074902Y0200649D01*
X0074902Y0202713D01*
X0076690Y0202713D01*
X0076690Y0200649D01*
X0076690Y0202365D02*
X0074902Y0202365D01*
X0070746Y0202713D02*
X0068958Y0202713D01*
X0070746Y0202713D02*
X0070746Y0200649D01*
X0068958Y0200649D01*
X0068958Y0202713D01*
X0068958Y0202365D02*
X0070746Y0202365D01*
X0070746Y0208713D02*
X0068958Y0208713D01*
X0070746Y0208713D02*
X0070746Y0206649D01*
X0068958Y0206649D01*
X0068958Y0208713D01*
X0068958Y0208365D02*
X0070746Y0208365D01*
X0074902Y0206649D02*
X0076690Y0206649D01*
X0074902Y0206649D02*
X0074902Y0208713D01*
X0076690Y0208713D01*
X0076690Y0206649D01*
X0076690Y0208365D02*
X0074902Y0208365D01*
X0047690Y0196649D02*
X0045902Y0196649D01*
X0045902Y0198713D01*
X0047690Y0198713D01*
X0047690Y0196649D01*
X0047690Y0198365D02*
X0045902Y0198365D01*
X0041746Y0198713D02*
X0039958Y0198713D01*
X0041746Y0198713D02*
X0041746Y0196649D01*
X0039958Y0196649D01*
X0039958Y0198713D01*
X0039958Y0198365D02*
X0041746Y0198365D01*
X0041746Y0192713D02*
X0039958Y0192713D01*
X0041746Y0192713D02*
X0041746Y0190649D01*
X0039958Y0190649D01*
X0039958Y0192713D01*
X0039958Y0192365D02*
X0041746Y0192365D01*
X0045902Y0190649D02*
X0047690Y0190649D01*
X0045902Y0190649D02*
X0045902Y0192713D01*
X0047690Y0192713D01*
X0047690Y0190649D01*
X0047690Y0192365D02*
X0045902Y0192365D01*
X0045902Y0184649D02*
X0047690Y0184649D01*
X0045902Y0184649D02*
X0045902Y0186713D01*
X0047690Y0186713D01*
X0047690Y0184649D01*
X0047690Y0186365D02*
X0045902Y0186365D01*
X0041746Y0186713D02*
X0039958Y0186713D01*
X0041746Y0186713D02*
X0041746Y0184649D01*
X0039958Y0184649D01*
X0039958Y0186713D01*
X0039958Y0186365D02*
X0041746Y0186365D01*
X0041746Y0180713D02*
X0039958Y0180713D01*
X0041746Y0180713D02*
X0041746Y0178649D01*
X0039958Y0178649D01*
X0039958Y0180713D01*
X0039958Y0180365D02*
X0041746Y0180365D01*
X0045902Y0178649D02*
X0047690Y0178649D01*
X0045902Y0178649D02*
X0045902Y0180713D01*
X0047690Y0180713D01*
X0047690Y0178649D01*
X0047690Y0180365D02*
X0045902Y0180365D01*
X0045902Y0172649D02*
X0047690Y0172649D01*
X0045902Y0172649D02*
X0045902Y0174713D01*
X0047690Y0174713D01*
X0047690Y0172649D01*
X0047690Y0174365D02*
X0045902Y0174365D01*
X0041746Y0174713D02*
X0039958Y0174713D01*
X0041746Y0174713D02*
X0041746Y0172649D01*
X0039958Y0172649D01*
X0039958Y0174713D01*
X0039958Y0174365D02*
X0041746Y0174365D01*
X0041746Y0168713D02*
X0039958Y0168713D01*
X0041746Y0168713D02*
X0041746Y0166649D01*
X0039958Y0166649D01*
X0039958Y0168713D01*
X0039958Y0168365D02*
X0041746Y0168365D01*
X0045902Y0166649D02*
X0047690Y0166649D01*
X0045902Y0166649D02*
X0045902Y0168713D01*
X0047690Y0168713D01*
X0047690Y0166649D01*
X0047690Y0168365D02*
X0045902Y0168365D01*
X0045902Y0160649D02*
X0047690Y0160649D01*
X0045902Y0160649D02*
X0045902Y0162713D01*
X0047690Y0162713D01*
X0047690Y0160649D01*
X0047690Y0162365D02*
X0045902Y0162365D01*
X0041746Y0162713D02*
X0039958Y0162713D01*
X0041746Y0162713D02*
X0041746Y0160649D01*
X0039958Y0160649D01*
X0039958Y0162713D01*
X0039958Y0162365D02*
X0041746Y0162365D01*
X0041746Y0156713D02*
X0039958Y0156713D01*
X0041746Y0156713D02*
X0041746Y0154649D01*
X0039958Y0154649D01*
X0039958Y0156713D01*
X0039958Y0156365D02*
X0041746Y0156365D01*
X0045902Y0154649D02*
X0047690Y0154649D01*
X0045902Y0154649D02*
X0045902Y0156713D01*
X0047690Y0156713D01*
X0047690Y0154649D01*
X0047690Y0156365D02*
X0045902Y0156365D01*
X0074856Y0145548D02*
X0074856Y0143760D01*
X0072792Y0143760D01*
X0072792Y0145548D01*
X0074856Y0145548D01*
X0074856Y0145476D02*
X0072792Y0145476D01*
X0072792Y0139603D02*
X0072792Y0137815D01*
X0072792Y0139603D02*
X0074856Y0139603D01*
X0074856Y0137815D01*
X0072792Y0137815D01*
X0072792Y0139531D02*
X0074856Y0139531D01*
X0080792Y0139603D02*
X0080792Y0137815D01*
X0080792Y0139603D02*
X0082856Y0139603D01*
X0082856Y0137815D01*
X0080792Y0137815D01*
X0080792Y0139531D02*
X0082856Y0139531D01*
X0086792Y0139603D02*
X0086792Y0137815D01*
X0086792Y0139603D02*
X0088856Y0139603D01*
X0088856Y0137815D01*
X0086792Y0137815D01*
X0086792Y0139531D02*
X0088856Y0139531D01*
X0088856Y0143760D02*
X0088856Y0145548D01*
X0088856Y0143760D02*
X0086792Y0143760D01*
X0086792Y0145548D01*
X0088856Y0145548D01*
X0088856Y0145476D02*
X0086792Y0145476D01*
X0082856Y0145548D02*
X0082856Y0143760D01*
X0080792Y0143760D01*
X0080792Y0145548D01*
X0082856Y0145548D01*
X0082856Y0145476D02*
X0080792Y0145476D01*
X0064856Y0122548D02*
X0064856Y0120760D01*
X0062792Y0120760D01*
X0062792Y0122548D01*
X0064856Y0122548D01*
X0064856Y0122476D02*
X0062792Y0122476D01*
X0057856Y0122548D02*
X0057856Y0120760D01*
X0055792Y0120760D01*
X0055792Y0122548D01*
X0057856Y0122548D01*
X0057856Y0122476D02*
X0055792Y0122476D01*
X0055792Y0116603D02*
X0055792Y0114815D01*
X0055792Y0116603D02*
X0057856Y0116603D01*
X0057856Y0114815D01*
X0055792Y0114815D01*
X0055792Y0116531D02*
X0057856Y0116531D01*
X0062792Y0116603D02*
X0062792Y0114815D01*
X0062792Y0116603D02*
X0064856Y0116603D01*
X0064856Y0114815D01*
X0062792Y0114815D01*
X0062792Y0116531D02*
X0064856Y0116531D01*
X0047792Y0116603D02*
X0047792Y0114815D01*
X0047792Y0116603D02*
X0049856Y0116603D01*
X0049856Y0114815D01*
X0047792Y0114815D01*
X0047792Y0116531D02*
X0049856Y0116531D01*
X0049856Y0120760D02*
X0049856Y0122548D01*
X0049856Y0120760D02*
X0047792Y0120760D01*
X0047792Y0122548D01*
X0049856Y0122548D01*
X0049856Y0122476D02*
X0047792Y0122476D01*
X0100856Y0122548D02*
X0100856Y0120760D01*
X0098792Y0120760D01*
X0098792Y0122548D01*
X0100856Y0122548D01*
X0100856Y0122476D02*
X0098792Y0122476D01*
X0098792Y0116603D02*
X0098792Y0114815D01*
X0098792Y0116603D02*
X0100856Y0116603D01*
X0100856Y0114815D01*
X0098792Y0114815D01*
X0098792Y0116531D02*
X0100856Y0116531D01*
X0104792Y0116603D02*
X0104792Y0114815D01*
X0104792Y0116603D02*
X0106856Y0116603D01*
X0106856Y0114815D01*
X0104792Y0114815D01*
X0104792Y0116531D02*
X0106856Y0116531D01*
X0106856Y0120760D02*
X0106856Y0122548D01*
X0106856Y0120760D02*
X0104792Y0120760D01*
X0104792Y0122548D01*
X0106856Y0122548D01*
X0106856Y0122476D02*
X0104792Y0122476D01*
X0189292Y0173815D02*
X0189292Y0175603D01*
X0191356Y0175603D01*
X0191356Y0173815D01*
X0189292Y0173815D01*
X0189292Y0175531D02*
X0191356Y0175531D01*
X0191356Y0179760D02*
X0191356Y0181548D01*
X0191356Y0179760D02*
X0189292Y0179760D01*
X0189292Y0181548D01*
X0191356Y0181548D01*
X0191356Y0181476D02*
X0189292Y0181476D01*
X0203356Y0181548D02*
X0203356Y0179760D01*
X0201292Y0179760D01*
X0201292Y0181548D01*
X0203356Y0181548D01*
X0203356Y0181476D02*
X0201292Y0181476D01*
X0201292Y0175603D02*
X0201292Y0173815D01*
X0201292Y0175603D02*
X0203356Y0175603D01*
X0203356Y0173815D01*
X0201292Y0173815D01*
X0201292Y0175531D02*
X0203356Y0175531D01*
X0213292Y0175603D02*
X0213292Y0173815D01*
X0213292Y0175603D02*
X0215356Y0175603D01*
X0215356Y0173815D01*
X0213292Y0173815D01*
X0213292Y0175531D02*
X0215356Y0175531D01*
X0215356Y0179760D02*
X0215356Y0181548D01*
X0215356Y0179760D02*
X0213292Y0179760D01*
X0213292Y0181548D01*
X0215356Y0181548D01*
X0215356Y0181476D02*
X0213292Y0181476D01*
X0227356Y0181548D02*
X0227356Y0179760D01*
X0225292Y0179760D01*
X0225292Y0181548D01*
X0227356Y0181548D01*
X0227356Y0181476D02*
X0225292Y0181476D01*
X0225292Y0175603D02*
X0225292Y0173815D01*
X0225292Y0175603D02*
X0227356Y0175603D01*
X0227356Y0173815D01*
X0225292Y0173815D01*
X0225292Y0175531D02*
X0227356Y0175531D01*
X0116328Y0186649D02*
X0114540Y0186649D01*
X0114540Y0188713D01*
X0116328Y0188713D01*
X0116328Y0186649D01*
X0116328Y0188365D02*
X0114540Y0188365D01*
X0110383Y0188713D02*
X0108595Y0188713D01*
X0110383Y0188713D02*
X0110383Y0186649D01*
X0108595Y0186649D01*
X0108595Y0188713D01*
X0108595Y0188365D02*
X0110383Y0188365D01*
X0354356Y0182548D02*
X0354356Y0180760D01*
X0352292Y0180760D01*
X0352292Y0182548D01*
X0354356Y0182548D01*
X0354356Y0182476D02*
X0352292Y0182476D01*
X0352292Y0176603D02*
X0352292Y0174815D01*
X0352292Y0176603D02*
X0354356Y0176603D01*
X0354356Y0174815D01*
X0352292Y0174815D01*
X0352292Y0176531D02*
X0354356Y0176531D01*
X0364292Y0176603D02*
X0364292Y0174815D01*
X0364292Y0176603D02*
X0366356Y0176603D01*
X0366356Y0174815D01*
X0364292Y0174815D01*
X0364292Y0176531D02*
X0366356Y0176531D01*
X0366356Y0180760D02*
X0366356Y0182548D01*
X0366356Y0180760D02*
X0364292Y0180760D01*
X0364292Y0182548D01*
X0366356Y0182548D01*
X0366356Y0182476D02*
X0364292Y0182476D01*
X0378356Y0182548D02*
X0378356Y0180760D01*
X0376292Y0180760D01*
X0376292Y0182548D01*
X0378356Y0182548D01*
X0378356Y0182476D02*
X0376292Y0182476D01*
X0376292Y0176603D02*
X0376292Y0174815D01*
X0376292Y0176603D02*
X0378356Y0176603D01*
X0378356Y0174815D01*
X0376292Y0174815D01*
X0376292Y0176531D02*
X0378356Y0176531D01*
X0388292Y0176603D02*
X0388292Y0174815D01*
X0388292Y0176603D02*
X0390356Y0176603D01*
X0390356Y0174815D01*
X0388292Y0174815D01*
X0388292Y0176531D02*
X0390356Y0176531D01*
X0390356Y0180760D02*
X0390356Y0182548D01*
X0390356Y0180760D02*
X0388292Y0180760D01*
X0388292Y0182548D01*
X0390356Y0182548D01*
X0390356Y0182476D02*
X0388292Y0182476D01*
X0518356Y0182548D02*
X0518356Y0180760D01*
X0516292Y0180760D01*
X0516292Y0182548D01*
X0518356Y0182548D01*
X0518356Y0182476D02*
X0516292Y0182476D01*
X0516292Y0176603D02*
X0516292Y0174815D01*
X0516292Y0176603D02*
X0518356Y0176603D01*
X0518356Y0174815D01*
X0516292Y0174815D01*
X0516292Y0176531D02*
X0518356Y0176531D01*
X0528292Y0176603D02*
X0528292Y0174815D01*
X0528292Y0176603D02*
X0530356Y0176603D01*
X0530356Y0174815D01*
X0528292Y0174815D01*
X0528292Y0176531D02*
X0530356Y0176531D01*
X0530356Y0180760D02*
X0530356Y0182548D01*
X0530356Y0180760D02*
X0528292Y0180760D01*
X0528292Y0182548D01*
X0530356Y0182548D01*
X0530356Y0182476D02*
X0528292Y0182476D01*
X0542356Y0182548D02*
X0542356Y0180760D01*
X0540292Y0180760D01*
X0540292Y0182548D01*
X0542356Y0182548D01*
X0542356Y0182476D02*
X0540292Y0182476D01*
X0540292Y0176603D02*
X0540292Y0174815D01*
X0540292Y0176603D02*
X0542356Y0176603D01*
X0542356Y0174815D01*
X0540292Y0174815D01*
X0540292Y0176531D02*
X0542356Y0176531D01*
X0552292Y0176603D02*
X0552292Y0174815D01*
X0552292Y0176603D02*
X0554356Y0176603D01*
X0554356Y0174815D01*
X0552292Y0174815D01*
X0552292Y0176531D02*
X0554356Y0176531D01*
X0554356Y0180760D02*
X0554356Y0182548D01*
X0554356Y0180760D02*
X0552292Y0180760D01*
X0552292Y0182548D01*
X0554356Y0182548D01*
X0554356Y0182476D02*
X0552292Y0182476D01*
X0671356Y0182548D02*
X0671356Y0180760D01*
X0669292Y0180760D01*
X0669292Y0182548D01*
X0671356Y0182548D01*
X0671356Y0182476D02*
X0669292Y0182476D01*
X0669292Y0176603D02*
X0669292Y0174815D01*
X0669292Y0176603D02*
X0671356Y0176603D01*
X0671356Y0174815D01*
X0669292Y0174815D01*
X0669292Y0176531D02*
X0671356Y0176531D01*
X0681292Y0176603D02*
X0681292Y0174815D01*
X0681292Y0176603D02*
X0683356Y0176603D01*
X0683356Y0174815D01*
X0681292Y0174815D01*
X0681292Y0176531D02*
X0683356Y0176531D01*
X0683356Y0180760D02*
X0683356Y0182548D01*
X0683356Y0180760D02*
X0681292Y0180760D01*
X0681292Y0182548D01*
X0683356Y0182548D01*
X0683356Y0182476D02*
X0681292Y0182476D01*
X0695356Y0182548D02*
X0695356Y0180760D01*
X0693292Y0180760D01*
X0693292Y0182548D01*
X0695356Y0182548D01*
X0695356Y0182476D02*
X0693292Y0182476D01*
X0693292Y0176603D02*
X0693292Y0174815D01*
X0693292Y0176603D02*
X0695356Y0176603D01*
X0695356Y0174815D01*
X0693292Y0174815D01*
X0693292Y0176531D02*
X0695356Y0176531D01*
X0705292Y0176603D02*
X0705292Y0174815D01*
X0705292Y0176603D02*
X0707356Y0176603D01*
X0707356Y0174815D01*
X0705292Y0174815D01*
X0705292Y0176531D02*
X0707356Y0176531D01*
X0707356Y0180760D02*
X0707356Y0182548D01*
X0707356Y0180760D02*
X0705292Y0180760D01*
X0705292Y0182548D01*
X0707356Y0182548D01*
X0707356Y0182476D02*
X0705292Y0182476D01*
X0807356Y0181548D02*
X0807356Y0179760D01*
X0805292Y0179760D01*
X0805292Y0181548D01*
X0807356Y0181548D01*
X0807356Y0181476D02*
X0805292Y0181476D01*
X0805292Y0175603D02*
X0805292Y0173815D01*
X0805292Y0175603D02*
X0807356Y0175603D01*
X0807356Y0173815D01*
X0805292Y0173815D01*
X0805292Y0175531D02*
X0807356Y0175531D01*
X0817292Y0175603D02*
X0817292Y0173815D01*
X0817292Y0175603D02*
X0819356Y0175603D01*
X0819356Y0173815D01*
X0817292Y0173815D01*
X0817292Y0175531D02*
X0819356Y0175531D01*
X0819356Y0179760D02*
X0819356Y0181548D01*
X0819356Y0179760D02*
X0817292Y0179760D01*
X0817292Y0181548D01*
X0819356Y0181548D01*
X0819356Y0181476D02*
X0817292Y0181476D01*
X0831356Y0181548D02*
X0831356Y0179760D01*
X0829292Y0179760D01*
X0829292Y0181548D01*
X0831356Y0181548D01*
X0831356Y0181476D02*
X0829292Y0181476D01*
X0829292Y0175603D02*
X0829292Y0173815D01*
X0829292Y0175603D02*
X0831356Y0175603D01*
X0831356Y0173815D01*
X0829292Y0173815D01*
X0829292Y0175531D02*
X0831356Y0175531D01*
X0841292Y0175603D02*
X0841292Y0173815D01*
X0841292Y0175603D02*
X0843356Y0175603D01*
X0843356Y0173815D01*
X0841292Y0173815D01*
X0841292Y0175531D02*
X0843356Y0175531D01*
X0843356Y0179760D02*
X0843356Y0181548D01*
X0843356Y0179760D02*
X0841292Y0179760D01*
X0841292Y0181548D01*
X0843356Y0181548D01*
X0843356Y0181476D02*
X0841292Y0181476D01*
X0939595Y0176713D02*
X0941383Y0176713D01*
X0941383Y0174649D01*
X0939595Y0174649D01*
X0939595Y0176713D01*
X0939595Y0176365D02*
X0941383Y0176365D01*
X0945540Y0174649D02*
X0947328Y0174649D01*
X0945540Y0174649D02*
X0945540Y0176713D01*
X0947328Y0176713D01*
X0947328Y0174649D01*
X0947328Y0176365D02*
X0945540Y0176365D01*
X0945540Y0167649D02*
X0947328Y0167649D01*
X0945540Y0167649D02*
X0945540Y0169713D01*
X0947328Y0169713D01*
X0947328Y0167649D01*
X0947328Y0169365D02*
X0945540Y0169365D01*
X0941383Y0169713D02*
X0939595Y0169713D01*
X0941383Y0169713D02*
X0941383Y0167649D01*
X0939595Y0167649D01*
X0939595Y0169713D01*
X0939595Y0169365D02*
X0941383Y0169365D01*
X0932328Y0136649D02*
X0930540Y0136649D01*
X0930540Y0138713D01*
X0932328Y0138713D01*
X0932328Y0136649D01*
X0932328Y0138365D02*
X0930540Y0138365D01*
X0926383Y0138713D02*
X0924595Y0138713D01*
X0926383Y0138713D02*
X0926383Y0136649D01*
X0924595Y0136649D01*
X0924595Y0138713D01*
X0924595Y0138365D02*
X0926383Y0138365D01*
X0915328Y0136649D02*
X0913540Y0136649D01*
X0913540Y0138713D01*
X0915328Y0138713D01*
X0915328Y0136649D01*
X0915328Y0138365D02*
X0913540Y0138365D01*
X0909383Y0138713D02*
X0907595Y0138713D01*
X0909383Y0138713D02*
X0909383Y0136649D01*
X0907595Y0136649D01*
X0907595Y0138713D01*
X0907595Y0138365D02*
X0909383Y0138365D01*
X1041958Y0134213D02*
X1043746Y0134213D01*
X1043746Y0132149D01*
X1041958Y0132149D01*
X1041958Y0134213D01*
X1041958Y0133865D02*
X1043746Y0133865D01*
X1047902Y0132149D02*
X1049690Y0132149D01*
X1047902Y0132149D02*
X1047902Y0134213D01*
X1049690Y0134213D01*
X1049690Y0132149D01*
X1049690Y0133865D02*
X1047902Y0133865D01*
X1047902Y0122149D02*
X1049690Y0122149D01*
X1047902Y0122149D02*
X1047902Y0124213D01*
X1049690Y0124213D01*
X1049690Y0122149D01*
X1049690Y0123865D02*
X1047902Y0123865D01*
X1043746Y0124213D02*
X1041958Y0124213D01*
X1043746Y0124213D02*
X1043746Y0122149D01*
X1041958Y0122149D01*
X1041958Y0124213D01*
X1041958Y0123865D02*
X1043746Y0123865D01*
X1043746Y0114213D02*
X1041958Y0114213D01*
X1043746Y0114213D02*
X1043746Y0112149D01*
X1041958Y0112149D01*
X1041958Y0114213D01*
X1041958Y0113865D02*
X1043746Y0113865D01*
X1047902Y0112149D02*
X1049690Y0112149D01*
X1047902Y0112149D02*
X1047902Y0114213D01*
X1049690Y0114213D01*
X1049690Y0112149D01*
X1049690Y0113865D02*
X1047902Y0113865D01*
X1047902Y0102149D02*
X1049690Y0102149D01*
X1047902Y0102149D02*
X1047902Y0104213D01*
X1049690Y0104213D01*
X1049690Y0102149D01*
X1049690Y0103865D02*
X1047902Y0103865D01*
X1043746Y0104213D02*
X1041958Y0104213D01*
X1043746Y0104213D02*
X1043746Y0102149D01*
X1041958Y0102149D01*
X1041958Y0104213D01*
X1041958Y0103865D02*
X1043746Y0103865D01*
X1043746Y0089213D02*
X1041958Y0089213D01*
X1043746Y0089213D02*
X1043746Y0087149D01*
X1041958Y0087149D01*
X1041958Y0089213D01*
X1041958Y0088865D02*
X1043746Y0088865D01*
X1047902Y0087149D02*
X1049690Y0087149D01*
X1047902Y0087149D02*
X1047902Y0089213D01*
X1049690Y0089213D01*
X1049690Y0087149D01*
X1049690Y0088865D02*
X1047902Y0088865D01*
X1047902Y0077149D02*
X1049690Y0077149D01*
X1047902Y0077149D02*
X1047902Y0079213D01*
X1049690Y0079213D01*
X1049690Y0077149D01*
X1049690Y0078865D02*
X1047902Y0078865D01*
X1043746Y0079213D02*
X1041958Y0079213D01*
X1043746Y0079213D02*
X1043746Y0077149D01*
X1041958Y0077149D01*
X1041958Y0079213D01*
X1041958Y0078865D02*
X1043746Y0078865D01*
X1043746Y0069213D02*
X1041958Y0069213D01*
X1043746Y0069213D02*
X1043746Y0067149D01*
X1041958Y0067149D01*
X1041958Y0069213D01*
X1041958Y0068865D02*
X1043746Y0068865D01*
X1047902Y0067149D02*
X1049690Y0067149D01*
X1047902Y0067149D02*
X1047902Y0069213D01*
X1049690Y0069213D01*
X1049690Y0067149D01*
X1049690Y0068865D02*
X1047902Y0068865D01*
X1047902Y0057149D02*
X1049690Y0057149D01*
X1047902Y0057149D02*
X1047902Y0059213D01*
X1049690Y0059213D01*
X1049690Y0057149D01*
X1049690Y0058865D02*
X1047902Y0058865D01*
X1043746Y0059213D02*
X1041958Y0059213D01*
X1043746Y0059213D02*
X1043746Y0057149D01*
X1041958Y0057149D01*
X1041958Y0059213D01*
X1041958Y0058865D02*
X1043746Y0058865D01*
X1092958Y0059213D02*
X1094746Y0059213D01*
X1094746Y0057149D01*
X1092958Y0057149D01*
X1092958Y0059213D01*
X1092958Y0058865D02*
X1094746Y0058865D01*
X1098902Y0057149D02*
X1100690Y0057149D01*
X1098902Y0057149D02*
X1098902Y0059213D01*
X1100690Y0059213D01*
X1100690Y0057149D01*
X1100690Y0058865D02*
X1098902Y0058865D01*
X1098902Y0067149D02*
X1100690Y0067149D01*
X1098902Y0067149D02*
X1098902Y0069213D01*
X1100690Y0069213D01*
X1100690Y0067149D01*
X1100690Y0068865D02*
X1098902Y0068865D01*
X1094746Y0069213D02*
X1092958Y0069213D01*
X1094746Y0069213D02*
X1094746Y0067149D01*
X1092958Y0067149D01*
X1092958Y0069213D01*
X1092958Y0068865D02*
X1094746Y0068865D01*
X1094746Y0079213D02*
X1092958Y0079213D01*
X1094746Y0079213D02*
X1094746Y0077149D01*
X1092958Y0077149D01*
X1092958Y0079213D01*
X1092958Y0078865D02*
X1094746Y0078865D01*
X1098902Y0077149D02*
X1100690Y0077149D01*
X1098902Y0077149D02*
X1098902Y0079213D01*
X1100690Y0079213D01*
X1100690Y0077149D01*
X1100690Y0078865D02*
X1098902Y0078865D01*
X1098902Y0087149D02*
X1100690Y0087149D01*
X1098902Y0087149D02*
X1098902Y0089213D01*
X1100690Y0089213D01*
X1100690Y0087149D01*
X1100690Y0088865D02*
X1098902Y0088865D01*
X1094746Y0089213D02*
X1092958Y0089213D01*
X1094746Y0089213D02*
X1094746Y0087149D01*
X1092958Y0087149D01*
X1092958Y0089213D01*
X1092958Y0088865D02*
X1094746Y0088865D01*
X1094746Y0104213D02*
X1092958Y0104213D01*
X1094746Y0104213D02*
X1094746Y0102149D01*
X1092958Y0102149D01*
X1092958Y0104213D01*
X1092958Y0103865D02*
X1094746Y0103865D01*
X1098902Y0102149D02*
X1100690Y0102149D01*
X1098902Y0102149D02*
X1098902Y0104213D01*
X1100690Y0104213D01*
X1100690Y0102149D01*
X1100690Y0103865D02*
X1098902Y0103865D01*
X1098902Y0112149D02*
X1100690Y0112149D01*
X1098902Y0112149D02*
X1098902Y0114213D01*
X1100690Y0114213D01*
X1100690Y0112149D01*
X1100690Y0113865D02*
X1098902Y0113865D01*
X1094746Y0114213D02*
X1092958Y0114213D01*
X1094746Y0114213D02*
X1094746Y0112149D01*
X1092958Y0112149D01*
X1092958Y0114213D01*
X1092958Y0113865D02*
X1094746Y0113865D01*
X1094746Y0124213D02*
X1092958Y0124213D01*
X1094746Y0124213D02*
X1094746Y0122149D01*
X1092958Y0122149D01*
X1092958Y0124213D01*
X1092958Y0123865D02*
X1094746Y0123865D01*
X1098902Y0122149D02*
X1100690Y0122149D01*
X1098902Y0122149D02*
X1098902Y0124213D01*
X1100690Y0124213D01*
X1100690Y0122149D01*
X1100690Y0123865D02*
X1098902Y0123865D01*
X1098902Y0132149D02*
X1100690Y0132149D01*
X1098902Y0132149D02*
X1098902Y0134213D01*
X1100690Y0134213D01*
X1100690Y0132149D01*
X1100690Y0133865D02*
X1098902Y0133865D01*
X1094746Y0134213D02*
X1092958Y0134213D01*
X1094746Y0134213D02*
X1094746Y0132149D01*
X1092958Y0132149D01*
X1092958Y0134213D01*
X1092958Y0133865D02*
X1094746Y0133865D01*
X1094746Y0149213D02*
X1092958Y0149213D01*
X1094746Y0149213D02*
X1094746Y0147149D01*
X1092958Y0147149D01*
X1092958Y0149213D01*
X1092958Y0148865D02*
X1094746Y0148865D01*
X1098902Y0147149D02*
X1100690Y0147149D01*
X1098902Y0147149D02*
X1098902Y0149213D01*
X1100690Y0149213D01*
X1100690Y0147149D01*
X1100690Y0148865D02*
X1098902Y0148865D01*
X1098902Y0157149D02*
X1100690Y0157149D01*
X1098902Y0157149D02*
X1098902Y0159213D01*
X1100690Y0159213D01*
X1100690Y0157149D01*
X1100690Y0158865D02*
X1098902Y0158865D01*
X1094746Y0159213D02*
X1092958Y0159213D01*
X1094746Y0159213D02*
X1094746Y0157149D01*
X1092958Y0157149D01*
X1092958Y0159213D01*
X1092958Y0158865D02*
X1094746Y0158865D01*
X1094746Y0169213D02*
X1092958Y0169213D01*
X1094746Y0169213D02*
X1094746Y0167149D01*
X1092958Y0167149D01*
X1092958Y0169213D01*
X1092958Y0168865D02*
X1094746Y0168865D01*
X1098902Y0167149D02*
X1100690Y0167149D01*
X1098902Y0167149D02*
X1098902Y0169213D01*
X1100690Y0169213D01*
X1100690Y0167149D01*
X1100690Y0168865D02*
X1098902Y0168865D01*
X1098902Y0177149D02*
X1100690Y0177149D01*
X1098902Y0177149D02*
X1098902Y0179213D01*
X1100690Y0179213D01*
X1100690Y0177149D01*
X1100690Y0178865D02*
X1098902Y0178865D01*
X1094746Y0179213D02*
X1092958Y0179213D01*
X1094746Y0179213D02*
X1094746Y0177149D01*
X1092958Y0177149D01*
X1092958Y0179213D01*
X1092958Y0178865D02*
X1094746Y0178865D01*
X1049690Y0177149D02*
X1047902Y0177149D01*
X1047902Y0179213D01*
X1049690Y0179213D01*
X1049690Y0177149D01*
X1049690Y0178865D02*
X1047902Y0178865D01*
X1043746Y0179213D02*
X1041958Y0179213D01*
X1043746Y0179213D02*
X1043746Y0177149D01*
X1041958Y0177149D01*
X1041958Y0179213D01*
X1041958Y0178865D02*
X1043746Y0178865D01*
X1043746Y0169213D02*
X1041958Y0169213D01*
X1043746Y0169213D02*
X1043746Y0167149D01*
X1041958Y0167149D01*
X1041958Y0169213D01*
X1041958Y0168865D02*
X1043746Y0168865D01*
X1047902Y0167149D02*
X1049690Y0167149D01*
X1047902Y0167149D02*
X1047902Y0169213D01*
X1049690Y0169213D01*
X1049690Y0167149D01*
X1049690Y0168865D02*
X1047902Y0168865D01*
X1047902Y0157149D02*
X1049690Y0157149D01*
X1047902Y0157149D02*
X1047902Y0159213D01*
X1049690Y0159213D01*
X1049690Y0157149D01*
X1049690Y0158865D02*
X1047902Y0158865D01*
X1043746Y0159213D02*
X1041958Y0159213D01*
X1043746Y0159213D02*
X1043746Y0157149D01*
X1041958Y0157149D01*
X1041958Y0159213D01*
X1041958Y0158865D02*
X1043746Y0158865D01*
X1043746Y0149213D02*
X1041958Y0149213D01*
X1043746Y0149213D02*
X1043746Y0147149D01*
X1041958Y0147149D01*
X1041958Y0149213D01*
X1041958Y0148865D02*
X1043746Y0148865D01*
X1047902Y0147149D02*
X1049690Y0147149D01*
X1047902Y0147149D02*
X1047902Y0149213D01*
X1049690Y0149213D01*
X1049690Y0147149D01*
X1049690Y0148865D02*
X1047902Y0148865D01*
X1047902Y0192149D02*
X1049690Y0192149D01*
X1047902Y0192149D02*
X1047902Y0194213D01*
X1049690Y0194213D01*
X1049690Y0192149D01*
X1049690Y0193865D02*
X1047902Y0193865D01*
X1043746Y0194213D02*
X1041958Y0194213D01*
X1043746Y0194213D02*
X1043746Y0192149D01*
X1041958Y0192149D01*
X1041958Y0194213D01*
X1041958Y0193865D02*
X1043746Y0193865D01*
X1043746Y0204213D02*
X1041958Y0204213D01*
X1043746Y0204213D02*
X1043746Y0202149D01*
X1041958Y0202149D01*
X1041958Y0204213D01*
X1041958Y0203865D02*
X1043746Y0203865D01*
X1047902Y0202149D02*
X1049690Y0202149D01*
X1047902Y0202149D02*
X1047902Y0204213D01*
X1049690Y0204213D01*
X1049690Y0202149D01*
X1049690Y0203865D02*
X1047902Y0203865D01*
X1047902Y0212149D02*
X1049690Y0212149D01*
X1047902Y0212149D02*
X1047902Y0214213D01*
X1049690Y0214213D01*
X1049690Y0212149D01*
X1049690Y0213865D02*
X1047902Y0213865D01*
X1043746Y0214213D02*
X1041958Y0214213D01*
X1043746Y0214213D02*
X1043746Y0212149D01*
X1041958Y0212149D01*
X1041958Y0214213D01*
X1041958Y0213865D02*
X1043746Y0213865D01*
X1043746Y0224213D02*
X1041958Y0224213D01*
X1043746Y0224213D02*
X1043746Y0222149D01*
X1041958Y0222149D01*
X1041958Y0224213D01*
X1041958Y0223865D02*
X1043746Y0223865D01*
X1047902Y0222149D02*
X1049690Y0222149D01*
X1047902Y0222149D02*
X1047902Y0224213D01*
X1049690Y0224213D01*
X1049690Y0222149D01*
X1049690Y0223865D02*
X1047902Y0223865D01*
X1047902Y0237149D02*
X1049690Y0237149D01*
X1047902Y0237149D02*
X1047902Y0239213D01*
X1049690Y0239213D01*
X1049690Y0237149D01*
X1049690Y0238865D02*
X1047902Y0238865D01*
X1043746Y0239213D02*
X1041958Y0239213D01*
X1043746Y0239213D02*
X1043746Y0237149D01*
X1041958Y0237149D01*
X1041958Y0239213D01*
X1041958Y0238865D02*
X1043746Y0238865D01*
X1043746Y0249213D02*
X1041958Y0249213D01*
X1043746Y0249213D02*
X1043746Y0247149D01*
X1041958Y0247149D01*
X1041958Y0249213D01*
X1041958Y0248865D02*
X1043746Y0248865D01*
X1047902Y0247149D02*
X1049690Y0247149D01*
X1047902Y0247149D02*
X1047902Y0249213D01*
X1049690Y0249213D01*
X1049690Y0247149D01*
X1049690Y0248865D02*
X1047902Y0248865D01*
X1047902Y0257149D02*
X1049690Y0257149D01*
X1047902Y0257149D02*
X1047902Y0259213D01*
X1049690Y0259213D01*
X1049690Y0257149D01*
X1049690Y0258865D02*
X1047902Y0258865D01*
X1043746Y0259213D02*
X1041958Y0259213D01*
X1043746Y0259213D02*
X1043746Y0257149D01*
X1041958Y0257149D01*
X1041958Y0259213D01*
X1041958Y0258865D02*
X1043746Y0258865D01*
X1043746Y0269213D02*
X1041958Y0269213D01*
X1043746Y0269213D02*
X1043746Y0267149D01*
X1041958Y0267149D01*
X1041958Y0269213D01*
X1041958Y0268865D02*
X1043746Y0268865D01*
X1047902Y0267149D02*
X1049690Y0267149D01*
X1047902Y0267149D02*
X1047902Y0269213D01*
X1049690Y0269213D01*
X1049690Y0267149D01*
X1049690Y0268865D02*
X1047902Y0268865D01*
X1047902Y0282149D02*
X1049690Y0282149D01*
X1047902Y0282149D02*
X1047902Y0284213D01*
X1049690Y0284213D01*
X1049690Y0282149D01*
X1049690Y0283865D02*
X1047902Y0283865D01*
X1043746Y0284213D02*
X1041958Y0284213D01*
X1043746Y0284213D02*
X1043746Y0282149D01*
X1041958Y0282149D01*
X1041958Y0284213D01*
X1041958Y0283865D02*
X1043746Y0283865D01*
X1043746Y0294213D02*
X1041958Y0294213D01*
X1043746Y0294213D02*
X1043746Y0292149D01*
X1041958Y0292149D01*
X1041958Y0294213D01*
X1041958Y0293865D02*
X1043746Y0293865D01*
X1047902Y0292149D02*
X1049690Y0292149D01*
X1047902Y0292149D02*
X1047902Y0294213D01*
X1049690Y0294213D01*
X1049690Y0292149D01*
X1049690Y0293865D02*
X1047902Y0293865D01*
X1047902Y0302149D02*
X1049690Y0302149D01*
X1047902Y0302149D02*
X1047902Y0304213D01*
X1049690Y0304213D01*
X1049690Y0302149D01*
X1049690Y0303865D02*
X1047902Y0303865D01*
X1043746Y0304213D02*
X1041958Y0304213D01*
X1043746Y0304213D02*
X1043746Y0302149D01*
X1041958Y0302149D01*
X1041958Y0304213D01*
X1041958Y0303865D02*
X1043746Y0303865D01*
X1043746Y0314213D02*
X1041958Y0314213D01*
X1043746Y0314213D02*
X1043746Y0312149D01*
X1041958Y0312149D01*
X1041958Y0314213D01*
X1041958Y0313865D02*
X1043746Y0313865D01*
X1047902Y0312149D02*
X1049690Y0312149D01*
X1047902Y0312149D02*
X1047902Y0314213D01*
X1049690Y0314213D01*
X1049690Y0312149D01*
X1049690Y0313865D02*
X1047902Y0313865D01*
X1092958Y0314213D02*
X1094746Y0314213D01*
X1094746Y0312149D01*
X1092958Y0312149D01*
X1092958Y0314213D01*
X1092958Y0313865D02*
X1094746Y0313865D01*
X1098902Y0312149D02*
X1100690Y0312149D01*
X1098902Y0312149D02*
X1098902Y0314213D01*
X1100690Y0314213D01*
X1100690Y0312149D01*
X1100690Y0313865D02*
X1098902Y0313865D01*
X1098902Y0302149D02*
X1100690Y0302149D01*
X1098902Y0302149D02*
X1098902Y0304213D01*
X1100690Y0304213D01*
X1100690Y0302149D01*
X1100690Y0303865D02*
X1098902Y0303865D01*
X1094746Y0304213D02*
X1092958Y0304213D01*
X1094746Y0304213D02*
X1094746Y0302149D01*
X1092958Y0302149D01*
X1092958Y0304213D01*
X1092958Y0303865D02*
X1094746Y0303865D01*
X1094746Y0294213D02*
X1092958Y0294213D01*
X1094746Y0294213D02*
X1094746Y0292149D01*
X1092958Y0292149D01*
X1092958Y0294213D01*
X1092958Y0293865D02*
X1094746Y0293865D01*
X1098902Y0292149D02*
X1100690Y0292149D01*
X1098902Y0292149D02*
X1098902Y0294213D01*
X1100690Y0294213D01*
X1100690Y0292149D01*
X1100690Y0293865D02*
X1098902Y0293865D01*
X1098902Y0282149D02*
X1100690Y0282149D01*
X1098902Y0282149D02*
X1098902Y0284213D01*
X1100690Y0284213D01*
X1100690Y0282149D01*
X1100690Y0283865D02*
X1098902Y0283865D01*
X1094746Y0284213D02*
X1092958Y0284213D01*
X1094746Y0284213D02*
X1094746Y0282149D01*
X1092958Y0282149D01*
X1092958Y0284213D01*
X1092958Y0283865D02*
X1094746Y0283865D01*
X1094746Y0269213D02*
X1092958Y0269213D01*
X1094746Y0269213D02*
X1094746Y0267149D01*
X1092958Y0267149D01*
X1092958Y0269213D01*
X1092958Y0268865D02*
X1094746Y0268865D01*
X1098902Y0267149D02*
X1100690Y0267149D01*
X1098902Y0267149D02*
X1098902Y0269213D01*
X1100690Y0269213D01*
X1100690Y0267149D01*
X1100690Y0268865D02*
X1098902Y0268865D01*
X1098902Y0257149D02*
X1100690Y0257149D01*
X1098902Y0257149D02*
X1098902Y0259213D01*
X1100690Y0259213D01*
X1100690Y0257149D01*
X1100690Y0258865D02*
X1098902Y0258865D01*
X1094746Y0259213D02*
X1092958Y0259213D01*
X1094746Y0259213D02*
X1094746Y0257149D01*
X1092958Y0257149D01*
X1092958Y0259213D01*
X1092958Y0258865D02*
X1094746Y0258865D01*
X1094246Y0249213D02*
X1092458Y0249213D01*
X1094246Y0249213D02*
X1094246Y0247149D01*
X1092458Y0247149D01*
X1092458Y0249213D01*
X1092458Y0248865D02*
X1094246Y0248865D01*
X1098402Y0247149D02*
X1100190Y0247149D01*
X1098402Y0247149D02*
X1098402Y0249213D01*
X1100190Y0249213D01*
X1100190Y0247149D01*
X1100190Y0248865D02*
X1098402Y0248865D01*
X1098402Y0237149D02*
X1100190Y0237149D01*
X1098402Y0237149D02*
X1098402Y0239213D01*
X1100190Y0239213D01*
X1100190Y0237149D01*
X1100190Y0238865D02*
X1098402Y0238865D01*
X1094246Y0239213D02*
X1092458Y0239213D01*
X1094246Y0239213D02*
X1094246Y0237149D01*
X1092458Y0237149D01*
X1092458Y0239213D01*
X1092458Y0238865D02*
X1094246Y0238865D01*
X1094746Y0224213D02*
X1092958Y0224213D01*
X1094746Y0224213D02*
X1094746Y0222149D01*
X1092958Y0222149D01*
X1092958Y0224213D01*
X1092958Y0223865D02*
X1094746Y0223865D01*
X1098902Y0222149D02*
X1100690Y0222149D01*
X1098902Y0222149D02*
X1098902Y0224213D01*
X1100690Y0224213D01*
X1100690Y0222149D01*
X1100690Y0223865D02*
X1098902Y0223865D01*
X1098902Y0212149D02*
X1100690Y0212149D01*
X1098902Y0212149D02*
X1098902Y0214213D01*
X1100690Y0214213D01*
X1100690Y0212149D01*
X1100690Y0213865D02*
X1098902Y0213865D01*
X1094746Y0214213D02*
X1092958Y0214213D01*
X1094746Y0214213D02*
X1094746Y0212149D01*
X1092958Y0212149D01*
X1092958Y0214213D01*
X1092958Y0213865D02*
X1094746Y0213865D01*
X1094746Y0204213D02*
X1092958Y0204213D01*
X1094746Y0204213D02*
X1094746Y0202149D01*
X1092958Y0202149D01*
X1092958Y0204213D01*
X1092958Y0203865D02*
X1094746Y0203865D01*
X1098902Y0202149D02*
X1100690Y0202149D01*
X1098902Y0202149D02*
X1098902Y0204213D01*
X1100690Y0204213D01*
X1100690Y0202149D01*
X1100690Y0203865D02*
X1098902Y0203865D01*
X1098902Y0192149D02*
X1100690Y0192149D01*
X1098902Y0192149D02*
X1098902Y0194213D01*
X1100690Y0194213D01*
X1100690Y0192149D01*
X1100690Y0193865D02*
X1098902Y0193865D01*
X1094746Y0194213D02*
X1092958Y0194213D01*
X1094746Y0194213D02*
X1094746Y0192149D01*
X1092958Y0192149D01*
X1092958Y0194213D01*
X1092958Y0193865D02*
X1094746Y0193865D01*
X1071930Y0349342D02*
X1071930Y0351130D01*
X1073994Y0351130D01*
X1073994Y0349342D01*
X1071930Y0349342D01*
X1071930Y0351058D02*
X1073994Y0351058D01*
X1073994Y0355287D02*
X1073994Y0357075D01*
X1073994Y0355287D02*
X1071930Y0355287D01*
X1071930Y0357075D01*
X1073994Y0357075D01*
X1073994Y0357003D02*
X1071930Y0357003D01*
X1071930Y0361342D02*
X1071930Y0363130D01*
X1073994Y0363130D01*
X1073994Y0361342D01*
X1071930Y0361342D01*
X1071930Y0363058D02*
X1073994Y0363058D01*
X1073994Y0367287D02*
X1073994Y0369075D01*
X1073994Y0367287D02*
X1071930Y0367287D01*
X1071930Y0369075D01*
X1073994Y0369075D01*
X1073994Y0369003D02*
X1071930Y0369003D01*
X1029108Y0365421D02*
X1027320Y0365421D01*
X1027320Y0367485D01*
X1029108Y0367485D01*
X1029108Y0365421D01*
X1029108Y0367137D02*
X1027320Y0367137D01*
X1023163Y0367485D02*
X1021375Y0367485D01*
X1023163Y0367485D02*
X1023163Y0365421D01*
X1021375Y0365421D01*
X1021375Y0367485D01*
X1021375Y0367137D02*
X1023163Y0367137D01*
X1023163Y0359485D02*
X1021375Y0359485D01*
X1023163Y0359485D02*
X1023163Y0357421D01*
X1021375Y0357421D01*
X1021375Y0359485D01*
X1021375Y0359137D02*
X1023163Y0359137D01*
X1027320Y0357421D02*
X1029108Y0357421D01*
X1027320Y0357421D02*
X1027320Y0359485D01*
X1029108Y0359485D01*
X1029108Y0357421D01*
X1029108Y0359137D02*
X1027320Y0359137D01*
X1027320Y0349921D02*
X1029108Y0349921D01*
X1027320Y0349921D02*
X1027320Y0351985D01*
X1029108Y0351985D01*
X1029108Y0349921D01*
X1029108Y0351637D02*
X1027320Y0351637D01*
X1023163Y0351985D02*
X1021375Y0351985D01*
X1023163Y0351985D02*
X1023163Y0349921D01*
X1021375Y0349921D01*
X1021375Y0351985D01*
X1021375Y0351637D02*
X1023163Y0351637D01*
X1144430Y0371315D02*
X1144430Y0373103D01*
X1146494Y0373103D01*
X1146494Y0371315D01*
X1144430Y0371315D01*
X1144430Y0373031D02*
X1146494Y0373031D01*
X1146494Y0377260D02*
X1146494Y0379048D01*
X1146494Y0377260D02*
X1144430Y0377260D01*
X1144430Y0379048D01*
X1146494Y0379048D01*
X1146494Y0378976D02*
X1144430Y0378976D01*
X1196792Y0422315D02*
X1196792Y0424103D01*
X1198856Y0424103D01*
X1198856Y0422315D01*
X1196792Y0422315D01*
X1196792Y0424031D02*
X1198856Y0424031D01*
X1198856Y0428260D02*
X1198856Y0430048D01*
X1198856Y0428260D02*
X1196792Y0428260D01*
X1196792Y0430048D01*
X1198856Y0430048D01*
X1198856Y0429976D02*
X1196792Y0429976D01*
D29*
X1198277Y0412511D02*
X1198277Y0409363D01*
X1204182Y0409363D02*
X1204182Y0412511D01*
X1210088Y0412511D02*
X1210088Y0409363D01*
X1192371Y0409363D02*
X1192371Y0412511D01*
X1186466Y0412511D02*
X1186466Y0409363D01*
X1180560Y0409363D02*
X1180560Y0412511D01*
X1174655Y0412511D02*
X1174655Y0409363D01*
X1168749Y0409363D02*
X1168749Y0412511D01*
X1162449Y0405276D02*
X1159301Y0405276D01*
X1159301Y0399370D02*
X1162449Y0399370D01*
X1162449Y0393465D02*
X1159301Y0393465D01*
X1159301Y0387559D02*
X1162449Y0387559D01*
X1162449Y0381654D02*
X1159301Y0381654D01*
X1159301Y0375748D02*
X1162449Y0375748D01*
X1162449Y0369843D02*
X1159301Y0369843D01*
X1159301Y0363937D02*
X1162449Y0363937D01*
X1168749Y0359755D02*
X1168749Y0356607D01*
X1174655Y0356607D02*
X1174655Y0359755D01*
X1180560Y0359755D02*
X1180560Y0356607D01*
X1186466Y0356607D02*
X1186466Y0359755D01*
X1192371Y0359755D02*
X1192371Y0356607D01*
X1198277Y0356607D02*
X1198277Y0359755D01*
X1204182Y0359755D02*
X1204182Y0356607D01*
X1210088Y0356607D02*
X1210088Y0359755D01*
D30*
X0384789Y0218280D03*
X0363135Y0218280D03*
X0363135Y0205682D03*
X0384789Y0205682D03*
D31*
X0649824Y0305681D03*
X0687824Y0305681D03*
X0090824Y0229681D03*
X0052824Y0229681D03*
D32*
X0080304Y0293681D03*
D33*
X0051564Y0284705D03*
X0051564Y0302657D03*
D34*
X0932391Y0343681D03*
X0948533Y0343681D03*
D35*
X1139462Y0416890D03*
X1139462Y0430374D03*
X0606462Y0367472D03*
X0606462Y0353988D03*
X0457962Y0277874D03*
X0457962Y0264390D03*
X0358462Y0263890D03*
X0358462Y0277374D03*
X0245462Y0277374D03*
X0245462Y0263890D03*
X0149462Y0263390D03*
X0149462Y0276874D03*
X0093462Y0261972D03*
X0093462Y0248488D03*
X0133462Y0235374D03*
X0133462Y0221890D03*
X0241462Y0184472D03*
X0241462Y0170988D03*
X0494462Y0171988D03*
X0494462Y0185472D03*
X0725462Y0190972D03*
X0725462Y0177488D03*
D36*
X0151655Y0186181D03*
X0138170Y0186181D03*
M02*
