G75*
%MOIN*%
%OFA0B0*%
%FSLAX25Y25*%
%IPPOS*%
%LPD*%
%AMOC8*
5,1,8,0,0,1.08239X$1,22.5*
%
%ADD10OC8,0.06000*%
%ADD11C,0.20000*%
%ADD12OC8,0.05200*%
%ADD13C,0.05200*%
%ADD14C,0.05543*%
%ADD15OC8,0.05543*%
%ADD16C,0.31496*%
%ADD17C,0.03200*%
%ADD18C,0.01000*%
%ADD19C,0.03962*%
%ADD20C,0.00100*%
%ADD21C,0.01600*%
D10*
X0112122Y0119144D03*
X0112122Y0129944D03*
X0112122Y0140744D03*
X0112122Y0151544D03*
X0112122Y0162344D03*
X0122122Y0156944D03*
X0122122Y0146144D03*
X0122122Y0135344D03*
X0122122Y0124544D03*
D11*
X0117122Y0091444D03*
X0117122Y0190044D03*
D12*
X0037122Y0137870D03*
D13*
X0057122Y0137870D03*
D14*
X0125705Y0226370D03*
X0125705Y0236370D03*
X0125705Y0246370D03*
X0125705Y0256370D03*
X0125705Y0266370D03*
X0125705Y0276370D03*
X0125705Y0286370D03*
X0125705Y0296370D03*
X0137319Y0339244D03*
X0137319Y0347118D03*
X0137319Y0354992D03*
X0137319Y0362866D03*
X0137319Y0370740D03*
X0137319Y0378614D03*
X0137319Y0386488D03*
D15*
X0137319Y0331370D03*
D16*
X0099484Y0371138D03*
X0099484Y0056177D03*
D17*
X0122122Y0124544D02*
X0122122Y0135344D01*
X0122122Y0146144D02*
X0122122Y0156944D01*
X0125705Y0226370D02*
X0125705Y0236370D01*
X0125705Y0266370D02*
X0125705Y0276370D01*
X0125705Y0286370D02*
X0125705Y0296370D01*
X0137319Y0331370D02*
X0137319Y0339244D01*
X0137319Y0378614D02*
X0137319Y0386488D01*
D18*
X0025246Y0406006D02*
X0025246Y0021309D01*
X0157974Y0021309D01*
X0157974Y0406006D01*
X0025246Y0406006D01*
X0025246Y0405228D02*
X0157974Y0405228D01*
X0157974Y0404229D02*
X0025246Y0404229D01*
X0025246Y0403231D02*
X0157974Y0403231D01*
X0157974Y0402232D02*
X0025246Y0402232D01*
X0025246Y0401234D02*
X0157974Y0401234D01*
X0157974Y0400235D02*
X0025246Y0400235D01*
X0025246Y0399237D02*
X0157974Y0399237D01*
X0157974Y0398238D02*
X0025246Y0398238D01*
X0025246Y0397240D02*
X0157974Y0397240D01*
X0157974Y0396241D02*
X0025246Y0396241D01*
X0025246Y0395243D02*
X0157974Y0395243D01*
X0157974Y0394244D02*
X0025246Y0394244D01*
X0025246Y0393246D02*
X0157974Y0393246D01*
X0157974Y0392247D02*
X0025246Y0392247D01*
X0025246Y0391249D02*
X0157974Y0391249D01*
X0157974Y0390250D02*
X0139344Y0390250D01*
X0139558Y0390142D02*
X0138959Y0390447D01*
X0138319Y0390655D01*
X0137705Y0390752D01*
X0137705Y0386874D01*
X0141583Y0386874D01*
X0141485Y0387488D01*
X0141278Y0388128D01*
X0140972Y0388727D01*
X0140577Y0389271D01*
X0140102Y0389746D01*
X0139558Y0390142D01*
X0140591Y0389252D02*
X0157974Y0389252D01*
X0157974Y0388253D02*
X0141214Y0388253D01*
X0141522Y0387255D02*
X0157974Y0387255D01*
X0157974Y0386256D02*
X0137705Y0386256D01*
X0137705Y0386102D02*
X0137705Y0386874D01*
X0136933Y0386874D01*
X0136933Y0386102D01*
X0137705Y0386102D01*
X0141583Y0386102D01*
X0141485Y0385488D01*
X0141278Y0384848D01*
X0140972Y0384249D01*
X0140577Y0383705D01*
X0140102Y0383230D01*
X0139558Y0382835D01*
X0139001Y0382551D01*
X0139558Y0382268D01*
X0140102Y0381872D01*
X0140577Y0381397D01*
X0140972Y0380853D01*
X0141278Y0380254D01*
X0141485Y0379614D01*
X0141583Y0379000D01*
X0137705Y0379000D01*
X0137705Y0378228D01*
X0141583Y0378228D01*
X0141485Y0377614D01*
X0141278Y0376974D01*
X0140972Y0376375D01*
X0140577Y0375831D01*
X0140102Y0375356D01*
X0140047Y0375316D01*
X0140305Y0375209D01*
X0141788Y0373726D01*
X0142591Y0371789D01*
X0142591Y0369692D01*
X0141788Y0367754D01*
X0140837Y0366803D01*
X0141533Y0366107D01*
X0144401Y0366107D01*
X0145613Y0365605D01*
X0146542Y0364676D01*
X0149113Y0362105D01*
X0150042Y0361176D01*
X0150544Y0359963D01*
X0150544Y0258151D01*
X0150042Y0256938D01*
X0149113Y0256009D01*
X0146613Y0253509D01*
X0145401Y0253007D01*
X0139711Y0253007D01*
X0140542Y0252176D01*
X0141044Y0250963D01*
X0141044Y0172151D01*
X0140542Y0170938D01*
X0134613Y0165009D01*
X0133401Y0164507D01*
X0123611Y0164507D01*
X0121548Y0162444D01*
X0124400Y0162444D01*
X0127622Y0159222D01*
X0127622Y0154666D01*
X0126222Y0153266D01*
X0126222Y0149822D01*
X0127622Y0148422D01*
X0127622Y0143866D01*
X0124500Y0140744D01*
X0127622Y0137622D01*
X0127622Y0133066D01*
X0126222Y0131666D01*
X0126222Y0128222D01*
X0127622Y0126822D01*
X0127622Y0122266D01*
X0124400Y0119044D01*
X0119844Y0119044D01*
X0116622Y0122266D01*
X0116622Y0126666D01*
X0114400Y0124444D01*
X0109844Y0124444D01*
X0106622Y0127666D01*
X0106622Y0132222D01*
X0109744Y0135344D01*
X0106622Y0138466D01*
X0106622Y0143022D01*
X0109744Y0146144D01*
X0106622Y0149266D01*
X0106622Y0153822D01*
X0109744Y0156944D01*
X0106622Y0160066D01*
X0106622Y0164622D01*
X0109844Y0167844D01*
X0114400Y0167844D01*
X0116007Y0166237D01*
X0120375Y0170605D01*
X0121588Y0171107D01*
X0131377Y0171107D01*
X0134444Y0174174D01*
X0134444Y0248940D01*
X0130377Y0253007D01*
X0129797Y0253007D01*
X0128691Y0251901D01*
X0127409Y0251370D01*
X0128691Y0250839D01*
X0130174Y0249356D01*
X0130976Y0247419D01*
X0130976Y0245321D01*
X0130174Y0243384D01*
X0128691Y0241901D01*
X0127409Y0241370D01*
X0128691Y0240839D01*
X0130174Y0239356D01*
X0130976Y0237419D01*
X0130976Y0235321D01*
X0130174Y0233384D01*
X0129805Y0233015D01*
X0129805Y0229725D01*
X0130174Y0229356D01*
X0130976Y0227419D01*
X0130976Y0225321D01*
X0130174Y0223384D01*
X0128691Y0221901D01*
X0126753Y0221098D01*
X0124656Y0221098D01*
X0122719Y0221901D01*
X0121236Y0223384D01*
X0120433Y0225321D01*
X0120433Y0227419D01*
X0121236Y0229356D01*
X0121605Y0229725D01*
X0121605Y0233015D01*
X0121236Y0233384D01*
X0120433Y0235321D01*
X0120433Y0237419D01*
X0121236Y0239356D01*
X0122719Y0240839D01*
X0124000Y0241370D01*
X0122719Y0241901D01*
X0121236Y0243384D01*
X0120433Y0245321D01*
X0120433Y0247419D01*
X0121236Y0249356D01*
X0122719Y0250839D01*
X0124000Y0251370D01*
X0122719Y0251901D01*
X0121236Y0253384D01*
X0120433Y0255321D01*
X0120433Y0257419D01*
X0121236Y0259356D01*
X0122719Y0260839D01*
X0124000Y0261370D01*
X0122719Y0261901D01*
X0121236Y0263384D01*
X0120433Y0265321D01*
X0120433Y0267419D01*
X0121236Y0269356D01*
X0121605Y0269725D01*
X0121605Y0273015D01*
X0121236Y0273384D01*
X0120433Y0275321D01*
X0120433Y0277419D01*
X0121236Y0279356D01*
X0122719Y0280839D01*
X0124656Y0281642D01*
X0126753Y0281642D01*
X0128691Y0280839D01*
X0130174Y0279356D01*
X0130976Y0277419D01*
X0130976Y0275321D01*
X0130174Y0273384D01*
X0129805Y0273015D01*
X0129805Y0269725D01*
X0130174Y0269356D01*
X0130976Y0267419D01*
X0130976Y0265321D01*
X0130174Y0263384D01*
X0128691Y0261901D01*
X0127409Y0261370D01*
X0128691Y0260839D01*
X0129923Y0259607D01*
X0143377Y0259607D01*
X0143944Y0260174D01*
X0143944Y0357940D01*
X0142377Y0359507D01*
X0141415Y0359507D01*
X0140837Y0358929D01*
X0141788Y0357978D01*
X0142591Y0356041D01*
X0142591Y0353944D01*
X0141788Y0352006D01*
X0140837Y0351055D01*
X0141788Y0350104D01*
X0142591Y0348167D01*
X0142591Y0346070D01*
X0141788Y0344132D01*
X0140837Y0343181D01*
X0141788Y0342230D01*
X0142591Y0340293D01*
X0142591Y0338195D01*
X0141788Y0336258D01*
X0141419Y0335889D01*
X0141419Y0334725D01*
X0142591Y0333554D01*
X0142591Y0329186D01*
X0139502Y0326098D01*
X0135135Y0326098D01*
X0132047Y0329186D01*
X0132047Y0333554D01*
X0133219Y0334725D01*
X0133219Y0335889D01*
X0132850Y0336258D01*
X0132047Y0338195D01*
X0132047Y0340293D01*
X0132850Y0342230D01*
X0133801Y0343181D01*
X0132850Y0344132D01*
X0132047Y0346070D01*
X0132047Y0348167D01*
X0132850Y0350104D01*
X0133801Y0351055D01*
X0132850Y0352006D01*
X0132047Y0353944D01*
X0132047Y0356041D01*
X0132850Y0357978D01*
X0133801Y0358929D01*
X0132850Y0359880D01*
X0132047Y0361818D01*
X0132047Y0363915D01*
X0132850Y0365852D01*
X0133801Y0366803D01*
X0132850Y0367754D01*
X0132047Y0369692D01*
X0132047Y0371789D01*
X0132850Y0373726D01*
X0134333Y0375209D01*
X0134591Y0375316D01*
X0134536Y0375356D01*
X0134061Y0375831D01*
X0133665Y0376375D01*
X0133360Y0376974D01*
X0133152Y0377614D01*
X0133055Y0378228D01*
X0136933Y0378228D01*
X0136933Y0379000D01*
X0133055Y0379000D01*
X0133152Y0379614D01*
X0133360Y0380254D01*
X0133665Y0380853D01*
X0134061Y0381397D01*
X0134536Y0381872D01*
X0135080Y0382268D01*
X0135637Y0382551D01*
X0135080Y0382835D01*
X0134536Y0383230D01*
X0134061Y0383705D01*
X0133665Y0384249D01*
X0133360Y0384848D01*
X0133152Y0385488D01*
X0133055Y0386102D01*
X0136933Y0386102D01*
X0136933Y0379000D01*
X0137705Y0379000D01*
X0137705Y0382224D01*
X0137705Y0386102D01*
X0136933Y0386256D02*
X0109794Y0386256D01*
X0110689Y0385740D02*
X0106528Y0388142D01*
X0101887Y0389386D01*
X0097082Y0389386D01*
X0092441Y0388142D01*
X0088280Y0385740D01*
X0084882Y0382342D01*
X0082480Y0378181D01*
X0081236Y0373540D01*
X0081236Y0368735D01*
X0082480Y0364094D01*
X0084882Y0359933D01*
X0088280Y0356536D01*
X0092441Y0354133D01*
X0097082Y0352890D01*
X0101887Y0352890D01*
X0106528Y0354133D01*
X0110689Y0356536D01*
X0114086Y0359933D01*
X0116489Y0364094D01*
X0117732Y0368735D01*
X0117732Y0373540D01*
X0116489Y0378181D01*
X0114086Y0382342D01*
X0110689Y0385740D01*
X0111171Y0385258D02*
X0133227Y0385258D01*
X0133660Y0384259D02*
X0112169Y0384259D01*
X0113168Y0383261D02*
X0134505Y0383261D01*
X0135073Y0382262D02*
X0114133Y0382262D01*
X0114709Y0381264D02*
X0133964Y0381264D01*
X0133366Y0380265D02*
X0115286Y0380265D01*
X0115862Y0379267D02*
X0133097Y0379267D01*
X0133264Y0377270D02*
X0116733Y0377270D01*
X0117001Y0376271D02*
X0133741Y0376271D01*
X0134486Y0375273D02*
X0117268Y0375273D01*
X0117536Y0374274D02*
X0133398Y0374274D01*
X0132663Y0373276D02*
X0117732Y0373276D01*
X0117732Y0372277D02*
X0132250Y0372277D01*
X0132047Y0371279D02*
X0117732Y0371279D01*
X0117732Y0370280D02*
X0132047Y0370280D01*
X0132217Y0369282D02*
X0117732Y0369282D01*
X0117611Y0368283D02*
X0132631Y0368283D01*
X0133319Y0367285D02*
X0117344Y0367285D01*
X0117076Y0366286D02*
X0133284Y0366286D01*
X0132616Y0365288D02*
X0116808Y0365288D01*
X0116541Y0364289D02*
X0132202Y0364289D01*
X0132047Y0363291D02*
X0116025Y0363291D01*
X0115448Y0362292D02*
X0132047Y0362292D01*
X0132264Y0361293D02*
X0114872Y0361293D01*
X0114295Y0360295D02*
X0132678Y0360295D01*
X0133433Y0359296D02*
X0113450Y0359296D01*
X0112451Y0358298D02*
X0133170Y0358298D01*
X0132569Y0357299D02*
X0111453Y0357299D01*
X0110282Y0356301D02*
X0132155Y0356301D01*
X0132047Y0355302D02*
X0108553Y0355302D01*
X0106823Y0354304D02*
X0132047Y0354304D01*
X0132312Y0353305D02*
X0103438Y0353305D01*
X0095531Y0353305D02*
X0025246Y0353305D01*
X0025246Y0352307D02*
X0132725Y0352307D01*
X0133547Y0351308D02*
X0025246Y0351308D01*
X0025246Y0350310D02*
X0133055Y0350310D01*
X0132521Y0349311D02*
X0025246Y0349311D01*
X0025246Y0348313D02*
X0132108Y0348313D01*
X0132047Y0347314D02*
X0025246Y0347314D01*
X0025246Y0346316D02*
X0132047Y0346316D01*
X0132359Y0345317D02*
X0025246Y0345317D01*
X0025246Y0344319D02*
X0132772Y0344319D01*
X0133661Y0343320D02*
X0025246Y0343320D01*
X0025246Y0342322D02*
X0132941Y0342322D01*
X0132474Y0341323D02*
X0025246Y0341323D01*
X0025246Y0340325D02*
X0132061Y0340325D01*
X0132047Y0339326D02*
X0025246Y0339326D01*
X0025246Y0338328D02*
X0132047Y0338328D01*
X0132406Y0337329D02*
X0025246Y0337329D01*
X0025246Y0336331D02*
X0132820Y0336331D01*
X0133219Y0335332D02*
X0025246Y0335332D01*
X0025246Y0334334D02*
X0132827Y0334334D01*
X0132047Y0333335D02*
X0025246Y0333335D01*
X0025246Y0332337D02*
X0132047Y0332337D01*
X0132047Y0331338D02*
X0025246Y0331338D01*
X0025246Y0330340D02*
X0132047Y0330340D01*
X0132047Y0329341D02*
X0025246Y0329341D01*
X0025246Y0328343D02*
X0132891Y0328343D01*
X0133890Y0327344D02*
X0025246Y0327344D01*
X0025246Y0326346D02*
X0134888Y0326346D01*
X0139750Y0326346D02*
X0143944Y0326346D01*
X0143944Y0327344D02*
X0140748Y0327344D01*
X0141747Y0328343D02*
X0143944Y0328343D01*
X0143944Y0329341D02*
X0142591Y0329341D01*
X0142591Y0330340D02*
X0143944Y0330340D01*
X0143944Y0331338D02*
X0142591Y0331338D01*
X0142591Y0332337D02*
X0143944Y0332337D01*
X0143944Y0333335D02*
X0142591Y0333335D01*
X0141811Y0334334D02*
X0143944Y0334334D01*
X0143944Y0335332D02*
X0141419Y0335332D01*
X0141818Y0336331D02*
X0143944Y0336331D01*
X0143944Y0337329D02*
X0142232Y0337329D01*
X0142591Y0338328D02*
X0143944Y0338328D01*
X0143944Y0339326D02*
X0142591Y0339326D01*
X0142577Y0340325D02*
X0143944Y0340325D01*
X0143944Y0341323D02*
X0142164Y0341323D01*
X0141696Y0342322D02*
X0143944Y0342322D01*
X0143944Y0343320D02*
X0140976Y0343320D01*
X0141865Y0344319D02*
X0143944Y0344319D01*
X0143944Y0345317D02*
X0142279Y0345317D01*
X0142591Y0346316D02*
X0143944Y0346316D01*
X0143944Y0347314D02*
X0142591Y0347314D01*
X0142530Y0348313D02*
X0143944Y0348313D01*
X0143944Y0349311D02*
X0142116Y0349311D01*
X0141582Y0350310D02*
X0143944Y0350310D01*
X0143944Y0351308D02*
X0141090Y0351308D01*
X0141913Y0352307D02*
X0143944Y0352307D01*
X0143944Y0353305D02*
X0142326Y0353305D01*
X0142591Y0354304D02*
X0143944Y0354304D01*
X0143944Y0355302D02*
X0142591Y0355302D01*
X0142483Y0356301D02*
X0143944Y0356301D01*
X0143944Y0357299D02*
X0142069Y0357299D01*
X0141468Y0358298D02*
X0143586Y0358298D01*
X0142588Y0359296D02*
X0141204Y0359296D01*
X0141354Y0366286D02*
X0157974Y0366286D01*
X0157974Y0365288D02*
X0145931Y0365288D01*
X0146929Y0364289D02*
X0157974Y0364289D01*
X0157974Y0363291D02*
X0147928Y0363291D01*
X0148926Y0362292D02*
X0157974Y0362292D01*
X0157974Y0361293D02*
X0149925Y0361293D01*
X0150407Y0360295D02*
X0157974Y0360295D01*
X0157974Y0359296D02*
X0150544Y0359296D01*
X0150544Y0358298D02*
X0157974Y0358298D01*
X0157974Y0357299D02*
X0150544Y0357299D01*
X0150544Y0356301D02*
X0157974Y0356301D01*
X0157974Y0355302D02*
X0150544Y0355302D01*
X0150544Y0354304D02*
X0157974Y0354304D01*
X0157974Y0353305D02*
X0150544Y0353305D01*
X0150544Y0352307D02*
X0157974Y0352307D01*
X0157974Y0351308D02*
X0150544Y0351308D01*
X0150544Y0350310D02*
X0157974Y0350310D01*
X0157974Y0349311D02*
X0150544Y0349311D01*
X0150544Y0348313D02*
X0157974Y0348313D01*
X0157974Y0347314D02*
X0150544Y0347314D01*
X0150544Y0346316D02*
X0157974Y0346316D01*
X0157974Y0345317D02*
X0150544Y0345317D01*
X0150544Y0344319D02*
X0157974Y0344319D01*
X0157974Y0343320D02*
X0150544Y0343320D01*
X0150544Y0342322D02*
X0157974Y0342322D01*
X0157974Y0341323D02*
X0150544Y0341323D01*
X0150544Y0340325D02*
X0157974Y0340325D01*
X0157974Y0339326D02*
X0150544Y0339326D01*
X0150544Y0338328D02*
X0157974Y0338328D01*
X0157974Y0337329D02*
X0150544Y0337329D01*
X0150544Y0336331D02*
X0157974Y0336331D01*
X0157974Y0335332D02*
X0150544Y0335332D01*
X0150544Y0334334D02*
X0157974Y0334334D01*
X0157974Y0333335D02*
X0150544Y0333335D01*
X0150544Y0332337D02*
X0157974Y0332337D01*
X0157974Y0331338D02*
X0150544Y0331338D01*
X0150544Y0330340D02*
X0157974Y0330340D01*
X0157974Y0329341D02*
X0150544Y0329341D01*
X0150544Y0328343D02*
X0157974Y0328343D01*
X0157974Y0327344D02*
X0150544Y0327344D01*
X0150544Y0326346D02*
X0157974Y0326346D01*
X0157974Y0325347D02*
X0150544Y0325347D01*
X0150544Y0324349D02*
X0157974Y0324349D01*
X0157974Y0323350D02*
X0150544Y0323350D01*
X0150544Y0322352D02*
X0157974Y0322352D01*
X0157974Y0321353D02*
X0150544Y0321353D01*
X0150544Y0320355D02*
X0157974Y0320355D01*
X0157974Y0319356D02*
X0150544Y0319356D01*
X0150544Y0318358D02*
X0157974Y0318358D01*
X0157974Y0317359D02*
X0150544Y0317359D01*
X0150544Y0316360D02*
X0157974Y0316360D01*
X0157974Y0315362D02*
X0150544Y0315362D01*
X0150544Y0314363D02*
X0157974Y0314363D01*
X0157974Y0313365D02*
X0150544Y0313365D01*
X0150544Y0312366D02*
X0157974Y0312366D01*
X0157974Y0311368D02*
X0150544Y0311368D01*
X0150544Y0310369D02*
X0157974Y0310369D01*
X0157974Y0309371D02*
X0150544Y0309371D01*
X0150544Y0308372D02*
X0157974Y0308372D01*
X0157974Y0307374D02*
X0150544Y0307374D01*
X0150544Y0306375D02*
X0157974Y0306375D01*
X0157974Y0305377D02*
X0150544Y0305377D01*
X0150544Y0304378D02*
X0157974Y0304378D01*
X0157974Y0303380D02*
X0150544Y0303380D01*
X0150544Y0302381D02*
X0157974Y0302381D01*
X0157974Y0301383D02*
X0150544Y0301383D01*
X0150544Y0300384D02*
X0157974Y0300384D01*
X0157974Y0299386D02*
X0150544Y0299386D01*
X0150544Y0298387D02*
X0157974Y0298387D01*
X0157974Y0297389D02*
X0150544Y0297389D01*
X0150544Y0296390D02*
X0157974Y0296390D01*
X0157974Y0295392D02*
X0150544Y0295392D01*
X0150544Y0294393D02*
X0157974Y0294393D01*
X0157974Y0293395D02*
X0150544Y0293395D01*
X0150544Y0292396D02*
X0157974Y0292396D01*
X0157974Y0291398D02*
X0150544Y0291398D01*
X0150544Y0290399D02*
X0157974Y0290399D01*
X0157974Y0289401D02*
X0150544Y0289401D01*
X0150544Y0288402D02*
X0157974Y0288402D01*
X0157974Y0287404D02*
X0150544Y0287404D01*
X0150544Y0286405D02*
X0157974Y0286405D01*
X0157974Y0285407D02*
X0150544Y0285407D01*
X0150544Y0284408D02*
X0157974Y0284408D01*
X0157974Y0283410D02*
X0150544Y0283410D01*
X0150544Y0282411D02*
X0157974Y0282411D01*
X0157974Y0281413D02*
X0150544Y0281413D01*
X0150544Y0280414D02*
X0157974Y0280414D01*
X0157974Y0279416D02*
X0150544Y0279416D01*
X0150544Y0278417D02*
X0157974Y0278417D01*
X0157974Y0277419D02*
X0150544Y0277419D01*
X0150544Y0276420D02*
X0157974Y0276420D01*
X0157974Y0275422D02*
X0150544Y0275422D01*
X0150544Y0274423D02*
X0157974Y0274423D01*
X0157974Y0273424D02*
X0150544Y0273424D01*
X0150544Y0272426D02*
X0157974Y0272426D01*
X0157974Y0271427D02*
X0150544Y0271427D01*
X0150544Y0270429D02*
X0157974Y0270429D01*
X0157974Y0269430D02*
X0150544Y0269430D01*
X0150544Y0268432D02*
X0157974Y0268432D01*
X0157974Y0267433D02*
X0150544Y0267433D01*
X0150544Y0266435D02*
X0157974Y0266435D01*
X0157974Y0265436D02*
X0150544Y0265436D01*
X0150544Y0264438D02*
X0157974Y0264438D01*
X0157974Y0263439D02*
X0150544Y0263439D01*
X0150544Y0262441D02*
X0157974Y0262441D01*
X0157974Y0261442D02*
X0150544Y0261442D01*
X0150544Y0260444D02*
X0157974Y0260444D01*
X0157974Y0259445D02*
X0150544Y0259445D01*
X0150544Y0258447D02*
X0157974Y0258447D01*
X0157974Y0257448D02*
X0150253Y0257448D01*
X0149554Y0256450D02*
X0157974Y0256450D01*
X0157974Y0255451D02*
X0148555Y0255451D01*
X0147557Y0254453D02*
X0157974Y0254453D01*
X0157974Y0253454D02*
X0146480Y0253454D01*
X0143944Y0260444D02*
X0129086Y0260444D01*
X0127584Y0261442D02*
X0143944Y0261442D01*
X0143944Y0262441D02*
X0129231Y0262441D01*
X0130197Y0263439D02*
X0143944Y0263439D01*
X0143944Y0264438D02*
X0130610Y0264438D01*
X0130976Y0265436D02*
X0143944Y0265436D01*
X0143944Y0266435D02*
X0130976Y0266435D01*
X0130970Y0267433D02*
X0143944Y0267433D01*
X0143944Y0268432D02*
X0130557Y0268432D01*
X0130100Y0269430D02*
X0143944Y0269430D01*
X0143944Y0270429D02*
X0129805Y0270429D01*
X0129805Y0271427D02*
X0143944Y0271427D01*
X0143944Y0272426D02*
X0129805Y0272426D01*
X0130191Y0273424D02*
X0143944Y0273424D01*
X0143944Y0274423D02*
X0130604Y0274423D01*
X0130976Y0275422D02*
X0143944Y0275422D01*
X0143944Y0276420D02*
X0130976Y0276420D01*
X0130976Y0277419D02*
X0143944Y0277419D01*
X0143944Y0278417D02*
X0130563Y0278417D01*
X0130114Y0279416D02*
X0143944Y0279416D01*
X0143944Y0280414D02*
X0129116Y0280414D01*
X0127307Y0281413D02*
X0143944Y0281413D01*
X0143944Y0282411D02*
X0127344Y0282411D01*
X0127944Y0282717D01*
X0128488Y0283112D01*
X0128963Y0283587D01*
X0129358Y0284131D01*
X0129663Y0284730D01*
X0129871Y0285370D01*
X0129968Y0285984D01*
X0126091Y0285984D01*
X0126091Y0286756D01*
X0129968Y0286756D01*
X0129871Y0287370D01*
X0129663Y0288010D01*
X0129358Y0288609D01*
X0128963Y0289153D01*
X0128488Y0289628D01*
X0127944Y0290024D01*
X0127344Y0290329D01*
X0126705Y0290537D01*
X0126091Y0290634D01*
X0126091Y0286756D01*
X0125319Y0286756D01*
X0125319Y0290634D01*
X0124704Y0290537D01*
X0124065Y0290329D01*
X0123466Y0290024D01*
X0122922Y0289628D01*
X0122446Y0289153D01*
X0122051Y0288609D01*
X0121746Y0288010D01*
X0121538Y0287370D01*
X0121441Y0286756D01*
X0125319Y0286756D01*
X0125319Y0285984D01*
X0126091Y0285984D01*
X0126091Y0282106D01*
X0126705Y0282204D01*
X0127344Y0282411D01*
X0126091Y0282411D02*
X0125319Y0282411D01*
X0125319Y0282106D02*
X0125319Y0285984D01*
X0121441Y0285984D01*
X0121538Y0285370D01*
X0121746Y0284730D01*
X0122051Y0284131D01*
X0122446Y0283587D01*
X0122922Y0283112D01*
X0123466Y0282717D01*
X0124065Y0282411D01*
X0124704Y0282204D01*
X0125319Y0282106D01*
X0124066Y0282411D02*
X0025246Y0282411D01*
X0025246Y0281413D02*
X0124103Y0281413D01*
X0122293Y0280414D02*
X0025246Y0280414D01*
X0025246Y0279416D02*
X0121295Y0279416D01*
X0120847Y0278417D02*
X0025246Y0278417D01*
X0025246Y0277419D02*
X0120433Y0277419D01*
X0120433Y0276420D02*
X0025246Y0276420D01*
X0025246Y0275422D02*
X0120433Y0275422D01*
X0120805Y0274423D02*
X0025246Y0274423D01*
X0025246Y0273424D02*
X0121219Y0273424D01*
X0121605Y0272426D02*
X0025246Y0272426D01*
X0025246Y0271427D02*
X0121605Y0271427D01*
X0121605Y0270429D02*
X0025246Y0270429D01*
X0025246Y0269430D02*
X0121310Y0269430D01*
X0120853Y0268432D02*
X0025246Y0268432D01*
X0025246Y0267433D02*
X0120439Y0267433D01*
X0120433Y0266435D02*
X0025246Y0266435D01*
X0025246Y0265436D02*
X0120433Y0265436D01*
X0120799Y0264438D02*
X0025246Y0264438D01*
X0025246Y0263439D02*
X0121213Y0263439D01*
X0122179Y0262441D02*
X0025246Y0262441D01*
X0025246Y0261442D02*
X0123826Y0261442D01*
X0122323Y0260444D02*
X0025246Y0260444D01*
X0025246Y0259445D02*
X0121325Y0259445D01*
X0120859Y0258447D02*
X0025246Y0258447D01*
X0025246Y0257448D02*
X0120445Y0257448D01*
X0120433Y0256450D02*
X0025246Y0256450D01*
X0025246Y0255451D02*
X0120433Y0255451D01*
X0120793Y0254453D02*
X0025246Y0254453D01*
X0025246Y0253454D02*
X0121206Y0253454D01*
X0122164Y0252456D02*
X0025246Y0252456D01*
X0025246Y0251457D02*
X0123790Y0251457D01*
X0122338Y0250459D02*
X0025246Y0250459D01*
X0025246Y0249460D02*
X0121340Y0249460D01*
X0120865Y0248462D02*
X0025246Y0248462D01*
X0025246Y0247463D02*
X0120452Y0247463D01*
X0120433Y0246465D02*
X0025246Y0246465D01*
X0025246Y0245466D02*
X0120433Y0245466D01*
X0120787Y0244468D02*
X0025246Y0244468D01*
X0025246Y0243469D02*
X0121200Y0243469D01*
X0122149Y0242471D02*
X0025246Y0242471D01*
X0025246Y0241472D02*
X0123754Y0241472D01*
X0122353Y0240474D02*
X0025246Y0240474D01*
X0025246Y0239475D02*
X0121355Y0239475D01*
X0120871Y0238477D02*
X0025246Y0238477D01*
X0025246Y0237478D02*
X0120458Y0237478D01*
X0120433Y0236480D02*
X0025246Y0236480D01*
X0025246Y0235481D02*
X0120433Y0235481D01*
X0120781Y0234483D02*
X0025246Y0234483D01*
X0025246Y0233484D02*
X0121194Y0233484D01*
X0121605Y0232486D02*
X0025246Y0232486D01*
X0025246Y0231487D02*
X0121605Y0231487D01*
X0121605Y0230489D02*
X0101669Y0230489D01*
X0101906Y0230252D02*
X0101189Y0230969D01*
X0100251Y0231357D01*
X0033737Y0231357D01*
X0032800Y0230969D01*
X0031800Y0229969D01*
X0031800Y0229969D01*
X0031082Y0229252D01*
X0030694Y0228314D01*
X0030694Y0217803D01*
X0030692Y0217302D01*
X0030694Y0217297D01*
X0030694Y0217291D01*
X0030886Y0216826D01*
X0031076Y0216363D01*
X0031080Y0216359D01*
X0031082Y0216353D01*
X0031438Y0215998D01*
X0032419Y0215007D01*
X0032772Y0214649D01*
X0032777Y0214647D01*
X0032780Y0214643D01*
X0033242Y0214449D01*
X0033705Y0214252D01*
X0033711Y0214252D01*
X0033716Y0214250D01*
X0034217Y0214248D01*
X0088194Y0213780D01*
X0088194Y0173326D01*
X0088186Y0173306D01*
X0088194Y0172820D01*
X0088194Y0172334D01*
X0088203Y0172313D01*
X0088203Y0172291D01*
X0088396Y0171845D01*
X0088582Y0171397D01*
X0088598Y0171381D01*
X0088607Y0171361D01*
X0088956Y0171023D01*
X0089300Y0170679D01*
X0089320Y0170671D01*
X0089984Y0170028D01*
X0090322Y0169687D01*
X0090348Y0169676D01*
X0090369Y0169656D01*
X0090815Y0169480D01*
X0091257Y0169294D01*
X0091286Y0169294D01*
X0091313Y0169283D01*
X0091792Y0169291D01*
X0104286Y0169227D01*
X0104313Y0169217D01*
X0104792Y0169225D01*
X0105272Y0169222D01*
X0105298Y0169233D01*
X0105327Y0169234D01*
X0105767Y0169424D01*
X0106211Y0169606D01*
X0106231Y0169626D01*
X0106258Y0169637D01*
X0106591Y0169982D01*
X0106932Y0170319D01*
X0106943Y0170346D01*
X0107562Y0170986D01*
X0107906Y0171330D01*
X0107914Y0171350D01*
X0107930Y0171366D01*
X0108108Y0171818D01*
X0108294Y0172267D01*
X0108294Y0172289D01*
X0108302Y0172310D01*
X0108294Y0172795D01*
X0108294Y0178314D01*
X0107906Y0179252D01*
X0103294Y0183863D01*
X0103294Y0228314D01*
X0102906Y0229252D01*
X0101906Y0230252D01*
X0102667Y0229490D02*
X0121369Y0229490D01*
X0120877Y0228491D02*
X0103221Y0228491D01*
X0103294Y0227493D02*
X0120464Y0227493D01*
X0120433Y0226494D02*
X0103294Y0226494D01*
X0103294Y0225496D02*
X0120433Y0225496D01*
X0120774Y0224497D02*
X0103294Y0224497D01*
X0103294Y0223499D02*
X0121188Y0223499D01*
X0122119Y0222500D02*
X0103294Y0222500D01*
X0103294Y0221502D02*
X0123682Y0221502D01*
X0127727Y0221502D02*
X0134444Y0221502D01*
X0134444Y0222500D02*
X0129290Y0222500D01*
X0130221Y0223499D02*
X0134444Y0223499D01*
X0134444Y0224497D02*
X0130635Y0224497D01*
X0130976Y0225496D02*
X0134444Y0225496D01*
X0134444Y0226494D02*
X0130976Y0226494D01*
X0130946Y0227493D02*
X0134444Y0227493D01*
X0134444Y0228491D02*
X0130532Y0228491D01*
X0130040Y0229490D02*
X0134444Y0229490D01*
X0134444Y0230489D02*
X0129805Y0230489D01*
X0129805Y0231487D02*
X0134444Y0231487D01*
X0134444Y0232486D02*
X0129805Y0232486D01*
X0130215Y0233484D02*
X0134444Y0233484D01*
X0134444Y0234483D02*
X0130629Y0234483D01*
X0130976Y0235481D02*
X0134444Y0235481D01*
X0134444Y0236480D02*
X0130976Y0236480D01*
X0130952Y0237478D02*
X0134444Y0237478D01*
X0134444Y0238477D02*
X0130538Y0238477D01*
X0130055Y0239475D02*
X0134444Y0239475D01*
X0134444Y0240474D02*
X0129056Y0240474D01*
X0127656Y0241472D02*
X0134444Y0241472D01*
X0134444Y0242471D02*
X0129261Y0242471D01*
X0130209Y0243469D02*
X0134444Y0243469D01*
X0134444Y0244468D02*
X0130623Y0244468D01*
X0130976Y0245466D02*
X0134444Y0245466D01*
X0134444Y0246465D02*
X0130976Y0246465D01*
X0130958Y0247463D02*
X0134444Y0247463D01*
X0134444Y0248462D02*
X0130544Y0248462D01*
X0130070Y0249460D02*
X0133924Y0249460D01*
X0132926Y0250459D02*
X0129071Y0250459D01*
X0127620Y0251457D02*
X0131927Y0251457D01*
X0130929Y0252456D02*
X0129246Y0252456D01*
X0140262Y0252456D02*
X0157974Y0252456D01*
X0157974Y0251457D02*
X0140840Y0251457D01*
X0141044Y0250459D02*
X0157974Y0250459D01*
X0157974Y0249460D02*
X0141044Y0249460D01*
X0141044Y0248462D02*
X0157974Y0248462D01*
X0157974Y0247463D02*
X0141044Y0247463D01*
X0141044Y0246465D02*
X0157974Y0246465D01*
X0157974Y0245466D02*
X0141044Y0245466D01*
X0141044Y0244468D02*
X0157974Y0244468D01*
X0157974Y0243469D02*
X0141044Y0243469D01*
X0141044Y0242471D02*
X0157974Y0242471D01*
X0157974Y0241472D02*
X0141044Y0241472D01*
X0141044Y0240474D02*
X0157974Y0240474D01*
X0157974Y0239475D02*
X0141044Y0239475D01*
X0141044Y0238477D02*
X0157974Y0238477D01*
X0157974Y0237478D02*
X0141044Y0237478D01*
X0141044Y0236480D02*
X0157974Y0236480D01*
X0157974Y0235481D02*
X0141044Y0235481D01*
X0141044Y0234483D02*
X0157974Y0234483D01*
X0157974Y0233484D02*
X0141044Y0233484D01*
X0141044Y0232486D02*
X0157974Y0232486D01*
X0157974Y0231487D02*
X0141044Y0231487D01*
X0141044Y0230489D02*
X0157974Y0230489D01*
X0157974Y0229490D02*
X0141044Y0229490D01*
X0141044Y0228491D02*
X0157974Y0228491D01*
X0157974Y0227493D02*
X0141044Y0227493D01*
X0141044Y0226494D02*
X0157974Y0226494D01*
X0157974Y0225496D02*
X0141044Y0225496D01*
X0141044Y0224497D02*
X0157974Y0224497D01*
X0157974Y0223499D02*
X0141044Y0223499D01*
X0141044Y0222500D02*
X0157974Y0222500D01*
X0157974Y0221502D02*
X0141044Y0221502D01*
X0141044Y0220503D02*
X0157974Y0220503D01*
X0157974Y0219505D02*
X0141044Y0219505D01*
X0141044Y0218506D02*
X0157974Y0218506D01*
X0157974Y0217508D02*
X0141044Y0217508D01*
X0141044Y0216509D02*
X0157974Y0216509D01*
X0157974Y0215511D02*
X0141044Y0215511D01*
X0141044Y0214512D02*
X0157974Y0214512D01*
X0157974Y0213514D02*
X0141044Y0213514D01*
X0141044Y0212515D02*
X0157974Y0212515D01*
X0157974Y0211517D02*
X0141044Y0211517D01*
X0141044Y0210518D02*
X0157974Y0210518D01*
X0157974Y0209520D02*
X0141044Y0209520D01*
X0141044Y0208521D02*
X0157974Y0208521D01*
X0157974Y0207523D02*
X0141044Y0207523D01*
X0141044Y0206524D02*
X0157974Y0206524D01*
X0157974Y0205526D02*
X0141044Y0205526D01*
X0141044Y0204527D02*
X0157974Y0204527D01*
X0157974Y0203529D02*
X0141044Y0203529D01*
X0141044Y0202530D02*
X0157974Y0202530D01*
X0157974Y0201532D02*
X0141044Y0201532D01*
X0141044Y0200533D02*
X0157974Y0200533D01*
X0157974Y0199535D02*
X0141044Y0199535D01*
X0141044Y0198536D02*
X0157974Y0198536D01*
X0157974Y0197538D02*
X0141044Y0197538D01*
X0141044Y0196539D02*
X0157974Y0196539D01*
X0157974Y0195541D02*
X0141044Y0195541D01*
X0141044Y0194542D02*
X0157974Y0194542D01*
X0157974Y0193544D02*
X0141044Y0193544D01*
X0141044Y0192545D02*
X0157974Y0192545D01*
X0157974Y0191547D02*
X0141044Y0191547D01*
X0141044Y0190548D02*
X0157974Y0190548D01*
X0157974Y0189550D02*
X0141044Y0189550D01*
X0141044Y0188551D02*
X0157974Y0188551D01*
X0157974Y0187553D02*
X0141044Y0187553D01*
X0141044Y0186554D02*
X0157974Y0186554D01*
X0157974Y0185555D02*
X0141044Y0185555D01*
X0141044Y0184557D02*
X0157974Y0184557D01*
X0157974Y0183558D02*
X0141044Y0183558D01*
X0141044Y0182560D02*
X0157974Y0182560D01*
X0157974Y0181561D02*
X0141044Y0181561D01*
X0141044Y0180563D02*
X0157974Y0180563D01*
X0157974Y0179564D02*
X0141044Y0179564D01*
X0141044Y0178566D02*
X0157974Y0178566D01*
X0157974Y0177567D02*
X0141044Y0177567D01*
X0141044Y0176569D02*
X0157974Y0176569D01*
X0157974Y0175570D02*
X0141044Y0175570D01*
X0141044Y0174572D02*
X0157974Y0174572D01*
X0157974Y0173573D02*
X0141044Y0173573D01*
X0141044Y0172575D02*
X0157974Y0172575D01*
X0157974Y0171576D02*
X0140806Y0171576D01*
X0140182Y0170578D02*
X0157974Y0170578D01*
X0157974Y0169579D02*
X0139183Y0169579D01*
X0138185Y0168581D02*
X0157974Y0168581D01*
X0157974Y0167582D02*
X0137186Y0167582D01*
X0136188Y0166584D02*
X0157974Y0166584D01*
X0157974Y0165585D02*
X0135189Y0165585D01*
X0133593Y0164587D02*
X0157974Y0164587D01*
X0157974Y0163588D02*
X0122692Y0163588D01*
X0121694Y0162590D02*
X0157974Y0162590D01*
X0157974Y0161591D02*
X0125253Y0161591D01*
X0126252Y0160593D02*
X0157974Y0160593D01*
X0157974Y0159594D02*
X0127250Y0159594D01*
X0127622Y0158596D02*
X0157974Y0158596D01*
X0157974Y0157597D02*
X0127622Y0157597D01*
X0127622Y0156599D02*
X0157974Y0156599D01*
X0157974Y0155600D02*
X0127622Y0155600D01*
X0127558Y0154602D02*
X0157974Y0154602D01*
X0157974Y0153603D02*
X0126559Y0153603D01*
X0126222Y0152605D02*
X0157974Y0152605D01*
X0157974Y0151606D02*
X0126222Y0151606D01*
X0126222Y0150608D02*
X0157974Y0150608D01*
X0157974Y0149609D02*
X0126435Y0149609D01*
X0127434Y0148611D02*
X0157974Y0148611D01*
X0157974Y0147612D02*
X0127622Y0147612D01*
X0127622Y0146614D02*
X0157974Y0146614D01*
X0157974Y0145615D02*
X0127622Y0145615D01*
X0127622Y0144617D02*
X0157974Y0144617D01*
X0157974Y0143618D02*
X0127374Y0143618D01*
X0126376Y0142620D02*
X0157974Y0142620D01*
X0157974Y0141621D02*
X0125377Y0141621D01*
X0124622Y0140622D02*
X0157974Y0140622D01*
X0157974Y0139624D02*
X0125620Y0139624D01*
X0126619Y0138625D02*
X0157974Y0138625D01*
X0157974Y0137627D02*
X0127617Y0137627D01*
X0127622Y0136628D02*
X0157974Y0136628D01*
X0157974Y0135630D02*
X0127622Y0135630D01*
X0127622Y0134631D02*
X0157974Y0134631D01*
X0157974Y0133633D02*
X0127622Y0133633D01*
X0127191Y0132634D02*
X0157974Y0132634D01*
X0157974Y0131636D02*
X0126222Y0131636D01*
X0126222Y0130637D02*
X0157974Y0130637D01*
X0157974Y0129639D02*
X0126222Y0129639D01*
X0126222Y0128640D02*
X0157974Y0128640D01*
X0157974Y0127642D02*
X0126802Y0127642D01*
X0127622Y0126643D02*
X0157974Y0126643D01*
X0157974Y0125645D02*
X0127622Y0125645D01*
X0127622Y0124646D02*
X0157974Y0124646D01*
X0157974Y0123648D02*
X0127622Y0123648D01*
X0127622Y0122649D02*
X0157974Y0122649D01*
X0157974Y0121651D02*
X0127007Y0121651D01*
X0126008Y0120652D02*
X0157974Y0120652D01*
X0157974Y0119654D02*
X0125010Y0119654D01*
X0119234Y0119654D02*
X0116622Y0119654D01*
X0116622Y0119644D02*
X0116622Y0121008D01*
X0113986Y0123644D01*
X0112622Y0123644D01*
X0112622Y0119644D01*
X0116622Y0119644D01*
X0116622Y0118644D02*
X0112622Y0118644D01*
X0112622Y0114644D01*
X0113986Y0114644D01*
X0116622Y0117280D01*
X0116622Y0118644D01*
X0116622Y0117657D02*
X0157974Y0117657D01*
X0157974Y0118655D02*
X0112622Y0118655D01*
X0112622Y0118644D02*
X0112622Y0119644D01*
X0111622Y0119644D01*
X0111622Y0118644D01*
X0112622Y0118644D01*
X0112622Y0117657D02*
X0111622Y0117657D01*
X0111622Y0118644D02*
X0111622Y0114644D01*
X0110258Y0114644D01*
X0107622Y0117280D01*
X0107622Y0118644D01*
X0111622Y0118644D01*
X0111622Y0118655D02*
X0025246Y0118655D01*
X0025246Y0117657D02*
X0107622Y0117657D01*
X0108244Y0116658D02*
X0025246Y0116658D01*
X0025246Y0115660D02*
X0109242Y0115660D01*
X0110241Y0114661D02*
X0025246Y0114661D01*
X0025246Y0113663D02*
X0157974Y0113663D01*
X0157974Y0114661D02*
X0114003Y0114661D01*
X0112622Y0114661D02*
X0111622Y0114661D01*
X0111622Y0115660D02*
X0112622Y0115660D01*
X0112622Y0116658D02*
X0111622Y0116658D01*
X0111622Y0119644D02*
X0107622Y0119644D01*
X0107622Y0121008D01*
X0110258Y0123644D01*
X0111622Y0123644D01*
X0111622Y0119644D01*
X0111622Y0119654D02*
X0112622Y0119654D01*
X0112622Y0120652D02*
X0111622Y0120652D01*
X0111622Y0121651D02*
X0112622Y0121651D01*
X0112622Y0122649D02*
X0111622Y0122649D01*
X0109642Y0124646D02*
X0025246Y0124646D01*
X0025246Y0123648D02*
X0116622Y0123648D01*
X0116622Y0124646D02*
X0114602Y0124646D01*
X0115601Y0125645D02*
X0116622Y0125645D01*
X0116599Y0126643D02*
X0116622Y0126643D01*
X0116622Y0122649D02*
X0114981Y0122649D01*
X0115979Y0121651D02*
X0117237Y0121651D01*
X0116622Y0120652D02*
X0118236Y0120652D01*
X0116000Y0116658D02*
X0157974Y0116658D01*
X0157974Y0115660D02*
X0115002Y0115660D01*
X0108265Y0121651D02*
X0025246Y0121651D01*
X0025246Y0122649D02*
X0109263Y0122649D01*
X0107622Y0120652D02*
X0025246Y0120652D01*
X0025246Y0119654D02*
X0107622Y0119654D01*
X0108643Y0125645D02*
X0025246Y0125645D01*
X0025246Y0126643D02*
X0107645Y0126643D01*
X0106646Y0127642D02*
X0025246Y0127642D01*
X0025246Y0128640D02*
X0106622Y0128640D01*
X0106622Y0129639D02*
X0025246Y0129639D01*
X0025246Y0130637D02*
X0106622Y0130637D01*
X0106622Y0131636D02*
X0025246Y0131636D01*
X0025246Y0132634D02*
X0107034Y0132634D01*
X0108033Y0133633D02*
X0060097Y0133633D01*
X0060011Y0133547D02*
X0061446Y0134981D01*
X0062222Y0136856D01*
X0062222Y0138885D01*
X0061446Y0140759D01*
X0060011Y0142194D01*
X0058137Y0142970D01*
X0056108Y0142970D01*
X0054233Y0142194D01*
X0052798Y0140759D01*
X0052022Y0138885D01*
X0052022Y0136856D01*
X0052798Y0134981D01*
X0054233Y0133547D01*
X0056108Y0132770D01*
X0058137Y0132770D01*
X0060011Y0133547D01*
X0061096Y0134631D02*
X0109031Y0134631D01*
X0109458Y0135630D02*
X0061714Y0135630D01*
X0062128Y0136628D02*
X0108460Y0136628D01*
X0107461Y0137627D02*
X0062222Y0137627D01*
X0062222Y0138625D02*
X0106622Y0138625D01*
X0106622Y0139624D02*
X0061916Y0139624D01*
X0061502Y0140622D02*
X0106622Y0140622D01*
X0106622Y0141621D02*
X0060584Y0141621D01*
X0058983Y0142620D02*
X0106622Y0142620D01*
X0107218Y0143618D02*
X0025246Y0143618D01*
X0025246Y0142620D02*
X0055261Y0142620D01*
X0053660Y0141621D02*
X0039169Y0141621D01*
X0038820Y0141970D02*
X0037422Y0141970D01*
X0037422Y0138170D01*
X0041222Y0138170D01*
X0041222Y0139568D01*
X0038820Y0141970D01*
X0037422Y0141621D02*
X0036822Y0141621D01*
X0036822Y0141970D02*
X0035424Y0141970D01*
X0033022Y0139568D01*
X0033022Y0138170D01*
X0036822Y0138170D01*
X0036822Y0137570D01*
X0037422Y0137570D01*
X0037422Y0133770D01*
X0038820Y0133770D01*
X0041222Y0136172D01*
X0041222Y0137570D01*
X0037422Y0137570D01*
X0037422Y0138170D01*
X0036822Y0138170D01*
X0036822Y0141970D01*
X0036822Y0140622D02*
X0037422Y0140622D01*
X0037422Y0139624D02*
X0036822Y0139624D01*
X0036822Y0138625D02*
X0037422Y0138625D01*
X0037422Y0137627D02*
X0052022Y0137627D01*
X0052022Y0138625D02*
X0041222Y0138625D01*
X0041166Y0139624D02*
X0052328Y0139624D01*
X0052742Y0140622D02*
X0040168Y0140622D01*
X0041222Y0136628D02*
X0052116Y0136628D01*
X0052530Y0135630D02*
X0040680Y0135630D01*
X0039682Y0134631D02*
X0053148Y0134631D01*
X0054147Y0133633D02*
X0025246Y0133633D01*
X0025246Y0134631D02*
X0034562Y0134631D01*
X0035424Y0133770D02*
X0036822Y0133770D01*
X0036822Y0137570D01*
X0033022Y0137570D01*
X0033022Y0136172D01*
X0035424Y0133770D01*
X0036822Y0134631D02*
X0037422Y0134631D01*
X0037422Y0135630D02*
X0036822Y0135630D01*
X0036822Y0136628D02*
X0037422Y0136628D01*
X0036822Y0137627D02*
X0025246Y0137627D01*
X0025246Y0138625D02*
X0033022Y0138625D01*
X0033078Y0139624D02*
X0025246Y0139624D01*
X0025246Y0140622D02*
X0034076Y0140622D01*
X0035075Y0141621D02*
X0025246Y0141621D01*
X0025246Y0144617D02*
X0108216Y0144617D01*
X0109215Y0145615D02*
X0025246Y0145615D01*
X0025246Y0146614D02*
X0109274Y0146614D01*
X0108276Y0147612D02*
X0025246Y0147612D01*
X0025246Y0148611D02*
X0107277Y0148611D01*
X0106622Y0149609D02*
X0025246Y0149609D01*
X0025246Y0150608D02*
X0106622Y0150608D01*
X0106622Y0151606D02*
X0025246Y0151606D01*
X0025246Y0152605D02*
X0106622Y0152605D01*
X0106622Y0153603D02*
X0025246Y0153603D01*
X0025246Y0154602D02*
X0107401Y0154602D01*
X0108400Y0155600D02*
X0025246Y0155600D01*
X0025246Y0156599D02*
X0109398Y0156599D01*
X0109091Y0157597D02*
X0025246Y0157597D01*
X0025246Y0158596D02*
X0108092Y0158596D01*
X0107094Y0159594D02*
X0025246Y0159594D01*
X0025246Y0160593D02*
X0106622Y0160593D01*
X0106622Y0161591D02*
X0025246Y0161591D01*
X0025246Y0162590D02*
X0106622Y0162590D01*
X0106622Y0163588D02*
X0025246Y0163588D01*
X0025246Y0164587D02*
X0106622Y0164587D01*
X0107585Y0165585D02*
X0025246Y0165585D01*
X0025246Y0166584D02*
X0108584Y0166584D01*
X0109582Y0167582D02*
X0025246Y0167582D01*
X0025246Y0168581D02*
X0118351Y0168581D01*
X0119349Y0169579D02*
X0106146Y0169579D01*
X0107167Y0170578D02*
X0120348Y0170578D01*
X0117352Y0167582D02*
X0114662Y0167582D01*
X0115661Y0166584D02*
X0116354Y0166584D01*
X0116476Y0178544D02*
X0115193Y0178689D01*
X0113933Y0178976D01*
X0112714Y0179403D01*
X0111551Y0179963D01*
X0110457Y0180650D01*
X0109447Y0181456D01*
X0108534Y0182369D01*
X0107728Y0183379D01*
X0107041Y0184473D01*
X0106481Y0185636D01*
X0106054Y0186855D01*
X0105767Y0188115D01*
X0105622Y0189398D01*
X0105622Y0189544D01*
X0116622Y0189544D01*
X0117622Y0189544D01*
X0117622Y0178544D01*
X0117768Y0178544D01*
X0119051Y0178689D01*
X0120311Y0178976D01*
X0121530Y0179403D01*
X0122694Y0179963D01*
X0123787Y0180650D01*
X0124797Y0181456D01*
X0125710Y0182369D01*
X0126516Y0183379D01*
X0127203Y0184473D01*
X0127763Y0185636D01*
X0128190Y0186855D01*
X0128477Y0188115D01*
X0128622Y0189398D01*
X0128622Y0189544D01*
X0117622Y0189544D01*
X0117622Y0190544D01*
X0128622Y0190544D01*
X0128622Y0190690D01*
X0128477Y0191973D01*
X0128190Y0193233D01*
X0127763Y0194452D01*
X0127203Y0195616D01*
X0126516Y0196709D01*
X0125710Y0197719D01*
X0124797Y0198632D01*
X0123787Y0199438D01*
X0122694Y0200125D01*
X0121530Y0200685D01*
X0120311Y0201112D01*
X0119051Y0201399D01*
X0117768Y0201544D01*
X0117622Y0201544D01*
X0117622Y0190544D01*
X0116622Y0190544D01*
X0116622Y0189544D01*
X0116622Y0178544D01*
X0116476Y0178544D01*
X0116622Y0178566D02*
X0117622Y0178566D01*
X0117962Y0178566D02*
X0134444Y0178566D01*
X0134444Y0179564D02*
X0121866Y0179564D01*
X0123648Y0180563D02*
X0134444Y0180563D01*
X0134444Y0181561D02*
X0124903Y0181561D01*
X0125863Y0182560D02*
X0134444Y0182560D01*
X0134444Y0183558D02*
X0126629Y0183558D01*
X0127244Y0184557D02*
X0134444Y0184557D01*
X0134444Y0185555D02*
X0127724Y0185555D01*
X0128085Y0186554D02*
X0134444Y0186554D01*
X0134444Y0187553D02*
X0128349Y0187553D01*
X0128527Y0188551D02*
X0134444Y0188551D01*
X0134444Y0189550D02*
X0117622Y0189550D01*
X0117622Y0190548D02*
X0116622Y0190548D01*
X0116622Y0190544D02*
X0116622Y0201544D01*
X0116476Y0201544D01*
X0115193Y0201399D01*
X0113933Y0201112D01*
X0112714Y0200685D01*
X0111551Y0200125D01*
X0110457Y0199438D01*
X0109447Y0198632D01*
X0108534Y0197719D01*
X0107728Y0196709D01*
X0107041Y0195616D01*
X0106481Y0194452D01*
X0106054Y0193233D01*
X0105767Y0191973D01*
X0105622Y0190690D01*
X0105622Y0190544D01*
X0116622Y0190544D01*
X0116622Y0189550D02*
X0103294Y0189550D01*
X0103294Y0190548D02*
X0105622Y0190548D01*
X0105719Y0191547D02*
X0103294Y0191547D01*
X0103294Y0192545D02*
X0105897Y0192545D01*
X0106163Y0193544D02*
X0103294Y0193544D01*
X0103294Y0194542D02*
X0106524Y0194542D01*
X0107005Y0195541D02*
X0103294Y0195541D01*
X0103294Y0196539D02*
X0107621Y0196539D01*
X0108389Y0197538D02*
X0103294Y0197538D01*
X0103294Y0198536D02*
X0109351Y0198536D01*
X0110611Y0199535D02*
X0103294Y0199535D01*
X0103294Y0200533D02*
X0112398Y0200533D01*
X0116366Y0201532D02*
X0103294Y0201532D01*
X0103294Y0202530D02*
X0134444Y0202530D01*
X0134444Y0201532D02*
X0117878Y0201532D01*
X0117622Y0201532D02*
X0116622Y0201532D01*
X0116622Y0200533D02*
X0117622Y0200533D01*
X0117622Y0199535D02*
X0116622Y0199535D01*
X0116622Y0198536D02*
X0117622Y0198536D01*
X0117622Y0197538D02*
X0116622Y0197538D01*
X0116622Y0196539D02*
X0117622Y0196539D01*
X0117622Y0195541D02*
X0116622Y0195541D01*
X0116622Y0194542D02*
X0117622Y0194542D01*
X0117622Y0193544D02*
X0116622Y0193544D01*
X0116622Y0192545D02*
X0117622Y0192545D01*
X0117622Y0191547D02*
X0116622Y0191547D01*
X0116622Y0188551D02*
X0117622Y0188551D01*
X0117622Y0187553D02*
X0116622Y0187553D01*
X0116622Y0186554D02*
X0117622Y0186554D01*
X0117622Y0185555D02*
X0116622Y0185555D01*
X0116622Y0184557D02*
X0117622Y0184557D01*
X0117622Y0183558D02*
X0116622Y0183558D01*
X0116622Y0182560D02*
X0117622Y0182560D01*
X0117622Y0181561D02*
X0116622Y0181561D01*
X0116622Y0180563D02*
X0117622Y0180563D01*
X0117622Y0179564D02*
X0116622Y0179564D01*
X0116282Y0178566D02*
X0108190Y0178566D01*
X0108294Y0177567D02*
X0134444Y0177567D01*
X0134444Y0176569D02*
X0108294Y0176569D01*
X0108294Y0175570D02*
X0134444Y0175570D01*
X0134444Y0174572D02*
X0108294Y0174572D01*
X0108294Y0173573D02*
X0133843Y0173573D01*
X0132845Y0172575D02*
X0108298Y0172575D01*
X0108013Y0171576D02*
X0131846Y0171576D01*
X0134444Y0190548D02*
X0128622Y0190548D01*
X0128526Y0191547D02*
X0134444Y0191547D01*
X0134444Y0192545D02*
X0128347Y0192545D01*
X0128081Y0193544D02*
X0134444Y0193544D01*
X0134444Y0194542D02*
X0127720Y0194542D01*
X0127239Y0195541D02*
X0134444Y0195541D01*
X0134444Y0196539D02*
X0126623Y0196539D01*
X0125855Y0197538D02*
X0134444Y0197538D01*
X0134444Y0198536D02*
X0124893Y0198536D01*
X0123633Y0199535D02*
X0134444Y0199535D01*
X0134444Y0200533D02*
X0121846Y0200533D01*
X0112378Y0179564D02*
X0107593Y0179564D01*
X0106594Y0180563D02*
X0110596Y0180563D01*
X0109341Y0181561D02*
X0105596Y0181561D01*
X0104597Y0182560D02*
X0108381Y0182560D01*
X0107615Y0183558D02*
X0103599Y0183558D01*
X0103294Y0184557D02*
X0107000Y0184557D01*
X0106520Y0185555D02*
X0103294Y0185555D01*
X0103294Y0186554D02*
X0106160Y0186554D01*
X0105895Y0187553D02*
X0103294Y0187553D01*
X0103294Y0188551D02*
X0105718Y0188551D01*
X0103294Y0203529D02*
X0134444Y0203529D01*
X0134444Y0204527D02*
X0103294Y0204527D01*
X0103294Y0205526D02*
X0134444Y0205526D01*
X0134444Y0206524D02*
X0103294Y0206524D01*
X0103294Y0207523D02*
X0134444Y0207523D01*
X0134444Y0208521D02*
X0103294Y0208521D01*
X0103294Y0209520D02*
X0134444Y0209520D01*
X0134444Y0210518D02*
X0103294Y0210518D01*
X0103294Y0211517D02*
X0134444Y0211517D01*
X0134444Y0212515D02*
X0103294Y0212515D01*
X0103294Y0213514D02*
X0134444Y0213514D01*
X0134444Y0214512D02*
X0103294Y0214512D01*
X0103294Y0215511D02*
X0134444Y0215511D01*
X0134444Y0216509D02*
X0103294Y0216509D01*
X0103294Y0217508D02*
X0134444Y0217508D01*
X0134444Y0218506D02*
X0103294Y0218506D01*
X0103294Y0219505D02*
X0134444Y0219505D01*
X0134444Y0220503D02*
X0103294Y0220503D01*
X0088194Y0213514D02*
X0025246Y0213514D01*
X0025246Y0214512D02*
X0033091Y0214512D01*
X0031920Y0215511D02*
X0025246Y0215511D01*
X0025246Y0216509D02*
X0031016Y0216509D01*
X0030693Y0217508D02*
X0025246Y0217508D01*
X0025246Y0218506D02*
X0030694Y0218506D01*
X0030694Y0219505D02*
X0025246Y0219505D01*
X0025246Y0220503D02*
X0030694Y0220503D01*
X0030694Y0221502D02*
X0025246Y0221502D01*
X0025246Y0222500D02*
X0030694Y0222500D01*
X0030694Y0223499D02*
X0025246Y0223499D01*
X0025246Y0224497D02*
X0030694Y0224497D01*
X0030694Y0225496D02*
X0025246Y0225496D01*
X0025246Y0226494D02*
X0030694Y0226494D01*
X0030694Y0227493D02*
X0025246Y0227493D01*
X0025246Y0228491D02*
X0030767Y0228491D01*
X0031321Y0229490D02*
X0025246Y0229490D01*
X0025246Y0230489D02*
X0032319Y0230489D01*
X0025246Y0212515D02*
X0088194Y0212515D01*
X0088194Y0211517D02*
X0025246Y0211517D01*
X0025246Y0210518D02*
X0088194Y0210518D01*
X0088194Y0209520D02*
X0025246Y0209520D01*
X0025246Y0208521D02*
X0088194Y0208521D01*
X0088194Y0207523D02*
X0025246Y0207523D01*
X0025246Y0206524D02*
X0088194Y0206524D01*
X0088194Y0205526D02*
X0025246Y0205526D01*
X0025246Y0204527D02*
X0088194Y0204527D01*
X0088194Y0203529D02*
X0025246Y0203529D01*
X0025246Y0202530D02*
X0088194Y0202530D01*
X0088194Y0201532D02*
X0025246Y0201532D01*
X0025246Y0200533D02*
X0088194Y0200533D01*
X0088194Y0199535D02*
X0025246Y0199535D01*
X0025246Y0198536D02*
X0088194Y0198536D01*
X0088194Y0197538D02*
X0025246Y0197538D01*
X0025246Y0196539D02*
X0088194Y0196539D01*
X0088194Y0195541D02*
X0025246Y0195541D01*
X0025246Y0194542D02*
X0088194Y0194542D01*
X0088194Y0193544D02*
X0025246Y0193544D01*
X0025246Y0192545D02*
X0088194Y0192545D01*
X0088194Y0191547D02*
X0025246Y0191547D01*
X0025246Y0190548D02*
X0088194Y0190548D01*
X0088194Y0189550D02*
X0025246Y0189550D01*
X0025246Y0188551D02*
X0088194Y0188551D01*
X0088194Y0187553D02*
X0025246Y0187553D01*
X0025246Y0186554D02*
X0088194Y0186554D01*
X0088194Y0185555D02*
X0025246Y0185555D01*
X0025246Y0184557D02*
X0088194Y0184557D01*
X0088194Y0183558D02*
X0025246Y0183558D01*
X0025246Y0182560D02*
X0088194Y0182560D01*
X0088194Y0181561D02*
X0025246Y0181561D01*
X0025246Y0180563D02*
X0088194Y0180563D01*
X0088194Y0179564D02*
X0025246Y0179564D01*
X0025246Y0178566D02*
X0088194Y0178566D01*
X0088194Y0177567D02*
X0025246Y0177567D01*
X0025246Y0176569D02*
X0088194Y0176569D01*
X0088194Y0175570D02*
X0025246Y0175570D01*
X0025246Y0174572D02*
X0088194Y0174572D01*
X0088194Y0173573D02*
X0025246Y0173573D01*
X0025246Y0172575D02*
X0088194Y0172575D01*
X0088508Y0171576D02*
X0025246Y0171576D01*
X0025246Y0170578D02*
X0089416Y0170578D01*
X0090563Y0169579D02*
X0025246Y0169579D01*
X0025246Y0136628D02*
X0033022Y0136628D01*
X0033564Y0135630D02*
X0025246Y0135630D01*
X0025246Y0112664D02*
X0157974Y0112664D01*
X0157974Y0111666D02*
X0025246Y0111666D01*
X0025246Y0110667D02*
X0157974Y0110667D01*
X0157974Y0109669D02*
X0025246Y0109669D01*
X0025246Y0108670D02*
X0157974Y0108670D01*
X0157974Y0107672D02*
X0025246Y0107672D01*
X0025246Y0106673D02*
X0157974Y0106673D01*
X0157974Y0105675D02*
X0025246Y0105675D01*
X0025246Y0104676D02*
X0157974Y0104676D01*
X0157974Y0103678D02*
X0025246Y0103678D01*
X0025246Y0102679D02*
X0114665Y0102679D01*
X0115193Y0102799D02*
X0113933Y0102512D01*
X0112714Y0102085D01*
X0111551Y0101525D01*
X0110457Y0100838D01*
X0109447Y0100032D01*
X0108534Y0099119D01*
X0107728Y0098109D01*
X0107041Y0097016D01*
X0106481Y0095852D01*
X0106054Y0094633D01*
X0105767Y0093373D01*
X0105622Y0092090D01*
X0105622Y0091944D01*
X0116622Y0091944D01*
X0116622Y0090944D01*
X0117622Y0090944D01*
X0117622Y0079944D01*
X0117768Y0079944D01*
X0119051Y0080089D01*
X0120311Y0080376D01*
X0121530Y0080803D01*
X0122694Y0081363D01*
X0123787Y0082050D01*
X0124797Y0082856D01*
X0125710Y0083769D01*
X0126516Y0084779D01*
X0127203Y0085873D01*
X0127763Y0087036D01*
X0128190Y0088255D01*
X0128477Y0089515D01*
X0128622Y0090798D01*
X0128622Y0090944D01*
X0117622Y0090944D01*
X0117622Y0091944D01*
X0128622Y0091944D01*
X0128622Y0092090D01*
X0128477Y0093373D01*
X0128190Y0094633D01*
X0127763Y0095852D01*
X0127203Y0097016D01*
X0126516Y0098109D01*
X0125710Y0099119D01*
X0124797Y0100032D01*
X0123787Y0100838D01*
X0122694Y0101525D01*
X0121530Y0102085D01*
X0120311Y0102512D01*
X0119051Y0102799D01*
X0117768Y0102944D01*
X0117622Y0102944D01*
X0117622Y0091944D01*
X0116622Y0091944D01*
X0116622Y0102944D01*
X0116476Y0102944D01*
X0115193Y0102799D01*
X0116622Y0102679D02*
X0117622Y0102679D01*
X0117622Y0101681D02*
X0116622Y0101681D01*
X0116622Y0100682D02*
X0117622Y0100682D01*
X0117622Y0099684D02*
X0116622Y0099684D01*
X0116622Y0098685D02*
X0117622Y0098685D01*
X0117622Y0097687D02*
X0116622Y0097687D01*
X0116622Y0096688D02*
X0117622Y0096688D01*
X0117622Y0095689D02*
X0116622Y0095689D01*
X0116622Y0094691D02*
X0117622Y0094691D01*
X0117622Y0093692D02*
X0116622Y0093692D01*
X0116622Y0092694D02*
X0117622Y0092694D01*
X0117622Y0091695D02*
X0157974Y0091695D01*
X0157974Y0090697D02*
X0128611Y0090697D01*
X0128498Y0089698D02*
X0157974Y0089698D01*
X0157974Y0088700D02*
X0128291Y0088700D01*
X0127996Y0087701D02*
X0157974Y0087701D01*
X0157974Y0086703D02*
X0127603Y0086703D01*
X0127097Y0085704D02*
X0157974Y0085704D01*
X0157974Y0084706D02*
X0126458Y0084706D01*
X0125649Y0083707D02*
X0157974Y0083707D01*
X0157974Y0082709D02*
X0124613Y0082709D01*
X0123246Y0081710D02*
X0157974Y0081710D01*
X0157974Y0080712D02*
X0121270Y0080712D01*
X0117622Y0080712D02*
X0116622Y0080712D01*
X0116622Y0079944D02*
X0116622Y0090944D01*
X0105622Y0090944D01*
X0105622Y0090798D01*
X0105767Y0089515D01*
X0106054Y0088255D01*
X0106481Y0087036D01*
X0107041Y0085873D01*
X0107728Y0084779D01*
X0108534Y0083769D01*
X0109447Y0082856D01*
X0110457Y0082050D01*
X0111551Y0081363D01*
X0112714Y0080803D01*
X0113933Y0080376D01*
X0115193Y0080089D01*
X0116476Y0079944D01*
X0116622Y0079944D01*
X0116622Y0081710D02*
X0117622Y0081710D01*
X0117622Y0082709D02*
X0116622Y0082709D01*
X0116622Y0083707D02*
X0117622Y0083707D01*
X0117622Y0084706D02*
X0116622Y0084706D01*
X0116622Y0085704D02*
X0117622Y0085704D01*
X0117622Y0086703D02*
X0116622Y0086703D01*
X0116622Y0087701D02*
X0117622Y0087701D01*
X0117622Y0088700D02*
X0116622Y0088700D01*
X0116622Y0089698D02*
X0117622Y0089698D01*
X0117622Y0090697D02*
X0116622Y0090697D01*
X0116622Y0091695D02*
X0025246Y0091695D01*
X0025246Y0090697D02*
X0105633Y0090697D01*
X0105746Y0089698D02*
X0025246Y0089698D01*
X0025246Y0088700D02*
X0105953Y0088700D01*
X0106248Y0087701D02*
X0025246Y0087701D01*
X0025246Y0086703D02*
X0106641Y0086703D01*
X0107147Y0085704D02*
X0025246Y0085704D01*
X0025246Y0084706D02*
X0107787Y0084706D01*
X0108595Y0083707D02*
X0025246Y0083707D01*
X0025246Y0082709D02*
X0109631Y0082709D01*
X0110998Y0081710D02*
X0025246Y0081710D01*
X0025246Y0080712D02*
X0112974Y0080712D01*
X0109050Y0071725D02*
X0157974Y0071725D01*
X0157974Y0070727D02*
X0110741Y0070727D01*
X0110689Y0070779D02*
X0106528Y0073182D01*
X0101887Y0074425D01*
X0097082Y0074425D01*
X0092441Y0073182D01*
X0088280Y0070779D01*
X0084882Y0067382D01*
X0082480Y0063221D01*
X0081236Y0058580D01*
X0081236Y0053775D01*
X0082480Y0049134D01*
X0084882Y0044973D01*
X0088280Y0041575D01*
X0092441Y0039173D01*
X0097082Y0037929D01*
X0101887Y0037929D01*
X0106528Y0039173D01*
X0110689Y0041575D01*
X0114086Y0044973D01*
X0116489Y0049134D01*
X0117732Y0053775D01*
X0117732Y0058580D01*
X0116489Y0063221D01*
X0114086Y0067382D01*
X0110689Y0070779D01*
X0111740Y0069728D02*
X0157974Y0069728D01*
X0157974Y0068730D02*
X0112738Y0068730D01*
X0113737Y0067731D02*
X0157974Y0067731D01*
X0157974Y0066733D02*
X0114461Y0066733D01*
X0115038Y0065734D02*
X0157974Y0065734D01*
X0157974Y0064736D02*
X0115614Y0064736D01*
X0116191Y0063737D02*
X0157974Y0063737D01*
X0157974Y0062739D02*
X0116618Y0062739D01*
X0116885Y0061740D02*
X0157974Y0061740D01*
X0157974Y0060742D02*
X0117153Y0060742D01*
X0117421Y0059743D02*
X0157974Y0059743D01*
X0157974Y0058745D02*
X0117688Y0058745D01*
X0117732Y0057746D02*
X0157974Y0057746D01*
X0157974Y0056748D02*
X0117732Y0056748D01*
X0117732Y0055749D02*
X0157974Y0055749D01*
X0157974Y0054751D02*
X0117732Y0054751D01*
X0117726Y0053752D02*
X0157974Y0053752D01*
X0157974Y0052753D02*
X0117459Y0052753D01*
X0117191Y0051755D02*
X0157974Y0051755D01*
X0157974Y0050756D02*
X0116924Y0050756D01*
X0116656Y0049758D02*
X0157974Y0049758D01*
X0157974Y0048759D02*
X0116273Y0048759D01*
X0115696Y0047761D02*
X0157974Y0047761D01*
X0157974Y0046762D02*
X0115120Y0046762D01*
X0114543Y0045764D02*
X0157974Y0045764D01*
X0157974Y0044765D02*
X0113879Y0044765D01*
X0112881Y0043767D02*
X0157974Y0043767D01*
X0157974Y0042768D02*
X0111882Y0042768D01*
X0110884Y0041770D02*
X0157974Y0041770D01*
X0157974Y0040771D02*
X0109297Y0040771D01*
X0107567Y0039773D02*
X0157974Y0039773D01*
X0157974Y0038774D02*
X0105041Y0038774D01*
X0093928Y0038774D02*
X0025246Y0038774D01*
X0025246Y0037776D02*
X0157974Y0037776D01*
X0157974Y0036777D02*
X0025246Y0036777D01*
X0025246Y0035779D02*
X0157974Y0035779D01*
X0157974Y0034780D02*
X0025246Y0034780D01*
X0025246Y0033782D02*
X0157974Y0033782D01*
X0157974Y0032783D02*
X0025246Y0032783D01*
X0025246Y0031785D02*
X0157974Y0031785D01*
X0157974Y0030786D02*
X0025246Y0030786D01*
X0025246Y0029788D02*
X0157974Y0029788D01*
X0157974Y0028789D02*
X0025246Y0028789D01*
X0025246Y0027791D02*
X0157974Y0027791D01*
X0157974Y0026792D02*
X0025246Y0026792D01*
X0025246Y0025794D02*
X0157974Y0025794D01*
X0157974Y0024795D02*
X0025246Y0024795D01*
X0025246Y0023797D02*
X0157974Y0023797D01*
X0157974Y0022798D02*
X0025246Y0022798D01*
X0025246Y0021800D02*
X0157974Y0021800D01*
X0157974Y0072724D02*
X0107321Y0072724D01*
X0104510Y0073722D02*
X0157974Y0073722D01*
X0157974Y0074721D02*
X0025246Y0074721D01*
X0025246Y0075719D02*
X0157974Y0075719D01*
X0157974Y0076718D02*
X0025246Y0076718D01*
X0025246Y0077716D02*
X0157974Y0077716D01*
X0157974Y0078715D02*
X0025246Y0078715D01*
X0025246Y0079713D02*
X0157974Y0079713D01*
X0157974Y0092694D02*
X0128554Y0092694D01*
X0128405Y0093692D02*
X0157974Y0093692D01*
X0157974Y0094691D02*
X0128170Y0094691D01*
X0127820Y0095689D02*
X0157974Y0095689D01*
X0157974Y0096688D02*
X0127361Y0096688D01*
X0126781Y0097687D02*
X0157974Y0097687D01*
X0157974Y0098685D02*
X0126057Y0098685D01*
X0125146Y0099684D02*
X0157974Y0099684D01*
X0157974Y0100682D02*
X0123983Y0100682D01*
X0122371Y0101681D02*
X0157974Y0101681D01*
X0157974Y0102679D02*
X0119579Y0102679D01*
X0111873Y0101681D02*
X0025246Y0101681D01*
X0025246Y0100682D02*
X0110262Y0100682D01*
X0109098Y0099684D02*
X0025246Y0099684D01*
X0025246Y0098685D02*
X0108187Y0098685D01*
X0107463Y0097687D02*
X0025246Y0097687D01*
X0025246Y0096688D02*
X0106883Y0096688D01*
X0106424Y0095689D02*
X0025246Y0095689D01*
X0025246Y0094691D02*
X0106074Y0094691D01*
X0105839Y0093692D02*
X0025246Y0093692D01*
X0025246Y0092694D02*
X0105690Y0092694D01*
X0094458Y0073722D02*
X0025246Y0073722D01*
X0025246Y0072724D02*
X0091648Y0072724D01*
X0089918Y0071725D02*
X0025246Y0071725D01*
X0025246Y0070727D02*
X0088227Y0070727D01*
X0087229Y0069728D02*
X0025246Y0069728D01*
X0025246Y0068730D02*
X0086230Y0068730D01*
X0085232Y0067731D02*
X0025246Y0067731D01*
X0025246Y0066733D02*
X0084507Y0066733D01*
X0083931Y0065734D02*
X0025246Y0065734D01*
X0025246Y0064736D02*
X0083354Y0064736D01*
X0082778Y0063737D02*
X0025246Y0063737D01*
X0025246Y0062739D02*
X0082351Y0062739D01*
X0082083Y0061740D02*
X0025246Y0061740D01*
X0025246Y0060742D02*
X0081816Y0060742D01*
X0081548Y0059743D02*
X0025246Y0059743D01*
X0025246Y0058745D02*
X0081280Y0058745D01*
X0081236Y0057746D02*
X0025246Y0057746D01*
X0025246Y0056748D02*
X0081236Y0056748D01*
X0081236Y0055749D02*
X0025246Y0055749D01*
X0025246Y0054751D02*
X0081236Y0054751D01*
X0081242Y0053752D02*
X0025246Y0053752D01*
X0025246Y0052753D02*
X0081510Y0052753D01*
X0081777Y0051755D02*
X0025246Y0051755D01*
X0025246Y0050756D02*
X0082045Y0050756D01*
X0082313Y0049758D02*
X0025246Y0049758D01*
X0025246Y0048759D02*
X0082696Y0048759D01*
X0083272Y0047761D02*
X0025246Y0047761D01*
X0025246Y0046762D02*
X0083849Y0046762D01*
X0084425Y0045764D02*
X0025246Y0045764D01*
X0025246Y0044765D02*
X0085089Y0044765D01*
X0086088Y0043767D02*
X0025246Y0043767D01*
X0025246Y0042768D02*
X0087086Y0042768D01*
X0088085Y0041770D02*
X0025246Y0041770D01*
X0025246Y0040771D02*
X0089672Y0040771D01*
X0091401Y0039773D02*
X0025246Y0039773D01*
X0025246Y0283410D02*
X0122624Y0283410D01*
X0121910Y0284408D02*
X0025246Y0284408D01*
X0025246Y0285407D02*
X0121532Y0285407D01*
X0121549Y0287404D02*
X0025246Y0287404D01*
X0025246Y0288402D02*
X0121946Y0288402D01*
X0122694Y0289401D02*
X0025246Y0289401D01*
X0025246Y0290399D02*
X0124282Y0290399D01*
X0125319Y0290399D02*
X0126091Y0290399D01*
X0126091Y0289401D02*
X0125319Y0289401D01*
X0125319Y0288402D02*
X0126091Y0288402D01*
X0126091Y0287404D02*
X0125319Y0287404D01*
X0125319Y0286405D02*
X0025246Y0286405D01*
X0025246Y0291398D02*
X0143944Y0291398D01*
X0143944Y0292396D02*
X0127298Y0292396D01*
X0127344Y0292411D02*
X0127944Y0292717D01*
X0128488Y0293112D01*
X0128963Y0293587D01*
X0129358Y0294131D01*
X0129663Y0294730D01*
X0129871Y0295370D01*
X0129968Y0295984D01*
X0126091Y0295984D01*
X0126091Y0296756D01*
X0129968Y0296756D01*
X0129871Y0297370D01*
X0129663Y0298010D01*
X0129358Y0298609D01*
X0128963Y0299153D01*
X0128488Y0299628D01*
X0127944Y0300024D01*
X0127344Y0300329D01*
X0126705Y0300537D01*
X0126091Y0300634D01*
X0126091Y0296756D01*
X0125319Y0296756D01*
X0125319Y0300634D01*
X0124704Y0300537D01*
X0124065Y0300329D01*
X0123466Y0300024D01*
X0122922Y0299628D01*
X0122446Y0299153D01*
X0122051Y0298609D01*
X0121746Y0298010D01*
X0121538Y0297370D01*
X0121441Y0296756D01*
X0125319Y0296756D01*
X0125319Y0295984D01*
X0126091Y0295984D01*
X0126091Y0292106D01*
X0126705Y0292204D01*
X0127344Y0292411D01*
X0126091Y0292396D02*
X0125319Y0292396D01*
X0125319Y0292106D02*
X0125319Y0295984D01*
X0121441Y0295984D01*
X0121538Y0295370D01*
X0121746Y0294730D01*
X0122051Y0294131D01*
X0122446Y0293587D01*
X0122922Y0293112D01*
X0123466Y0292717D01*
X0124065Y0292411D01*
X0124704Y0292204D01*
X0125319Y0292106D01*
X0124112Y0292396D02*
X0025246Y0292396D01*
X0025246Y0293395D02*
X0122639Y0293395D01*
X0121918Y0294393D02*
X0025246Y0294393D01*
X0025246Y0295392D02*
X0121535Y0295392D01*
X0121544Y0297389D02*
X0025246Y0297389D01*
X0025246Y0298387D02*
X0121938Y0298387D01*
X0122679Y0299386D02*
X0025246Y0299386D01*
X0025246Y0300384D02*
X0124236Y0300384D01*
X0125319Y0300384D02*
X0126091Y0300384D01*
X0126091Y0299386D02*
X0125319Y0299386D01*
X0125319Y0298387D02*
X0126091Y0298387D01*
X0126091Y0297389D02*
X0125319Y0297389D01*
X0125319Y0296390D02*
X0025246Y0296390D01*
X0025246Y0301383D02*
X0143944Y0301383D01*
X0143944Y0302381D02*
X0025246Y0302381D01*
X0025246Y0303380D02*
X0143944Y0303380D01*
X0143944Y0304378D02*
X0025246Y0304378D01*
X0025246Y0305377D02*
X0143944Y0305377D01*
X0143944Y0306375D02*
X0025246Y0306375D01*
X0025246Y0307374D02*
X0143944Y0307374D01*
X0143944Y0308372D02*
X0025246Y0308372D01*
X0025246Y0309371D02*
X0143944Y0309371D01*
X0143944Y0310369D02*
X0025246Y0310369D01*
X0025246Y0311368D02*
X0143944Y0311368D01*
X0143944Y0312366D02*
X0025246Y0312366D01*
X0025246Y0313365D02*
X0143944Y0313365D01*
X0143944Y0314363D02*
X0025246Y0314363D01*
X0025246Y0315362D02*
X0143944Y0315362D01*
X0143944Y0316360D02*
X0025246Y0316360D01*
X0025246Y0317359D02*
X0143944Y0317359D01*
X0143944Y0318358D02*
X0025246Y0318358D01*
X0025246Y0319356D02*
X0143944Y0319356D01*
X0143944Y0320355D02*
X0025246Y0320355D01*
X0025246Y0321353D02*
X0143944Y0321353D01*
X0143944Y0322352D02*
X0025246Y0322352D01*
X0025246Y0323350D02*
X0143944Y0323350D01*
X0143944Y0324349D02*
X0025246Y0324349D01*
X0025246Y0325347D02*
X0143944Y0325347D01*
X0143944Y0300384D02*
X0127174Y0300384D01*
X0128730Y0299386D02*
X0143944Y0299386D01*
X0143944Y0298387D02*
X0129471Y0298387D01*
X0129865Y0297389D02*
X0143944Y0297389D01*
X0143944Y0296390D02*
X0126091Y0296390D01*
X0126091Y0295392D02*
X0125319Y0295392D01*
X0125319Y0294393D02*
X0126091Y0294393D01*
X0126091Y0293395D02*
X0125319Y0293395D01*
X0127128Y0290399D02*
X0143944Y0290399D01*
X0143944Y0289401D02*
X0128715Y0289401D01*
X0129464Y0288402D02*
X0143944Y0288402D01*
X0143944Y0287404D02*
X0129860Y0287404D01*
X0129877Y0285407D02*
X0143944Y0285407D01*
X0143944Y0286405D02*
X0126091Y0286405D01*
X0126091Y0285407D02*
X0125319Y0285407D01*
X0125319Y0284408D02*
X0126091Y0284408D01*
X0126091Y0283410D02*
X0125319Y0283410D01*
X0128785Y0283410D02*
X0143944Y0283410D01*
X0143944Y0284408D02*
X0129499Y0284408D01*
X0128770Y0293395D02*
X0143944Y0293395D01*
X0143944Y0294393D02*
X0129492Y0294393D01*
X0129875Y0295392D02*
X0143944Y0295392D01*
X0141319Y0367285D02*
X0157974Y0367285D01*
X0157974Y0368283D02*
X0142007Y0368283D01*
X0142421Y0369282D02*
X0157974Y0369282D01*
X0157974Y0370280D02*
X0142591Y0370280D01*
X0142591Y0371279D02*
X0157974Y0371279D01*
X0157974Y0372277D02*
X0142388Y0372277D01*
X0141975Y0373276D02*
X0157974Y0373276D01*
X0157974Y0374274D02*
X0141240Y0374274D01*
X0140152Y0375273D02*
X0157974Y0375273D01*
X0157974Y0376271D02*
X0140897Y0376271D01*
X0141374Y0377270D02*
X0157974Y0377270D01*
X0157974Y0378268D02*
X0137705Y0378268D01*
X0136933Y0378268D02*
X0116439Y0378268D01*
X0108065Y0387255D02*
X0133115Y0387255D01*
X0133152Y0387488D02*
X0133055Y0386874D01*
X0136933Y0386874D01*
X0136933Y0390752D01*
X0136319Y0390655D01*
X0135679Y0390447D01*
X0135080Y0390142D01*
X0134536Y0389746D01*
X0134061Y0389271D01*
X0133665Y0388727D01*
X0133360Y0388128D01*
X0133152Y0387488D01*
X0133424Y0388253D02*
X0106113Y0388253D01*
X0102387Y0389252D02*
X0134047Y0389252D01*
X0135293Y0390250D02*
X0025246Y0390250D01*
X0025246Y0389252D02*
X0096582Y0389252D01*
X0092855Y0388253D02*
X0025246Y0388253D01*
X0025246Y0387255D02*
X0090904Y0387255D01*
X0089174Y0386256D02*
X0025246Y0386256D01*
X0025246Y0385258D02*
X0087798Y0385258D01*
X0086799Y0384259D02*
X0025246Y0384259D01*
X0025246Y0383261D02*
X0085801Y0383261D01*
X0084836Y0382262D02*
X0025246Y0382262D01*
X0025246Y0381264D02*
X0084259Y0381264D01*
X0083683Y0380265D02*
X0025246Y0380265D01*
X0025246Y0379267D02*
X0083106Y0379267D01*
X0082530Y0378268D02*
X0025246Y0378268D01*
X0025246Y0377270D02*
X0082236Y0377270D01*
X0081968Y0376271D02*
X0025246Y0376271D01*
X0025246Y0375273D02*
X0081700Y0375273D01*
X0081433Y0374274D02*
X0025246Y0374274D01*
X0025246Y0373276D02*
X0081236Y0373276D01*
X0081236Y0372277D02*
X0025246Y0372277D01*
X0025246Y0371279D02*
X0081236Y0371279D01*
X0081236Y0370280D02*
X0025246Y0370280D01*
X0025246Y0369282D02*
X0081236Y0369282D01*
X0081357Y0368283D02*
X0025246Y0368283D01*
X0025246Y0367285D02*
X0081625Y0367285D01*
X0081893Y0366286D02*
X0025246Y0366286D01*
X0025246Y0365288D02*
X0082160Y0365288D01*
X0082428Y0364289D02*
X0025246Y0364289D01*
X0025246Y0363291D02*
X0082944Y0363291D01*
X0083520Y0362292D02*
X0025246Y0362292D01*
X0025246Y0361293D02*
X0084097Y0361293D01*
X0084673Y0360295D02*
X0025246Y0360295D01*
X0025246Y0359296D02*
X0085519Y0359296D01*
X0086517Y0358298D02*
X0025246Y0358298D01*
X0025246Y0357299D02*
X0087516Y0357299D01*
X0088686Y0356301D02*
X0025246Y0356301D01*
X0025246Y0355302D02*
X0090416Y0355302D01*
X0092145Y0354304D02*
X0025246Y0354304D01*
X0136933Y0379267D02*
X0137705Y0379267D01*
X0137705Y0380265D02*
X0136933Y0380265D01*
X0136933Y0381264D02*
X0137705Y0381264D01*
X0137705Y0382262D02*
X0136933Y0382262D01*
X0136933Y0383261D02*
X0137705Y0383261D01*
X0137705Y0384259D02*
X0136933Y0384259D01*
X0136933Y0385258D02*
X0137705Y0385258D01*
X0137705Y0387255D02*
X0136933Y0387255D01*
X0136933Y0388253D02*
X0137705Y0388253D01*
X0137705Y0389252D02*
X0136933Y0389252D01*
X0136933Y0390250D02*
X0137705Y0390250D01*
X0141411Y0385258D02*
X0157974Y0385258D01*
X0157974Y0384259D02*
X0140977Y0384259D01*
X0140132Y0383261D02*
X0157974Y0383261D01*
X0157974Y0382262D02*
X0139565Y0382262D01*
X0140674Y0381264D02*
X0157974Y0381264D01*
X0157974Y0380265D02*
X0141272Y0380265D01*
X0141540Y0379267D02*
X0157974Y0379267D01*
D19*
X0154244Y0378807D03*
X0154244Y0369307D03*
X0154244Y0359807D03*
X0154244Y0350307D03*
X0154244Y0340807D03*
X0154244Y0330807D03*
X0154244Y0321307D03*
X0154244Y0311807D03*
X0154244Y0302307D03*
X0154244Y0292807D03*
X0154244Y0283307D03*
X0154244Y0273807D03*
X0154244Y0264307D03*
X0154244Y0254807D03*
X0154244Y0245307D03*
X0154244Y0235307D03*
X0154244Y0225807D03*
X0154244Y0216307D03*
X0154244Y0206807D03*
X0154244Y0197307D03*
X0154244Y0189807D03*
X0154244Y0180307D03*
X0154244Y0170807D03*
X0154244Y0161307D03*
X0154244Y0151807D03*
X0154244Y0141807D03*
X0154244Y0132307D03*
X0154244Y0122807D03*
X0154244Y0113307D03*
X0154244Y0103807D03*
X0154244Y0094307D03*
X0154244Y0084807D03*
X0154244Y0075307D03*
X0154244Y0065807D03*
X0154244Y0056307D03*
X0154244Y0046307D03*
X0154244Y0036807D03*
X0154244Y0027307D03*
X0097744Y0174307D03*
X0097744Y0180307D03*
X0102744Y0177307D03*
X0107244Y0209307D03*
X0107244Y0218807D03*
X0107244Y0228807D03*
X0107244Y0238307D03*
X0107244Y0247807D03*
X0107244Y0257807D03*
X0093744Y0257807D03*
X0093744Y0267807D03*
X0093744Y0277807D03*
X0093744Y0286807D03*
X0093744Y0296807D03*
X0093744Y0306807D03*
X0093744Y0332807D03*
X0084744Y0332807D03*
X0074744Y0332807D03*
X0063744Y0332807D03*
X0056744Y0321307D03*
X0057244Y0305807D03*
X0057244Y0290807D03*
X0040744Y0290807D03*
X0040744Y0299807D03*
X0040744Y0308307D03*
X0069244Y0233807D03*
X0074244Y0209307D03*
X0082744Y0209307D03*
X0067744Y0201307D03*
X0067744Y0188307D03*
X0057744Y0192307D03*
X0051744Y0198307D03*
X0045744Y0192307D03*
X0039744Y0198307D03*
X0045744Y0204307D03*
X0038622Y0219870D03*
X0038622Y0225870D03*
X0033744Y0204307D03*
X0033744Y0192307D03*
X0033744Y0177307D03*
X0039744Y0170307D03*
X0044744Y0177307D03*
X0039744Y0184307D03*
X0050744Y0170307D03*
X0057744Y0177307D03*
X0051744Y0185307D03*
X0057744Y0204307D03*
X0062744Y0158307D03*
X0036744Y0117307D03*
X0029744Y0108307D03*
X0033744Y0161307D03*
X0103744Y0332807D03*
X0113744Y0332807D03*
X0122744Y0332807D03*
X0139744Y0269307D03*
D20*
X0099744Y0228807D02*
X0100744Y0227807D01*
X0100744Y0182807D01*
X0105744Y0177807D01*
X0105744Y0172774D01*
X0104777Y0171775D01*
X0091777Y0171842D01*
X0090744Y0172841D01*
X0090744Y0215316D01*
X0089753Y0216316D01*
X0034235Y0216798D01*
X0033244Y0217798D01*
X0033244Y0227807D01*
X0034244Y0228807D01*
X0099744Y0228807D01*
X0099748Y0228803D02*
X0034240Y0228803D01*
X0034142Y0228705D02*
X0099846Y0228705D01*
X0099945Y0228606D02*
X0034043Y0228606D01*
X0033945Y0228508D02*
X0100043Y0228508D01*
X0100142Y0228409D02*
X0033846Y0228409D01*
X0033748Y0228311D02*
X0100240Y0228311D01*
X0100339Y0228212D02*
X0033649Y0228212D01*
X0033551Y0228114D02*
X0100437Y0228114D01*
X0100536Y0228015D02*
X0033452Y0228015D01*
X0033354Y0227917D02*
X0100634Y0227917D01*
X0100733Y0227818D02*
X0033255Y0227818D01*
X0033244Y0227720D02*
X0100744Y0227720D01*
X0100744Y0227621D02*
X0033244Y0227621D01*
X0033244Y0227523D02*
X0100744Y0227523D01*
X0100744Y0227424D02*
X0033244Y0227424D01*
X0033244Y0227326D02*
X0100744Y0227326D01*
X0100744Y0227227D02*
X0033244Y0227227D01*
X0033244Y0227129D02*
X0100744Y0227129D01*
X0100744Y0227030D02*
X0033244Y0227030D01*
X0033244Y0226932D02*
X0100744Y0226932D01*
X0100744Y0226833D02*
X0033244Y0226833D01*
X0033244Y0226735D02*
X0100744Y0226735D01*
X0100744Y0226636D02*
X0033244Y0226636D01*
X0033244Y0226538D02*
X0100744Y0226538D01*
X0100744Y0226439D02*
X0033244Y0226439D01*
X0033244Y0226341D02*
X0100744Y0226341D01*
X0100744Y0226242D02*
X0033244Y0226242D01*
X0033244Y0226144D02*
X0100744Y0226144D01*
X0100744Y0226045D02*
X0033244Y0226045D01*
X0033244Y0225947D02*
X0100744Y0225947D01*
X0100744Y0225848D02*
X0033244Y0225848D01*
X0033244Y0225750D02*
X0100744Y0225750D01*
X0100744Y0225651D02*
X0033244Y0225651D01*
X0033244Y0225553D02*
X0100744Y0225553D01*
X0100744Y0225454D02*
X0033244Y0225454D01*
X0033244Y0225356D02*
X0100744Y0225356D01*
X0100744Y0225257D02*
X0033244Y0225257D01*
X0033244Y0225159D02*
X0100744Y0225159D01*
X0100744Y0225060D02*
X0033244Y0225060D01*
X0033244Y0224962D02*
X0100744Y0224962D01*
X0100744Y0224863D02*
X0033244Y0224863D01*
X0033244Y0224764D02*
X0100744Y0224764D01*
X0100744Y0224666D02*
X0033244Y0224666D01*
X0033244Y0224567D02*
X0100744Y0224567D01*
X0100744Y0224469D02*
X0033244Y0224469D01*
X0033244Y0224370D02*
X0100744Y0224370D01*
X0100744Y0224272D02*
X0033244Y0224272D01*
X0033244Y0224173D02*
X0100744Y0224173D01*
X0100744Y0224075D02*
X0033244Y0224075D01*
X0033244Y0223976D02*
X0100744Y0223976D01*
X0100744Y0223878D02*
X0033244Y0223878D01*
X0033244Y0223779D02*
X0100744Y0223779D01*
X0100744Y0223681D02*
X0033244Y0223681D01*
X0033244Y0223582D02*
X0100744Y0223582D01*
X0100744Y0223484D02*
X0033244Y0223484D01*
X0033244Y0223385D02*
X0100744Y0223385D01*
X0100744Y0223287D02*
X0033244Y0223287D01*
X0033244Y0223188D02*
X0100744Y0223188D01*
X0100744Y0223090D02*
X0033244Y0223090D01*
X0033244Y0222991D02*
X0100744Y0222991D01*
X0100744Y0222893D02*
X0033244Y0222893D01*
X0033244Y0222794D02*
X0100744Y0222794D01*
X0100744Y0222696D02*
X0033244Y0222696D01*
X0033244Y0222597D02*
X0100744Y0222597D01*
X0100744Y0222499D02*
X0033244Y0222499D01*
X0033244Y0222400D02*
X0100744Y0222400D01*
X0100744Y0222302D02*
X0033244Y0222302D01*
X0033244Y0222203D02*
X0100744Y0222203D01*
X0100744Y0222105D02*
X0033244Y0222105D01*
X0033244Y0222006D02*
X0100744Y0222006D01*
X0100744Y0221908D02*
X0033244Y0221908D01*
X0033244Y0221809D02*
X0100744Y0221809D01*
X0100744Y0221711D02*
X0033244Y0221711D01*
X0033244Y0221612D02*
X0100744Y0221612D01*
X0100744Y0221514D02*
X0033244Y0221514D01*
X0033244Y0221415D02*
X0100744Y0221415D01*
X0100744Y0221317D02*
X0033244Y0221317D01*
X0033244Y0221218D02*
X0100744Y0221218D01*
X0100744Y0221120D02*
X0033244Y0221120D01*
X0033244Y0221021D02*
X0100744Y0221021D01*
X0100744Y0220923D02*
X0033244Y0220923D01*
X0033244Y0220824D02*
X0100744Y0220824D01*
X0100744Y0220726D02*
X0033244Y0220726D01*
X0033244Y0220627D02*
X0100744Y0220627D01*
X0100744Y0220528D02*
X0033244Y0220528D01*
X0033244Y0220430D02*
X0100744Y0220430D01*
X0100744Y0220331D02*
X0033244Y0220331D01*
X0033244Y0220233D02*
X0100744Y0220233D01*
X0100744Y0220134D02*
X0033244Y0220134D01*
X0033244Y0220036D02*
X0100744Y0220036D01*
X0100744Y0219937D02*
X0033244Y0219937D01*
X0033244Y0219839D02*
X0100744Y0219839D01*
X0100744Y0219740D02*
X0033244Y0219740D01*
X0033244Y0219642D02*
X0100744Y0219642D01*
X0100744Y0219543D02*
X0033244Y0219543D01*
X0033244Y0219445D02*
X0100744Y0219445D01*
X0100744Y0219346D02*
X0033244Y0219346D01*
X0033244Y0219248D02*
X0100744Y0219248D01*
X0100744Y0219149D02*
X0033244Y0219149D01*
X0033244Y0219051D02*
X0100744Y0219051D01*
X0100744Y0218952D02*
X0033244Y0218952D01*
X0033244Y0218854D02*
X0100744Y0218854D01*
X0100744Y0218755D02*
X0033244Y0218755D01*
X0033244Y0218657D02*
X0100744Y0218657D01*
X0100744Y0218558D02*
X0033244Y0218558D01*
X0033244Y0218460D02*
X0100744Y0218460D01*
X0100744Y0218361D02*
X0033244Y0218361D01*
X0033244Y0218263D02*
X0100744Y0218263D01*
X0100744Y0218164D02*
X0033244Y0218164D01*
X0033244Y0218066D02*
X0100744Y0218066D01*
X0100744Y0217967D02*
X0033244Y0217967D01*
X0033244Y0217869D02*
X0100744Y0217869D01*
X0100744Y0217770D02*
X0033272Y0217770D01*
X0033369Y0217672D02*
X0100744Y0217672D01*
X0100744Y0217573D02*
X0033467Y0217573D01*
X0033564Y0217475D02*
X0100744Y0217475D01*
X0100744Y0217376D02*
X0033662Y0217376D01*
X0033760Y0217278D02*
X0100744Y0217278D01*
X0100744Y0217179D02*
X0033857Y0217179D01*
X0033955Y0217081D02*
X0100744Y0217081D01*
X0100744Y0216982D02*
X0034052Y0216982D01*
X0034150Y0216884D02*
X0100744Y0216884D01*
X0100744Y0216785D02*
X0035715Y0216785D01*
X0047071Y0216687D02*
X0100744Y0216687D01*
X0100744Y0216588D02*
X0058426Y0216588D01*
X0069781Y0216490D02*
X0100744Y0216490D01*
X0100744Y0216391D02*
X0081137Y0216391D01*
X0089777Y0216293D02*
X0100744Y0216293D01*
X0100744Y0216194D02*
X0089875Y0216194D01*
X0089972Y0216095D02*
X0100744Y0216095D01*
X0100744Y0215997D02*
X0090070Y0215997D01*
X0090167Y0215898D02*
X0100744Y0215898D01*
X0100744Y0215800D02*
X0090265Y0215800D01*
X0090363Y0215701D02*
X0100744Y0215701D01*
X0100744Y0215603D02*
X0090460Y0215603D01*
X0090558Y0215504D02*
X0100744Y0215504D01*
X0100744Y0215406D02*
X0090655Y0215406D01*
X0090744Y0215307D02*
X0100744Y0215307D01*
X0100744Y0215209D02*
X0090744Y0215209D01*
X0090744Y0215110D02*
X0100744Y0215110D01*
X0100744Y0215012D02*
X0090744Y0215012D01*
X0090744Y0214913D02*
X0100744Y0214913D01*
X0100744Y0214815D02*
X0090744Y0214815D01*
X0090744Y0214716D02*
X0100744Y0214716D01*
X0100744Y0214618D02*
X0090744Y0214618D01*
X0090744Y0214519D02*
X0100744Y0214519D01*
X0100744Y0214421D02*
X0090744Y0214421D01*
X0090744Y0214322D02*
X0100744Y0214322D01*
X0100744Y0214224D02*
X0090744Y0214224D01*
X0090744Y0214125D02*
X0100744Y0214125D01*
X0100744Y0214027D02*
X0090744Y0214027D01*
X0090744Y0213928D02*
X0100744Y0213928D01*
X0100744Y0213830D02*
X0090744Y0213830D01*
X0090744Y0213731D02*
X0100744Y0213731D01*
X0100744Y0213633D02*
X0090744Y0213633D01*
X0090744Y0213534D02*
X0100744Y0213534D01*
X0100744Y0213436D02*
X0090744Y0213436D01*
X0090744Y0213337D02*
X0100744Y0213337D01*
X0100744Y0213239D02*
X0090744Y0213239D01*
X0090744Y0213140D02*
X0100744Y0213140D01*
X0100744Y0213042D02*
X0090744Y0213042D01*
X0090744Y0212943D02*
X0100744Y0212943D01*
X0100744Y0212845D02*
X0090744Y0212845D01*
X0090744Y0212746D02*
X0100744Y0212746D01*
X0100744Y0212648D02*
X0090744Y0212648D01*
X0090744Y0212549D02*
X0100744Y0212549D01*
X0100744Y0212451D02*
X0090744Y0212451D01*
X0090744Y0212352D02*
X0100744Y0212352D01*
X0100744Y0212254D02*
X0090744Y0212254D01*
X0090744Y0212155D02*
X0100744Y0212155D01*
X0100744Y0212057D02*
X0090744Y0212057D01*
X0090744Y0211958D02*
X0100744Y0211958D01*
X0100744Y0211859D02*
X0090744Y0211859D01*
X0090744Y0211761D02*
X0100744Y0211761D01*
X0100744Y0211662D02*
X0090744Y0211662D01*
X0090744Y0211564D02*
X0100744Y0211564D01*
X0100744Y0211465D02*
X0090744Y0211465D01*
X0090744Y0211367D02*
X0100744Y0211367D01*
X0100744Y0211268D02*
X0090744Y0211268D01*
X0090744Y0211170D02*
X0100744Y0211170D01*
X0100744Y0211071D02*
X0090744Y0211071D01*
X0090744Y0210973D02*
X0100744Y0210973D01*
X0100744Y0210874D02*
X0090744Y0210874D01*
X0090744Y0210776D02*
X0100744Y0210776D01*
X0100744Y0210677D02*
X0090744Y0210677D01*
X0090744Y0210579D02*
X0100744Y0210579D01*
X0100744Y0210480D02*
X0090744Y0210480D01*
X0090744Y0210382D02*
X0100744Y0210382D01*
X0100744Y0210283D02*
X0090744Y0210283D01*
X0090744Y0210185D02*
X0100744Y0210185D01*
X0100744Y0210086D02*
X0090744Y0210086D01*
X0090744Y0209988D02*
X0100744Y0209988D01*
X0100744Y0209889D02*
X0090744Y0209889D01*
X0090744Y0209791D02*
X0100744Y0209791D01*
X0100744Y0209692D02*
X0090744Y0209692D01*
X0090744Y0209594D02*
X0100744Y0209594D01*
X0100744Y0209495D02*
X0090744Y0209495D01*
X0090744Y0209397D02*
X0100744Y0209397D01*
X0100744Y0209298D02*
X0090744Y0209298D01*
X0090744Y0209200D02*
X0100744Y0209200D01*
X0100744Y0209101D02*
X0090744Y0209101D01*
X0090744Y0209003D02*
X0100744Y0209003D01*
X0100744Y0208904D02*
X0090744Y0208904D01*
X0090744Y0208806D02*
X0100744Y0208806D01*
X0100744Y0208707D02*
X0090744Y0208707D01*
X0090744Y0208609D02*
X0100744Y0208609D01*
X0100744Y0208510D02*
X0090744Y0208510D01*
X0090744Y0208412D02*
X0100744Y0208412D01*
X0100744Y0208313D02*
X0090744Y0208313D01*
X0090744Y0208215D02*
X0100744Y0208215D01*
X0100744Y0208116D02*
X0090744Y0208116D01*
X0090744Y0208018D02*
X0100744Y0208018D01*
X0100744Y0207919D02*
X0090744Y0207919D01*
X0090744Y0207821D02*
X0100744Y0207821D01*
X0100744Y0207722D02*
X0090744Y0207722D01*
X0090744Y0207624D02*
X0100744Y0207624D01*
X0100744Y0207525D02*
X0090744Y0207525D01*
X0090744Y0207426D02*
X0100744Y0207426D01*
X0100744Y0207328D02*
X0090744Y0207328D01*
X0090744Y0207229D02*
X0100744Y0207229D01*
X0100744Y0207131D02*
X0090744Y0207131D01*
X0090744Y0207032D02*
X0100744Y0207032D01*
X0100744Y0206934D02*
X0090744Y0206934D01*
X0090744Y0206835D02*
X0100744Y0206835D01*
X0100744Y0206737D02*
X0090744Y0206737D01*
X0090744Y0206638D02*
X0100744Y0206638D01*
X0100744Y0206540D02*
X0090744Y0206540D01*
X0090744Y0206441D02*
X0100744Y0206441D01*
X0100744Y0206343D02*
X0090744Y0206343D01*
X0090744Y0206244D02*
X0100744Y0206244D01*
X0100744Y0206146D02*
X0090744Y0206146D01*
X0090744Y0206047D02*
X0100744Y0206047D01*
X0100744Y0205949D02*
X0090744Y0205949D01*
X0090744Y0205850D02*
X0100744Y0205850D01*
X0100744Y0205752D02*
X0090744Y0205752D01*
X0090744Y0205653D02*
X0100744Y0205653D01*
X0100744Y0205555D02*
X0090744Y0205555D01*
X0090744Y0205456D02*
X0100744Y0205456D01*
X0100744Y0205358D02*
X0090744Y0205358D01*
X0090744Y0205259D02*
X0100744Y0205259D01*
X0100744Y0205161D02*
X0090744Y0205161D01*
X0090744Y0205062D02*
X0100744Y0205062D01*
X0100744Y0204964D02*
X0090744Y0204964D01*
X0090744Y0204865D02*
X0100744Y0204865D01*
X0100744Y0204767D02*
X0090744Y0204767D01*
X0090744Y0204668D02*
X0100744Y0204668D01*
X0100744Y0204570D02*
X0090744Y0204570D01*
X0090744Y0204471D02*
X0100744Y0204471D01*
X0100744Y0204373D02*
X0090744Y0204373D01*
X0090744Y0204274D02*
X0100744Y0204274D01*
X0100744Y0204176D02*
X0090744Y0204176D01*
X0090744Y0204077D02*
X0100744Y0204077D01*
X0100744Y0203979D02*
X0090744Y0203979D01*
X0090744Y0203880D02*
X0100744Y0203880D01*
X0100744Y0203782D02*
X0090744Y0203782D01*
X0090744Y0203683D02*
X0100744Y0203683D01*
X0100744Y0203585D02*
X0090744Y0203585D01*
X0090744Y0203486D02*
X0100744Y0203486D01*
X0100744Y0203388D02*
X0090744Y0203388D01*
X0090744Y0203289D02*
X0100744Y0203289D01*
X0100744Y0203191D02*
X0090744Y0203191D01*
X0090744Y0203092D02*
X0100744Y0203092D01*
X0100744Y0202993D02*
X0090744Y0202993D01*
X0090744Y0202895D02*
X0100744Y0202895D01*
X0100744Y0202796D02*
X0090744Y0202796D01*
X0090744Y0202698D02*
X0100744Y0202698D01*
X0100744Y0202599D02*
X0090744Y0202599D01*
X0090744Y0202501D02*
X0100744Y0202501D01*
X0100744Y0202402D02*
X0090744Y0202402D01*
X0090744Y0202304D02*
X0100744Y0202304D01*
X0100744Y0202205D02*
X0090744Y0202205D01*
X0090744Y0202107D02*
X0100744Y0202107D01*
X0100744Y0202008D02*
X0090744Y0202008D01*
X0090744Y0201910D02*
X0100744Y0201910D01*
X0100744Y0201811D02*
X0090744Y0201811D01*
X0090744Y0201713D02*
X0100744Y0201713D01*
X0100744Y0201614D02*
X0090744Y0201614D01*
X0090744Y0201516D02*
X0100744Y0201516D01*
X0100744Y0201417D02*
X0090744Y0201417D01*
X0090744Y0201319D02*
X0100744Y0201319D01*
X0100744Y0201220D02*
X0090744Y0201220D01*
X0090744Y0201122D02*
X0100744Y0201122D01*
X0100744Y0201023D02*
X0090744Y0201023D01*
X0090744Y0200925D02*
X0100744Y0200925D01*
X0100744Y0200826D02*
X0090744Y0200826D01*
X0090744Y0200728D02*
X0100744Y0200728D01*
X0100744Y0200629D02*
X0090744Y0200629D01*
X0090744Y0200531D02*
X0100744Y0200531D01*
X0100744Y0200432D02*
X0090744Y0200432D01*
X0090744Y0200334D02*
X0100744Y0200334D01*
X0100744Y0200235D02*
X0090744Y0200235D01*
X0090744Y0200137D02*
X0100744Y0200137D01*
X0100744Y0200038D02*
X0090744Y0200038D01*
X0090744Y0199940D02*
X0100744Y0199940D01*
X0100744Y0199841D02*
X0090744Y0199841D01*
X0090744Y0199743D02*
X0100744Y0199743D01*
X0100744Y0199644D02*
X0090744Y0199644D01*
X0090744Y0199546D02*
X0100744Y0199546D01*
X0100744Y0199447D02*
X0090744Y0199447D01*
X0090744Y0199349D02*
X0100744Y0199349D01*
X0100744Y0199250D02*
X0090744Y0199250D01*
X0090744Y0199152D02*
X0100744Y0199152D01*
X0100744Y0199053D02*
X0090744Y0199053D01*
X0090744Y0198955D02*
X0100744Y0198955D01*
X0100744Y0198856D02*
X0090744Y0198856D01*
X0090744Y0198757D02*
X0100744Y0198757D01*
X0100744Y0198659D02*
X0090744Y0198659D01*
X0090744Y0198560D02*
X0100744Y0198560D01*
X0100744Y0198462D02*
X0090744Y0198462D01*
X0090744Y0198363D02*
X0100744Y0198363D01*
X0100744Y0198265D02*
X0090744Y0198265D01*
X0090744Y0198166D02*
X0100744Y0198166D01*
X0100744Y0198068D02*
X0090744Y0198068D01*
X0090744Y0197969D02*
X0100744Y0197969D01*
X0100744Y0197871D02*
X0090744Y0197871D01*
X0090744Y0197772D02*
X0100744Y0197772D01*
X0100744Y0197674D02*
X0090744Y0197674D01*
X0090744Y0197575D02*
X0100744Y0197575D01*
X0100744Y0197477D02*
X0090744Y0197477D01*
X0090744Y0197378D02*
X0100744Y0197378D01*
X0100744Y0197280D02*
X0090744Y0197280D01*
X0090744Y0197181D02*
X0100744Y0197181D01*
X0100744Y0197083D02*
X0090744Y0197083D01*
X0090744Y0196984D02*
X0100744Y0196984D01*
X0100744Y0196886D02*
X0090744Y0196886D01*
X0090744Y0196787D02*
X0100744Y0196787D01*
X0100744Y0196689D02*
X0090744Y0196689D01*
X0090744Y0196590D02*
X0100744Y0196590D01*
X0100744Y0196492D02*
X0090744Y0196492D01*
X0090744Y0196393D02*
X0100744Y0196393D01*
X0100744Y0196295D02*
X0090744Y0196295D01*
X0090744Y0196196D02*
X0100744Y0196196D01*
X0100744Y0196098D02*
X0090744Y0196098D01*
X0090744Y0195999D02*
X0100744Y0195999D01*
X0100744Y0195901D02*
X0090744Y0195901D01*
X0090744Y0195802D02*
X0100744Y0195802D01*
X0100744Y0195704D02*
X0090744Y0195704D01*
X0090744Y0195605D02*
X0100744Y0195605D01*
X0100744Y0195507D02*
X0090744Y0195507D01*
X0090744Y0195408D02*
X0100744Y0195408D01*
X0100744Y0195310D02*
X0090744Y0195310D01*
X0090744Y0195211D02*
X0100744Y0195211D01*
X0100744Y0195113D02*
X0090744Y0195113D01*
X0090744Y0195014D02*
X0100744Y0195014D01*
X0100744Y0194916D02*
X0090744Y0194916D01*
X0090744Y0194817D02*
X0100744Y0194817D01*
X0100744Y0194719D02*
X0090744Y0194719D01*
X0090744Y0194620D02*
X0100744Y0194620D01*
X0100744Y0194522D02*
X0090744Y0194522D01*
X0090744Y0194423D02*
X0100744Y0194423D01*
X0100744Y0194324D02*
X0090744Y0194324D01*
X0090744Y0194226D02*
X0100744Y0194226D01*
X0100744Y0194127D02*
X0090744Y0194127D01*
X0090744Y0194029D02*
X0100744Y0194029D01*
X0100744Y0193930D02*
X0090744Y0193930D01*
X0090744Y0193832D02*
X0100744Y0193832D01*
X0100744Y0193733D02*
X0090744Y0193733D01*
X0090744Y0193635D02*
X0100744Y0193635D01*
X0100744Y0193536D02*
X0090744Y0193536D01*
X0090744Y0193438D02*
X0100744Y0193438D01*
X0100744Y0193339D02*
X0090744Y0193339D01*
X0090744Y0193241D02*
X0100744Y0193241D01*
X0100744Y0193142D02*
X0090744Y0193142D01*
X0090744Y0193044D02*
X0100744Y0193044D01*
X0100744Y0192945D02*
X0090744Y0192945D01*
X0090744Y0192847D02*
X0100744Y0192847D01*
X0100744Y0192748D02*
X0090744Y0192748D01*
X0090744Y0192650D02*
X0100744Y0192650D01*
X0100744Y0192551D02*
X0090744Y0192551D01*
X0090744Y0192453D02*
X0100744Y0192453D01*
X0100744Y0192354D02*
X0090744Y0192354D01*
X0090744Y0192256D02*
X0100744Y0192256D01*
X0100744Y0192157D02*
X0090744Y0192157D01*
X0090744Y0192059D02*
X0100744Y0192059D01*
X0100744Y0191960D02*
X0090744Y0191960D01*
X0090744Y0191862D02*
X0100744Y0191862D01*
X0100744Y0191763D02*
X0090744Y0191763D01*
X0090744Y0191665D02*
X0100744Y0191665D01*
X0100744Y0191566D02*
X0090744Y0191566D01*
X0090744Y0191468D02*
X0100744Y0191468D01*
X0100744Y0191369D02*
X0090744Y0191369D01*
X0090744Y0191271D02*
X0100744Y0191271D01*
X0100744Y0191172D02*
X0090744Y0191172D01*
X0090744Y0191074D02*
X0100744Y0191074D01*
X0100744Y0190975D02*
X0090744Y0190975D01*
X0090744Y0190877D02*
X0100744Y0190877D01*
X0100744Y0190778D02*
X0090744Y0190778D01*
X0090744Y0190680D02*
X0100744Y0190680D01*
X0100744Y0190581D02*
X0090744Y0190581D01*
X0090744Y0190483D02*
X0100744Y0190483D01*
X0100744Y0190384D02*
X0090744Y0190384D01*
X0090744Y0190286D02*
X0100744Y0190286D01*
X0100744Y0190187D02*
X0090744Y0190187D01*
X0090744Y0190088D02*
X0100744Y0190088D01*
X0100744Y0189990D02*
X0090744Y0189990D01*
X0090744Y0189891D02*
X0100744Y0189891D01*
X0100744Y0189793D02*
X0090744Y0189793D01*
X0090744Y0189694D02*
X0100744Y0189694D01*
X0100744Y0189596D02*
X0090744Y0189596D01*
X0090744Y0189497D02*
X0100744Y0189497D01*
X0100744Y0189399D02*
X0090744Y0189399D01*
X0090744Y0189300D02*
X0100744Y0189300D01*
X0100744Y0189202D02*
X0090744Y0189202D01*
X0090744Y0189103D02*
X0100744Y0189103D01*
X0100744Y0189005D02*
X0090744Y0189005D01*
X0090744Y0188906D02*
X0100744Y0188906D01*
X0100744Y0188808D02*
X0090744Y0188808D01*
X0090744Y0188709D02*
X0100744Y0188709D01*
X0100744Y0188611D02*
X0090744Y0188611D01*
X0090744Y0188512D02*
X0100744Y0188512D01*
X0100744Y0188414D02*
X0090744Y0188414D01*
X0090744Y0188315D02*
X0100744Y0188315D01*
X0100744Y0188217D02*
X0090744Y0188217D01*
X0090744Y0188118D02*
X0100744Y0188118D01*
X0100744Y0188020D02*
X0090744Y0188020D01*
X0090744Y0187921D02*
X0100744Y0187921D01*
X0100744Y0187823D02*
X0090744Y0187823D01*
X0090744Y0187724D02*
X0100744Y0187724D01*
X0100744Y0187626D02*
X0090744Y0187626D01*
X0090744Y0187527D02*
X0100744Y0187527D01*
X0100744Y0187429D02*
X0090744Y0187429D01*
X0090744Y0187330D02*
X0100744Y0187330D01*
X0100744Y0187232D02*
X0090744Y0187232D01*
X0090744Y0187133D02*
X0100744Y0187133D01*
X0100744Y0187035D02*
X0090744Y0187035D01*
X0090744Y0186936D02*
X0100744Y0186936D01*
X0100744Y0186838D02*
X0090744Y0186838D01*
X0090744Y0186739D02*
X0100744Y0186739D01*
X0100744Y0186641D02*
X0090744Y0186641D01*
X0090744Y0186542D02*
X0100744Y0186542D01*
X0100744Y0186444D02*
X0090744Y0186444D01*
X0090744Y0186345D02*
X0100744Y0186345D01*
X0100744Y0186247D02*
X0090744Y0186247D01*
X0090744Y0186148D02*
X0100744Y0186148D01*
X0100744Y0186050D02*
X0090744Y0186050D01*
X0090744Y0185951D02*
X0100744Y0185951D01*
X0100744Y0185853D02*
X0090744Y0185853D01*
X0090744Y0185754D02*
X0100744Y0185754D01*
X0100744Y0185655D02*
X0090744Y0185655D01*
X0090744Y0185557D02*
X0100744Y0185557D01*
X0100744Y0185458D02*
X0090744Y0185458D01*
X0090744Y0185360D02*
X0100744Y0185360D01*
X0100744Y0185261D02*
X0090744Y0185261D01*
X0090744Y0185163D02*
X0100744Y0185163D01*
X0100744Y0185064D02*
X0090744Y0185064D01*
X0090744Y0184966D02*
X0100744Y0184966D01*
X0100744Y0184867D02*
X0090744Y0184867D01*
X0090744Y0184769D02*
X0100744Y0184769D01*
X0100744Y0184670D02*
X0090744Y0184670D01*
X0090744Y0184572D02*
X0100744Y0184572D01*
X0100744Y0184473D02*
X0090744Y0184473D01*
X0090744Y0184375D02*
X0100744Y0184375D01*
X0100744Y0184276D02*
X0090744Y0184276D01*
X0090744Y0184178D02*
X0100744Y0184178D01*
X0100744Y0184079D02*
X0090744Y0184079D01*
X0090744Y0183981D02*
X0100744Y0183981D01*
X0100744Y0183882D02*
X0090744Y0183882D01*
X0090744Y0183784D02*
X0100744Y0183784D01*
X0100744Y0183685D02*
X0090744Y0183685D01*
X0090744Y0183587D02*
X0100744Y0183587D01*
X0100744Y0183488D02*
X0090744Y0183488D01*
X0090744Y0183390D02*
X0100744Y0183390D01*
X0100744Y0183291D02*
X0090744Y0183291D01*
X0090744Y0183193D02*
X0100744Y0183193D01*
X0100744Y0183094D02*
X0090744Y0183094D01*
X0090744Y0182996D02*
X0100744Y0182996D01*
X0100744Y0182897D02*
X0090744Y0182897D01*
X0090744Y0182799D02*
X0100753Y0182799D01*
X0100851Y0182700D02*
X0090744Y0182700D01*
X0090744Y0182602D02*
X0100950Y0182602D01*
X0101048Y0182503D02*
X0090744Y0182503D01*
X0090744Y0182405D02*
X0101147Y0182405D01*
X0101245Y0182306D02*
X0090744Y0182306D01*
X0090744Y0182208D02*
X0101344Y0182208D01*
X0101442Y0182109D02*
X0090744Y0182109D01*
X0090744Y0182011D02*
X0101541Y0182011D01*
X0101639Y0181912D02*
X0090744Y0181912D01*
X0090744Y0181814D02*
X0101738Y0181814D01*
X0101836Y0181715D02*
X0090744Y0181715D01*
X0090744Y0181617D02*
X0101935Y0181617D01*
X0102033Y0181518D02*
X0090744Y0181518D01*
X0090744Y0181420D02*
X0102132Y0181420D01*
X0102230Y0181321D02*
X0090744Y0181321D01*
X0090744Y0181222D02*
X0102329Y0181222D01*
X0102427Y0181124D02*
X0090744Y0181124D01*
X0090744Y0181025D02*
X0102526Y0181025D01*
X0102624Y0180927D02*
X0090744Y0180927D01*
X0090744Y0180828D02*
X0102723Y0180828D01*
X0102821Y0180730D02*
X0090744Y0180730D01*
X0090744Y0180631D02*
X0102920Y0180631D01*
X0103018Y0180533D02*
X0090744Y0180533D01*
X0090744Y0180434D02*
X0103117Y0180434D01*
X0103215Y0180336D02*
X0090744Y0180336D01*
X0090744Y0180237D02*
X0103314Y0180237D01*
X0103412Y0180139D02*
X0090744Y0180139D01*
X0090744Y0180040D02*
X0103511Y0180040D01*
X0103609Y0179942D02*
X0090744Y0179942D01*
X0090744Y0179843D02*
X0103708Y0179843D01*
X0103806Y0179745D02*
X0090744Y0179745D01*
X0090744Y0179646D02*
X0103905Y0179646D01*
X0104003Y0179548D02*
X0090744Y0179548D01*
X0090744Y0179449D02*
X0104102Y0179449D01*
X0104200Y0179351D02*
X0090744Y0179351D01*
X0090744Y0179252D02*
X0104299Y0179252D01*
X0104397Y0179154D02*
X0090744Y0179154D01*
X0090744Y0179055D02*
X0104496Y0179055D01*
X0104594Y0178957D02*
X0090744Y0178957D01*
X0090744Y0178858D02*
X0104693Y0178858D01*
X0104791Y0178760D02*
X0090744Y0178760D01*
X0090744Y0178661D02*
X0104890Y0178661D01*
X0104989Y0178563D02*
X0090744Y0178563D01*
X0090744Y0178464D02*
X0105087Y0178464D01*
X0105186Y0178366D02*
X0090744Y0178366D01*
X0090744Y0178267D02*
X0105284Y0178267D01*
X0105383Y0178169D02*
X0090744Y0178169D01*
X0090744Y0178070D02*
X0105481Y0178070D01*
X0105580Y0177972D02*
X0090744Y0177972D01*
X0090744Y0177873D02*
X0105678Y0177873D01*
X0105744Y0177775D02*
X0090744Y0177775D01*
X0090744Y0177676D02*
X0105744Y0177676D01*
X0105744Y0177578D02*
X0090744Y0177578D01*
X0090744Y0177479D02*
X0105744Y0177479D01*
X0105744Y0177381D02*
X0090744Y0177381D01*
X0090744Y0177282D02*
X0105744Y0177282D01*
X0105744Y0177184D02*
X0090744Y0177184D01*
X0090744Y0177085D02*
X0105744Y0177085D01*
X0105744Y0176986D02*
X0090744Y0176986D01*
X0090744Y0176888D02*
X0105744Y0176888D01*
X0105744Y0176789D02*
X0090744Y0176789D01*
X0090744Y0176691D02*
X0105744Y0176691D01*
X0105744Y0176592D02*
X0090744Y0176592D01*
X0090744Y0176494D02*
X0105744Y0176494D01*
X0105744Y0176395D02*
X0090744Y0176395D01*
X0090744Y0176297D02*
X0105744Y0176297D01*
X0105744Y0176198D02*
X0090744Y0176198D01*
X0090744Y0176100D02*
X0105744Y0176100D01*
X0105744Y0176001D02*
X0090744Y0176001D01*
X0090744Y0175903D02*
X0105744Y0175903D01*
X0105744Y0175804D02*
X0090744Y0175804D01*
X0090744Y0175706D02*
X0105744Y0175706D01*
X0105744Y0175607D02*
X0090744Y0175607D01*
X0090744Y0175509D02*
X0105744Y0175509D01*
X0105744Y0175410D02*
X0090744Y0175410D01*
X0090744Y0175312D02*
X0105744Y0175312D01*
X0105744Y0175213D02*
X0090744Y0175213D01*
X0090744Y0175115D02*
X0105744Y0175115D01*
X0105744Y0175016D02*
X0090744Y0175016D01*
X0090744Y0174918D02*
X0105744Y0174918D01*
X0105744Y0174819D02*
X0090744Y0174819D01*
X0090744Y0174721D02*
X0105744Y0174721D01*
X0105744Y0174622D02*
X0090744Y0174622D01*
X0090744Y0174524D02*
X0105744Y0174524D01*
X0105744Y0174425D02*
X0090744Y0174425D01*
X0090744Y0174327D02*
X0105744Y0174327D01*
X0105744Y0174228D02*
X0090744Y0174228D01*
X0090744Y0174130D02*
X0105744Y0174130D01*
X0105744Y0174031D02*
X0090744Y0174031D01*
X0090744Y0173933D02*
X0105744Y0173933D01*
X0105744Y0173834D02*
X0090744Y0173834D01*
X0090744Y0173736D02*
X0105744Y0173736D01*
X0105744Y0173637D02*
X0090744Y0173637D01*
X0090744Y0173539D02*
X0105744Y0173539D01*
X0105744Y0173440D02*
X0090744Y0173440D01*
X0090744Y0173342D02*
X0105744Y0173342D01*
X0105744Y0173243D02*
X0090744Y0173243D01*
X0090744Y0173145D02*
X0105744Y0173145D01*
X0105744Y0173046D02*
X0090744Y0173046D01*
X0090744Y0172948D02*
X0105744Y0172948D01*
X0105744Y0172849D02*
X0090744Y0172849D01*
X0090838Y0172751D02*
X0105721Y0172751D01*
X0105626Y0172652D02*
X0090939Y0172652D01*
X0091041Y0172553D02*
X0105531Y0172553D01*
X0105435Y0172455D02*
X0091143Y0172455D01*
X0091245Y0172356D02*
X0105340Y0172356D01*
X0105245Y0172258D02*
X0091347Y0172258D01*
X0091449Y0172159D02*
X0105149Y0172159D01*
X0105054Y0172061D02*
X0091551Y0172061D01*
X0091652Y0171962D02*
X0104959Y0171962D01*
X0104864Y0171864D02*
X0091754Y0171864D01*
D21*
X0117244Y0145866D02*
X0112122Y0140744D01*
X0117244Y0145866D02*
X0117244Y0162807D01*
X0122244Y0167807D01*
X0132744Y0167807D01*
X0137744Y0172807D01*
X0137744Y0250307D01*
X0131744Y0256307D01*
X0144744Y0256307D01*
X0147244Y0258807D01*
X0147244Y0359307D01*
X0143744Y0362807D01*
X0137378Y0362807D01*
X0137319Y0362866D01*
X0131744Y0256307D02*
X0125768Y0256307D01*
X0125705Y0256370D01*
M02*
