G75*
%MOIN*%
%OFA0B0*%
%FSLAX25Y25*%
%IPPOS*%
%LPD*%
%AMOC8*
5,1,8,0,0,1.08239X$1,22.5*
%
%ADD10OC8,0.06800*%
%ADD11C,0.20800*%
%ADD12R,0.16700X0.04900*%
%ADD13R,0.33500X0.43100*%
%ADD14R,0.16548X0.22454*%
%ADD15OC8,0.06000*%
%ADD16C,0.06000*%
%ADD17R,0.13792X0.05918*%
%ADD18C,0.02032*%
%ADD19R,0.07887X0.09461*%
%ADD20R,0.07493X0.08280*%
%ADD21C,0.06343*%
%ADD22OC8,0.06343*%
%ADD23C,0.14580*%
D10*
X0112122Y0119144D03*
X0112122Y0129944D03*
X0112122Y0140744D03*
X0112122Y0151544D03*
X0112122Y0162344D03*
X0122122Y0156944D03*
X0122122Y0146144D03*
X0122122Y0135344D03*
X0122122Y0124544D03*
D11*
X0117122Y0091444D03*
X0117122Y0190044D03*
D12*
X0082222Y0187870D03*
X0082222Y0181170D03*
X0082222Y0174470D03*
X0082222Y0194570D03*
X0082222Y0201270D03*
D13*
X0045772Y0187870D03*
D14*
X0044390Y0256370D03*
X0077854Y0256370D03*
D15*
X0037122Y0137870D03*
D16*
X0057122Y0137870D03*
D17*
X0053819Y0299870D03*
X0078425Y0299870D03*
D18*
X0072321Y0320329D02*
X0070207Y0320329D01*
X0070207Y0324411D01*
X0072321Y0324411D01*
X0072321Y0320329D01*
X0072321Y0322360D02*
X0070207Y0322360D01*
X0070207Y0324391D02*
X0072321Y0324391D01*
X0065037Y0324411D02*
X0062923Y0324411D01*
X0065037Y0324411D02*
X0065037Y0320329D01*
X0062923Y0320329D01*
X0062923Y0324411D01*
X0062923Y0322360D02*
X0065037Y0322360D01*
X0065037Y0324391D02*
X0062923Y0324391D01*
X0067423Y0159911D02*
X0069537Y0159911D01*
X0069537Y0155829D01*
X0067423Y0155829D01*
X0067423Y0159911D01*
X0067423Y0157860D02*
X0069537Y0157860D01*
X0069537Y0159891D02*
X0067423Y0159891D01*
X0074707Y0155829D02*
X0076821Y0155829D01*
X0074707Y0155829D02*
X0074707Y0159911D01*
X0076821Y0159911D01*
X0076821Y0155829D01*
X0076821Y0157860D02*
X0074707Y0157860D01*
X0074707Y0159891D02*
X0076821Y0159891D01*
D19*
X0068783Y0222307D03*
X0048705Y0222307D03*
D20*
X0037083Y0073154D03*
X0037083Y0108587D03*
X0057161Y0108587D03*
X0057161Y0073154D03*
D21*
X0125705Y0226370D03*
X0125705Y0236370D03*
X0125705Y0246370D03*
X0125705Y0256370D03*
X0125705Y0266370D03*
X0125705Y0276370D03*
X0125705Y0286370D03*
X0125705Y0296370D03*
X0137319Y0339244D03*
X0137319Y0347118D03*
X0137319Y0354992D03*
X0137319Y0362866D03*
X0137319Y0370740D03*
X0137319Y0378614D03*
X0137319Y0386488D03*
D22*
X0137319Y0331370D03*
D23*
X0099484Y0371138D03*
X0099484Y0056177D03*
M02*
