%
M48
M72
T01C0.02362
T02C0.03200
T03C0.03543
T04C0.04000
T05C0.13000
T06C0.13780
%
T01
X29744Y108307
X36744Y117307
X33744Y161307
X39744Y170307
X44744Y177307
X39744Y184307
X45744Y192307
X39744Y198307
X45744Y204307
X51744Y198307
X57744Y192307
X51744Y185307
X57744Y177307
X50744Y170307
X62744Y158307
X67744Y188307
X67744Y201307
X74244Y209307
X82744Y209307
X69244Y233807
X57744Y204307
X38622Y219870
X38622Y225870
X33744Y204307
X33744Y192307
X33744Y177307
X40744Y290807
X40744Y299807
X40744Y308307
X57244Y305807
X56744Y321307
X63744Y332807
X74744Y332807
X84744Y332807
X93744Y332807
X103744Y332807
X113744Y332807
X122744Y332807
X93744Y306807
X93744Y296807
X93744Y286807
X93744Y277807
X93744Y267807
X93744Y257807
X107244Y257807
X107244Y247807
X107244Y238307
X107244Y228807
X107244Y218807
X107244Y209307
X97744Y180307
X97744Y174307
X102744Y177307
X139744Y269307
X154244Y273807
X154244Y264307
X154244Y254807
X154244Y245307
X154244Y235307
X154244Y225807
X154244Y216307
X154244Y206807
X154244Y197307
X154244Y189807
X154244Y180307
X154244Y170807
X154244Y161307
X154244Y151807
X154244Y141807
X154244Y132307
X154244Y122807
X154244Y113307
X154244Y103807
X154244Y94307
X154244Y84807
X154244Y75307
X154244Y65807
X154244Y56307
X154244Y46307
X154244Y36807
X154244Y27307
X154244Y283307
X154244Y292807
X154244Y302307
X154244Y311807
X154244Y321307
X154244Y330807
X154244Y340807
X154244Y350307
X154244Y359807
X154244Y369307
X154244Y378807
X57244Y290807
T02
X57122Y137870
X37122Y137870
T03
X125705Y226370
X125705Y236370
X125705Y246370
X125705Y256370
X125705Y266370
X125705Y276370
X125705Y286370
X125705Y296370
X137319Y331370
X137319Y339244
X137319Y347118
X137319Y354992
X137319Y362866
X137319Y370740
X137319Y378614
X137319Y386488
T04
X112122Y162344
X112122Y151544
X112122Y140744
X112122Y129944
X112122Y119144
X122122Y124544
X122122Y135344
X122122Y146144
X122122Y156944
T05
X117122Y190044
X117122Y91444
T06
X99484Y56177
X99484Y371138
M30
