G75*
%MOIN*%
%OFA0B0*%
%FSLAX25Y25*%
%IPPOS*%
%LPD*%
%AMOC8*
5,1,8,0,0,1.08239X$1,22.5*
%
%ADD10R,0.00300X0.00060*%
%ADD11R,0.00540X0.00060*%
%ADD12R,0.00240X0.00060*%
%ADD13R,0.00540X0.00060*%
%ADD14R,0.00720X0.00060*%
%ADD15R,0.00660X0.00060*%
%ADD16R,0.00180X0.00060*%
%ADD17R,0.00120X0.00060*%
%ADD18R,0.01020X0.00060*%
%ADD19R,0.00480X0.00060*%
%ADD20R,0.00840X0.00060*%
%ADD21R,0.00960X0.00060*%
%ADD22R,0.00360X0.00060*%
%ADD23R,0.00420X0.00060*%
%ADD24R,0.00120X0.00060*%
%ADD25R,0.00420X0.00060*%
%ADD26R,0.00600X0.00060*%
%ADD27R,0.01200X0.00060*%
%ADD28R,0.00900X0.00060*%
%ADD29R,0.00720X0.00060*%
%ADD30R,0.01260X0.00060*%
%ADD31R,0.00780X0.00060*%
%ADD32R,0.00060X0.00060*%
%ADD33R,0.05280X0.00060*%
%ADD34R,0.05340X0.00060*%
%ADD35R,0.00840X0.00060*%
%ADD36R,0.01620X0.00060*%
%ADD37R,0.01560X0.00060*%
%ADD38R,0.00240X0.00060*%
%ADD39R,0.01140X0.00060*%
%ADD40R,0.02100X0.00060*%
%ADD41R,0.02880X0.00060*%
%ADD42R,0.03540X0.00060*%
%ADD43R,0.03960X0.00060*%
%ADD44R,0.04380X0.00060*%
%ADD45R,0.04740X0.00060*%
%ADD46R,0.05040X0.00060*%
%ADD47R,0.05520X0.00060*%
%ADD48R,0.05820X0.00060*%
%ADD49R,0.06060X0.00060*%
%ADD50R,0.06300X0.00060*%
%ADD51R,0.06600X0.00060*%
%ADD52R,0.07080X0.00060*%
%ADD53R,0.07260X0.00060*%
%ADD54R,0.07440X0.00060*%
%ADD55R,0.02220X0.00060*%
%ADD56R,0.02940X0.00060*%
%ADD57R,0.02280X0.00060*%
%ADD58R,0.02220X0.00060*%
%ADD59R,0.02340X0.00060*%
%ADD60R,0.02340X0.00060*%
%ADD61R,0.01320X0.00060*%
%ADD62R,0.02400X0.00060*%
%ADD63R,0.02460X0.00060*%
%ADD64R,0.02520X0.00060*%
%ADD65R,0.02520X0.00060*%
%ADD66R,0.01080X0.00060*%
%ADD67R,0.02580X0.00060*%
%ADD68R,0.02640X0.00060*%
%ADD69R,0.02640X0.00060*%
%ADD70R,0.02700X0.00060*%
%ADD71R,0.02760X0.00060*%
%ADD72R,0.02820X0.00060*%
%ADD73R,0.02820X0.00060*%
%ADD74R,0.02940X0.00060*%
%ADD75R,0.05100X0.00060*%
%ADD76R,0.05160X0.00060*%
%ADD77R,0.05040X0.00060*%
%ADD78R,0.02160X0.00060*%
%ADD79R,0.02040X0.00060*%
%ADD80R,0.01980X0.00060*%
%ADD81R,0.01920X0.00060*%
%ADD82R,0.01860X0.00060*%
%ADD83R,0.01800X0.00060*%
%ADD84R,0.01740X0.00060*%
%ADD85R,0.01500X0.00060*%
%ADD86R,0.01440X0.00060*%
%ADD87R,0.01380X0.00060*%
%ADD88R,0.04680X0.00060*%
%ADD89R,0.04320X0.00060*%
%ADD90R,0.03900X0.00060*%
%ADD91R,0.03480X0.00060*%
%ADD92C,0.00394*%
%ADD93R,0.06812X0.00060*%
%ADD94C,0.00197*%
D10*
X0054688Y0350928D03*
X0054808Y0350868D03*
X0055168Y0350748D03*
X0058168Y0353508D03*
X0058168Y0353568D03*
X0058708Y0353148D03*
X0051328Y0366768D03*
X0050848Y0353448D03*
X0047608Y0353148D03*
X0047068Y0353628D03*
X0042988Y0358128D03*
X0042988Y0358908D03*
D11*
X0050248Y0353388D03*
X0050848Y0353388D03*
X0054148Y0352128D03*
X0054748Y0351108D03*
X0055048Y0350808D03*
D12*
X0055258Y0350868D03*
X0054538Y0350988D03*
X0051358Y0352068D03*
X0050338Y0352668D03*
X0050278Y0352728D03*
X0050218Y0352668D03*
X0050218Y0351288D03*
X0058138Y0353628D03*
X0058558Y0353028D03*
X0043018Y0357888D03*
D13*
X0047068Y0353448D03*
X0047068Y0353148D03*
X0047068Y0352968D03*
X0047068Y0352908D03*
X0047068Y0352848D03*
X0047068Y0352788D03*
X0047068Y0352728D03*
X0047068Y0352668D03*
X0047068Y0352608D03*
X0047068Y0352548D03*
X0047068Y0352488D03*
X0047068Y0352428D03*
X0047068Y0352368D03*
X0047068Y0352308D03*
X0047068Y0352248D03*
X0047068Y0352188D03*
X0047068Y0352128D03*
X0047068Y0352068D03*
X0047068Y0352008D03*
X0047068Y0351948D03*
X0047068Y0351888D03*
X0047068Y0351828D03*
X0047068Y0351768D03*
X0047068Y0351708D03*
X0047068Y0351648D03*
X0047068Y0351588D03*
X0047068Y0351528D03*
X0050128Y0352188D03*
X0050428Y0351468D03*
X0051328Y0351648D03*
X0050188Y0352968D03*
X0050188Y0353028D03*
X0050188Y0353088D03*
X0050368Y0353268D03*
X0053968Y0352908D03*
X0053968Y0352848D03*
X0054088Y0352668D03*
X0054088Y0352608D03*
X0054088Y0352548D03*
X0054028Y0353088D03*
X0054808Y0351948D03*
X0054208Y0351528D03*
X0055168Y0350928D03*
X0058108Y0351528D03*
X0058288Y0353328D03*
D14*
X0055078Y0352368D03*
X0054178Y0352368D03*
X0055078Y0350988D03*
D15*
X0054928Y0351048D03*
X0054208Y0352068D03*
X0054148Y0353268D03*
X0050728Y0352728D03*
X0050728Y0352668D03*
X0050248Y0352308D03*
X0050188Y0352248D03*
X0050128Y0351648D03*
X0050428Y0353508D03*
X0047068Y0351468D03*
X0051508Y0366408D03*
X0058108Y0351468D03*
D16*
X0058768Y0353328D03*
X0058768Y0353388D03*
X0054928Y0353268D03*
X0054868Y0353328D03*
X0054208Y0351228D03*
X0054268Y0351168D03*
X0054328Y0351108D03*
X0054448Y0351048D03*
X0051268Y0351288D03*
X0050968Y0352368D03*
X0050128Y0352728D03*
X0050068Y0352788D03*
X0050008Y0352848D03*
X0051088Y0353328D03*
X0049948Y0351528D03*
X0050008Y0351468D03*
X0050068Y0351408D03*
X0050128Y0351348D03*
X0046648Y0351288D03*
X0044128Y0356988D03*
X0044128Y0357048D03*
X0044128Y0357108D03*
X0044128Y0357168D03*
X0044128Y0357228D03*
X0044128Y0357288D03*
X0044128Y0357348D03*
X0044128Y0357408D03*
X0044128Y0357468D03*
X0044128Y0357528D03*
X0044128Y0357588D03*
X0044128Y0357648D03*
X0044128Y0357708D03*
X0044128Y0357768D03*
X0044128Y0357828D03*
X0044128Y0357888D03*
X0044128Y0358128D03*
X0044128Y0358188D03*
X0044128Y0358248D03*
X0044128Y0358308D03*
X0044128Y0358368D03*
X0044128Y0358428D03*
X0044128Y0358488D03*
X0044128Y0358548D03*
X0044128Y0358608D03*
X0044128Y0358668D03*
X0044128Y0358728D03*
X0044128Y0358788D03*
X0044128Y0358848D03*
X0044128Y0358908D03*
X0042868Y0358788D03*
X0042808Y0358728D03*
X0042808Y0358668D03*
X0042808Y0358368D03*
X0042808Y0358308D03*
X0042868Y0358248D03*
X0042928Y0357828D03*
X0042928Y0357768D03*
X0042868Y0357708D03*
X0042868Y0357648D03*
X0042868Y0357588D03*
X0042868Y0357528D03*
X0042808Y0357108D03*
X0042808Y0357048D03*
X0042808Y0356988D03*
X0051268Y0366888D03*
D17*
X0051238Y0366948D03*
X0053758Y0352968D03*
X0053698Y0352788D03*
X0053698Y0352728D03*
X0053698Y0352668D03*
X0053698Y0352608D03*
X0053698Y0352548D03*
X0053698Y0352488D03*
X0053698Y0352428D03*
X0053698Y0352368D03*
X0053698Y0352308D03*
X0053758Y0352128D03*
X0053758Y0352068D03*
X0053758Y0352008D03*
X0053938Y0351648D03*
X0053938Y0351588D03*
X0054058Y0351408D03*
X0055198Y0352068D03*
X0054898Y0352428D03*
X0054958Y0352488D03*
X0057898Y0352488D03*
X0057898Y0352548D03*
X0057898Y0352608D03*
X0057898Y0352668D03*
X0057898Y0352728D03*
X0057898Y0352788D03*
X0057898Y0352848D03*
X0057898Y0352908D03*
X0057898Y0352968D03*
X0057898Y0353028D03*
X0057898Y0353088D03*
X0057898Y0353148D03*
X0057898Y0353208D03*
X0057898Y0353268D03*
X0057898Y0353328D03*
X0057898Y0353388D03*
X0057898Y0353448D03*
X0057898Y0353508D03*
X0057898Y0353568D03*
X0057898Y0352428D03*
X0057898Y0352368D03*
X0057898Y0352308D03*
X0057898Y0352248D03*
X0057898Y0352188D03*
X0057898Y0352128D03*
X0057898Y0352068D03*
X0057898Y0352008D03*
X0057898Y0351948D03*
X0057898Y0351888D03*
X0057898Y0351828D03*
X0057898Y0351768D03*
X0057898Y0351708D03*
X0057898Y0351648D03*
X0057898Y0351588D03*
X0051298Y0352128D03*
X0051058Y0351588D03*
X0050758Y0351108D03*
X0049858Y0351708D03*
X0049858Y0351768D03*
X0049858Y0352128D03*
X0050038Y0352428D03*
X0042838Y0357168D03*
X0042838Y0357228D03*
X0042838Y0357288D03*
X0042838Y0357348D03*
X0042838Y0357408D03*
X0042838Y0357468D03*
D18*
X0047008Y0351228D03*
X0047008Y0351168D03*
X0047308Y0353268D03*
X0054808Y0352248D03*
X0058048Y0351168D03*
D19*
X0055258Y0352428D03*
X0054058Y0352728D03*
X0053998Y0353028D03*
X0054598Y0351228D03*
X0054658Y0351168D03*
X0051478Y0351888D03*
X0051478Y0351948D03*
X0050458Y0352488D03*
X0050278Y0351588D03*
X0050338Y0351528D03*
X0051238Y0353508D03*
X0047038Y0353508D03*
X0051418Y0366588D03*
D20*
X0054718Y0353568D03*
X0054778Y0352008D03*
X0058438Y0353208D03*
X0058438Y0353268D03*
X0050638Y0352608D03*
X0050758Y0351168D03*
X0047218Y0353028D03*
D21*
X0047278Y0353208D03*
X0054418Y0353388D03*
X0058138Y0351348D03*
X0058078Y0351228D03*
X0051658Y0366108D03*
X0051658Y0366168D03*
D22*
X0051358Y0366708D03*
X0051358Y0353388D03*
X0051418Y0353328D03*
X0051418Y0353268D03*
X0051418Y0353208D03*
X0051418Y0353148D03*
X0051418Y0353088D03*
X0051418Y0352008D03*
X0051118Y0351228D03*
X0054178Y0351768D03*
X0054238Y0351648D03*
X0054838Y0352068D03*
X0055318Y0353088D03*
X0055318Y0353148D03*
X0055258Y0353268D03*
X0055198Y0353328D03*
X0054058Y0352968D03*
X0058198Y0352968D03*
X0058198Y0353028D03*
X0058198Y0353148D03*
X0058198Y0352908D03*
X0058198Y0352848D03*
X0058198Y0352788D03*
X0058198Y0352728D03*
X0058198Y0352668D03*
X0058198Y0352608D03*
X0058198Y0352548D03*
X0058198Y0352488D03*
X0058198Y0352428D03*
X0058198Y0352368D03*
X0058198Y0352308D03*
X0058198Y0352248D03*
X0058198Y0352188D03*
X0058198Y0352128D03*
X0058198Y0352068D03*
X0058198Y0352008D03*
X0058198Y0351948D03*
X0058198Y0351888D03*
X0058198Y0351828D03*
X0058198Y0351768D03*
X0058198Y0351708D03*
X0058198Y0351648D03*
X0058198Y0351588D03*
X0058198Y0353448D03*
D23*
X0058228Y0353388D03*
X0055168Y0353388D03*
X0054028Y0352788D03*
X0054028Y0352248D03*
X0054268Y0351588D03*
X0051328Y0353448D03*
X0050428Y0352788D03*
X0050368Y0352848D03*
X0050368Y0351228D03*
D24*
X0049918Y0351588D03*
X0051118Y0351708D03*
X0051118Y0351768D03*
X0051118Y0351948D03*
X0051118Y0352008D03*
X0051118Y0352068D03*
X0051118Y0353088D03*
X0051118Y0353148D03*
X0051118Y0353208D03*
X0051118Y0353268D03*
X0049978Y0353268D03*
X0049978Y0352908D03*
X0053818Y0353148D03*
X0054178Y0353568D03*
X0055018Y0353148D03*
X0055018Y0353088D03*
X0055018Y0353028D03*
X0055018Y0352788D03*
X0055018Y0352728D03*
X0055018Y0352668D03*
X0055018Y0352608D03*
X0053878Y0351768D03*
X0053878Y0351708D03*
X0053818Y0351828D03*
X0054118Y0351348D03*
X0054178Y0351288D03*
X0057718Y0351288D03*
X0042778Y0358428D03*
X0042778Y0358488D03*
X0042778Y0358548D03*
X0042778Y0358608D03*
D25*
X0047008Y0353568D03*
X0050308Y0352908D03*
X0050188Y0352128D03*
X0050188Y0351768D03*
X0050188Y0351708D03*
X0051388Y0351588D03*
X0051448Y0351708D03*
X0051448Y0351768D03*
X0051448Y0351828D03*
X0054088Y0352008D03*
X0054148Y0351828D03*
X0054208Y0351708D03*
X0054388Y0351408D03*
X0054448Y0351348D03*
X0054508Y0351288D03*
X0055288Y0352488D03*
X0055348Y0352608D03*
X0055348Y0352668D03*
X0055348Y0352728D03*
X0055348Y0352788D03*
X0055348Y0352848D03*
X0055348Y0352908D03*
X0055348Y0352968D03*
X0055348Y0353028D03*
X0055108Y0353448D03*
X0054148Y0353148D03*
X0051388Y0366648D03*
D26*
X0051478Y0366528D03*
X0051478Y0366468D03*
X0050818Y0353688D03*
X0050338Y0353448D03*
X0050218Y0353208D03*
X0050218Y0353148D03*
X0050098Y0352068D03*
X0050098Y0352008D03*
X0050098Y0351948D03*
X0050098Y0351888D03*
X0050098Y0351828D03*
X0050818Y0351288D03*
X0051178Y0351468D03*
X0051238Y0351528D03*
X0053998Y0351948D03*
X0054058Y0351888D03*
X0054238Y0351468D03*
X0054118Y0352428D03*
X0054118Y0352488D03*
X0054118Y0353208D03*
X0054298Y0353448D03*
X0054718Y0353628D03*
X0055198Y0353208D03*
X0055198Y0352548D03*
X0047098Y0353388D03*
D27*
X0043618Y0358008D03*
X0050878Y0351348D03*
X0054658Y0353508D03*
X0051778Y0365928D03*
D28*
X0051628Y0366228D03*
X0050848Y0353628D03*
X0050608Y0352428D03*
X0050368Y0352368D03*
X0047248Y0353088D03*
X0047068Y0351348D03*
D29*
X0047158Y0353328D03*
X0051538Y0366348D03*
X0054238Y0353328D03*
X0058138Y0351408D03*
D30*
X0052648Y0356268D03*
X0050848Y0351408D03*
X0043588Y0357948D03*
X0043588Y0359028D03*
X0051808Y0365868D03*
X0052648Y0370728D03*
D31*
X0051568Y0366288D03*
X0050308Y0353328D03*
X0050668Y0352548D03*
X0047068Y0351408D03*
X0058408Y0353088D03*
D32*
X0055048Y0352968D03*
X0055048Y0352908D03*
X0055048Y0352848D03*
X0053728Y0352248D03*
X0051148Y0351888D03*
X0051148Y0351828D03*
X0050188Y0353568D03*
X0051208Y0367008D03*
D33*
X0052618Y0370248D03*
X0052618Y0356748D03*
X0063058Y0352368D03*
X0063058Y0352308D03*
X0063058Y0352248D03*
X0063058Y0352188D03*
X0063058Y0352128D03*
X0063058Y0352068D03*
D34*
X0042208Y0352068D03*
X0042208Y0352128D03*
X0042208Y0352188D03*
X0042208Y0352248D03*
X0042208Y0352308D03*
X0042208Y0352368D03*
D35*
X0054898Y0352128D03*
D36*
X0054508Y0352188D03*
X0051988Y0365448D03*
X0051988Y0365508D03*
D37*
X0051958Y0365568D03*
X0054598Y0352308D03*
D38*
X0047698Y0353328D03*
X0047698Y0353388D03*
X0042898Y0358188D03*
X0042898Y0358848D03*
X0051298Y0366828D03*
D39*
X0051748Y0365988D03*
X0050848Y0353568D03*
D40*
X0052648Y0356328D03*
X0052228Y0364968D03*
X0052228Y0365028D03*
X0052648Y0370668D03*
D41*
X0052618Y0364248D03*
X0052618Y0356388D03*
X0047158Y0361248D03*
X0047158Y0361308D03*
X0047098Y0361368D03*
X0047098Y0361428D03*
X0047098Y0361488D03*
X0047098Y0361548D03*
X0047038Y0361728D03*
X0047038Y0361788D03*
X0047038Y0361848D03*
X0046978Y0361968D03*
X0046978Y0362028D03*
X0046978Y0362088D03*
X0046978Y0364908D03*
X0046978Y0364968D03*
X0046978Y0365028D03*
X0046978Y0365088D03*
X0047038Y0365148D03*
X0047038Y0365208D03*
X0047038Y0365268D03*
X0047038Y0365328D03*
X0047098Y0365388D03*
X0047098Y0365448D03*
X0047098Y0365508D03*
X0047098Y0365568D03*
X0047158Y0365688D03*
X0047158Y0365748D03*
X0058138Y0365628D03*
X0058138Y0365568D03*
X0058138Y0365508D03*
X0058198Y0365448D03*
X0058198Y0365388D03*
X0058198Y0365328D03*
X0058198Y0365268D03*
X0058258Y0365208D03*
X0058258Y0365148D03*
X0058258Y0365088D03*
X0058258Y0365028D03*
X0058258Y0364968D03*
X0058318Y0364788D03*
X0058318Y0364728D03*
X0058318Y0364668D03*
X0058318Y0362268D03*
X0058318Y0362208D03*
X0058318Y0362148D03*
X0058258Y0362088D03*
X0058258Y0362028D03*
X0058258Y0361968D03*
X0058258Y0361908D03*
X0058258Y0361848D03*
X0058258Y0361788D03*
X0058198Y0361728D03*
X0058198Y0361668D03*
X0058198Y0361608D03*
X0058198Y0361548D03*
X0058138Y0361488D03*
X0058138Y0361428D03*
X0058138Y0361368D03*
D42*
X0052648Y0356448D03*
D43*
X0052618Y0356508D03*
D44*
X0052648Y0356568D03*
D45*
X0052648Y0356628D03*
D46*
X0052618Y0356688D03*
X0052618Y0370308D03*
D47*
X0052618Y0370188D03*
X0052618Y0356808D03*
D48*
X0052648Y0356868D03*
X0052648Y0370128D03*
D49*
X0052648Y0356928D03*
D50*
X0052648Y0356988D03*
D51*
X0052618Y0357048D03*
D52*
X0052618Y0357168D03*
D53*
X0052648Y0357228D03*
D54*
X0052618Y0357288D03*
D55*
X0049648Y0357528D03*
X0052288Y0364848D03*
X0049408Y0369288D03*
X0049588Y0369408D03*
X0055348Y0369648D03*
X0055648Y0357528D03*
X0055348Y0357348D03*
D56*
X0058348Y0362328D03*
X0058348Y0362388D03*
X0058348Y0362448D03*
X0058348Y0362508D03*
X0058348Y0362568D03*
X0058348Y0362628D03*
X0058348Y0362688D03*
X0058348Y0364248D03*
X0058348Y0364308D03*
X0058348Y0364368D03*
X0058348Y0364428D03*
X0058348Y0364488D03*
X0058348Y0364548D03*
X0058348Y0364608D03*
X0052648Y0364188D03*
X0052648Y0364128D03*
X0052648Y0364068D03*
X0052648Y0364008D03*
X0052648Y0363948D03*
X0052648Y0363888D03*
X0052648Y0363828D03*
X0052648Y0363768D03*
X0052648Y0363708D03*
X0052648Y0363648D03*
X0052648Y0363588D03*
X0052648Y0363528D03*
X0052648Y0363468D03*
X0052648Y0363408D03*
X0052648Y0363348D03*
X0052648Y0363288D03*
X0052648Y0363228D03*
X0052648Y0363168D03*
X0052648Y0363108D03*
X0052648Y0363048D03*
X0052648Y0362988D03*
X0052648Y0362928D03*
X0052648Y0362868D03*
X0052648Y0362808D03*
X0052648Y0362748D03*
X0052648Y0362688D03*
X0052648Y0362628D03*
X0052648Y0362568D03*
X0052648Y0362508D03*
X0052648Y0362448D03*
X0052648Y0362388D03*
X0052648Y0362328D03*
X0052648Y0362268D03*
X0052648Y0362208D03*
X0052648Y0362148D03*
X0052648Y0362088D03*
X0052648Y0362028D03*
X0052648Y0361968D03*
X0052648Y0361908D03*
X0052648Y0361848D03*
X0052648Y0361788D03*
X0052648Y0361728D03*
X0052648Y0361668D03*
X0052648Y0361608D03*
X0052648Y0361548D03*
X0052648Y0361488D03*
X0052648Y0361428D03*
X0052648Y0361368D03*
X0052648Y0361308D03*
X0052648Y0361248D03*
X0052648Y0361188D03*
X0052648Y0361128D03*
X0052648Y0361068D03*
X0052648Y0361008D03*
X0052648Y0360948D03*
X0052648Y0360888D03*
X0052648Y0360828D03*
X0052648Y0360768D03*
X0052648Y0360708D03*
X0052648Y0360648D03*
X0052648Y0360588D03*
X0052648Y0360528D03*
X0052648Y0360468D03*
X0052648Y0360408D03*
X0052648Y0360348D03*
X0052648Y0360288D03*
X0052648Y0360228D03*
X0052648Y0360168D03*
X0052648Y0360108D03*
X0052648Y0360048D03*
X0052648Y0359988D03*
X0052648Y0359928D03*
X0052648Y0359868D03*
X0052648Y0359808D03*
X0052648Y0359748D03*
X0052648Y0359688D03*
X0052648Y0359628D03*
X0052648Y0359568D03*
X0052648Y0359508D03*
X0052648Y0359448D03*
X0052648Y0359388D03*
X0052648Y0359328D03*
X0052648Y0359268D03*
X0052648Y0359208D03*
X0052648Y0359148D03*
X0052648Y0359088D03*
X0052648Y0359028D03*
X0052648Y0358968D03*
X0052648Y0358908D03*
X0052648Y0358848D03*
X0052648Y0358788D03*
X0052648Y0358728D03*
X0052648Y0358668D03*
X0052648Y0358608D03*
X0052648Y0358548D03*
X0052648Y0358488D03*
X0052648Y0358428D03*
X0052648Y0358368D03*
X0052648Y0358308D03*
X0052648Y0358248D03*
X0052648Y0358188D03*
X0052648Y0358128D03*
X0052648Y0358068D03*
X0052648Y0358008D03*
X0052648Y0357948D03*
X0052648Y0357888D03*
X0052648Y0357828D03*
X0052648Y0357768D03*
X0052648Y0357708D03*
X0052648Y0357648D03*
X0052648Y0357588D03*
X0052648Y0357528D03*
X0052648Y0357468D03*
X0052648Y0357408D03*
X0052648Y0357348D03*
X0046948Y0362148D03*
X0046948Y0362208D03*
X0046948Y0362268D03*
X0046948Y0362328D03*
X0046948Y0362388D03*
X0046948Y0362448D03*
X0052648Y0370608D03*
D57*
X0050398Y0369888D03*
X0050278Y0369828D03*
X0050158Y0369768D03*
X0050038Y0369708D03*
X0049918Y0369648D03*
X0049678Y0369468D03*
X0049498Y0369348D03*
X0049318Y0369228D03*
X0049258Y0369168D03*
X0049018Y0368928D03*
X0049078Y0358008D03*
X0049138Y0357888D03*
X0049198Y0357828D03*
X0049378Y0357708D03*
X0049558Y0357588D03*
X0049738Y0357468D03*
X0049918Y0357348D03*
X0055558Y0357468D03*
X0055738Y0357588D03*
X0055798Y0357648D03*
X0055858Y0357708D03*
X0055978Y0357768D03*
X0056038Y0357828D03*
X0056098Y0357888D03*
X0056158Y0369048D03*
X0056098Y0369108D03*
X0055918Y0369228D03*
X0055858Y0369288D03*
X0055798Y0369348D03*
X0055678Y0369408D03*
X0055618Y0369468D03*
X0055138Y0369768D03*
X0055018Y0369828D03*
X0054898Y0369888D03*
D58*
X0055228Y0369708D03*
X0055468Y0369588D03*
X0055528Y0369528D03*
X0049828Y0369588D03*
X0049768Y0369528D03*
X0049468Y0357648D03*
X0049828Y0357408D03*
X0055468Y0357408D03*
D59*
X0056128Y0357948D03*
X0056188Y0358008D03*
X0056368Y0358188D03*
X0056428Y0358248D03*
X0049288Y0357768D03*
X0049108Y0357948D03*
X0048988Y0358068D03*
X0048928Y0358128D03*
X0048868Y0358188D03*
X0048928Y0368868D03*
X0049108Y0369048D03*
X0049168Y0369108D03*
X0056008Y0369168D03*
X0056188Y0368988D03*
X0056308Y0368868D03*
X0056368Y0368808D03*
X0056428Y0368748D03*
X0056488Y0368688D03*
D60*
X0056248Y0368928D03*
X0052348Y0364788D03*
X0049048Y0368988D03*
X0056248Y0358068D03*
D61*
X0051838Y0365808D03*
X0043558Y0358968D03*
X0043558Y0358068D03*
D62*
X0048418Y0358728D03*
X0048478Y0358668D03*
X0048658Y0358428D03*
X0048718Y0358368D03*
X0048778Y0358308D03*
X0048838Y0358248D03*
X0052378Y0364728D03*
X0050578Y0369948D03*
X0048898Y0368808D03*
X0048838Y0368748D03*
X0048778Y0368688D03*
X0048718Y0368628D03*
X0048658Y0368568D03*
X0054718Y0369948D03*
X0056638Y0368508D03*
X0056698Y0368448D03*
X0056758Y0368388D03*
X0056698Y0358548D03*
X0056638Y0358488D03*
X0056638Y0358428D03*
X0056458Y0358308D03*
X0056338Y0358128D03*
D63*
X0056548Y0358368D03*
X0056788Y0358668D03*
X0056848Y0358728D03*
X0052408Y0364668D03*
X0050728Y0370008D03*
X0048628Y0368508D03*
X0048568Y0368448D03*
X0048508Y0368388D03*
X0048508Y0368328D03*
X0048448Y0368268D03*
X0048388Y0368208D03*
X0048328Y0368148D03*
X0048268Y0368088D03*
X0048268Y0358908D03*
X0048328Y0358848D03*
X0048388Y0358788D03*
X0048508Y0358608D03*
X0048568Y0358548D03*
X0048628Y0358488D03*
X0056608Y0368568D03*
X0056548Y0368628D03*
X0056788Y0368328D03*
X0056848Y0368268D03*
D64*
X0056938Y0368148D03*
X0056998Y0368088D03*
X0057058Y0368028D03*
X0057058Y0367968D03*
X0054538Y0370008D03*
X0052438Y0364608D03*
X0048238Y0368028D03*
X0048238Y0358968D03*
X0056758Y0358608D03*
X0056938Y0358848D03*
X0056998Y0358908D03*
X0057058Y0358968D03*
X0057058Y0359028D03*
D65*
X0057118Y0359088D03*
X0057118Y0359148D03*
X0056878Y0358788D03*
X0057178Y0367788D03*
X0057118Y0367908D03*
X0056878Y0368208D03*
X0048178Y0367968D03*
X0048118Y0367848D03*
X0048118Y0359148D03*
X0048178Y0359088D03*
X0048178Y0359028D03*
D66*
X0043678Y0359088D03*
X0051718Y0366048D03*
D67*
X0052468Y0364548D03*
X0050908Y0370068D03*
X0048148Y0367908D03*
X0048088Y0367788D03*
X0048028Y0367728D03*
X0047968Y0367608D03*
X0047848Y0367428D03*
X0047788Y0367308D03*
X0047908Y0359448D03*
X0047968Y0359328D03*
X0048028Y0359268D03*
X0048088Y0359208D03*
X0057208Y0359208D03*
X0057208Y0359268D03*
X0057268Y0359388D03*
X0057388Y0367488D03*
X0057328Y0367548D03*
X0057268Y0367608D03*
X0057268Y0367668D03*
X0057208Y0367728D03*
X0057148Y0367848D03*
D68*
X0057418Y0367428D03*
X0057478Y0367308D03*
X0057538Y0359808D03*
X0057478Y0359748D03*
X0057478Y0359688D03*
X0057418Y0359628D03*
X0057418Y0359568D03*
X0057358Y0359508D03*
X0057238Y0359328D03*
X0054358Y0370068D03*
X0047938Y0367548D03*
X0047878Y0367488D03*
X0047818Y0367368D03*
X0047758Y0367248D03*
X0047758Y0359688D03*
X0047818Y0359568D03*
X0047878Y0359508D03*
X0047938Y0359388D03*
D69*
X0052498Y0364488D03*
X0047698Y0367128D03*
X0047698Y0367188D03*
X0047998Y0367668D03*
X0057298Y0359448D03*
D70*
X0057568Y0359868D03*
X0057628Y0359928D03*
X0057628Y0359988D03*
X0057628Y0360048D03*
X0057688Y0360108D03*
X0057748Y0360228D03*
X0057748Y0360288D03*
X0057808Y0366588D03*
X0057748Y0366708D03*
X0057748Y0366768D03*
X0057688Y0366828D03*
X0057688Y0366888D03*
X0057628Y0366948D03*
X0057628Y0367008D03*
X0057568Y0367068D03*
X0057568Y0367128D03*
X0057508Y0367188D03*
X0057508Y0367248D03*
X0057448Y0367368D03*
X0052528Y0364428D03*
X0047668Y0367008D03*
X0047668Y0367068D03*
X0047608Y0366948D03*
X0047428Y0360408D03*
X0047488Y0360348D03*
X0047488Y0360288D03*
X0047548Y0360168D03*
X0047548Y0360108D03*
X0047608Y0360048D03*
X0047608Y0359988D03*
X0047668Y0359928D03*
X0047668Y0359868D03*
X0047728Y0359808D03*
X0047728Y0359748D03*
X0047788Y0359628D03*
D71*
X0047518Y0360228D03*
X0047398Y0360468D03*
X0047398Y0360528D03*
X0047338Y0360708D03*
X0047278Y0360768D03*
X0047278Y0360828D03*
X0047278Y0360888D03*
X0047278Y0366108D03*
X0047398Y0366408D03*
X0047398Y0366468D03*
X0047458Y0366588D03*
X0047518Y0366648D03*
X0047518Y0366708D03*
X0047518Y0366768D03*
X0047518Y0366828D03*
X0047578Y0366888D03*
X0052558Y0364368D03*
X0057838Y0366468D03*
X0057838Y0366528D03*
X0057778Y0366648D03*
X0057898Y0366408D03*
X0057898Y0366348D03*
X0057958Y0366228D03*
X0057898Y0360648D03*
X0057838Y0360588D03*
X0057838Y0360528D03*
X0057838Y0360468D03*
X0057778Y0360408D03*
X0057778Y0360348D03*
X0057718Y0360168D03*
D72*
X0057928Y0360708D03*
X0057928Y0360768D03*
X0057928Y0366288D03*
X0047428Y0366528D03*
X0047368Y0366348D03*
X0047368Y0366288D03*
X0047128Y0365628D03*
X0047068Y0361668D03*
X0047068Y0361608D03*
X0047368Y0360648D03*
X0047368Y0360588D03*
D73*
X0047248Y0360948D03*
X0047248Y0361008D03*
X0047188Y0361068D03*
X0047188Y0361128D03*
X0047188Y0361188D03*
X0047188Y0365808D03*
X0047188Y0365868D03*
X0047248Y0365928D03*
X0047248Y0365988D03*
X0047248Y0366048D03*
X0047308Y0366168D03*
X0047308Y0366228D03*
X0052588Y0364308D03*
X0057988Y0366048D03*
X0057988Y0366108D03*
X0057988Y0366168D03*
X0058048Y0365988D03*
X0058048Y0365928D03*
X0058108Y0365868D03*
X0058108Y0365808D03*
X0058108Y0365748D03*
X0058108Y0365688D03*
X0058108Y0361308D03*
X0058108Y0361248D03*
X0058108Y0361188D03*
X0058048Y0361128D03*
X0058048Y0361068D03*
X0058048Y0361008D03*
X0057988Y0360948D03*
X0057988Y0360888D03*
X0057988Y0360828D03*
D74*
X0058408Y0362748D03*
X0058288Y0364848D03*
X0058288Y0364908D03*
X0046888Y0363288D03*
X0046888Y0363228D03*
X0046888Y0363168D03*
X0046888Y0363108D03*
X0046888Y0363048D03*
X0046888Y0362988D03*
X0046888Y0362928D03*
X0046888Y0362868D03*
X0046888Y0362808D03*
X0046888Y0362748D03*
X0046888Y0362688D03*
X0046888Y0362628D03*
X0046888Y0362568D03*
X0046888Y0362508D03*
X0047008Y0361908D03*
X0046828Y0363348D03*
X0046828Y0363408D03*
D75*
X0047968Y0363888D03*
X0047968Y0363948D03*
X0047968Y0364008D03*
X0047968Y0364068D03*
X0047968Y0364128D03*
X0047968Y0364188D03*
X0057328Y0364008D03*
X0057328Y0363948D03*
X0057328Y0363888D03*
X0057328Y0363828D03*
X0057328Y0363768D03*
X0057328Y0363708D03*
X0057328Y0363648D03*
X0057328Y0363588D03*
X0057328Y0363528D03*
X0057328Y0363468D03*
D76*
X0047938Y0363468D03*
X0047938Y0363528D03*
X0047938Y0363588D03*
X0047938Y0363648D03*
X0047938Y0363708D03*
X0047938Y0363768D03*
X0047938Y0363828D03*
D77*
X0057298Y0364068D03*
X0057298Y0364128D03*
X0057298Y0364188D03*
D78*
X0052258Y0364908D03*
D79*
X0052198Y0365088D03*
D80*
X0052168Y0365148D03*
D81*
X0052138Y0365208D03*
D82*
X0052108Y0365268D03*
D83*
X0052078Y0365328D03*
D84*
X0052048Y0365388D03*
D85*
X0051928Y0365628D03*
D86*
X0051898Y0365688D03*
D87*
X0051868Y0365748D03*
D88*
X0052618Y0370368D03*
D89*
X0052618Y0370428D03*
D90*
X0052648Y0370488D03*
D91*
X0052618Y0370548D03*
D92*
X0068846Y0349035D02*
X0035382Y0349035D01*
X0035382Y0373839D01*
X0068846Y0373839D01*
X0068846Y0349035D01*
D93*
X0052615Y0357103D03*
D94*
X0041738Y0358055D02*
X0041740Y0358139D01*
X0041746Y0358224D01*
X0041756Y0358308D01*
X0041770Y0358391D01*
X0041787Y0358473D01*
X0041809Y0358555D01*
X0041834Y0358636D01*
X0041863Y0358715D01*
X0041896Y0358793D01*
X0041932Y0358869D01*
X0041972Y0358943D01*
X0042016Y0359016D01*
X0042062Y0359086D01*
X0042112Y0359154D01*
X0042165Y0359220D01*
X0042222Y0359283D01*
X0042281Y0359343D01*
X0042342Y0359401D01*
X0042407Y0359456D01*
X0042474Y0359507D01*
X0042543Y0359555D01*
X0042614Y0359600D01*
X0042688Y0359642D01*
X0042763Y0359680D01*
X0042840Y0359715D01*
X0042919Y0359746D01*
X0042999Y0359773D01*
X0043080Y0359796D01*
X0043162Y0359816D01*
X0043245Y0359832D01*
X0043328Y0359844D01*
X0043412Y0359852D01*
X0043497Y0359856D01*
X0043581Y0359856D01*
X0043666Y0359852D01*
X0043750Y0359844D01*
X0043833Y0359832D01*
X0043916Y0359816D01*
X0043998Y0359796D01*
X0044079Y0359773D01*
X0044159Y0359746D01*
X0044238Y0359715D01*
X0044315Y0359680D01*
X0044390Y0359642D01*
X0044464Y0359600D01*
X0044535Y0359555D01*
X0044604Y0359507D01*
X0044671Y0359456D01*
X0044736Y0359401D01*
X0044797Y0359343D01*
X0044856Y0359283D01*
X0044913Y0359220D01*
X0044966Y0359154D01*
X0045016Y0359086D01*
X0045062Y0359016D01*
X0045106Y0358943D01*
X0045146Y0358869D01*
X0045182Y0358793D01*
X0045215Y0358715D01*
X0045244Y0358636D01*
X0045269Y0358555D01*
X0045291Y0358473D01*
X0045308Y0358391D01*
X0045322Y0358308D01*
X0045332Y0358224D01*
X0045338Y0358139D01*
X0045340Y0358055D01*
X0045338Y0357971D01*
X0045332Y0357886D01*
X0045322Y0357802D01*
X0045308Y0357719D01*
X0045291Y0357637D01*
X0045269Y0357555D01*
X0045244Y0357474D01*
X0045215Y0357395D01*
X0045182Y0357317D01*
X0045146Y0357241D01*
X0045106Y0357167D01*
X0045062Y0357094D01*
X0045016Y0357024D01*
X0044966Y0356956D01*
X0044913Y0356890D01*
X0044856Y0356827D01*
X0044797Y0356767D01*
X0044736Y0356709D01*
X0044671Y0356654D01*
X0044604Y0356603D01*
X0044535Y0356555D01*
X0044464Y0356510D01*
X0044390Y0356468D01*
X0044315Y0356430D01*
X0044238Y0356395D01*
X0044159Y0356364D01*
X0044079Y0356337D01*
X0043998Y0356314D01*
X0043916Y0356294D01*
X0043833Y0356278D01*
X0043750Y0356266D01*
X0043666Y0356258D01*
X0043581Y0356254D01*
X0043497Y0356254D01*
X0043412Y0356258D01*
X0043328Y0356266D01*
X0043245Y0356278D01*
X0043162Y0356294D01*
X0043080Y0356314D01*
X0042999Y0356337D01*
X0042919Y0356364D01*
X0042840Y0356395D01*
X0042763Y0356430D01*
X0042688Y0356468D01*
X0042614Y0356510D01*
X0042543Y0356555D01*
X0042474Y0356603D01*
X0042407Y0356654D01*
X0042342Y0356709D01*
X0042281Y0356767D01*
X0042222Y0356827D01*
X0042165Y0356890D01*
X0042112Y0356956D01*
X0042062Y0357024D01*
X0042016Y0357094D01*
X0041972Y0357167D01*
X0041932Y0357241D01*
X0041896Y0357317D01*
X0041863Y0357395D01*
X0041834Y0357474D01*
X0041809Y0357555D01*
X0041787Y0357637D01*
X0041770Y0357719D01*
X0041756Y0357802D01*
X0041746Y0357886D01*
X0041740Y0357971D01*
X0041738Y0358055D01*
M02*
