G75*
%MOIN*%
%OFA0B0*%
%FSLAX25Y25*%
%IPPOS*%
%LPD*%
%AMOC8*
5,1,8,0,0,1.08239X$1,22.5*
%
%ADD10C,0.05600*%
%ADD11OC8,0.05600*%
%ADD12C,0.07087*%
%ADD13C,0.07677*%
%ADD14C,0.10000*%
%ADD15C,0.08600*%
%ADD16C,0.03000*%
%ADD17C,0.08000*%
%ADD18C,0.05000*%
%ADD19C,0.06000*%
%ADD20C,0.03569*%
%ADD21C,0.01600*%
D10*
X0062838Y0175744D03*
D11*
X0052838Y0175744D03*
X0052838Y0185744D03*
X0062838Y0185744D03*
X0062838Y0195744D03*
X0052838Y0195744D03*
X0052838Y0205744D03*
X0062838Y0205744D03*
X0062838Y0215744D03*
X0052838Y0215744D03*
X0052838Y0225744D03*
X0062838Y0225744D03*
X0062838Y0235744D03*
X0052838Y0235744D03*
X0052838Y0245744D03*
X0062838Y0245744D03*
X0062838Y0255744D03*
X0052838Y0255744D03*
X0052838Y0265744D03*
X0062838Y0265744D03*
X0062838Y0275744D03*
X0052838Y0275744D03*
X0052838Y0285744D03*
X0062838Y0285744D03*
X0062838Y0295744D03*
X0052838Y0295744D03*
D12*
X0097838Y0290744D03*
X0097838Y0320744D03*
X0097838Y0360744D03*
X0182838Y0360744D03*
X0182838Y0320744D03*
X0182838Y0290744D03*
X0182838Y0250744D03*
X0182838Y0215744D03*
X0182838Y0175744D03*
X0182838Y0145744D03*
X0182838Y0105744D03*
X0267838Y0105744D03*
X0267838Y0145744D03*
X0267838Y0175744D03*
X0267838Y0215744D03*
X0267838Y0250744D03*
X0267838Y0290744D03*
X0267838Y0320744D03*
X0267838Y0360744D03*
X0352838Y0360744D03*
X0352838Y0320744D03*
X0352838Y0290744D03*
X0352838Y0250744D03*
X0352838Y0215744D03*
X0352838Y0175744D03*
X0352838Y0145744D03*
X0352838Y0105744D03*
X0437838Y0105744D03*
X0437838Y0145744D03*
X0437838Y0175744D03*
X0437838Y0215744D03*
X0437838Y0250744D03*
X0437838Y0290744D03*
X0437838Y0320744D03*
X0437838Y0360744D03*
X0522838Y0360744D03*
X0522838Y0320744D03*
X0522838Y0290744D03*
X0522838Y0250744D03*
X0522838Y0215744D03*
X0522838Y0175744D03*
X0522838Y0145744D03*
X0522838Y0105744D03*
X0607838Y0105744D03*
X0607838Y0145744D03*
X0607838Y0175744D03*
X0607838Y0215744D03*
X0097838Y0250744D03*
D13*
X0117838Y0250744D03*
X0117838Y0270744D03*
X0117838Y0290744D03*
X0152838Y0290744D03*
X0167838Y0290744D03*
X0202838Y0290744D03*
X0202838Y0270744D03*
X0202838Y0250744D03*
X0162838Y0215744D03*
X0162838Y0195744D03*
X0162838Y0175744D03*
X0197838Y0175744D03*
X0212838Y0175744D03*
X0247838Y0175744D03*
X0247838Y0195744D03*
X0247838Y0215744D03*
X0282838Y0175744D03*
X0297838Y0175744D03*
X0332838Y0175744D03*
X0332838Y0195744D03*
X0332838Y0215744D03*
X0367838Y0175744D03*
X0382838Y0175744D03*
X0417838Y0175744D03*
X0417838Y0195744D03*
X0417838Y0215744D03*
X0452838Y0175744D03*
X0467838Y0175744D03*
X0502838Y0175744D03*
X0502838Y0195744D03*
X0502838Y0215744D03*
X0537838Y0175744D03*
X0552838Y0175744D03*
X0587838Y0175744D03*
X0587838Y0195744D03*
X0587838Y0215744D03*
X0542838Y0250744D03*
X0542838Y0270744D03*
X0542838Y0290744D03*
X0507838Y0290744D03*
X0492838Y0290744D03*
X0457838Y0290744D03*
X0457838Y0270744D03*
X0457838Y0250744D03*
X0422838Y0290744D03*
X0407838Y0290744D03*
X0372838Y0290744D03*
X0372838Y0270744D03*
X0372838Y0250744D03*
X0337838Y0290744D03*
X0322838Y0290744D03*
X0287838Y0290744D03*
X0287838Y0270744D03*
X0287838Y0250744D03*
X0252838Y0290744D03*
X0237838Y0290744D03*
X0202838Y0320744D03*
X0202838Y0340744D03*
X0202838Y0360744D03*
X0167838Y0360744D03*
X0152838Y0360744D03*
X0117838Y0360744D03*
X0117838Y0340744D03*
X0117838Y0320744D03*
X0237838Y0360744D03*
X0252838Y0360744D03*
X0287838Y0360744D03*
X0287838Y0340744D03*
X0287838Y0320744D03*
X0322838Y0360744D03*
X0337838Y0360744D03*
X0372838Y0360744D03*
X0372838Y0340744D03*
X0372838Y0320744D03*
X0407838Y0360744D03*
X0422838Y0360744D03*
X0457838Y0360744D03*
X0457838Y0340744D03*
X0457838Y0320744D03*
X0492838Y0360744D03*
X0507838Y0360744D03*
X0542838Y0360744D03*
X0542838Y0340744D03*
X0542838Y0320744D03*
X0577838Y0290744D03*
X0592838Y0290744D03*
X0592838Y0360744D03*
X0577838Y0360744D03*
X0587838Y0145744D03*
X0587838Y0125744D03*
X0587838Y0105744D03*
X0552838Y0105744D03*
X0537838Y0105744D03*
X0502838Y0105744D03*
X0502838Y0125744D03*
X0502838Y0145744D03*
X0467838Y0105744D03*
X0452838Y0105744D03*
X0417838Y0105744D03*
X0417838Y0125744D03*
X0417838Y0145744D03*
X0382838Y0105744D03*
X0367838Y0105744D03*
X0332838Y0105744D03*
X0332838Y0125744D03*
X0332838Y0145744D03*
X0297838Y0105744D03*
X0282838Y0105744D03*
X0247838Y0105744D03*
X0247838Y0125744D03*
X0247838Y0145744D03*
X0212838Y0105744D03*
X0197838Y0105744D03*
X0162838Y0105744D03*
X0162838Y0125744D03*
X0162838Y0145744D03*
X0127838Y0175744D03*
X0112838Y0175744D03*
X0112838Y0105744D03*
X0127838Y0105744D03*
D14*
X0051617Y0036650D03*
X0071617Y0036650D03*
X0071617Y0066650D03*
X0051617Y0066650D03*
D15*
X0122838Y0066744D03*
X0142838Y0066744D03*
X0162838Y0066744D03*
X0182838Y0066744D03*
X0202838Y0066744D03*
X0222838Y0066744D03*
X0242838Y0066744D03*
X0262838Y0066744D03*
X0282838Y0066744D03*
X0302838Y0066744D03*
X0322838Y0066744D03*
X0342838Y0066744D03*
X0362838Y0066744D03*
X0382838Y0066744D03*
X0402838Y0066744D03*
X0422838Y0066744D03*
X0442838Y0066744D03*
X0462838Y0066744D03*
X0482838Y0066744D03*
X0502838Y0066744D03*
X0522838Y0066744D03*
X0542838Y0066744D03*
X0562838Y0066744D03*
X0582838Y0066744D03*
X0582838Y0036744D03*
X0562838Y0036744D03*
X0542838Y0036744D03*
X0522838Y0036744D03*
X0502838Y0036744D03*
X0482838Y0036744D03*
X0462838Y0036744D03*
X0442838Y0036744D03*
X0422838Y0036744D03*
X0402838Y0036744D03*
X0382838Y0036744D03*
X0362838Y0036744D03*
X0342838Y0036744D03*
X0322838Y0036744D03*
X0302838Y0036744D03*
X0282838Y0036744D03*
X0262838Y0036744D03*
X0242838Y0036744D03*
X0222838Y0036744D03*
X0202838Y0036744D03*
X0182838Y0036744D03*
X0162838Y0036744D03*
X0142838Y0036744D03*
X0122838Y0036744D03*
X0127838Y0400744D03*
X0147838Y0400744D03*
X0167838Y0400744D03*
X0187838Y0400744D03*
X0207838Y0400744D03*
X0227838Y0400744D03*
X0247838Y0400744D03*
X0267838Y0400744D03*
X0287838Y0400744D03*
X0307838Y0400744D03*
X0327838Y0400744D03*
X0347838Y0400744D03*
X0367838Y0400744D03*
X0387838Y0400744D03*
X0407838Y0400744D03*
X0427838Y0400744D03*
X0447838Y0400744D03*
X0467838Y0400744D03*
X0487838Y0400744D03*
X0507838Y0400744D03*
X0527838Y0400744D03*
X0547838Y0400744D03*
X0567838Y0400744D03*
X0587838Y0400744D03*
X0587838Y0430744D03*
X0567838Y0430744D03*
X0547838Y0430744D03*
X0527838Y0430744D03*
X0507838Y0430744D03*
X0487838Y0430744D03*
X0467838Y0430744D03*
X0447838Y0430744D03*
X0427838Y0430744D03*
X0407838Y0430744D03*
X0387838Y0430744D03*
X0367838Y0430744D03*
X0347838Y0430744D03*
X0327838Y0430744D03*
X0307838Y0430744D03*
X0287838Y0430744D03*
X0267838Y0430744D03*
X0247838Y0430744D03*
X0227838Y0430744D03*
X0207838Y0430744D03*
X0187838Y0430744D03*
X0167838Y0430744D03*
X0147838Y0430744D03*
X0127838Y0430744D03*
D16*
X0117838Y0360744D02*
X0097838Y0360744D01*
X0097838Y0320744D02*
X0117838Y0320744D01*
X0117838Y0290744D02*
X0097838Y0290744D01*
X0097838Y0250744D02*
X0117838Y0250744D01*
X0162838Y0215744D02*
X0182838Y0215744D01*
X0182838Y0250744D02*
X0202838Y0250744D01*
X0247838Y0215744D02*
X0267838Y0215744D01*
X0267838Y0250744D02*
X0287838Y0250744D01*
X0332838Y0215744D02*
X0352838Y0215744D01*
X0352838Y0250744D02*
X0372838Y0250744D01*
X0417838Y0215744D02*
X0437838Y0215744D01*
X0437838Y0250744D02*
X0457838Y0250744D01*
X0502838Y0215744D02*
X0522838Y0215744D01*
X0522838Y0250744D02*
X0542838Y0250744D01*
X0587838Y0215744D02*
X0607838Y0215744D01*
X0607838Y0175744D02*
X0587838Y0175744D01*
X0607838Y0175744D02*
X0614838Y0175744D01*
X0617838Y0172744D01*
X0617838Y0108744D01*
X0614838Y0105744D01*
X0607838Y0105744D01*
X0587838Y0105744D01*
X0587838Y0145744D02*
X0607838Y0145744D01*
X0522838Y0145744D02*
X0502838Y0145744D01*
X0502838Y0175744D02*
X0522838Y0175744D01*
X0437838Y0175744D02*
X0417838Y0175744D01*
X0417838Y0145744D02*
X0437838Y0145744D01*
X0437838Y0105744D02*
X0417838Y0105744D01*
X0352838Y0105744D02*
X0332838Y0105744D01*
X0332838Y0145744D02*
X0352838Y0145744D01*
X0352838Y0175744D02*
X0332838Y0175744D01*
X0267838Y0175744D02*
X0247838Y0175744D01*
X0247838Y0145744D02*
X0267838Y0145744D01*
X0267838Y0105744D02*
X0247838Y0105744D01*
X0182838Y0105744D02*
X0162838Y0105744D01*
X0162838Y0145744D02*
X0182838Y0145744D01*
X0182838Y0175744D02*
X0162838Y0175744D01*
X0182838Y0290744D02*
X0202838Y0290744D01*
X0202838Y0320744D02*
X0182838Y0320744D01*
X0182838Y0360744D02*
X0202838Y0360744D01*
X0267838Y0360744D02*
X0287838Y0360744D01*
X0287838Y0320744D02*
X0267838Y0320744D01*
X0267838Y0290744D02*
X0287838Y0290744D01*
X0352838Y0290744D02*
X0372838Y0290744D01*
X0372838Y0320744D02*
X0352838Y0320744D01*
X0352838Y0360744D02*
X0372838Y0360744D01*
X0437838Y0360744D02*
X0457838Y0360744D01*
X0457838Y0320744D02*
X0437838Y0320744D01*
X0437838Y0290744D02*
X0457838Y0290744D01*
X0522838Y0290744D02*
X0542838Y0290744D01*
X0542838Y0320744D02*
X0522838Y0320744D01*
X0522838Y0360744D02*
X0542838Y0360744D01*
X0522838Y0105744D02*
X0502838Y0105744D01*
D17*
X0502838Y0066744D02*
X0502838Y0036744D01*
X0522838Y0036744D02*
X0522838Y0066744D01*
X0542838Y0066744D02*
X0542838Y0036744D01*
X0562838Y0036744D02*
X0562838Y0066744D01*
X0582838Y0066744D02*
X0582838Y0036744D01*
X0482838Y0036744D02*
X0482838Y0066744D01*
X0462838Y0066744D02*
X0462838Y0036744D01*
X0442838Y0036744D02*
X0442838Y0066744D01*
X0422838Y0066744D02*
X0422838Y0036744D01*
X0402838Y0036744D02*
X0402838Y0066744D01*
X0382838Y0066744D02*
X0382838Y0036744D01*
X0362838Y0036744D02*
X0362838Y0066744D01*
X0342838Y0066744D02*
X0342838Y0036744D01*
X0322838Y0036744D02*
X0322838Y0066744D01*
X0302838Y0066744D02*
X0302838Y0036744D01*
X0282838Y0036744D02*
X0282838Y0066744D01*
X0262838Y0066744D02*
X0262838Y0036744D01*
X0242838Y0036744D02*
X0242838Y0066744D01*
X0222838Y0066744D02*
X0222838Y0036744D01*
X0202838Y0036744D02*
X0202838Y0066744D01*
X0182838Y0066744D02*
X0182838Y0036744D01*
X0162838Y0036744D02*
X0162838Y0066744D01*
X0142838Y0066744D02*
X0142838Y0036744D01*
X0122838Y0036744D02*
X0122838Y0066744D01*
X0071617Y0066650D02*
X0071617Y0036650D01*
X0051617Y0036650D02*
X0051617Y0066650D01*
X0127838Y0400744D02*
X0127838Y0430744D01*
X0147838Y0430744D02*
X0147838Y0400744D01*
X0167838Y0400744D02*
X0167838Y0430744D01*
X0187838Y0430744D02*
X0187838Y0400744D01*
X0207838Y0400744D02*
X0207838Y0430744D01*
X0227838Y0430744D02*
X0227838Y0400744D01*
X0247838Y0400744D02*
X0247838Y0430744D01*
X0267838Y0430744D02*
X0267838Y0400744D01*
X0287838Y0400744D02*
X0287838Y0430744D01*
X0307838Y0430744D02*
X0307838Y0400744D01*
X0327838Y0400744D02*
X0327838Y0430744D01*
X0347838Y0430744D02*
X0347838Y0400744D01*
X0367838Y0400744D02*
X0367838Y0430744D01*
X0387838Y0430744D02*
X0387838Y0400744D01*
X0407838Y0400744D02*
X0407838Y0430744D01*
X0427838Y0430744D02*
X0427838Y0400744D01*
X0447838Y0400744D02*
X0447838Y0430744D01*
X0467838Y0430744D02*
X0467838Y0400744D01*
X0487838Y0400744D02*
X0487838Y0430744D01*
X0507838Y0430744D02*
X0507838Y0400744D01*
X0527838Y0400744D02*
X0527838Y0430744D01*
X0547838Y0430744D02*
X0547838Y0400744D01*
X0567838Y0400744D02*
X0567838Y0430744D01*
X0587838Y0430744D02*
X0587838Y0400744D01*
D18*
X0062838Y0175744D02*
X0062838Y0103744D01*
X0051617Y0092524D01*
X0051617Y0066650D01*
D19*
X0138838Y0096744D02*
X0138838Y0164744D01*
X0127838Y0175744D01*
X0147838Y0180744D02*
X0147838Y0101744D01*
X0182838Y0066744D01*
X0162838Y0066744D02*
X0162838Y0072744D01*
X0138838Y0096744D01*
X0223838Y0092744D02*
X0223838Y0164744D01*
X0212838Y0175744D01*
X0232838Y0180744D02*
X0232838Y0096744D01*
X0262838Y0066744D01*
X0242838Y0066744D02*
X0242838Y0073744D01*
X0223838Y0092744D01*
X0309838Y0091744D02*
X0309838Y0163744D01*
X0297838Y0175744D01*
X0318838Y0181744D02*
X0332838Y0195744D01*
X0318838Y0181744D02*
X0318838Y0095744D01*
X0342838Y0071744D01*
X0342838Y0066744D01*
X0322838Y0066744D02*
X0322838Y0078744D01*
X0309838Y0091744D01*
X0393838Y0080744D02*
X0393838Y0164744D01*
X0382838Y0175744D01*
X0402838Y0180744D02*
X0402838Y0086744D01*
X0422838Y0066744D01*
X0402838Y0066744D02*
X0402838Y0071744D01*
X0393838Y0080744D01*
X0479838Y0083744D02*
X0479838Y0163744D01*
X0467838Y0175744D01*
X0488838Y0181744D02*
X0488838Y0092744D01*
X0502838Y0078744D01*
X0502838Y0066744D01*
X0482838Y0066744D02*
X0482838Y0080744D01*
X0479838Y0083744D01*
X0562838Y0091744D02*
X0562838Y0066744D01*
X0582838Y0066744D02*
X0582838Y0089744D01*
X0575838Y0096744D01*
X0575838Y0183744D01*
X0587838Y0195744D01*
X0566838Y0161744D02*
X0552838Y0175744D01*
X0566838Y0161744D02*
X0566838Y0095744D01*
X0562838Y0091744D01*
X0488838Y0181744D02*
X0502838Y0195744D01*
X0417838Y0195744D02*
X0402838Y0180744D01*
X0372838Y0270744D02*
X0385838Y0283744D01*
X0385838Y0382744D01*
X0367838Y0400744D01*
X0387838Y0400744D02*
X0394838Y0392744D01*
X0394838Y0302744D01*
X0407838Y0290744D01*
X0457838Y0270744D02*
X0471838Y0284744D01*
X0471838Y0369744D01*
X0447838Y0393744D01*
X0447838Y0400744D01*
X0467838Y0400744D02*
X0467838Y0386744D01*
X0480838Y0373744D01*
X0480838Y0302744D01*
X0492838Y0290744D01*
X0542838Y0270744D02*
X0555838Y0283744D01*
X0555838Y0370744D01*
X0527838Y0398744D01*
X0527838Y0400744D01*
X0547838Y0400744D02*
X0547838Y0391744D01*
X0564838Y0374744D01*
X0564838Y0303744D01*
X0577838Y0290744D01*
X0322838Y0290744D02*
X0307838Y0305744D01*
X0307838Y0400744D01*
X0298838Y0389744D02*
X0298838Y0281744D01*
X0287838Y0270744D01*
X0237838Y0290744D02*
X0224838Y0303744D01*
X0224838Y0397744D01*
X0227838Y0400744D01*
X0215838Y0392744D02*
X0215838Y0283744D01*
X0202838Y0270744D01*
X0152838Y0290744D02*
X0141838Y0301744D01*
X0141838Y0394744D01*
X0147838Y0400744D01*
X0132838Y0395744D02*
X0132838Y0285744D01*
X0117838Y0270744D01*
X0162838Y0195744D02*
X0147838Y0180744D01*
X0232838Y0180744D02*
X0247838Y0195744D01*
X0298838Y0389744D02*
X0287838Y0400744D01*
X0215838Y0392744D02*
X0207838Y0400744D01*
X0132838Y0395744D02*
X0127838Y0400744D01*
D20*
X0086026Y0251932D03*
X0081491Y0251397D03*
X0081457Y0246363D03*
X0076838Y0245913D03*
X0076838Y0240744D03*
X0085238Y0199244D03*
X0088822Y0195744D03*
X0081654Y0195744D03*
X0079054Y0191744D03*
X0076454Y0188244D03*
D21*
X0068954Y0195744D01*
X0062838Y0195744D01*
X0062838Y0205744D02*
X0065054Y0205744D01*
X0079054Y0191744D01*
X0081654Y0195744D02*
X0081654Y0196928D01*
X0062838Y0215744D01*
X0062838Y0225744D02*
X0085238Y0203344D01*
X0085238Y0199244D01*
X0088822Y0195744D02*
X0088822Y0209760D01*
X0062838Y0235744D01*
X0057838Y0240744D02*
X0076838Y0240744D01*
X0076838Y0245913D02*
X0072006Y0250744D01*
X0057838Y0250744D01*
X0052838Y0255744D01*
X0057838Y0260744D02*
X0067075Y0260744D01*
X0081457Y0246363D01*
X0081491Y0251397D02*
X0073838Y0259050D01*
X0073838Y0267744D01*
X0070838Y0270744D01*
X0057838Y0270744D01*
X0052838Y0275744D01*
X0057838Y0280744D02*
X0052838Y0285744D01*
X0057838Y0280744D02*
X0070838Y0280744D01*
X0077338Y0274244D01*
X0077338Y0260619D01*
X0086026Y0251932D01*
X0092838Y0250744D02*
X0080838Y0262744D01*
X0080838Y0280744D01*
X0070838Y0290744D01*
X0057838Y0290744D01*
X0052838Y0295744D01*
X0062838Y0295744D02*
X0072838Y0295744D01*
X0097838Y0320744D01*
X0052838Y0265744D02*
X0057838Y0260744D01*
X0052838Y0245744D02*
X0057838Y0240744D01*
X0092838Y0250744D02*
X0097838Y0250744D01*
M02*
