G75*
%MOIN*%
%OFA0B0*%
%FSLAX25Y25*%
%IPPOS*%
%LPD*%
%AMOC8*
5,1,8,0,0,1.08239X$1,22.5*
%
%ADD10C,0.00004*%
%ADD11C,0.00000*%
D10*
X0017838Y0020744D02*
X0017838Y0446728D01*
X0628074Y0446728D01*
X0628074Y0020744D01*
X0017838Y0020744D01*
D11*
X0023350Y0032555D02*
X0023352Y0032713D01*
X0023358Y0032871D01*
X0023368Y0033029D01*
X0023382Y0033187D01*
X0023400Y0033344D01*
X0023421Y0033501D01*
X0023447Y0033657D01*
X0023477Y0033813D01*
X0023510Y0033968D01*
X0023548Y0034121D01*
X0023589Y0034274D01*
X0023634Y0034426D01*
X0023683Y0034577D01*
X0023736Y0034726D01*
X0023792Y0034874D01*
X0023852Y0035020D01*
X0023916Y0035165D01*
X0023984Y0035308D01*
X0024055Y0035450D01*
X0024129Y0035590D01*
X0024207Y0035727D01*
X0024289Y0035863D01*
X0024373Y0035997D01*
X0024462Y0036128D01*
X0024553Y0036257D01*
X0024648Y0036384D01*
X0024745Y0036509D01*
X0024846Y0036631D01*
X0024950Y0036750D01*
X0025057Y0036867D01*
X0025167Y0036981D01*
X0025280Y0037092D01*
X0025395Y0037201D01*
X0025513Y0037306D01*
X0025634Y0037408D01*
X0025757Y0037508D01*
X0025883Y0037604D01*
X0026011Y0037697D01*
X0026141Y0037787D01*
X0026274Y0037873D01*
X0026409Y0037957D01*
X0026545Y0038036D01*
X0026684Y0038113D01*
X0026825Y0038185D01*
X0026967Y0038255D01*
X0027111Y0038320D01*
X0027257Y0038382D01*
X0027404Y0038440D01*
X0027553Y0038495D01*
X0027703Y0038546D01*
X0027854Y0038593D01*
X0028006Y0038636D01*
X0028159Y0038675D01*
X0028314Y0038711D01*
X0028469Y0038742D01*
X0028625Y0038770D01*
X0028781Y0038794D01*
X0028938Y0038814D01*
X0029096Y0038830D01*
X0029253Y0038842D01*
X0029412Y0038850D01*
X0029570Y0038854D01*
X0029728Y0038854D01*
X0029886Y0038850D01*
X0030045Y0038842D01*
X0030202Y0038830D01*
X0030360Y0038814D01*
X0030517Y0038794D01*
X0030673Y0038770D01*
X0030829Y0038742D01*
X0030984Y0038711D01*
X0031139Y0038675D01*
X0031292Y0038636D01*
X0031444Y0038593D01*
X0031595Y0038546D01*
X0031745Y0038495D01*
X0031894Y0038440D01*
X0032041Y0038382D01*
X0032187Y0038320D01*
X0032331Y0038255D01*
X0032473Y0038185D01*
X0032614Y0038113D01*
X0032753Y0038036D01*
X0032889Y0037957D01*
X0033024Y0037873D01*
X0033157Y0037787D01*
X0033287Y0037697D01*
X0033415Y0037604D01*
X0033541Y0037508D01*
X0033664Y0037408D01*
X0033785Y0037306D01*
X0033903Y0037201D01*
X0034018Y0037092D01*
X0034131Y0036981D01*
X0034241Y0036867D01*
X0034348Y0036750D01*
X0034452Y0036631D01*
X0034553Y0036509D01*
X0034650Y0036384D01*
X0034745Y0036257D01*
X0034836Y0036128D01*
X0034925Y0035997D01*
X0035009Y0035863D01*
X0035091Y0035727D01*
X0035169Y0035590D01*
X0035243Y0035450D01*
X0035314Y0035308D01*
X0035382Y0035165D01*
X0035446Y0035020D01*
X0035506Y0034874D01*
X0035562Y0034726D01*
X0035615Y0034577D01*
X0035664Y0034426D01*
X0035709Y0034274D01*
X0035750Y0034121D01*
X0035788Y0033968D01*
X0035821Y0033813D01*
X0035851Y0033657D01*
X0035877Y0033501D01*
X0035898Y0033344D01*
X0035916Y0033187D01*
X0035930Y0033029D01*
X0035940Y0032871D01*
X0035946Y0032713D01*
X0035948Y0032555D01*
X0035946Y0032397D01*
X0035940Y0032239D01*
X0035930Y0032081D01*
X0035916Y0031923D01*
X0035898Y0031766D01*
X0035877Y0031609D01*
X0035851Y0031453D01*
X0035821Y0031297D01*
X0035788Y0031142D01*
X0035750Y0030989D01*
X0035709Y0030836D01*
X0035664Y0030684D01*
X0035615Y0030533D01*
X0035562Y0030384D01*
X0035506Y0030236D01*
X0035446Y0030090D01*
X0035382Y0029945D01*
X0035314Y0029802D01*
X0035243Y0029660D01*
X0035169Y0029520D01*
X0035091Y0029383D01*
X0035009Y0029247D01*
X0034925Y0029113D01*
X0034836Y0028982D01*
X0034745Y0028853D01*
X0034650Y0028726D01*
X0034553Y0028601D01*
X0034452Y0028479D01*
X0034348Y0028360D01*
X0034241Y0028243D01*
X0034131Y0028129D01*
X0034018Y0028018D01*
X0033903Y0027909D01*
X0033785Y0027804D01*
X0033664Y0027702D01*
X0033541Y0027602D01*
X0033415Y0027506D01*
X0033287Y0027413D01*
X0033157Y0027323D01*
X0033024Y0027237D01*
X0032889Y0027153D01*
X0032753Y0027074D01*
X0032614Y0026997D01*
X0032473Y0026925D01*
X0032331Y0026855D01*
X0032187Y0026790D01*
X0032041Y0026728D01*
X0031894Y0026670D01*
X0031745Y0026615D01*
X0031595Y0026564D01*
X0031444Y0026517D01*
X0031292Y0026474D01*
X0031139Y0026435D01*
X0030984Y0026399D01*
X0030829Y0026368D01*
X0030673Y0026340D01*
X0030517Y0026316D01*
X0030360Y0026296D01*
X0030202Y0026280D01*
X0030045Y0026268D01*
X0029886Y0026260D01*
X0029728Y0026256D01*
X0029570Y0026256D01*
X0029412Y0026260D01*
X0029253Y0026268D01*
X0029096Y0026280D01*
X0028938Y0026296D01*
X0028781Y0026316D01*
X0028625Y0026340D01*
X0028469Y0026368D01*
X0028314Y0026399D01*
X0028159Y0026435D01*
X0028006Y0026474D01*
X0027854Y0026517D01*
X0027703Y0026564D01*
X0027553Y0026615D01*
X0027404Y0026670D01*
X0027257Y0026728D01*
X0027111Y0026790D01*
X0026967Y0026855D01*
X0026825Y0026925D01*
X0026684Y0026997D01*
X0026545Y0027074D01*
X0026409Y0027153D01*
X0026274Y0027237D01*
X0026141Y0027323D01*
X0026011Y0027413D01*
X0025883Y0027506D01*
X0025757Y0027602D01*
X0025634Y0027702D01*
X0025513Y0027804D01*
X0025395Y0027909D01*
X0025280Y0028018D01*
X0025167Y0028129D01*
X0025057Y0028243D01*
X0024950Y0028360D01*
X0024846Y0028479D01*
X0024745Y0028601D01*
X0024648Y0028726D01*
X0024553Y0028853D01*
X0024462Y0028982D01*
X0024373Y0029113D01*
X0024289Y0029247D01*
X0024207Y0029383D01*
X0024129Y0029520D01*
X0024055Y0029660D01*
X0023984Y0029802D01*
X0023916Y0029945D01*
X0023852Y0030090D01*
X0023792Y0030236D01*
X0023736Y0030384D01*
X0023683Y0030533D01*
X0023634Y0030684D01*
X0023589Y0030836D01*
X0023548Y0030989D01*
X0023510Y0031142D01*
X0023477Y0031297D01*
X0023447Y0031453D01*
X0023421Y0031609D01*
X0023400Y0031766D01*
X0023382Y0031923D01*
X0023368Y0032081D01*
X0023358Y0032239D01*
X0023352Y0032397D01*
X0023350Y0032555D01*
X0023350Y0434917D02*
X0023352Y0435075D01*
X0023358Y0435233D01*
X0023368Y0435391D01*
X0023382Y0435549D01*
X0023400Y0435706D01*
X0023421Y0435863D01*
X0023447Y0436019D01*
X0023477Y0436175D01*
X0023510Y0436330D01*
X0023548Y0436483D01*
X0023589Y0436636D01*
X0023634Y0436788D01*
X0023683Y0436939D01*
X0023736Y0437088D01*
X0023792Y0437236D01*
X0023852Y0437382D01*
X0023916Y0437527D01*
X0023984Y0437670D01*
X0024055Y0437812D01*
X0024129Y0437952D01*
X0024207Y0438089D01*
X0024289Y0438225D01*
X0024373Y0438359D01*
X0024462Y0438490D01*
X0024553Y0438619D01*
X0024648Y0438746D01*
X0024745Y0438871D01*
X0024846Y0438993D01*
X0024950Y0439112D01*
X0025057Y0439229D01*
X0025167Y0439343D01*
X0025280Y0439454D01*
X0025395Y0439563D01*
X0025513Y0439668D01*
X0025634Y0439770D01*
X0025757Y0439870D01*
X0025883Y0439966D01*
X0026011Y0440059D01*
X0026141Y0440149D01*
X0026274Y0440235D01*
X0026409Y0440319D01*
X0026545Y0440398D01*
X0026684Y0440475D01*
X0026825Y0440547D01*
X0026967Y0440617D01*
X0027111Y0440682D01*
X0027257Y0440744D01*
X0027404Y0440802D01*
X0027553Y0440857D01*
X0027703Y0440908D01*
X0027854Y0440955D01*
X0028006Y0440998D01*
X0028159Y0441037D01*
X0028314Y0441073D01*
X0028469Y0441104D01*
X0028625Y0441132D01*
X0028781Y0441156D01*
X0028938Y0441176D01*
X0029096Y0441192D01*
X0029253Y0441204D01*
X0029412Y0441212D01*
X0029570Y0441216D01*
X0029728Y0441216D01*
X0029886Y0441212D01*
X0030045Y0441204D01*
X0030202Y0441192D01*
X0030360Y0441176D01*
X0030517Y0441156D01*
X0030673Y0441132D01*
X0030829Y0441104D01*
X0030984Y0441073D01*
X0031139Y0441037D01*
X0031292Y0440998D01*
X0031444Y0440955D01*
X0031595Y0440908D01*
X0031745Y0440857D01*
X0031894Y0440802D01*
X0032041Y0440744D01*
X0032187Y0440682D01*
X0032331Y0440617D01*
X0032473Y0440547D01*
X0032614Y0440475D01*
X0032753Y0440398D01*
X0032889Y0440319D01*
X0033024Y0440235D01*
X0033157Y0440149D01*
X0033287Y0440059D01*
X0033415Y0439966D01*
X0033541Y0439870D01*
X0033664Y0439770D01*
X0033785Y0439668D01*
X0033903Y0439563D01*
X0034018Y0439454D01*
X0034131Y0439343D01*
X0034241Y0439229D01*
X0034348Y0439112D01*
X0034452Y0438993D01*
X0034553Y0438871D01*
X0034650Y0438746D01*
X0034745Y0438619D01*
X0034836Y0438490D01*
X0034925Y0438359D01*
X0035009Y0438225D01*
X0035091Y0438089D01*
X0035169Y0437952D01*
X0035243Y0437812D01*
X0035314Y0437670D01*
X0035382Y0437527D01*
X0035446Y0437382D01*
X0035506Y0437236D01*
X0035562Y0437088D01*
X0035615Y0436939D01*
X0035664Y0436788D01*
X0035709Y0436636D01*
X0035750Y0436483D01*
X0035788Y0436330D01*
X0035821Y0436175D01*
X0035851Y0436019D01*
X0035877Y0435863D01*
X0035898Y0435706D01*
X0035916Y0435549D01*
X0035930Y0435391D01*
X0035940Y0435233D01*
X0035946Y0435075D01*
X0035948Y0434917D01*
X0035946Y0434759D01*
X0035940Y0434601D01*
X0035930Y0434443D01*
X0035916Y0434285D01*
X0035898Y0434128D01*
X0035877Y0433971D01*
X0035851Y0433815D01*
X0035821Y0433659D01*
X0035788Y0433504D01*
X0035750Y0433351D01*
X0035709Y0433198D01*
X0035664Y0433046D01*
X0035615Y0432895D01*
X0035562Y0432746D01*
X0035506Y0432598D01*
X0035446Y0432452D01*
X0035382Y0432307D01*
X0035314Y0432164D01*
X0035243Y0432022D01*
X0035169Y0431882D01*
X0035091Y0431745D01*
X0035009Y0431609D01*
X0034925Y0431475D01*
X0034836Y0431344D01*
X0034745Y0431215D01*
X0034650Y0431088D01*
X0034553Y0430963D01*
X0034452Y0430841D01*
X0034348Y0430722D01*
X0034241Y0430605D01*
X0034131Y0430491D01*
X0034018Y0430380D01*
X0033903Y0430271D01*
X0033785Y0430166D01*
X0033664Y0430064D01*
X0033541Y0429964D01*
X0033415Y0429868D01*
X0033287Y0429775D01*
X0033157Y0429685D01*
X0033024Y0429599D01*
X0032889Y0429515D01*
X0032753Y0429436D01*
X0032614Y0429359D01*
X0032473Y0429287D01*
X0032331Y0429217D01*
X0032187Y0429152D01*
X0032041Y0429090D01*
X0031894Y0429032D01*
X0031745Y0428977D01*
X0031595Y0428926D01*
X0031444Y0428879D01*
X0031292Y0428836D01*
X0031139Y0428797D01*
X0030984Y0428761D01*
X0030829Y0428730D01*
X0030673Y0428702D01*
X0030517Y0428678D01*
X0030360Y0428658D01*
X0030202Y0428642D01*
X0030045Y0428630D01*
X0029886Y0428622D01*
X0029728Y0428618D01*
X0029570Y0428618D01*
X0029412Y0428622D01*
X0029253Y0428630D01*
X0029096Y0428642D01*
X0028938Y0428658D01*
X0028781Y0428678D01*
X0028625Y0428702D01*
X0028469Y0428730D01*
X0028314Y0428761D01*
X0028159Y0428797D01*
X0028006Y0428836D01*
X0027854Y0428879D01*
X0027703Y0428926D01*
X0027553Y0428977D01*
X0027404Y0429032D01*
X0027257Y0429090D01*
X0027111Y0429152D01*
X0026967Y0429217D01*
X0026825Y0429287D01*
X0026684Y0429359D01*
X0026545Y0429436D01*
X0026409Y0429515D01*
X0026274Y0429599D01*
X0026141Y0429685D01*
X0026011Y0429775D01*
X0025883Y0429868D01*
X0025757Y0429964D01*
X0025634Y0430064D01*
X0025513Y0430166D01*
X0025395Y0430271D01*
X0025280Y0430380D01*
X0025167Y0430491D01*
X0025057Y0430605D01*
X0024950Y0430722D01*
X0024846Y0430841D01*
X0024745Y0430963D01*
X0024648Y0431088D01*
X0024553Y0431215D01*
X0024462Y0431344D01*
X0024373Y0431475D01*
X0024289Y0431609D01*
X0024207Y0431745D01*
X0024129Y0431882D01*
X0024055Y0432022D01*
X0023984Y0432164D01*
X0023916Y0432307D01*
X0023852Y0432452D01*
X0023792Y0432598D01*
X0023736Y0432746D01*
X0023683Y0432895D01*
X0023634Y0433046D01*
X0023589Y0433198D01*
X0023548Y0433351D01*
X0023510Y0433504D01*
X0023477Y0433659D01*
X0023447Y0433815D01*
X0023421Y0433971D01*
X0023400Y0434128D01*
X0023382Y0434285D01*
X0023368Y0434443D01*
X0023358Y0434601D01*
X0023352Y0434759D01*
X0023350Y0434917D01*
X0609964Y0434917D02*
X0609966Y0435075D01*
X0609972Y0435233D01*
X0609982Y0435391D01*
X0609996Y0435549D01*
X0610014Y0435706D01*
X0610035Y0435863D01*
X0610061Y0436019D01*
X0610091Y0436175D01*
X0610124Y0436330D01*
X0610162Y0436483D01*
X0610203Y0436636D01*
X0610248Y0436788D01*
X0610297Y0436939D01*
X0610350Y0437088D01*
X0610406Y0437236D01*
X0610466Y0437382D01*
X0610530Y0437527D01*
X0610598Y0437670D01*
X0610669Y0437812D01*
X0610743Y0437952D01*
X0610821Y0438089D01*
X0610903Y0438225D01*
X0610987Y0438359D01*
X0611076Y0438490D01*
X0611167Y0438619D01*
X0611262Y0438746D01*
X0611359Y0438871D01*
X0611460Y0438993D01*
X0611564Y0439112D01*
X0611671Y0439229D01*
X0611781Y0439343D01*
X0611894Y0439454D01*
X0612009Y0439563D01*
X0612127Y0439668D01*
X0612248Y0439770D01*
X0612371Y0439870D01*
X0612497Y0439966D01*
X0612625Y0440059D01*
X0612755Y0440149D01*
X0612888Y0440235D01*
X0613023Y0440319D01*
X0613159Y0440398D01*
X0613298Y0440475D01*
X0613439Y0440547D01*
X0613581Y0440617D01*
X0613725Y0440682D01*
X0613871Y0440744D01*
X0614018Y0440802D01*
X0614167Y0440857D01*
X0614317Y0440908D01*
X0614468Y0440955D01*
X0614620Y0440998D01*
X0614773Y0441037D01*
X0614928Y0441073D01*
X0615083Y0441104D01*
X0615239Y0441132D01*
X0615395Y0441156D01*
X0615552Y0441176D01*
X0615710Y0441192D01*
X0615867Y0441204D01*
X0616026Y0441212D01*
X0616184Y0441216D01*
X0616342Y0441216D01*
X0616500Y0441212D01*
X0616659Y0441204D01*
X0616816Y0441192D01*
X0616974Y0441176D01*
X0617131Y0441156D01*
X0617287Y0441132D01*
X0617443Y0441104D01*
X0617598Y0441073D01*
X0617753Y0441037D01*
X0617906Y0440998D01*
X0618058Y0440955D01*
X0618209Y0440908D01*
X0618359Y0440857D01*
X0618508Y0440802D01*
X0618655Y0440744D01*
X0618801Y0440682D01*
X0618945Y0440617D01*
X0619087Y0440547D01*
X0619228Y0440475D01*
X0619367Y0440398D01*
X0619503Y0440319D01*
X0619638Y0440235D01*
X0619771Y0440149D01*
X0619901Y0440059D01*
X0620029Y0439966D01*
X0620155Y0439870D01*
X0620278Y0439770D01*
X0620399Y0439668D01*
X0620517Y0439563D01*
X0620632Y0439454D01*
X0620745Y0439343D01*
X0620855Y0439229D01*
X0620962Y0439112D01*
X0621066Y0438993D01*
X0621167Y0438871D01*
X0621264Y0438746D01*
X0621359Y0438619D01*
X0621450Y0438490D01*
X0621539Y0438359D01*
X0621623Y0438225D01*
X0621705Y0438089D01*
X0621783Y0437952D01*
X0621857Y0437812D01*
X0621928Y0437670D01*
X0621996Y0437527D01*
X0622060Y0437382D01*
X0622120Y0437236D01*
X0622176Y0437088D01*
X0622229Y0436939D01*
X0622278Y0436788D01*
X0622323Y0436636D01*
X0622364Y0436483D01*
X0622402Y0436330D01*
X0622435Y0436175D01*
X0622465Y0436019D01*
X0622491Y0435863D01*
X0622512Y0435706D01*
X0622530Y0435549D01*
X0622544Y0435391D01*
X0622554Y0435233D01*
X0622560Y0435075D01*
X0622562Y0434917D01*
X0622560Y0434759D01*
X0622554Y0434601D01*
X0622544Y0434443D01*
X0622530Y0434285D01*
X0622512Y0434128D01*
X0622491Y0433971D01*
X0622465Y0433815D01*
X0622435Y0433659D01*
X0622402Y0433504D01*
X0622364Y0433351D01*
X0622323Y0433198D01*
X0622278Y0433046D01*
X0622229Y0432895D01*
X0622176Y0432746D01*
X0622120Y0432598D01*
X0622060Y0432452D01*
X0621996Y0432307D01*
X0621928Y0432164D01*
X0621857Y0432022D01*
X0621783Y0431882D01*
X0621705Y0431745D01*
X0621623Y0431609D01*
X0621539Y0431475D01*
X0621450Y0431344D01*
X0621359Y0431215D01*
X0621264Y0431088D01*
X0621167Y0430963D01*
X0621066Y0430841D01*
X0620962Y0430722D01*
X0620855Y0430605D01*
X0620745Y0430491D01*
X0620632Y0430380D01*
X0620517Y0430271D01*
X0620399Y0430166D01*
X0620278Y0430064D01*
X0620155Y0429964D01*
X0620029Y0429868D01*
X0619901Y0429775D01*
X0619771Y0429685D01*
X0619638Y0429599D01*
X0619503Y0429515D01*
X0619367Y0429436D01*
X0619228Y0429359D01*
X0619087Y0429287D01*
X0618945Y0429217D01*
X0618801Y0429152D01*
X0618655Y0429090D01*
X0618508Y0429032D01*
X0618359Y0428977D01*
X0618209Y0428926D01*
X0618058Y0428879D01*
X0617906Y0428836D01*
X0617753Y0428797D01*
X0617598Y0428761D01*
X0617443Y0428730D01*
X0617287Y0428702D01*
X0617131Y0428678D01*
X0616974Y0428658D01*
X0616816Y0428642D01*
X0616659Y0428630D01*
X0616500Y0428622D01*
X0616342Y0428618D01*
X0616184Y0428618D01*
X0616026Y0428622D01*
X0615867Y0428630D01*
X0615710Y0428642D01*
X0615552Y0428658D01*
X0615395Y0428678D01*
X0615239Y0428702D01*
X0615083Y0428730D01*
X0614928Y0428761D01*
X0614773Y0428797D01*
X0614620Y0428836D01*
X0614468Y0428879D01*
X0614317Y0428926D01*
X0614167Y0428977D01*
X0614018Y0429032D01*
X0613871Y0429090D01*
X0613725Y0429152D01*
X0613581Y0429217D01*
X0613439Y0429287D01*
X0613298Y0429359D01*
X0613159Y0429436D01*
X0613023Y0429515D01*
X0612888Y0429599D01*
X0612755Y0429685D01*
X0612625Y0429775D01*
X0612497Y0429868D01*
X0612371Y0429964D01*
X0612248Y0430064D01*
X0612127Y0430166D01*
X0612009Y0430271D01*
X0611894Y0430380D01*
X0611781Y0430491D01*
X0611671Y0430605D01*
X0611564Y0430722D01*
X0611460Y0430841D01*
X0611359Y0430963D01*
X0611262Y0431088D01*
X0611167Y0431215D01*
X0611076Y0431344D01*
X0610987Y0431475D01*
X0610903Y0431609D01*
X0610821Y0431745D01*
X0610743Y0431882D01*
X0610669Y0432022D01*
X0610598Y0432164D01*
X0610530Y0432307D01*
X0610466Y0432452D01*
X0610406Y0432598D01*
X0610350Y0432746D01*
X0610297Y0432895D01*
X0610248Y0433046D01*
X0610203Y0433198D01*
X0610162Y0433351D01*
X0610124Y0433504D01*
X0610091Y0433659D01*
X0610061Y0433815D01*
X0610035Y0433971D01*
X0610014Y0434128D01*
X0609996Y0434285D01*
X0609982Y0434443D01*
X0609972Y0434601D01*
X0609966Y0434759D01*
X0609964Y0434917D01*
X0609964Y0032555D02*
X0609966Y0032713D01*
X0609972Y0032871D01*
X0609982Y0033029D01*
X0609996Y0033187D01*
X0610014Y0033344D01*
X0610035Y0033501D01*
X0610061Y0033657D01*
X0610091Y0033813D01*
X0610124Y0033968D01*
X0610162Y0034121D01*
X0610203Y0034274D01*
X0610248Y0034426D01*
X0610297Y0034577D01*
X0610350Y0034726D01*
X0610406Y0034874D01*
X0610466Y0035020D01*
X0610530Y0035165D01*
X0610598Y0035308D01*
X0610669Y0035450D01*
X0610743Y0035590D01*
X0610821Y0035727D01*
X0610903Y0035863D01*
X0610987Y0035997D01*
X0611076Y0036128D01*
X0611167Y0036257D01*
X0611262Y0036384D01*
X0611359Y0036509D01*
X0611460Y0036631D01*
X0611564Y0036750D01*
X0611671Y0036867D01*
X0611781Y0036981D01*
X0611894Y0037092D01*
X0612009Y0037201D01*
X0612127Y0037306D01*
X0612248Y0037408D01*
X0612371Y0037508D01*
X0612497Y0037604D01*
X0612625Y0037697D01*
X0612755Y0037787D01*
X0612888Y0037873D01*
X0613023Y0037957D01*
X0613159Y0038036D01*
X0613298Y0038113D01*
X0613439Y0038185D01*
X0613581Y0038255D01*
X0613725Y0038320D01*
X0613871Y0038382D01*
X0614018Y0038440D01*
X0614167Y0038495D01*
X0614317Y0038546D01*
X0614468Y0038593D01*
X0614620Y0038636D01*
X0614773Y0038675D01*
X0614928Y0038711D01*
X0615083Y0038742D01*
X0615239Y0038770D01*
X0615395Y0038794D01*
X0615552Y0038814D01*
X0615710Y0038830D01*
X0615867Y0038842D01*
X0616026Y0038850D01*
X0616184Y0038854D01*
X0616342Y0038854D01*
X0616500Y0038850D01*
X0616659Y0038842D01*
X0616816Y0038830D01*
X0616974Y0038814D01*
X0617131Y0038794D01*
X0617287Y0038770D01*
X0617443Y0038742D01*
X0617598Y0038711D01*
X0617753Y0038675D01*
X0617906Y0038636D01*
X0618058Y0038593D01*
X0618209Y0038546D01*
X0618359Y0038495D01*
X0618508Y0038440D01*
X0618655Y0038382D01*
X0618801Y0038320D01*
X0618945Y0038255D01*
X0619087Y0038185D01*
X0619228Y0038113D01*
X0619367Y0038036D01*
X0619503Y0037957D01*
X0619638Y0037873D01*
X0619771Y0037787D01*
X0619901Y0037697D01*
X0620029Y0037604D01*
X0620155Y0037508D01*
X0620278Y0037408D01*
X0620399Y0037306D01*
X0620517Y0037201D01*
X0620632Y0037092D01*
X0620745Y0036981D01*
X0620855Y0036867D01*
X0620962Y0036750D01*
X0621066Y0036631D01*
X0621167Y0036509D01*
X0621264Y0036384D01*
X0621359Y0036257D01*
X0621450Y0036128D01*
X0621539Y0035997D01*
X0621623Y0035863D01*
X0621705Y0035727D01*
X0621783Y0035590D01*
X0621857Y0035450D01*
X0621928Y0035308D01*
X0621996Y0035165D01*
X0622060Y0035020D01*
X0622120Y0034874D01*
X0622176Y0034726D01*
X0622229Y0034577D01*
X0622278Y0034426D01*
X0622323Y0034274D01*
X0622364Y0034121D01*
X0622402Y0033968D01*
X0622435Y0033813D01*
X0622465Y0033657D01*
X0622491Y0033501D01*
X0622512Y0033344D01*
X0622530Y0033187D01*
X0622544Y0033029D01*
X0622554Y0032871D01*
X0622560Y0032713D01*
X0622562Y0032555D01*
X0622560Y0032397D01*
X0622554Y0032239D01*
X0622544Y0032081D01*
X0622530Y0031923D01*
X0622512Y0031766D01*
X0622491Y0031609D01*
X0622465Y0031453D01*
X0622435Y0031297D01*
X0622402Y0031142D01*
X0622364Y0030989D01*
X0622323Y0030836D01*
X0622278Y0030684D01*
X0622229Y0030533D01*
X0622176Y0030384D01*
X0622120Y0030236D01*
X0622060Y0030090D01*
X0621996Y0029945D01*
X0621928Y0029802D01*
X0621857Y0029660D01*
X0621783Y0029520D01*
X0621705Y0029383D01*
X0621623Y0029247D01*
X0621539Y0029113D01*
X0621450Y0028982D01*
X0621359Y0028853D01*
X0621264Y0028726D01*
X0621167Y0028601D01*
X0621066Y0028479D01*
X0620962Y0028360D01*
X0620855Y0028243D01*
X0620745Y0028129D01*
X0620632Y0028018D01*
X0620517Y0027909D01*
X0620399Y0027804D01*
X0620278Y0027702D01*
X0620155Y0027602D01*
X0620029Y0027506D01*
X0619901Y0027413D01*
X0619771Y0027323D01*
X0619638Y0027237D01*
X0619503Y0027153D01*
X0619367Y0027074D01*
X0619228Y0026997D01*
X0619087Y0026925D01*
X0618945Y0026855D01*
X0618801Y0026790D01*
X0618655Y0026728D01*
X0618508Y0026670D01*
X0618359Y0026615D01*
X0618209Y0026564D01*
X0618058Y0026517D01*
X0617906Y0026474D01*
X0617753Y0026435D01*
X0617598Y0026399D01*
X0617443Y0026368D01*
X0617287Y0026340D01*
X0617131Y0026316D01*
X0616974Y0026296D01*
X0616816Y0026280D01*
X0616659Y0026268D01*
X0616500Y0026260D01*
X0616342Y0026256D01*
X0616184Y0026256D01*
X0616026Y0026260D01*
X0615867Y0026268D01*
X0615710Y0026280D01*
X0615552Y0026296D01*
X0615395Y0026316D01*
X0615239Y0026340D01*
X0615083Y0026368D01*
X0614928Y0026399D01*
X0614773Y0026435D01*
X0614620Y0026474D01*
X0614468Y0026517D01*
X0614317Y0026564D01*
X0614167Y0026615D01*
X0614018Y0026670D01*
X0613871Y0026728D01*
X0613725Y0026790D01*
X0613581Y0026855D01*
X0613439Y0026925D01*
X0613298Y0026997D01*
X0613159Y0027074D01*
X0613023Y0027153D01*
X0612888Y0027237D01*
X0612755Y0027323D01*
X0612625Y0027413D01*
X0612497Y0027506D01*
X0612371Y0027602D01*
X0612248Y0027702D01*
X0612127Y0027804D01*
X0612009Y0027909D01*
X0611894Y0028018D01*
X0611781Y0028129D01*
X0611671Y0028243D01*
X0611564Y0028360D01*
X0611460Y0028479D01*
X0611359Y0028601D01*
X0611262Y0028726D01*
X0611167Y0028853D01*
X0611076Y0028982D01*
X0610987Y0029113D01*
X0610903Y0029247D01*
X0610821Y0029383D01*
X0610743Y0029520D01*
X0610669Y0029660D01*
X0610598Y0029802D01*
X0610530Y0029945D01*
X0610466Y0030090D01*
X0610406Y0030236D01*
X0610350Y0030384D01*
X0610297Y0030533D01*
X0610248Y0030684D01*
X0610203Y0030836D01*
X0610162Y0030989D01*
X0610124Y0031142D01*
X0610091Y0031297D01*
X0610061Y0031453D01*
X0610035Y0031609D01*
X0610014Y0031766D01*
X0609996Y0031923D01*
X0609982Y0032081D01*
X0609972Y0032239D01*
X0609966Y0032397D01*
X0609964Y0032555D01*
M02*
