%
M48
M72
T01C0.01969
T02C0.03150
T03C0.03600
T04C0.05118
T05C0.12598
%
T01
X76454Y188244
X79054Y191744
X81654Y195744
X85238Y199244
X88822Y195744
X76838Y240744
X76838Y245913
X81457Y246363
X81491Y251397
X86026Y251932
T02
X97838Y250744
X97838Y290744
X97838Y320744
X97838Y360744
X182838Y360744
X182838Y320744
X182838Y290744
X182838Y250744
X182838Y215744
X182838Y175744
X182838Y145744
X182838Y105744
X267838Y105744
X267838Y145744
X267838Y175744
X267838Y215744
X267838Y250744
X267838Y290744
X267838Y320744
X267838Y360744
X352838Y360744
X352838Y320744
X352838Y290744
X352838Y250744
X352838Y215744
X352838Y175744
X352838Y145744
X352838Y105744
X437838Y105744
X437838Y145744
X437838Y175744
X437838Y215744
X437838Y250744
X437838Y290744
X437838Y320744
X437838Y360744
X522838Y360744
X522838Y320744
X522838Y290744
X522838Y250744
X522838Y215744
X522838Y175744
X522838Y145744
X522838Y105744
X607838Y105744
X607838Y145744
X607838Y175744
X607838Y215744
T03
X62838Y215744
X52838Y215744
X52838Y205744
X62838Y205744
X62838Y195744
X52838Y195744
X52838Y185744
X62838Y185744
X62838Y175744
X52838Y175744
X52838Y225744
X62838Y225744
X62838Y235744
X52838Y235744
X52838Y245744
X62838Y245744
X62838Y255744
X52838Y255744
X52838Y265744
X62838Y265744
X62838Y275744
X52838Y275744
X52838Y285744
X62838Y285744
X62838Y295744
X52838Y295744
T04
X117838Y290744
X117838Y270744
X117838Y250744
X162838Y215744
X162838Y195744
X162838Y175744
X197838Y175744
X212838Y175744
X247838Y175744
X247838Y195744
X247838Y215744
X282838Y175744
X297838Y175744
X332838Y175744
X332838Y195744
X332838Y215744
X367838Y175744
X382838Y175744
X417838Y175744
X417838Y195744
X417838Y215744
X452838Y175744
X467838Y175744
X502838Y175744
X502838Y195744
X502838Y215744
X537838Y175744
X552838Y175744
X587838Y175744
X587838Y195744
X587838Y215744
X542838Y250744
X542838Y270744
X542838Y290744
X507838Y290744
X492838Y290744
X457838Y290744
X457838Y270744
X457838Y250744
X422838Y290744
X407838Y290744
X372838Y290744
X372838Y270744
X372838Y250744
X337838Y290744
X322838Y290744
X287838Y290744
X287838Y270744
X287838Y250744
X252838Y290744
X237838Y290744
X202838Y290744
X202838Y270744
X202838Y250744
X167838Y290744
X152838Y290744
X117838Y320744
X117838Y340744
X117838Y360744
X152838Y360744
X167838Y360744
X202838Y360744
X202838Y340744
X202838Y320744
X237838Y360744
X252838Y360744
X287838Y360744
X287838Y340744
X287838Y320744
X322838Y360744
X337838Y360744
X372838Y360744
X372838Y340744
X372838Y320744
X407838Y360744
X422838Y360744
X457838Y360744
X457838Y340744
X457838Y320744
X492838Y360744
X507838Y360744
X542838Y360744
X542838Y340744
X542838Y320744
X577838Y290744
X592838Y290744
X592838Y360744
X577838Y360744
X587838Y400744
X567838Y400744
X547838Y400744
X527838Y400744
X507838Y400744
X487838Y400744
X467838Y400744
X447838Y400744
X427838Y400744
X407838Y400744
X387838Y400744
X367838Y400744
X347838Y400744
X327838Y400744
X307838Y400744
X287838Y400744
X267838Y400744
X247838Y400744
X227838Y400744
X207838Y400744
X187838Y400744
X167838Y400744
X147838Y400744
X127838Y400744
X127838Y430744
X147838Y430744
X167838Y430744
X187838Y430744
X207838Y430744
X227838Y430744
X247838Y430744
X267838Y430744
X287838Y430744
X307838Y430744
X327838Y430744
X347838Y430744
X367838Y430744
X387838Y430744
X407838Y430744
X427838Y430744
X447838Y430744
X467838Y430744
X487838Y430744
X507838Y430744
X527838Y430744
X547838Y430744
X567838Y430744
X587838Y430744
X587838Y145744
X587838Y125744
X587838Y105744
X552838Y105744
X537838Y105744
X502838Y105744
X502838Y125744
X502838Y145744
X467838Y105744
X452838Y105744
X417838Y105744
X417838Y125744
X417838Y145744
X382838Y105744
X367838Y105744
X332838Y105744
X332838Y125744
X332838Y145744
X297838Y105744
X282838Y105744
X247838Y105744
X247838Y125744
X247838Y145744
X212838Y105744
X197838Y105744
X162838Y105744
X162838Y125744
X162838Y145744
X127838Y175744
X112838Y175744
X112838Y105744
X127838Y105744
X122838Y66744
X142838Y66744
X162838Y66744
X182838Y66744
X202838Y66744
X222838Y66744
X242838Y66744
X262838Y66744
X282838Y66744
X302838Y66744
X322838Y66744
X342838Y66744
X362838Y66744
X382838Y66744
X402838Y66744
X422838Y66744
X442838Y66744
X462838Y66744
X482838Y66744
X502838Y66744
X522838Y66744
X542838Y66744
X562838Y66744
X582838Y66744
X582838Y36744
X562838Y36744
X542838Y36744
X522838Y36744
X502838Y36744
X482838Y36744
X462838Y36744
X442838Y36744
X422838Y36744
X402838Y36744
X382838Y36744
X362838Y36744
X342838Y36744
X322838Y36744
X302838Y36744
X282838Y36744
X262838Y36744
X242838Y36744
X222838Y36744
X202838Y36744
X182838Y36744
X162838Y36744
X142838Y36744
X122838Y36744
X71617Y36650
X51617Y36650
X51617Y66650
X71617Y66650
T05
X29649Y32555
X29649Y434917
X616263Y434917
X616263Y32555
M30
