G75*
%MOIN*%
%OFA0B0*%
%FSLAX25Y25*%
%IPPOS*%
%LPD*%
%AMOC8*
5,1,8,0,0,1.08239X$1,22.5*
%
%ADD10C,0.06400*%
%ADD11OC8,0.06400*%
%ADD12C,0.07887*%
%ADD13C,0.08477*%
%ADD14C,0.10800*%
%ADD15C,0.09400*%
%ADD16C,0.13398*%
%ADD17C,0.04369*%
D10*
X0062838Y0175744D03*
D11*
X0052838Y0175744D03*
X0052838Y0185744D03*
X0062838Y0185744D03*
X0062838Y0195744D03*
X0052838Y0195744D03*
X0052838Y0205744D03*
X0062838Y0205744D03*
X0062838Y0215744D03*
X0052838Y0215744D03*
X0052838Y0225744D03*
X0062838Y0225744D03*
X0062838Y0235744D03*
X0052838Y0235744D03*
X0052838Y0245744D03*
X0062838Y0245744D03*
X0062838Y0255744D03*
X0052838Y0255744D03*
X0052838Y0265744D03*
X0062838Y0265744D03*
X0062838Y0275744D03*
X0052838Y0275744D03*
X0052838Y0285744D03*
X0062838Y0285744D03*
X0062838Y0295744D03*
X0052838Y0295744D03*
D12*
X0097838Y0290744D03*
X0097838Y0320744D03*
X0097838Y0360744D03*
X0182838Y0360744D03*
X0182838Y0320744D03*
X0182838Y0290744D03*
X0182838Y0250744D03*
X0182838Y0215744D03*
X0182838Y0175744D03*
X0182838Y0145744D03*
X0182838Y0105744D03*
X0267838Y0105744D03*
X0267838Y0145744D03*
X0267838Y0175744D03*
X0267838Y0215744D03*
X0267838Y0250744D03*
X0267838Y0290744D03*
X0267838Y0320744D03*
X0267838Y0360744D03*
X0352838Y0360744D03*
X0352838Y0320744D03*
X0352838Y0290744D03*
X0352838Y0250744D03*
X0352838Y0215744D03*
X0352838Y0175744D03*
X0352838Y0145744D03*
X0352838Y0105744D03*
X0437838Y0105744D03*
X0437838Y0145744D03*
X0437838Y0175744D03*
X0437838Y0215744D03*
X0437838Y0250744D03*
X0437838Y0290744D03*
X0437838Y0320744D03*
X0437838Y0360744D03*
X0522838Y0360744D03*
X0522838Y0320744D03*
X0522838Y0290744D03*
X0522838Y0250744D03*
X0522838Y0215744D03*
X0522838Y0175744D03*
X0522838Y0145744D03*
X0522838Y0105744D03*
X0607838Y0105744D03*
X0607838Y0145744D03*
X0607838Y0175744D03*
X0607838Y0215744D03*
X0097838Y0250744D03*
D13*
X0117838Y0250744D03*
X0117838Y0270744D03*
X0117838Y0290744D03*
X0152838Y0290744D03*
X0167838Y0290744D03*
X0202838Y0290744D03*
X0202838Y0270744D03*
X0202838Y0250744D03*
X0162838Y0215744D03*
X0162838Y0195744D03*
X0162838Y0175744D03*
X0197838Y0175744D03*
X0212838Y0175744D03*
X0247838Y0175744D03*
X0247838Y0195744D03*
X0247838Y0215744D03*
X0282838Y0175744D03*
X0297838Y0175744D03*
X0332838Y0175744D03*
X0332838Y0195744D03*
X0332838Y0215744D03*
X0367838Y0175744D03*
X0382838Y0175744D03*
X0417838Y0175744D03*
X0417838Y0195744D03*
X0417838Y0215744D03*
X0452838Y0175744D03*
X0467838Y0175744D03*
X0502838Y0175744D03*
X0502838Y0195744D03*
X0502838Y0215744D03*
X0537838Y0175744D03*
X0552838Y0175744D03*
X0587838Y0175744D03*
X0587838Y0195744D03*
X0587838Y0215744D03*
X0542838Y0250744D03*
X0542838Y0270744D03*
X0542838Y0290744D03*
X0507838Y0290744D03*
X0492838Y0290744D03*
X0457838Y0290744D03*
X0457838Y0270744D03*
X0457838Y0250744D03*
X0422838Y0290744D03*
X0407838Y0290744D03*
X0372838Y0290744D03*
X0372838Y0270744D03*
X0372838Y0250744D03*
X0337838Y0290744D03*
X0322838Y0290744D03*
X0287838Y0290744D03*
X0287838Y0270744D03*
X0287838Y0250744D03*
X0252838Y0290744D03*
X0237838Y0290744D03*
X0202838Y0320744D03*
X0202838Y0340744D03*
X0202838Y0360744D03*
X0167838Y0360744D03*
X0152838Y0360744D03*
X0117838Y0360744D03*
X0117838Y0340744D03*
X0117838Y0320744D03*
X0237838Y0360744D03*
X0252838Y0360744D03*
X0287838Y0360744D03*
X0287838Y0340744D03*
X0287838Y0320744D03*
X0322838Y0360744D03*
X0337838Y0360744D03*
X0372838Y0360744D03*
X0372838Y0340744D03*
X0372838Y0320744D03*
X0407838Y0360744D03*
X0422838Y0360744D03*
X0457838Y0360744D03*
X0457838Y0340744D03*
X0457838Y0320744D03*
X0492838Y0360744D03*
X0507838Y0360744D03*
X0542838Y0360744D03*
X0542838Y0340744D03*
X0542838Y0320744D03*
X0577838Y0290744D03*
X0592838Y0290744D03*
X0592838Y0360744D03*
X0577838Y0360744D03*
X0587838Y0145744D03*
X0587838Y0125744D03*
X0587838Y0105744D03*
X0552838Y0105744D03*
X0537838Y0105744D03*
X0502838Y0105744D03*
X0502838Y0125744D03*
X0502838Y0145744D03*
X0467838Y0105744D03*
X0452838Y0105744D03*
X0417838Y0105744D03*
X0417838Y0125744D03*
X0417838Y0145744D03*
X0382838Y0105744D03*
X0367838Y0105744D03*
X0332838Y0105744D03*
X0332838Y0125744D03*
X0332838Y0145744D03*
X0297838Y0105744D03*
X0282838Y0105744D03*
X0247838Y0105744D03*
X0247838Y0125744D03*
X0247838Y0145744D03*
X0212838Y0105744D03*
X0197838Y0105744D03*
X0162838Y0105744D03*
X0162838Y0125744D03*
X0162838Y0145744D03*
X0127838Y0175744D03*
X0112838Y0175744D03*
X0112838Y0105744D03*
X0127838Y0105744D03*
D14*
X0071617Y0066650D03*
X0051617Y0066650D03*
X0051617Y0036650D03*
X0071617Y0036650D03*
D15*
X0122838Y0036744D03*
X0142838Y0036744D03*
X0162838Y0036744D03*
X0182838Y0036744D03*
X0202838Y0036744D03*
X0222838Y0036744D03*
X0242838Y0036744D03*
X0262838Y0036744D03*
X0282838Y0036744D03*
X0302838Y0036744D03*
X0322838Y0036744D03*
X0342838Y0036744D03*
X0362838Y0036744D03*
X0382838Y0036744D03*
X0402838Y0036744D03*
X0422838Y0036744D03*
X0442838Y0036744D03*
X0462838Y0036744D03*
X0482838Y0036744D03*
X0502838Y0036744D03*
X0522838Y0036744D03*
X0542838Y0036744D03*
X0562838Y0036744D03*
X0582838Y0036744D03*
X0582838Y0066744D03*
X0562838Y0066744D03*
X0542838Y0066744D03*
X0522838Y0066744D03*
X0502838Y0066744D03*
X0482838Y0066744D03*
X0462838Y0066744D03*
X0442838Y0066744D03*
X0422838Y0066744D03*
X0402838Y0066744D03*
X0382838Y0066744D03*
X0362838Y0066744D03*
X0342838Y0066744D03*
X0322838Y0066744D03*
X0302838Y0066744D03*
X0282838Y0066744D03*
X0262838Y0066744D03*
X0242838Y0066744D03*
X0222838Y0066744D03*
X0202838Y0066744D03*
X0182838Y0066744D03*
X0162838Y0066744D03*
X0142838Y0066744D03*
X0122838Y0066744D03*
X0127838Y0400744D03*
X0147838Y0400744D03*
X0167838Y0400744D03*
X0187838Y0400744D03*
X0207838Y0400744D03*
X0227838Y0400744D03*
X0247838Y0400744D03*
X0267838Y0400744D03*
X0287838Y0400744D03*
X0307838Y0400744D03*
X0327838Y0400744D03*
X0347838Y0400744D03*
X0367838Y0400744D03*
X0387838Y0400744D03*
X0407838Y0400744D03*
X0427838Y0400744D03*
X0447838Y0400744D03*
X0467838Y0400744D03*
X0487838Y0400744D03*
X0507838Y0400744D03*
X0527838Y0400744D03*
X0547838Y0400744D03*
X0567838Y0400744D03*
X0587838Y0400744D03*
X0587838Y0430744D03*
X0567838Y0430744D03*
X0547838Y0430744D03*
X0527838Y0430744D03*
X0507838Y0430744D03*
X0487838Y0430744D03*
X0467838Y0430744D03*
X0447838Y0430744D03*
X0427838Y0430744D03*
X0407838Y0430744D03*
X0387838Y0430744D03*
X0367838Y0430744D03*
X0347838Y0430744D03*
X0327838Y0430744D03*
X0307838Y0430744D03*
X0287838Y0430744D03*
X0267838Y0430744D03*
X0247838Y0430744D03*
X0227838Y0430744D03*
X0207838Y0430744D03*
X0187838Y0430744D03*
X0167838Y0430744D03*
X0147838Y0430744D03*
X0127838Y0430744D03*
D16*
X0029649Y0032555D03*
X0029649Y0434917D03*
X0616263Y0434917D03*
X0616263Y0032555D03*
D17*
X0088822Y0195744D03*
X0085238Y0199244D03*
X0081654Y0195744D03*
X0079054Y0191744D03*
X0076454Y0188244D03*
X0076838Y0240744D03*
X0076838Y0245913D03*
X0081457Y0246363D03*
X0081491Y0251397D03*
X0086026Y0251932D03*
M02*
